solid 
 facet normal  1.000000e+00 -2.220446e-16  0.000000e+00
   outer loop
     vertex  1.000000e+00 -5.000000e-01 -3.000000e+00
     vertex  1.000000e+00 -1.000000e+00 -3.000000e+00
     vertex  1.000000e+00 -1.000000e+00 -5.000000e+00
   endloop
 endfacet
 facet normal  1.000000e+00 -5.551115e-17 -1.387779e-17
   outer loop
     vertex  1.000000e+00  5.000000e-01 -3.000000e+00
     vertex  1.000000e+00 -1.000000e+00 -5.000000e+00
     vertex  1.000000e+00  1.000000e+00 -5.000000e+00
   endloop
 endfacet
 facet normal  1.000000e+00  0.000000e+00 -5.551115e-17
   outer loop
     vertex  1.000000e+00  5.000000e-01 -3.000000e+00
     vertex  1.000000e+00 -5.000000e-01 -3.000000e+00
     vertex  1.000000e+00 -1.000000e+00 -5.000000e+00
   endloop
 endfacet
 facet normal  1.000000e+00  0.000000e+00  0.000000e+00
   outer loop
     vertex  1.000000e+00  1.000000e+00 -3.000000e+00
     vertex  1.000000e+00  5.000000e-01 -3.000000e+00
     vertex  1.000000e+00  1.000000e+00 -5.000000e+00
   endloop
 endfacet
 facet normal  1.000000e+00  0.000000e+00  0.000000e+00
   outer loop
     vertex  1.000000e+00  5.000000e-01  3.000000e+00
     vertex  1.000000e+00 -5.000000e-01  3.000000e+00
     vertex  1.000000e+00 -5.000000e-01 -3.000000e+00
   endloop
 endfacet
 facet normal  1.000000e+00  0.000000e+00  0.000000e+00
   outer loop
     vertex  1.000000e+00  5.000000e-01  3.000000e+00
     vertex  1.000000e+00 -5.000000e-01 -3.000000e+00
     vertex  1.000000e+00  5.000000e-01 -3.000000e+00
   endloop
 endfacet
 facet normal -5.551115e-17 -1.000000e+00  0.000000e+00
   outer loop
     vertex  1.000000e+00 -1.000000e+00 -3.000000e+00
     vertex -1.000000e+00 -1.000000e+00 -3.000000e+00
     vertex -1.000000e+00 -1.000000e+00 -5.000000e+00
   endloop
 endfacet
 facet normal -5.551115e-17 -1.000000e+00 -0.000000e+00
   outer loop
     vertex  1.000000e+00 -1.000000e+00 -3.000000e+00
     vertex -1.000000e+00 -1.000000e+00 -5.000000e+00
     vertex  1.000000e+00 -1.000000e+00 -5.000000e+00
   endloop
 endfacet
 facet normal  5.551115e-17  1.000000e+00  0.000000e+00
   outer loop
     vertex -1.000000e+00  1.000000e+00 -3.000000e+00
     vertex  1.000000e+00  1.000000e+00 -3.000000e+00
     vertex  1.000000e+00  1.000000e+00 -5.000000e+00
   endloop
 endfacet
 facet normal  5.551115e-17  1.000000e+00  0.000000e+00
   outer loop
     vertex -1.000000e+00  1.000000e+00 -3.000000e+00
     vertex  1.000000e+00  1.000000e+00 -5.000000e+00
     vertex -1.000000e+00  1.000000e+00 -5.000000e+00
   endloop
 endfacet
 facet normal  0.000000e+00  0.000000e+00  1.000000e+00
   outer loop
     vertex -1.000000e+00 -5.000000e-01 -3.000000e+00
     vertex -1.000000e+00 -1.000000e+00 -3.000000e+00
     vertex  1.000000e+00 -1.000000e+00 -3.000000e+00
   endloop
 endfacet
 facet normal  0.000000e+00  0.000000e+00  1.000000e+00
   outer loop
     vertex -1.000000e+00 -5.000000e-01 -3.000000e+00
     vertex  1.000000e+00 -1.000000e+00 -3.000000e+00
     vertex  1.000000e+00 -5.000000e-01 -3.000000e+00
   endloop
 endfacet
 facet normal  0.000000e+00  0.000000e+00  1.000000e+00
   outer loop
     vertex -1.000000e+00  1.000000e+00 -3.000000e+00
     vertex -1.000000e+00  5.000000e-01 -3.000000e+00
     vertex  1.000000e+00  5.000000e-01 -3.000000e+00
   endloop
 endfacet
 facet normal  0.000000e+00  0.000000e+00  1.000000e+00
   outer loop
     vertex -1.000000e+00  1.000000e+00 -3.000000e+00
     vertex  1.000000e+00  5.000000e-01 -3.000000e+00
     vertex  1.000000e+00  1.000000e+00 -3.000000e+00
   endloop
 endfacet
 facet normal  0.000000e+00  0.000000e+00 -1.000000e+00
   outer loop
     vertex -1.000000e+00  1.000000e+00 -5.000000e+00
     vertex  1.000000e+00  1.000000e+00 -5.000000e+00
     vertex  1.000000e+00 -1.000000e+00 -5.000000e+00
   endloop
 endfacet
 facet normal  0.000000e+00 -0.000000e+00 -1.000000e+00
   outer loop
     vertex -1.000000e+00  1.000000e+00 -5.000000e+00
     vertex  1.000000e+00 -1.000000e+00 -5.000000e+00
     vertex -1.000000e+00 -1.000000e+00 -5.000000e+00
   endloop
 endfacet
 facet normal -1.000000e+00  2.220446e-16  0.000000e+00
   outer loop
     vertex -1.000000e+00  5.000000e-01 -3.000000e+00
     vertex -1.000000e+00  1.000000e+00 -3.000000e+00
     vertex -1.000000e+00  1.000000e+00 -5.000000e+00
   endloop
 endfacet
 facet normal -1.000000e+00  5.551115e-17 -1.387779e-17
   outer loop
     vertex -1.000000e+00 -5.000000e-01 -3.000000e+00
     vertex -1.000000e+00  1.000000e+00 -5.000000e+00
     vertex -1.000000e+00 -1.000000e+00 -5.000000e+00
   endloop
 endfacet
 facet normal -1.000000e+00  0.000000e+00 -5.551115e-17
   outer loop
     vertex -1.000000e+00 -5.000000e-01 -3.000000e+00
     vertex -1.000000e+00  5.000000e-01 -3.000000e+00
     vertex -1.000000e+00  1.000000e+00 -5.000000e+00
   endloop
 endfacet
 facet normal -1.000000e+00  0.000000e+00  0.000000e+00
   outer loop
     vertex -1.000000e+00 -1.000000e+00 -3.000000e+00
     vertex -1.000000e+00 -5.000000e-01 -3.000000e+00
     vertex -1.000000e+00 -1.000000e+00 -5.000000e+00
   endloop
 endfacet
 facet normal -1.000000e+00  0.000000e+00  0.000000e+00
   outer loop
     vertex -1.000000e+00 -5.000000e-01  3.000000e+00
     vertex -1.000000e+00  5.000000e-01  3.000000e+00
     vertex -1.000000e+00  5.000000e-01 -3.000000e+00
   endloop
 endfacet
 facet normal -1.000000e+00  0.000000e+00  0.000000e+00
   outer loop
     vertex -1.000000e+00 -5.000000e-01  3.000000e+00
     vertex -1.000000e+00  5.000000e-01 -3.000000e+00
     vertex -1.000000e+00 -5.000000e-01 -3.000000e+00
   endloop
 endfacet
 facet normal -1.110223e-16 -1.000000e+00  0.000000e+00
   outer loop
     vertex -1.000000e+00 -5.000000e-01 -3.000000e+00
     vertex  1.000000e+00 -5.000000e-01  3.000000e+00
     vertex -1.000000e+00 -5.000000e-01  3.000000e+00
   endloop
 endfacet
 facet normal -1.110223e-16 -1.000000e+00  0.000000e+00
   outer loop
     vertex -1.000000e+00 -5.000000e-01 -3.000000e+00
     vertex  1.000000e+00 -5.000000e-01 -3.000000e+00
     vertex  1.000000e+00 -5.000000e-01  3.000000e+00
   endloop
 endfacet
 facet normal  1.110223e-16  1.000000e+00  0.000000e+00
   outer loop
     vertex -1.000000e+00  5.000000e-01  3.000000e+00
     vertex  1.000000e+00  5.000000e-01  3.000000e+00
     vertex  1.000000e+00  5.000000e-01 -3.000000e+00
   endloop
 endfacet
 facet normal  1.110223e-16  1.000000e+00  0.000000e+00
   outer loop
     vertex -1.000000e+00  5.000000e-01  3.000000e+00
     vertex  1.000000e+00  5.000000e-01 -3.000000e+00
     vertex -1.000000e+00  5.000000e-01 -3.000000e+00
   endloop
 endfacet
 facet normal -0.000000e+00  0.000000e+00  1.000000e+00
   outer loop
     vertex -1.000000e+00 -5.000000e-01  3.000000e+00
     vertex  1.000000e+00 -5.000000e-01  3.000000e+00
     vertex  1.000000e+00  5.000000e-01  3.000000e+00
   endloop
 endfacet
 facet normal  0.000000e+00  0.000000e+00  1.000000e+00
   outer loop
     vertex -1.000000e+00 -5.000000e-01  3.000000e+00
     vertex  1.000000e+00  5.000000e-01  3.000000e+00
     vertex -1.000000e+00  5.000000e-01  3.000000e+00
   endloop
 endfacet
endsolid
