solid 
 facet normal  0.000000e+00 -1.000000e+00  0.000000e+00
   outer loop
     vertex  4.900000e+00  0.000000e+00  0.000000e+00
     vertex  0.000000e+00  0.000000e+00  1.000000e+01
     vertex  0.000000e+00  0.000000e+00  0.000000e+00
   endloop
 endfacet
 facet normal  0.000000e+00 -1.000000e+00  0.000000e+00
   outer loop
     vertex  4.900000e+00  0.000000e+00  0.000000e+00
     vertex  4.900000e+00  0.000000e+00  1.000000e+01
     vertex  0.000000e+00  0.000000e+00  1.000000e+01
   endloop
 endfacet
 facet normal  1.000000e+00  0.000000e+00  0.000000e+00
   outer loop
     vertex  4.900000e+00  1.500000e+00  0.000000e+00
     vertex  4.900000e+00  0.000000e+00  1.000000e+01
     vertex  4.900000e+00  0.000000e+00  0.000000e+00
   endloop
 endfacet
 facet normal  1.000000e+00  0.000000e+00 -0.000000e+00
   outer loop
     vertex  4.900000e+00  1.500000e+00  0.000000e+00
     vertex  4.900000e+00  1.500000e+00  1.000000e+01
     vertex  4.900000e+00  0.000000e+00  1.000000e+01
   endloop
 endfacet
 facet normal  0.000000e+00  1.000000e+00  0.000000e+00
   outer loop
     vertex  4.000000e+00  1.500000e+00  0.000000e+00
     vertex  4.900000e+00  1.500000e+00  1.000000e+01
     vertex  4.900000e+00  1.500000e+00  0.000000e+00
   endloop
 endfacet
 facet normal  0.000000e+00  1.000000e+00  0.000000e+00
   outer loop
     vertex  4.000000e+00  1.500000e+00  0.000000e+00
     vertex  4.000000e+00  1.500000e+00  1.000000e+01
     vertex  4.900000e+00  1.500000e+00  1.000000e+01
   endloop
 endfacet
 facet normal  9.637300e-01 -2.668791e-01  0.000000e+00
   outer loop
     vertex  4.900000e+00  4.750000e+00  0.000000e+00
     vertex  4.000000e+00  1.500000e+00  1.000000e+01
     vertex  4.000000e+00  1.500000e+00  0.000000e+00
   endloop
 endfacet
 facet normal  9.637300e-01 -2.668791e-01  0.000000e+00
   outer loop
     vertex  4.900000e+00  4.750000e+00  0.000000e+00
     vertex  4.900000e+00  4.750000e+00  1.000000e+01
     vertex  4.000000e+00  1.500000e+00  1.000000e+01
   endloop
 endfacet
 facet normal  9.637300e-01  2.668791e-01  0.000000e+00
   outer loop
     vertex  2.200000e+00  1.450000e+01  0.000000e+00
     vertex  4.900000e+00  4.750000e+00  1.000000e+01
     vertex  4.900000e+00  4.750000e+00  0.000000e+00
   endloop
 endfacet
 facet normal  9.637300e-01  2.668791e-01 -0.000000e+00
   outer loop
     vertex  2.200000e+00  1.450000e+01  0.000000e+00
     vertex  2.200000e+00  1.450000e+01  1.000000e+01
     vertex  4.900000e+00  4.750000e+00  1.000000e+01
   endloop
 endfacet
 facet normal -9.472160e-01  3.205962e-01  0.000000e+00
   outer loop
     vertex  0.000000e+00  8.000000e+00  0.000000e+00
     vertex  2.200000e+00  1.450000e+01  1.000000e+01
     vertex  2.200000e+00  1.450000e+01  0.000000e+00
   endloop
 endfacet
 facet normal -9.472160e-01  3.205962e-01  0.000000e+00
   outer loop
     vertex  0.000000e+00  8.000000e+00  0.000000e+00
     vertex  0.000000e+00  8.000000e+00  1.000000e+01
     vertex  2.200000e+00  1.450000e+01  1.000000e+01
   endloop
 endfacet
 facet normal -9.637300e-01 -2.668791e-01  0.000000e+00
   outer loop
     vertex  9.000000e-01  4.750000e+00  0.000000e+00
     vertex  0.000000e+00  8.000000e+00  1.000000e+01
     vertex  0.000000e+00  8.000000e+00  0.000000e+00
   endloop
 endfacet
 facet normal -9.637300e-01 -2.668791e-01  0.000000e+00
   outer loop
     vertex  9.000000e-01  4.750000e+00  0.000000e+00
     vertex  9.000000e-01  4.750000e+00  1.000000e+01
     vertex  0.000000e+00  8.000000e+00  1.000000e+01
   endloop
 endfacet
 facet normal -9.637300e-01  2.668791e-01  0.000000e+00
   outer loop
     vertex  5.551115e-17  1.500000e+00  0.000000e+00
     vertex  9.000000e-01  4.750000e+00  1.000000e+01
     vertex  9.000000e-01  4.750000e+00  0.000000e+00
   endloop
 endfacet
 facet normal -9.637300e-01  2.668791e-01  0.000000e+00
   outer loop
     vertex  5.551115e-17  1.500000e+00  0.000000e+00
     vertex  5.551115e-17  1.500000e+00  1.000000e+01
     vertex  9.000000e-01  4.750000e+00  1.000000e+01
   endloop
 endfacet
 facet normal -1.000000e+00  3.700743e-17  0.000000e+00
   outer loop
     vertex  0.000000e+00  0.000000e+00  0.000000e+00
     vertex  5.551115e-17  1.500000e+00  1.000000e+01
     vertex  5.551115e-17  1.500000e+00  0.000000e+00
   endloop
 endfacet
 facet normal -1.000000e+00  3.700743e-17  0.000000e+00
   outer loop
     vertex  0.000000e+00  0.000000e+00  0.000000e+00
     vertex  0.000000e+00  0.000000e+00  1.000000e+01
     vertex  5.551115e-17  1.500000e+00  1.000000e+01
   endloop
 endfacet
 facet normal  0.000000e+00 -0.000000e+00 -1.000000e+00
   outer loop
     vertex  4.000000e+00  1.500000e+00  0.000000e+00
     vertex  4.900000e+00  0.000000e+00  0.000000e+00
     vertex  0.000000e+00  0.000000e+00  0.000000e+00
   endloop
 endfacet
 facet normal -0.000000e+00  0.000000e+00 -1.000000e+00
   outer loop
     vertex  4.000000e+00  1.500000e+00  0.000000e+00
     vertex  0.000000e+00  0.000000e+00  0.000000e+00
     vertex  5.551115e-17  1.500000e+00  0.000000e+00
   endloop
 endfacet
 facet normal  0.000000e+00 -0.000000e+00 -1.000000e+00
   outer loop
     vertex  9.000000e-01  4.750000e+00  0.000000e+00
     vertex  4.000000e+00  1.500000e+00  0.000000e+00
     vertex  5.551115e-17  1.500000e+00  0.000000e+00
   endloop
 endfacet
 facet normal -0.000000e+00 -0.000000e+00 -1.000000e+00
   outer loop
     vertex  4.900000e+00  1.500000e+00  0.000000e+00
     vertex  4.900000e+00  0.000000e+00  0.000000e+00
     vertex  4.000000e+00  1.500000e+00  0.000000e+00
   endloop
 endfacet
 facet normal  0.000000e+00  0.000000e+00 -1.000000e+00
   outer loop
     vertex  4.900000e+00  4.750000e+00  0.000000e+00
     vertex  9.000000e-01  4.750000e+00  0.000000e+00
     vertex  0.000000e+00  8.000000e+00  0.000000e+00
   endloop
 endfacet
 facet normal -0.000000e+00  0.000000e+00 -1.000000e+00
   outer loop
     vertex  4.900000e+00  4.750000e+00  0.000000e+00
     vertex  4.000000e+00  1.500000e+00  0.000000e+00
     vertex  9.000000e-01  4.750000e+00  0.000000e+00
   endloop
 endfacet
 facet normal  0.000000e+00 -0.000000e+00 -1.000000e+00
   outer loop
     vertex  2.200000e+00  1.450000e+01  0.000000e+00
     vertex  4.900000e+00  4.750000e+00  0.000000e+00
     vertex  0.000000e+00  8.000000e+00  0.000000e+00
   endloop
 endfacet
 facet normal  0.000000e+00  0.000000e+00  1.000000e+00
   outer loop
     vertex  4.000000e+00  1.500000e+00  1.000000e+01
     vertex  0.000000e+00  0.000000e+00  1.000000e+01
     vertex  4.900000e+00  0.000000e+00  1.000000e+01
   endloop
 endfacet
 facet normal  0.000000e+00  0.000000e+00  1.000000e+00
   outer loop
     vertex  4.000000e+00  1.500000e+00  1.000000e+01
     vertex  5.551115e-17  1.500000e+00  1.000000e+01
     vertex  0.000000e+00  0.000000e+00  1.000000e+01
   endloop
 endfacet
 facet normal  0.000000e+00  0.000000e+00  1.000000e+00
   outer loop
     vertex  9.000000e-01  4.750000e+00  1.000000e+01
     vertex  5.551115e-17  1.500000e+00  1.000000e+01
     vertex  4.000000e+00  1.500000e+00  1.000000e+01
   endloop
 endfacet
 facet normal  0.000000e+00  0.000000e+00  1.000000e+00
   outer loop
     vertex  4.900000e+00  1.500000e+00  1.000000e+01
     vertex  4.000000e+00  1.500000e+00  1.000000e+01
     vertex  4.900000e+00  0.000000e+00  1.000000e+01
   endloop
 endfacet
 facet normal  0.000000e+00  0.000000e+00  1.000000e+00
   outer loop
     vertex  4.900000e+00  4.750000e+00  1.000000e+01
     vertex  0.000000e+00  8.000000e+00  1.000000e+01
     vertex  9.000000e-01  4.750000e+00  1.000000e+01
   endloop
 endfacet
 facet normal  0.000000e+00  0.000000e+00  1.000000e+00
   outer loop
     vertex  4.900000e+00  4.750000e+00  1.000000e+01
     vertex  9.000000e-01  4.750000e+00  1.000000e+01
     vertex  4.000000e+00  1.500000e+00  1.000000e+01
   endloop
 endfacet
 facet normal  0.000000e+00  0.000000e+00  1.000000e+00
   outer loop
     vertex  2.200000e+00  1.450000e+01  1.000000e+01
     vertex  0.000000e+00  8.000000e+00  1.000000e+01
     vertex  4.900000e+00  4.750000e+00  1.000000e+01
   endloop
 endfacet
endsolid
