solid 
 facet normal -0.000000e+00 -1.000000e+00  0.000000e+00
   outer loop
     vertex -5.000000e-01 -1.000000e+00 -3.000000e+00
     vertex -1.000000e+00 -1.000000e+00 -3.000000e+00
     vertex -1.000000e+00 -1.000000e+00 -5.000000e+00
   endloop
 endfacet
 facet normal  0.000000e+00 -1.000000e+00 -0.000000e+00
   outer loop
     vertex  5.000000e-01 -1.000000e+00 -3.000000e+00
     vertex -1.000000e+00 -1.000000e+00 -5.000000e+00
     vertex  1.000000e+00 -1.000000e+00 -5.000000e+00
   endloop
 endfacet
 facet normal -0.000000e+00 -1.000000e+00  0.000000e+00
   outer loop
     vertex  5.000000e-01 -1.000000e+00 -3.000000e+00
     vertex -5.000000e-01 -1.000000e+00 -3.000000e+00
     vertex -1.000000e+00 -1.000000e+00 -5.000000e+00
   endloop
 endfacet
 facet normal -0.000000e+00 -1.000000e+00 -0.000000e+00
   outer loop
     vertex  1.000000e+00 -1.000000e+00 -3.000000e+00
     vertex  5.000000e-01 -1.000000e+00 -3.000000e+00
     vertex  1.000000e+00 -1.000000e+00 -5.000000e+00
   endloop
 endfacet
 facet normal -0.000000e+00 -1.000000e+00  0.000000e+00
   outer loop
     vertex  5.000000e-01 -1.000000e+00  3.000000e+00
     vertex -5.000000e-01 -1.000000e+00  3.000000e+00
     vertex -5.000000e-01 -1.000000e+00 -3.000000e+00
   endloop
 endfacet
 facet normal  0.000000e+00 -1.000000e+00 -0.000000e+00
   outer loop
     vertex  5.000000e-01 -1.000000e+00  3.000000e+00
     vertex -5.000000e-01 -1.000000e+00 -3.000000e+00
     vertex  5.000000e-01 -1.000000e+00 -3.000000e+00
   endloop
 endfacet
 facet normal  1.000000e+00  0.000000e+00  0.000000e+00
   outer loop
     vertex  1.000000e+00 -5.000000e-01 -3.000000e+00
     vertex  1.000000e+00 -1.000000e+00 -3.000000e+00
     vertex  1.000000e+00 -1.000000e+00 -5.000000e+00
   endloop
 endfacet
 facet normal  1.000000e+00  0.000000e+00  0.000000e+00
   outer loop
     vertex  1.000000e+00  5.000000e-01 -3.000000e+00
     vertex  1.000000e+00 -1.000000e+00 -5.000000e+00
     vertex  1.000000e+00  1.000000e+00 -5.000000e+00
   endloop
 endfacet
 facet normal  1.000000e+00  0.000000e+00  0.000000e+00
   outer loop
     vertex  1.000000e+00  5.000000e-01 -3.000000e+00
     vertex  1.000000e+00 -5.000000e-01 -3.000000e+00
     vertex  1.000000e+00 -1.000000e+00 -5.000000e+00
   endloop
 endfacet
 facet normal  1.000000e+00  0.000000e+00  0.000000e+00
   outer loop
     vertex  1.000000e+00  1.000000e+00 -3.000000e+00
     vertex  1.000000e+00  5.000000e-01 -3.000000e+00
     vertex  1.000000e+00  1.000000e+00 -5.000000e+00
   endloop
 endfacet
 facet normal  1.000000e+00  0.000000e+00  0.000000e+00
   outer loop
     vertex  1.000000e+00  5.000000e-01  3.000000e+00
     vertex  1.000000e+00 -5.000000e-01  3.000000e+00
     vertex  1.000000e+00 -5.000000e-01 -3.000000e+00
   endloop
 endfacet
 facet normal  1.000000e+00  0.000000e+00  0.000000e+00
   outer loop
     vertex  1.000000e+00  5.000000e-01  3.000000e+00
     vertex  1.000000e+00 -5.000000e-01 -3.000000e+00
     vertex  1.000000e+00  5.000000e-01 -3.000000e+00
   endloop
 endfacet
 facet normal  0.000000e+00  0.000000e+00  1.000000e+00
   outer loop
     vertex  1.000000e+00 -5.000000e-01 -3.000000e+00
     vertex  5.000000e-01 -1.000000e+00 -3.000000e+00
     vertex  1.000000e+00 -1.000000e+00 -3.000000e+00
   endloop
 endfacet
 facet normal  0.000000e+00  0.000000e+00  1.000000e+00
   outer loop
     vertex  1.000000e+00 -5.000000e-01 -3.000000e+00
     vertex  5.000000e-01 -5.000000e-01 -3.000000e+00
     vertex  5.000000e-01 -1.000000e+00 -3.000000e+00
   endloop
 endfacet
 facet normal  0.000000e+00  0.000000e+00  1.000000e+00
   outer loop
     vertex -5.000000e-01  5.000000e-01 -3.000000e+00
     vertex -1.000000e+00 -1.000000e+00 -3.000000e+00
     vertex -5.000000e-01 -1.000000e+00 -3.000000e+00
   endloop
 endfacet
 facet normal  0.000000e+00  0.000000e+00  1.000000e+00
   outer loop
     vertex -5.000000e-01  5.000000e-01 -3.000000e+00
     vertex -1.000000e+00  1.000000e+00 -3.000000e+00
     vertex -1.000000e+00 -1.000000e+00 -3.000000e+00
   endloop
 endfacet
 facet normal  0.000000e+00  0.000000e+00  1.000000e+00
   outer loop
     vertex  1.000000e+00  1.000000e+00 -3.000000e+00
     vertex -5.000000e-01  5.000000e-01 -3.000000e+00
     vertex  1.000000e+00  5.000000e-01 -3.000000e+00
   endloop
 endfacet
 facet normal  0.000000e+00  0.000000e+00  1.000000e+00
   outer loop
     vertex  1.000000e+00  1.000000e+00 -3.000000e+00
     vertex -1.000000e+00  1.000000e+00 -3.000000e+00
     vertex -5.000000e-01  5.000000e-01 -3.000000e+00
   endloop
 endfacet
 facet normal -1.000000e+00  0.000000e+00  0.000000e+00
   outer loop
     vertex -1.000000e+00 -1.000000e+00 -3.000000e+00
     vertex -1.000000e+00  1.000000e+00 -3.000000e+00
     vertex -1.000000e+00  1.000000e+00 -5.000000e+00
   endloop
 endfacet
 facet normal -1.000000e+00  0.000000e+00  0.000000e+00
   outer loop
     vertex -1.000000e+00 -1.000000e+00 -3.000000e+00
     vertex -1.000000e+00  1.000000e+00 -5.000000e+00
     vertex -1.000000e+00 -1.000000e+00 -5.000000e+00
   endloop
 endfacet
 facet normal -0.000000e+00  0.000000e+00 -1.000000e+00
   outer loop
     vertex  1.000000e+00  1.000000e+00 -5.000000e+00
     vertex -1.000000e+00 -1.000000e+00 -5.000000e+00
     vertex -1.000000e+00  1.000000e+00 -5.000000e+00
   endloop
 endfacet
 facet normal  0.000000e+00 -0.000000e+00 -1.000000e+00
   outer loop
     vertex  1.000000e+00  1.000000e+00 -5.000000e+00
     vertex  1.000000e+00 -1.000000e+00 -5.000000e+00
     vertex -1.000000e+00 -1.000000e+00 -5.000000e+00
   endloop
 endfacet
 facet normal  1.000000e+00  0.000000e+00  0.000000e+00
   outer loop
     vertex  5.000000e-01 -5.000000e-01  3.000000e+00
     vertex  5.000000e-01 -1.000000e+00 -3.000000e+00
     vertex  5.000000e-01 -5.000000e-01 -3.000000e+00
   endloop
 endfacet
 facet normal  1.000000e+00  0.000000e+00  0.000000e+00
   outer loop
     vertex  5.000000e-01 -5.000000e-01  3.000000e+00
     vertex  5.000000e-01 -1.000000e+00  3.000000e+00
     vertex  5.000000e-01 -1.000000e+00 -3.000000e+00
   endloop
 endfacet
 facet normal -2.220446e-16 -1.000000e+00  0.000000e+00
   outer loop
     vertex  5.000000e-01 -5.000000e-01 -3.000000e+00
     vertex  1.000000e+00 -5.000000e-01  3.000000e+00
     vertex  5.000000e-01 -5.000000e-01  3.000000e+00
   endloop
 endfacet
 facet normal -2.220446e-16 -1.000000e+00  0.000000e+00
   outer loop
     vertex  5.000000e-01 -5.000000e-01 -3.000000e+00
     vertex  1.000000e+00 -5.000000e-01 -3.000000e+00
     vertex  1.000000e+00 -5.000000e-01  3.000000e+00
   endloop
 endfacet
 facet normal -1.000000e+00  0.000000e+00  0.000000e+00
   outer loop
     vertex -5.000000e-01  5.000000e-01 -3.000000e+00
     vertex -5.000000e-01 -1.000000e+00  3.000000e+00
     vertex -5.000000e-01  5.000000e-01  3.000000e+00
   endloop
 endfacet
 facet normal -1.000000e+00  0.000000e+00  0.000000e+00
   outer loop
     vertex -5.000000e-01  5.000000e-01 -3.000000e+00
     vertex -5.000000e-01 -1.000000e+00 -3.000000e+00
     vertex -5.000000e-01 -1.000000e+00  3.000000e+00
   endloop
 endfacet
 facet normal  0.000000e+00  0.000000e+00  1.000000e+00
   outer loop
     vertex  1.000000e+00  5.000000e-01  3.000000e+00
     vertex  5.000000e-01 -5.000000e-01  3.000000e+00
     vertex  1.000000e+00 -5.000000e-01  3.000000e+00
   endloop
 endfacet
 facet normal  0.000000e+00  0.000000e+00  1.000000e+00
   outer loop
     vertex -5.000000e-01 -1.000000e+00  3.000000e+00
     vertex  5.000000e-01 -1.000000e+00  3.000000e+00
     vertex  5.000000e-01 -5.000000e-01  3.000000e+00
   endloop
 endfacet
 facet normal  0.000000e+00  0.000000e+00  1.000000e+00
   outer loop
     vertex -5.000000e-01  5.000000e-01  3.000000e+00
     vertex  5.000000e-01 -5.000000e-01  3.000000e+00
     vertex  1.000000e+00  5.000000e-01  3.000000e+00
   endloop
 endfacet
 facet normal  0.000000e+00  0.000000e+00  1.000000e+00
   outer loop
     vertex -5.000000e-01  5.000000e-01  3.000000e+00
     vertex -5.000000e-01 -1.000000e+00  3.000000e+00
     vertex  5.000000e-01 -5.000000e-01  3.000000e+00
   endloop
 endfacet
 facet normal  7.401487e-17  1.000000e+00  0.000000e+00
   outer loop
     vertex -5.000000e-01  5.000000e-01  3.000000e+00
     vertex  1.000000e+00  5.000000e-01 -3.000000e+00
     vertex -5.000000e-01  5.000000e-01 -3.000000e+00
   endloop
 endfacet
 facet normal  7.401487e-17  1.000000e+00  0.000000e+00
   outer loop
     vertex -5.000000e-01  5.000000e-01  3.000000e+00
     vertex  1.000000e+00  5.000000e-01  3.000000e+00
     vertex  1.000000e+00  5.000000e-01 -3.000000e+00
   endloop
 endfacet
 facet normal -0.000000e+00  1.000000e+00  0.000000e+00
   outer loop
     vertex -1.000000e+00  1.000000e+00 -3.000000e+00
     vertex  1.000000e+00  1.000000e+00 -3.000000e+00
     vertex  1.000000e+00  1.000000e+00 -5.000000e+00
   endloop
 endfacet
 facet normal  0.000000e+00  1.000000e+00  0.000000e+00
   outer loop
     vertex -1.000000e+00  1.000000e+00 -3.000000e+00
     vertex  1.000000e+00  1.000000e+00 -5.000000e+00
     vertex -1.000000e+00  1.000000e+00 -5.000000e+00
   endloop
 endfacet
endsolid
