solid 
 facet normal  1.395638e-16  9.659258e-01  2.588190e-01
   outer loop
     vertex  0.000000e+00  1.205771e+00  1.500000e+00
     vertex -2.220446e-16  2.465190e-32  6.000000e+00
     vertex  1.366025e+00 -1.516593e-16  6.000000e+00
   endloop
 endfacet
 facet normal  1.570092e-16  9.659258e-01  2.588190e-01
   outer loop
     vertex  0.000000e+00  1.205771e+00  1.500000e+00
     vertex  1.366025e+00 -1.516593e-16  6.000000e+00
     vertex  1.366025e+00  1.205771e+00  1.500000e+00
   endloop
 endfacet
 facet normal -1.046728e-16 -9.659258e-01  2.588190e-01
   outer loop
     vertex -2.220446e-16  2.465190e-32  6.000000e+00
     vertex -2.220446e-16 -8.038476e-01  3.000000e+00
     vertex  1.366025e+00 -8.038476e-01  3.000000e+00
   endloop
 endfacet
 facet normal -1.072393e-16 -9.659258e-01  2.588190e-01
   outer loop
     vertex -2.220446e-16  2.465190e-32  6.000000e+00
     vertex  1.366025e+00 -8.038476e-01  3.000000e+00
     vertex  1.366025e+00 -1.516593e-16  6.000000e+00
   endloop
 endfacet
 facet normal -1.000000e+00  1.381136e-16 -7.973994e-17
   outer loop
     vertex -2.220446e-16  3.397460e-01  0.000000e+00
     vertex -4.440892e-16 -1.267949e+00  0.000000e+00
     vertex -4.440892e-16 -1.218911e+00  8.493649e-02
   endloop
 endfacet
 facet normal -1.000000e+00  0.000000e+00  0.000000e+00
   outer loop
     vertex -2.220446e-16 -4.019238e-01  1.500000e+00
     vertex -2.220446e-16  4.868603e-01  2.548095e-01
     vertex -2.220446e-16  3.397460e-01  0.000000e+00
   endloop
 endfacet
 facet normal -1.000000e+00  1.464036e-16  7.238876e-17
   outer loop
     vertex -2.220446e-16 -4.019238e-01  1.500000e+00
     vertex -2.220446e-16  3.397460e-01  0.000000e+00
     vertex -4.440892e-16 -1.218911e+00  8.493649e-02
   endloop
 endfacet
 facet normal -1.000000e+00  1.381136e-16  3.700743e-17
   outer loop
     vertex  0.000000e+00  1.205771e+00  1.500000e+00
     vertex -2.220446e-16 -4.019238e-01  1.500000e+00
     vertex -2.220446e-16 -8.038476e-01  3.000000e+00
   endloop
 endfacet
 facet normal -1.000000e+00  1.381136e-16  9.858185e-17
   outer loop
     vertex  0.000000e+00  1.205771e+00  1.500000e+00
     vertex -2.220446e-16  4.868603e-01  2.548095e-01
     vertex -2.220446e-16 -4.019238e-01  1.500000e+00
   endloop
 endfacet
 facet normal -1.000000e+00  9.207575e-17 -2.467162e-17
   outer loop
     vertex -2.220446e-16  2.465190e-32  6.000000e+00
     vertex  0.000000e+00  1.205771e+00  1.500000e+00
     vertex -2.220446e-16 -8.038476e-01  3.000000e+00
   endloop
 endfacet
 facet normal  1.130515e-16  8.660254e-01 -5.000000e-01
   outer loop
     vertex -2.220446e-16  4.868603e-01  2.548095e-01
     vertex  0.000000e+00  1.205771e+00  1.500000e+00
     vertex  1.366025e+00  1.205771e+00  1.500000e+00
   endloop
 endfacet
 facet normal  1.055780e-16  8.660254e-01 -5.000000e-01
   outer loop
     vertex -2.220446e-16  4.868603e-01  2.548095e-01
     vertex  1.366025e+00  1.205771e+00  1.500000e+00
     vertex  1.366025e+00  4.868603e-01  2.548095e-01
   endloop
 endfacet
 facet normal  1.000000e+00 -1.381136e-16  7.973994e-17
   outer loop
     vertex  1.366025e+00  3.397460e-01  0.000000e+00
     vertex  1.366025e+00 -1.218911e+00  8.493649e-02
     vertex  1.366025e+00 -1.267949e+00  0.000000e+00
   endloop
 endfacet
 facet normal  1.000000e+00  0.000000e+00  0.000000e+00
   outer loop
     vertex  1.366025e+00 -4.019238e-01  1.500000e+00
     vertex  1.366025e+00  3.397460e-01  0.000000e+00
     vertex  1.366025e+00  4.868603e-01  2.548095e-01
   endloop
 endfacet
 facet normal  1.000000e+00 -1.464036e-16 -7.238876e-17
   outer loop
     vertex  1.366025e+00 -4.019238e-01  1.500000e+00
     vertex  1.366025e+00 -1.218911e+00  8.493649e-02
     vertex  1.366025e+00  3.397460e-01  0.000000e+00
   endloop
 endfacet
 facet normal  1.000000e+00 -1.381136e-16 -3.700743e-17
   outer loop
     vertex  1.366025e+00  1.205771e+00  1.500000e+00
     vertex  1.366025e+00 -8.038476e-01  3.000000e+00
     vertex  1.366025e+00 -4.019238e-01  1.500000e+00
   endloop
 endfacet
 facet normal  1.000000e+00 -1.381136e-16 -9.858185e-17
   outer loop
     vertex  1.366025e+00  1.205771e+00  1.500000e+00
     vertex  1.366025e+00 -4.019238e-01  1.500000e+00
     vertex  1.366025e+00  4.868603e-01  2.548095e-01
   endloop
 endfacet
 facet normal  1.000000e+00 -9.207575e-17  2.467162e-17
   outer loop
     vertex  1.366025e+00 -1.516593e-16  6.000000e+00
     vertex  1.366025e+00 -8.038476e-01  3.000000e+00
     vertex  1.366025e+00  1.205771e+00  1.500000e+00
   endloop
 endfacet
 facet normal -1.570092e-16 -9.659258e-01 -2.588190e-01
   outer loop
     vertex -2.220446e-16 -8.038476e-01  3.000000e+00
     vertex -2.220446e-16 -4.019238e-01  1.500000e+00
     vertex  1.366025e+00 -4.019238e-01  1.500000e+00
   endloop
 endfacet
 facet normal -7.850462e-17 -9.659258e-01 -2.588190e-01
   outer loop
     vertex -2.220446e-16 -8.038476e-01  3.000000e+00
     vertex  1.366025e+00 -4.019238e-01  1.500000e+00
     vertex  1.366025e+00 -8.038476e-01  3.000000e+00
   endloop
 endfacet
 facet normal  1.035852e-16  8.660254e-01 -5.000000e-01
   outer loop
     vertex -2.220446e-16  3.397460e-01  0.000000e+00
     vertex -2.220446e-16  4.868603e-01  2.548095e-01
     vertex  1.366025e+00  4.868603e-01  2.548095e-01
   endloop
 endfacet
 facet normal  1.055780e-16  8.660254e-01 -5.000000e-01
   outer loop
     vertex -2.220446e-16  3.397460e-01  0.000000e+00
     vertex  1.366025e+00  4.868603e-01  2.548095e-01
     vertex  1.366025e+00  3.397460e-01  0.000000e+00
   endloop
 endfacet
 facet normal  0.000000e+00  0.000000e+00 -1.000000e+00
   outer loop
     vertex -4.440892e-16 -1.267949e+00  0.000000e+00
     vertex -2.220446e-16  3.397460e-01  0.000000e+00
     vertex  1.366025e+00  3.397460e-01  0.000000e+00
   endloop
 endfacet
 facet normal  0.000000e+00  0.000000e+00 -1.000000e+00
   outer loop
     vertex -4.440892e-16 -1.267949e+00  0.000000e+00
     vertex  1.366025e+00  3.397460e-01  0.000000e+00
     vertex  1.366025e+00 -1.267949e+00  0.000000e+00
   endloop
 endfacet
 facet normal -1.424297e-16 -8.660254e-01  5.000000e-01
   outer loop
     vertex -4.440892e-16 -1.218911e+00  8.493649e-02
     vertex -4.440892e-16 -1.267949e+00  0.000000e+00
     vertex  1.366025e+00 -1.267949e+00  0.000000e+00
   endloop
 endfacet
 facet normal -1.407706e-16 -8.660254e-01  5.000000e-01
   outer loop
     vertex -4.440892e-16 -1.218911e+00  8.493649e-02
     vertex  1.366025e+00 -1.267949e+00  0.000000e+00
     vertex  1.366025e+00 -1.218911e+00  8.493649e-02
   endloop
 endfacet
 facet normal -9.948009e-17 -8.660254e-01  5.000000e-01
   outer loop
     vertex -2.220446e-16 -4.019238e-01  1.500000e+00
     vertex -4.440892e-16 -1.218911e+00  8.493649e-02
     vertex  1.366025e+00 -1.218911e+00  8.493649e-02
   endloop
 endfacet
 facet normal -1.055780e-16 -8.660254e-01  5.000000e-01
   outer loop
     vertex -2.220446e-16 -4.019238e-01  1.500000e+00
     vertex  1.366025e+00 -1.218911e+00  8.493649e-02
     vertex  1.366025e+00 -4.019238e-01  1.500000e+00
   endloop
 endfacet
 facet normal  1.000000e+00  0.000000e+00  0.000000e+00
   outer loop
     vertex  1.366025e+00 -1.267949e+00  0.000000e+00
     vertex  1.366025e+00 -1.366025e+00  0.000000e+00
     vertex  1.366025e+00 -1.366025e+00 -2.000000e+00
   endloop
 endfacet
 facet normal  1.000000e+00 -1.625479e-16  2.761250e-17
   outer loop
     vertex  1.366025e+00  3.397460e-01  0.000000e+00
     vertex  1.366025e+00 -1.366025e+00 -2.000000e+00
     vertex  1.366025e+00  1.366025e+00 -2.000000e+00
   endloop
 endfacet
 facet normal  1.000000e+00 -1.381136e-16  6.772831e-18
   outer loop
     vertex  1.366025e+00  3.397460e-01  0.000000e+00
     vertex  1.366025e+00 -1.267949e+00  0.000000e+00
     vertex  1.366025e+00 -1.366025e+00 -2.000000e+00
   endloop
 endfacet
 facet normal  1.000000e+00  0.000000e+00  1.110223e-16
   outer loop
     vertex  1.366025e+00  6.339746e-01  0.000000e+00
     vertex  1.366025e+00  3.397460e-01  0.000000e+00
     vertex  1.366025e+00  1.366025e+00 -2.000000e+00
   endloop
 endfacet
 facet normal  1.000000e+00 -3.033186e-16  0.000000e+00
   outer loop
     vertex  1.366025e+00  1.366025e+00  0.000000e+00
     vertex  1.366025e+00  6.339746e-01  0.000000e+00
     vertex  1.366025e+00  1.366025e+00 -2.000000e+00
   endloop
 endfacet
 facet normal -1.625479e-16 -1.000000e+00  0.000000e+00
   outer loop
     vertex  1.366025e+00 -1.366025e+00  0.000000e+00
     vertex -4.440892e-16 -1.366025e+00  0.000000e+00
     vertex -4.440892e-16 -1.366025e+00 -2.000000e+00
   endloop
 endfacet
 facet normal -1.625479e-16 -1.000000e+00 -0.000000e+00
   outer loop
     vertex  1.366025e+00 -1.366025e+00  0.000000e+00
     vertex -4.440892e-16 -1.366025e+00 -2.000000e+00
     vertex  1.366025e+00 -1.366025e+00 -2.000000e+00
   endloop
 endfacet
 facet normal  1.625479e-16  1.000000e+00  0.000000e+00
   outer loop
     vertex  0.000000e+00  1.366025e+00  0.000000e+00
     vertex  1.366025e+00  1.366025e+00  0.000000e+00
     vertex  1.366025e+00  1.366025e+00 -2.000000e+00
   endloop
 endfacet
 facet normal  1.625479e-16  1.000000e+00  0.000000e+00
   outer loop
     vertex  0.000000e+00  1.366025e+00  0.000000e+00
     vertex  1.366025e+00  1.366025e+00 -2.000000e+00
     vertex  0.000000e+00  1.366025e+00 -2.000000e+00
   endloop
 endfacet
 facet normal  0.000000e+00  0.000000e+00  1.000000e+00
   outer loop
     vertex -4.440892e-16 -1.267949e+00  0.000000e+00
     vertex -4.440892e-16 -1.366025e+00  0.000000e+00
     vertex  1.366025e+00 -1.366025e+00  0.000000e+00
   endloop
 endfacet
 facet normal  0.000000e+00  0.000000e+00  1.000000e+00
   outer loop
     vertex -4.440892e-16 -1.267949e+00  0.000000e+00
     vertex  1.366025e+00 -1.366025e+00  0.000000e+00
     vertex  1.366025e+00 -1.267949e+00  0.000000e+00
   endloop
 endfacet
 facet normal  0.000000e+00  0.000000e+00  1.000000e+00
   outer loop
     vertex -4.440892e-16 -1.267949e+00  0.000000e+00
     vertex  1.366025e+00  3.397460e-01  0.000000e+00
     vertex -2.220446e-16  3.397460e-01  0.000000e+00
   endloop
 endfacet
 facet normal -0.000000e+00  0.000000e+00  1.000000e+00
   outer loop
     vertex -4.440892e-16 -1.267949e+00  0.000000e+00
     vertex  1.366025e+00 -1.267949e+00  0.000000e+00
     vertex  1.366025e+00  3.397460e-01  0.000000e+00
   endloop
 endfacet
 facet normal  0.000000e+00  0.000000e+00  1.000000e+00
   outer loop
     vertex -2.220446e-16  6.339746e-01  0.000000e+00
     vertex -2.220446e-16  3.397460e-01  0.000000e+00
     vertex  1.366025e+00  3.397460e-01  0.000000e+00
   endloop
 endfacet
 facet normal  0.000000e+00  0.000000e+00  1.000000e+00
   outer loop
     vertex -2.220446e-16  6.339746e-01  0.000000e+00
     vertex  1.366025e+00  3.397460e-01  0.000000e+00
     vertex  1.366025e+00  6.339746e-01  0.000000e+00
   endloop
 endfacet
 facet normal  0.000000e+00  0.000000e+00  1.000000e+00
   outer loop
     vertex  0.000000e+00  1.366025e+00  0.000000e+00
     vertex -2.220446e-16  6.339746e-01  0.000000e+00
     vertex  1.366025e+00  6.339746e-01  0.000000e+00
   endloop
 endfacet
 facet normal  0.000000e+00  0.000000e+00  1.000000e+00
   outer loop
     vertex  0.000000e+00  1.366025e+00  0.000000e+00
     vertex  1.366025e+00  6.339746e-01  0.000000e+00
     vertex  1.366025e+00  1.366025e+00  0.000000e+00
   endloop
 endfacet
 facet normal  0.000000e+00 -0.000000e+00 -1.000000e+00
   outer loop
     vertex  0.000000e+00  1.366025e+00 -2.000000e+00
     vertex  1.366025e+00 -1.366025e+00 -2.000000e+00
     vertex -4.440892e-16 -1.366025e+00 -2.000000e+00
   endloop
 endfacet
 facet normal  0.000000e+00  0.000000e+00 -1.000000e+00
   outer loop
     vertex  0.000000e+00  1.366025e+00 -2.000000e+00
     vertex  1.366025e+00  1.366025e+00 -2.000000e+00
     vertex  1.366025e+00 -1.366025e+00 -2.000000e+00
   endloop
 endfacet
 facet normal -1.000000e+00 -0.000000e+00  0.000000e+00
   outer loop
     vertex -4.440892e-16 -1.267949e+00  0.000000e+00
     vertex -4.440892e-16 -1.366025e+00 -2.000000e+00
     vertex -4.440892e-16 -1.366025e+00  0.000000e+00
   endloop
 endfacet
 facet normal -1.000000e+00  1.625479e-16 -2.761250e-17
   outer loop
     vertex -2.220446e-16  3.397460e-01  0.000000e+00
     vertex  0.000000e+00  1.366025e+00 -2.000000e+00
     vertex -4.440892e-16 -1.366025e+00 -2.000000e+00
   endloop
 endfacet
 facet normal -1.000000e+00  1.381136e-16 -6.772831e-18
   outer loop
     vertex -2.220446e-16  3.397460e-01  0.000000e+00
     vertex -4.440892e-16 -1.366025e+00 -2.000000e+00
     vertex -4.440892e-16 -1.267949e+00  0.000000e+00
   endloop
 endfacet
 facet normal -1.000000e+00 -0.000000e+00 -1.110223e-16
   outer loop
     vertex -2.220446e-16  6.339746e-01  0.000000e+00
     vertex  0.000000e+00  1.366025e+00 -2.000000e+00
     vertex -2.220446e-16  3.397460e-01  0.000000e+00
   endloop
 endfacet
 facet normal -1.000000e+00  3.033186e-16  0.000000e+00
   outer loop
     vertex  0.000000e+00  1.366025e+00  0.000000e+00
     vertex  0.000000e+00  1.366025e+00 -2.000000e+00
     vertex -2.220446e-16  6.339746e-01  0.000000e+00
   endloop
 endfacet
 facet normal  0.000000e+00  0.000000e+00 -1.000000e+00
   outer loop
     vertex -4.440892e-16 -1.267949e+00  0.000000e+00
     vertex  1.366025e+00 -1.366025e+00  0.000000e+00
     vertex -4.440892e-16 -1.366025e+00  0.000000e+00
   endloop
 endfacet
 facet normal  0.000000e+00  0.000000e+00 -1.000000e+00
   outer loop
     vertex -4.440892e-16 -1.267949e+00  0.000000e+00
     vertex  1.366025e+00 -1.267949e+00  0.000000e+00
     vertex  1.366025e+00 -1.366025e+00  0.000000e+00
   endloop
 endfacet
 facet normal -1.000000e+00 -1.230435e-15  2.876764e-15
   outer loop
     vertex -4.440892e-16 -1.267949e+00  0.000000e+00
     vertex -3.662339e-16 -1.298742e+00  1.389287e-02
     vertex -3.652397e-16 -1.289787e+00  1.806894e-02
   endloop
 endfacet
 facet normal -1.000000e+00 -1.124831e-15  3.110830e-15
   outer loop
     vertex -4.440892e-16 -1.267949e+00  0.000000e+00
     vertex -3.672535e-16 -1.307925e+00  1.024459e-02
     vertex -3.662339e-16 -1.298742e+00  1.389287e-02
   endloop
 endfacet
 facet normal -1.000000e+00 -1.035414e-15  3.459751e-15
   outer loop
     vertex -4.440892e-16 -1.267949e+00  0.000000e+00
     vertex -3.682949e-16 -1.317305e+00  7.136447e-03
     vertex -3.672535e-16 -1.307925e+00  1.024459e-02
   endloop
 endfacet
 facet normal -1.000000e+00 -9.585173e-16  3.991576e-15
   outer loop
     vertex -4.440892e-16 -1.267949e+00  0.000000e+00
     vertex -3.693545e-16 -1.326850e+00  4.578948e-03
     vertex -3.682949e-16 -1.317305e+00  7.136447e-03
   endloop
 endfacet
 facet normal -1.000000e+00 -8.914111e-16  4.854790e-15
   outer loop
     vertex -4.440892e-16 -1.267949e+00  0.000000e+00
     vertex -3.704289e-16 -1.336527e+00  2.580752e-03
     vertex -3.693545e-16 -1.326850e+00  4.578948e-03
   endloop
 endfacet
 facet normal -1.000000e+00 -8.318669e-16  6.437052e-15
   outer loop
     vertex -4.440892e-16 -1.267949e+00  0.000000e+00
     vertex -3.715144e-16 -1.346304e+00  1.148620e-03
     vertex -3.704289e-16 -1.336527e+00  2.580752e-03
   endloop
 endfacet
 facet normal -1.000000e+00 -7.773736e-16  1.015441e-14
   outer loop
     vertex -4.440892e-16 -1.267949e+00  0.000000e+00
     vertex -3.726073e-16 -1.356148e+00  2.873982e-04
     vertex -3.715144e-16 -1.346304e+00  1.148620e-03
   endloop
 endfacet
 facet normal -1.000000e+00 -1.357387e-15  2.723335e-15
   outer loop
     vertex -3.642740e-16 -1.281089e+00  2.275866e-02
     vertex -4.440892e-16 -1.267949e+00  0.000000e+00
     vertex -3.652397e-16 -1.289787e+00  1.806894e-02
   endloop
 endfacet
 facet normal -1.000000e+00 -1.513251e-15  2.633348e-15
   outer loop
     vertex -3.633403e-16 -1.272679e+00  2.794618e-02
     vertex -4.440892e-16 -1.267949e+00  0.000000e+00
     vertex -3.642740e-16 -1.281089e+00  2.275866e-02
   endloop
 endfacet
 facet normal -1.000000e+00 -1.709600e-15  2.600118e-15
   outer loop
     vertex -3.624417e-16 -1.264584e+00  3.361392e-02
     vertex -4.440892e-16 -1.267949e+00  0.000000e+00
     vertex -3.633403e-16 -1.272679e+00  2.794618e-02
   endloop
 endfacet
 facet normal -1.000000e+00 -1.965109e-15  2.625696e-15
   outer loop
     vertex -3.615811e-16 -1.256833e+00  3.974273e-02
     vertex -4.440892e-16 -1.267949e+00  0.000000e+00
     vertex -3.624417e-16 -1.264584e+00  3.361392e-02
   endloop
 endfacet
 facet normal -1.000000e+00 -2.311992e-15  2.722719e-15
   outer loop
     vertex -3.607616e-16 -1.249451e+00  4.631185e-02
     vertex -4.440892e-16 -1.267949e+00  0.000000e+00
     vertex -3.615811e-16 -1.256833e+00  3.974273e-02
   endloop
 endfacet
 facet normal -1.000000e+00 -2.811014e-15  2.922037e-15
   outer loop
     vertex -3.599858e-16 -1.242464e+00  5.329907e-02
     vertex -4.440892e-16 -1.267949e+00  0.000000e+00
     vertex -3.607616e-16 -1.249451e+00  4.631185e-02
   endloop
 endfacet
 facet normal -1.000000e+00 -3.592132e-15  3.295528e-15
   outer loop
     vertex -3.592565e-16 -1.235895e+00  6.068073e-02
     vertex -4.440892e-16 -1.267949e+00  0.000000e+00
     vertex -3.599858e-16 -1.242464e+00  5.329907e-02
   endloop
 endfacet
 facet normal -1.000000e+00 -2.595753e-13  1.498659e-13
   outer loop
     vertex -4.440892e-16 -1.267949e+00  0.000000e+00
     vertex -3.579468e-16 -1.224099e+00  7.652625e-02
     vertex -4.440892e-16 -1.218911e+00  8.493649e-02
   endloop
 endfacet
 facet normal -1.000000e+00 -8.238758e-15  5.846579e-15
   outer loop
     vertex -4.440892e-16 -1.267949e+00  0.000000e+00
     vertex -3.585761e-16 -1.229766e+00  6.843187e-02
     vertex -3.579468e-16 -1.224099e+00  7.652625e-02
   endloop
 endfacet
 facet normal -1.000000e+00 -4.992183e-15  4.035092e-15
   outer loop
     vertex -4.440892e-16 -1.267949e+00  0.000000e+00
     vertex -3.592565e-16 -1.235895e+00  6.068073e-02
     vertex -3.585761e-16 -1.229766e+00  6.843187e-02
   endloop
 endfacet
 facet normal -1.000000e+00  0.000000e+00  2.487208e-13
   outer loop
     vertex -4.440892e-16 -1.366025e+00  0.000000e+00
     vertex -3.726073e-16 -1.356148e+00  2.873982e-04
     vertex -4.440892e-16 -1.267949e+00  0.000000e+00
   endloop
 endfacet
 facet normal  1.424297e-16  8.660254e-01 -5.000000e-01
   outer loop
     vertex -4.440892e-16 -1.218911e+00  8.493649e-02
     vertex  1.366025e+00 -1.267949e+00  0.000000e+00
     vertex -4.440892e-16 -1.267949e+00  0.000000e+00
   endloop
 endfacet
 facet normal  1.407706e-16  8.660254e-01 -5.000000e-01
   outer loop
     vertex -4.440892e-16 -1.218911e+00  8.493649e-02
     vertex  1.366025e+00 -1.218911e+00  8.493649e-02
     vertex  1.366025e+00 -1.267949e+00  0.000000e+00
   endloop
 endfacet
 facet normal  1.000000e+00  0.000000e+00  0.000000e+00
   outer loop
     vertex  1.366025e+00 -1.267949e+00  0.000000e+00
     vertex  1.366025e+00 -1.326850e+00  4.578948e-03
     vertex  1.366025e+00 -1.336527e+00  2.580752e-03
   endloop
 endfacet
 facet normal  1.000000e+00  0.000000e+00  0.000000e+00
   outer loop
     vertex  1.366025e+00 -1.267949e+00  0.000000e+00
     vertex  1.366025e+00 -1.317305e+00  7.136447e-03
     vertex  1.366025e+00 -1.326850e+00  4.578948e-03
   endloop
 endfacet
 facet normal  1.000000e+00  0.000000e+00  0.000000e+00
   outer loop
     vertex  1.366025e+00 -1.267949e+00  0.000000e+00
     vertex  1.366025e+00 -1.307925e+00  1.024459e-02
     vertex  1.366025e+00 -1.317305e+00  7.136447e-03
   endloop
 endfacet
 facet normal  1.000000e+00  0.000000e+00  0.000000e+00
   outer loop
     vertex  1.366025e+00 -1.267949e+00  0.000000e+00
     vertex  1.366025e+00 -1.298742e+00  1.389287e-02
     vertex  1.366025e+00 -1.307925e+00  1.024459e-02
   endloop
 endfacet
 facet normal  1.000000e+00  0.000000e+00  0.000000e+00
   outer loop
     vertex  1.366025e+00 -1.267949e+00  0.000000e+00
     vertex  1.366025e+00 -1.289787e+00  1.806894e-02
     vertex  1.366025e+00 -1.298742e+00  1.389287e-02
   endloop
 endfacet
 facet normal  1.000000e+00  0.000000e+00  0.000000e+00
   outer loop
     vertex  1.366025e+00 -1.267949e+00  0.000000e+00
     vertex  1.366025e+00 -1.281089e+00  2.275866e-02
     vertex  1.366025e+00 -1.289787e+00  1.806894e-02
   endloop
 endfacet
 facet normal  1.000000e+00  0.000000e+00  0.000000e+00
   outer loop
     vertex  1.366025e+00 -1.267949e+00  0.000000e+00
     vertex  1.366025e+00 -1.272679e+00  2.794618e-02
     vertex  1.366025e+00 -1.281089e+00  2.275866e-02
   endloop
 endfacet
 facet normal  1.000000e+00  0.000000e+00 -0.000000e+00
   outer loop
     vertex  1.366025e+00 -1.267949e+00  0.000000e+00
     vertex  1.366025e+00 -1.264584e+00  3.361392e-02
     vertex  1.366025e+00 -1.272679e+00  2.794618e-02
   endloop
 endfacet
 facet normal  1.000000e+00  0.000000e+00  0.000000e+00
   outer loop
     vertex  1.366025e+00 -1.267949e+00  0.000000e+00
     vertex  1.366025e+00 -1.256833e+00  3.974273e-02
     vertex  1.366025e+00 -1.264584e+00  3.361392e-02
   endloop
 endfacet
 facet normal  1.000000e+00  0.000000e+00  0.000000e+00
   outer loop
     vertex  1.366025e+00 -1.267949e+00  0.000000e+00
     vertex  1.366025e+00 -1.249451e+00  4.631185e-02
     vertex  1.366025e+00 -1.256833e+00  3.974273e-02
   endloop
 endfacet
 facet normal  1.000000e+00  0.000000e+00  0.000000e+00
   outer loop
     vertex  1.366025e+00 -1.267949e+00  0.000000e+00
     vertex  1.366025e+00 -1.242464e+00  5.329907e-02
     vertex  1.366025e+00 -1.249451e+00  4.631185e-02
   endloop
 endfacet
 facet normal  1.000000e+00  0.000000e+00  0.000000e+00
   outer loop
     vertex  1.366025e+00 -1.366025e+00  0.000000e+00
     vertex  1.366025e+00 -1.267949e+00  0.000000e+00
     vertex  1.366025e+00 -1.356148e+00  2.873982e-04
   endloop
 endfacet
 facet normal  1.000000e+00 -0.000000e+00  0.000000e+00
   outer loop
     vertex  1.366025e+00 -1.356148e+00  2.873982e-04
     vertex  1.366025e+00 -1.267949e+00  0.000000e+00
     vertex  1.366025e+00 -1.346304e+00  1.148620e-03
   endloop
 endfacet
 facet normal  1.000000e+00 -0.000000e+00  0.000000e+00
   outer loop
     vertex  1.366025e+00 -1.346304e+00  1.148620e-03
     vertex  1.366025e+00 -1.267949e+00  0.000000e+00
     vertex  1.366025e+00 -1.336527e+00  2.580752e-03
   endloop
 endfacet
 facet normal  1.000000e+00  0.000000e+00  0.000000e+00
   outer loop
     vertex  1.366025e+00 -1.267949e+00  0.000000e+00
     vertex  1.366025e+00 -1.218911e+00  8.493649e-02
     vertex  1.366025e+00 -1.224099e+00  7.652625e-02
   endloop
 endfacet
 facet normal  1.000000e+00  0.000000e+00  0.000000e+00
   outer loop
     vertex  1.366025e+00 -1.267949e+00  0.000000e+00
     vertex  1.366025e+00 -1.224099e+00  7.652625e-02
     vertex  1.366025e+00 -1.229766e+00  6.843187e-02
   endloop
 endfacet
 facet normal  1.000000e+00  0.000000e+00  0.000000e+00
   outer loop
     vertex  1.366025e+00 -1.267949e+00  0.000000e+00
     vertex  1.366025e+00 -1.229766e+00  6.843187e-02
     vertex  1.366025e+00 -1.235895e+00  6.068073e-02
   endloop
 endfacet
 facet normal  1.000000e+00  0.000000e+00  0.000000e+00
   outer loop
     vertex  1.366025e+00 -1.267949e+00  0.000000e+00
     vertex  1.366025e+00 -1.235895e+00  6.068073e-02
     vertex  1.366025e+00 -1.242464e+00  5.329907e-02
   endloop
 endfacet
 facet normal -4.737719e-18 -2.908472e-02  9.995770e-01
   outer loop
     vertex -3.726073e-16 -1.356148e+00  2.873982e-04
     vertex -4.440892e-16 -1.366025e+00  0.000000e+00
     vertex  1.366025e+00 -1.366025e+00  0.000000e+00
   endloop
 endfacet
 facet normal -9.455322e-18 -2.908472e-02  9.995770e-01
   outer loop
     vertex -3.726073e-16 -1.356148e+00  2.873982e-04
     vertex  1.366025e+00 -1.366025e+00  0.000000e+00
     vertex  1.366025e+00 -1.356148e+00  2.873982e-04
   endloop
 endfacet
 facet normal -1.416699e-17 -8.715574e-02  9.961947e-01
   outer loop
     vertex -3.715144e-16 -1.346304e+00  1.148620e-03
     vertex  1.366025e+00 -1.356148e+00  2.873982e-04
     vertex  1.366025e+00 -1.346304e+00  1.148620e-03
   endloop
 endfacet
 facet normal -2.823806e-17 -8.715574e-02  9.961947e-01
   outer loop
     vertex -3.715144e-16 -1.346304e+00  1.148620e-03
     vertex -3.726073e-16 -1.356148e+00  2.873982e-04
     vertex  1.366025e+00 -1.356148e+00  2.873982e-04
   endloop
 endfacet
 facet normal -2.355837e-17 -1.449319e-01  9.894416e-01
   outer loop
     vertex -3.704289e-16 -1.336527e+00  2.580752e-03
     vertex  1.366025e+00 -1.346304e+00  1.148620e-03
     vertex  1.366025e+00 -1.336527e+00  2.580752e-03
   endloop
 endfacet
 facet normal -2.359447e-17 -1.449319e-01  9.894416e-01
   outer loop
     vertex -3.704289e-16 -1.336527e+00  2.580752e-03
     vertex -3.715144e-16 -1.346304e+00  1.148620e-03
     vertex  1.366025e+00 -1.346304e+00  1.148620e-03
   endloop
 endfacet
 facet normal -1.989872e-17 -2.022176e-01  9.793406e-01
   outer loop
     vertex -3.693545e-16 -1.326850e+00  4.578948e-03
     vertex  1.366025e+00 -1.336527e+00  2.580752e-03
     vertex  1.366025e+00 -1.326850e+00  4.578948e-03
   endloop
 endfacet
 facet normal -3.288165e-17 -2.022176e-01  9.793406e-01
   outer loop
     vertex -3.693545e-16 -1.326850e+00  4.578948e-03
     vertex -3.704289e-16 -1.336527e+00  2.580752e-03
     vertex  1.366025e+00 -1.336527e+00  2.580752e-03
   endloop
 endfacet
 facet normal -3.925231e-17 -2.588190e-01  9.659258e-01
   outer loop
     vertex -3.682949e-16 -1.317305e+00  7.136447e-03
     vertex  1.366025e+00 -1.326850e+00  4.578948e-03
     vertex  1.366025e+00 -1.317305e+00  7.136447e-03
   endloop
 endfacet
 facet normal -1.982939e-17 -2.588190e-01  9.659258e-01
   outer loop
     vertex -3.682949e-16 -1.317305e+00  7.136447e-03
     vertex -3.693545e-16 -1.326850e+00  4.578948e-03
     vertex  1.366025e+00 -1.326850e+00  4.578948e-03
   endloop
 endfacet
 facet normal -8.970296e-17 -3.145448e-01  9.492426e-01
   outer loop
     vertex -3.672535e-16 -1.307925e+00  1.024459e-02
     vertex  1.366025e+00 -1.317305e+00  7.136447e-03
     vertex  1.366025e+00 -1.307925e+00  1.024459e-02
   endloop
 endfacet
 facet normal -3.840376e-17 -3.145448e-01  9.492426e-01
   outer loop
     vertex -3.672535e-16 -1.307925e+00  1.024459e-02
     vertex -3.682949e-16 -1.317305e+00  7.136447e-03
     vertex  1.366025e+00 -1.317305e+00  7.136447e-03
   endloop
 endfacet
 facet normal -3.776588e-17 -3.692061e-01  9.293475e-01
   outer loop
     vertex -3.662339e-16 -1.298742e+00  1.389287e-02
     vertex  1.366025e+00 -1.307925e+00  1.024459e-02
     vertex  1.366025e+00 -1.298742e+00  1.389287e-02
   endloop
 endfacet
 facet normal -9.789194e-17 -3.692061e-01  9.293475e-01
   outer loop
     vertex -3.662339e-16 -1.298742e+00  1.389287e-02
     vertex -3.672535e-16 -1.307925e+00  1.024459e-02
     vertex  1.366025e+00 -1.307925e+00  1.024459e-02
   endloop
 endfacet
 facet normal -5.524442e-17 -4.226183e-01  9.063078e-01
   outer loop
     vertex -3.652397e-16 -1.289787e+00  1.806894e-02
     vertex  1.366025e+00 -1.298742e+00  1.389287e-02
     vertex  1.366025e+00 -1.289787e+00  1.806894e-02
   endloop
 endfacet
 facet normal -3.664673e-17 -4.226183e-01  9.063078e-01
   outer loop
     vertex -3.652397e-16 -1.289787e+00  1.806894e-02
     vertex -3.662339e-16 -1.298742e+00  1.389287e-02
     vertex  1.366025e+00 -1.298742e+00  1.389287e-02
   endloop
 endfacet
 facet normal -8.942182e-17 -4.746004e-01  8.802014e-01
   outer loop
     vertex -3.642740e-16 -1.281089e+00  2.275866e-02
     vertex  1.366025e+00 -1.289787e+00  1.806894e-02
     vertex  1.366025e+00 -1.281089e+00  2.275866e-02
   endloop
 endfacet
 facet normal -5.371507e-17 -4.746004e-01  8.802014e-01
   outer loop
     vertex -3.642740e-16 -1.281089e+00  2.275866e-02
     vertex -3.652397e-16 -1.289787e+00  1.806894e-02
     vertex  1.366025e+00 -1.289787e+00  1.806894e-02
   endloop
 endfacet
 facet normal -1.037604e-16 -5.249766e-01  8.511167e-01
   outer loop
     vertex -3.633403e-16 -1.272679e+00  2.794618e-02
     vertex  1.366025e+00 -1.281089e+00  2.275866e-02
     vertex  1.366025e+00 -1.272679e+00  2.794618e-02
   endloop
 endfacet
 facet normal -8.684772e-17 -5.249766e-01  8.511167e-01
   outer loop
     vertex -3.633403e-16 -1.272679e+00  2.794618e-02
     vertex -3.642740e-16 -1.281089e+00  2.275866e-02
     vertex  1.366025e+00 -1.281089e+00  2.275866e-02
   endloop
 endfacet
 facet normal -9.986360e-17 -5.735764e-01  8.191520e-01
   outer loop
     vertex -3.624417e-16 -1.264584e+00  3.361392e-02
     vertex  1.366025e+00 -1.272679e+00  2.794618e-02
     vertex  1.366025e+00 -1.264584e+00  3.361392e-02
   endloop
 endfacet
 facet normal -9.989998e-17 -5.735764e-01  8.191520e-01
   outer loop
     vertex -3.624417e-16 -1.264584e+00  3.361392e-02
     vertex -3.633403e-16 -1.272679e+00  2.794618e-02
     vertex  1.366025e+00 -1.272679e+00  2.794618e-02
   endloop
 endfacet
 facet normal -2.668715e-17 -6.202355e-01  7.844157e-01
   outer loop
     vertex -3.615811e-16 -1.256833e+00  3.974273e-02
     vertex  1.366025e+00 -1.264584e+00  3.361392e-02
     vertex  1.366025e+00 -1.256833e+00  3.974273e-02
   endloop
 endfacet
 facet normal -9.538189e-17 -6.202355e-01  7.844157e-01
   outer loop
     vertex -3.615811e-16 -1.256833e+00  3.974273e-02
     vertex -3.624417e-16 -1.264584e+00  3.361392e-02
     vertex  1.366025e+00 -1.264584e+00  3.361392e-02
   endloop
 endfacet
 facet normal -2.854461e-17 -6.647959e-01  7.470251e-01
   outer loop
     vertex -3.607616e-16 -1.249451e+00  4.631185e-02
     vertex  1.366025e+00 -1.256833e+00  3.974273e-02
     vertex  1.366025e+00 -1.249451e+00  4.631185e-02
   endloop
 endfacet
 facet normal -1.355427e-17 -6.647959e-01  7.470251e-01
   outer loop
     vertex -3.607616e-16 -1.249451e+00  4.631185e-02
     vertex -3.615811e-16 -1.256833e+00  3.974273e-02
     vertex  1.366025e+00 -1.256833e+00  3.974273e-02
   endloop
 endfacet
 facet normal -1.652244e-16 -7.071068e-01  7.071068e-01
   outer loop
     vertex -3.599858e-16 -1.242464e+00  5.329907e-02
     vertex  1.366025e+00 -1.249451e+00  4.631185e-02
     vertex  1.366025e+00 -1.242464e+00  5.329907e-02
   endloop
 endfacet
 facet normal -1.455829e-17 -7.071068e-01  7.071068e-01
   outer loop
     vertex -3.599858e-16 -1.242464e+00  5.329907e-02
     vertex -3.607616e-16 -1.249451e+00  4.631185e-02
     vertex  1.366025e+00 -1.249451e+00  4.631185e-02
   endloop
 endfacet
 facet normal -1.551211e-16 -7.470251e-01  6.647959e-01
   outer loop
     vertex -3.592565e-16 -1.235895e+00  6.068073e-02
     vertex -3.599858e-16 -1.242464e+00  5.329907e-02
     vertex  1.366025e+00 -1.242464e+00  5.329907e-02
   endloop
 endfacet
 facet normal -1.755994e-16 -7.470251e-01  6.647959e-01
   outer loop
     vertex -3.592565e-16 -1.235895e+00  6.068073e-02
     vertex  1.366025e+00 -1.242464e+00  5.329907e-02
     vertex  1.366025e+00 -1.235895e+00  6.068073e-02
   endloop
 endfacet
 facet normal -1.641573e-16 -7.844157e-01  6.202355e-01
   outer loop
     vertex -3.585761e-16 -1.229766e+00  6.843187e-02
     vertex -3.592565e-16 -1.235895e+00  6.068073e-02
     vertex  1.366025e+00 -1.235895e+00  6.068073e-02
   endloop
 endfacet
 facet normal -1.827326e-16 -7.844157e-01  6.202355e-01
   outer loop
     vertex -3.585761e-16 -1.229766e+00  6.843187e-02
     vertex  1.366025e+00 -1.235895e+00  6.068073e-02
     vertex  1.366025e+00 -1.229766e+00  6.843187e-02
   endloop
 endfacet
 facet normal -1.686753e-16 -8.191520e-01  5.735764e-01
   outer loop
     vertex -3.579468e-16 -1.224099e+00  7.652625e-02
     vertex -3.585761e-16 -1.229766e+00  6.843187e-02
     vertex  1.366025e+00 -1.229766e+00  6.843187e-02
   endloop
 endfacet
 facet normal -1.864673e-16 -8.191520e-01  5.735764e-01
   outer loop
     vertex -3.579468e-16 -1.224099e+00  7.652625e-02
     vertex  1.366025e+00 -1.229766e+00  6.843187e-02
     vertex  1.366025e+00 -1.224099e+00  7.652625e-02
   endloop
 endfacet
 facet normal -1.706834e-16 -8.511167e-01  5.249766e-01
   outer loop
     vertex -4.440892e-16 -1.218911e+00  8.493649e-02
     vertex -3.579468e-16 -1.224099e+00  7.652625e-02
     vertex  1.366025e+00 -1.224099e+00  7.652625e-02
   endloop
 endfacet
 facet normal -1.383473e-16 -8.511167e-01  5.249766e-01
   outer loop
     vertex -4.440892e-16 -1.218911e+00  8.493649e-02
     vertex  1.366025e+00 -1.224099e+00  7.652625e-02
     vertex  1.366025e+00 -1.218911e+00  8.493649e-02
   endloop
 endfacet
 facet normal  0.000000e+00  0.000000e+00 -1.000000e+00
   outer loop
     vertex -2.220446e-16  6.339746e-01  0.000000e+00
     vertex  1.366025e+00  3.397460e-01  0.000000e+00
     vertex -2.220446e-16  3.397460e-01  0.000000e+00
   endloop
 endfacet
 facet normal  0.000000e+00  0.000000e+00 -1.000000e+00
   outer loop
     vertex -2.220446e-16  6.339746e-01  0.000000e+00
     vertex  1.366025e+00  6.339746e-01  0.000000e+00
     vertex  1.366025e+00  3.397460e-01  0.000000e+00
   endloop
 endfacet
 facet normal -1.035852e-16 -8.660254e-01  5.000000e-01
   outer loop
     vertex -2.220446e-16  3.397460e-01  0.000000e+00
     vertex  1.366025e+00  4.868603e-01  2.548095e-01
     vertex -2.220446e-16  4.868603e-01  2.548095e-01
   endloop
 endfacet
 facet normal -1.055780e-16 -8.660254e-01  5.000000e-01
   outer loop
     vertex -2.220446e-16  3.397460e-01  0.000000e+00
     vertex  1.366025e+00  3.397460e-01  0.000000e+00
     vertex  1.366025e+00  4.868603e-01  2.548095e-01
   endloop
 endfacet
 facet normal -1.000000e+00  2.794375e-16  1.684152e-16
   outer loop
     vertex -1.653773e-16  5.104135e-01  5.329907e-02
     vertex -1.646016e-16  5.174007e-01  4.631185e-02
     vertex -2.220446e-16  3.397460e-01  0.000000e+00
   endloop
 endfacet
 facet normal -1.000000e+00  2.752374e-16  1.845270e-16
   outer loop
     vertex -1.637821e-16  5.247823e-01  3.974273e-02
     vertex -2.220446e-16  3.397460e-01  0.000000e+00
     vertex -1.646016e-16  5.174007e-01  4.631185e-02
   endloop
 endfacet
 facet normal -1.000000e+00  2.839679e-16  1.539085e-16
   outer loop
     vertex -1.661066e-16  5.038443e-01  6.068073e-02
     vertex -1.653773e-16  5.104135e-01  5.329907e-02
     vertex -2.220446e-16  3.397460e-01  0.000000e+00
   endloop
 endfacet
 facet normal -1.000000e+00  2.713262e-16  2.027373e-16
   outer loop
     vertex -1.629215e-16  5.325335e-01  3.361392e-02
     vertex -2.220446e-16  3.397460e-01  0.000000e+00
     vertex -1.637821e-16  5.247823e-01  3.974273e-02
   endloop
 endfacet
 facet normal -1.000000e+00  2.888781e-16  1.406301e-16
   outer loop
     vertex -1.667871e-16  4.977155e-01  6.843187e-02
     vertex -1.661066e-16  5.038443e-01  6.068073e-02
     vertex -2.220446e-16  3.397460e-01  0.000000e+00
   endloop
 endfacet
 facet normal -1.000000e+00  2.676687e-16  2.237142e-16
   outer loop
     vertex -1.620229e-16  5.406279e-01  2.794618e-02
     vertex -2.220446e-16  3.397460e-01  0.000000e+00
     vertex -1.629215e-16  5.325335e-01  3.361392e-02
   endloop
 endfacet
 facet normal -1.000000e+00  2.942274e-16  1.282816e-16
   outer loop
     vertex -1.674163e-16  4.920478e-01  7.652625e-02
     vertex -1.667871e-16  4.977155e-01  6.843187e-02
     vertex -2.220446e-16  3.397460e-01  0.000000e+00
   endloop
 endfacet
 facet normal -1.000000e+00  2.642351e-16  2.483957e-16
   outer loop
     vertex -1.610891e-16  5.490381e-01  2.275866e-02
     vertex -2.220446e-16  3.397460e-01  0.000000e+00
     vertex -1.620229e-16  5.406279e-01  2.794618e-02
   endloop
 endfacet
 facet normal -1.000000e+00  3.000882e-16  1.166176e-16
   outer loop
     vertex -1.679923e-16  4.868603e-01  8.493649e-02
     vertex -1.674163e-16  4.920478e-01  7.652625e-02
     vertex -2.220446e-16  3.397460e-01  0.000000e+00
   endloop
 endfacet
 facet normal -1.000000e+00  2.609995e-16  2.781501e-16
   outer loop
     vertex -1.601235e-16  5.577357e-01  1.806894e-02
     vertex -2.220446e-16  3.397460e-01  0.000000e+00
     vertex -1.610891e-16  5.490381e-01  2.275866e-02
   endloop
 endfacet
 facet normal -1.000000e+00  3.065490e-16  1.054271e-16
   outer loop
     vertex -1.685129e-16  4.821706e-01  9.363413e-02
     vertex -1.679923e-16  4.868603e-01  8.493649e-02
     vertex -2.220446e-16  3.397460e-01  0.000000e+00
   endloop
 endfacet
 facet normal -1.000000e+00  2.579397e-16  3.150653e-16
   outer loop
     vertex -1.591292e-16  5.666913e-01  1.389287e-02
     vertex -2.220446e-16  3.397460e-01  0.000000e+00
     vertex -1.601235e-16  5.577357e-01  1.806894e-02
   endloop
 endfacet
 facet normal -1.000000e+00  3.137200e-16  9.451947e-17
   outer loop
     vertex -1.689766e-16  4.779945e-01  1.025897e-01
     vertex -1.685129e-16  4.821706e-01  9.363413e-02
     vertex -2.220446e-16  3.397460e-01  0.000000e+00
   endloop
 endfacet
 facet normal -1.000000e+00  2.550357e-16  3.625033e-16
   outer loop
     vertex -1.581097e-16  5.758746e-01  1.024459e-02
     vertex -2.220446e-16  3.397460e-01  0.000000e+00
     vertex -1.591292e-16  5.666913e-01  1.389287e-02
   endloop
 endfacet
 facet normal -1.000000e+00  3.217394e-16  8.371255e-17
   outer loop
     vertex -1.693816e-16  4.743462e-01  1.117730e-01
     vertex -1.689766e-16  4.779945e-01  1.025897e-01
     vertex -2.220446e-16  3.397460e-01  0.000000e+00
   endloop
 endfacet
 facet normal -1.000000e+00  2.522695e-16  4.262601e-16
   outer loop
     vertex -1.570683e-16  5.852545e-01  7.136447e-03
     vertex -2.220446e-16  3.397460e-01  0.000000e+00
     vertex -1.581097e-16  5.758746e-01  1.024459e-02
   endloop
 endfacet
 facet normal -1.000000e+00  3.307838e-16  7.282103e-17
   outer loop
     vertex -1.697267e-16  4.712381e-01  1.211529e-01
     vertex -1.693816e-16  4.743462e-01  1.117730e-01
     vertex -2.220446e-16  3.397460e-01  0.000000e+00
   endloop
 endfacet
 facet normal -1.000000e+00  2.496241e-16  5.172689e-16
   outer loop
     vertex -1.560086e-16  5.947992e-01  4.578948e-03
     vertex -2.220446e-16  3.397460e-01  0.000000e+00
     vertex -1.570683e-16  5.852545e-01  7.136447e-03
   endloop
 endfacet
 facet normal -1.000000e+00  3.410818e-16  6.164425e-17
   outer loop
     vertex -1.700106e-16  4.686806e-01  1.306976e-01
     vertex -1.697267e-16  4.712381e-01  1.211529e-01
     vertex -2.220446e-16  3.397460e-01  0.000000e+00
   endloop
 endfacet
 facet normal -1.000000e+00  2.470808e-16  6.589320e-16
   outer loop
     vertex -1.549342e-16  6.044765e-01  2.580752e-03
     vertex -2.220446e-16  3.397460e-01  0.000000e+00
     vertex -1.560086e-16  5.947992e-01  4.578948e-03
   endloop
 endfacet
 facet normal -1.000000e+00  3.529350e-16  4.995095e-17
   outer loop
     vertex -1.702325e-16  4.666824e-01  1.403748e-01
     vertex -1.700106e-16  4.686806e-01  1.306976e-01
     vertex -2.220446e-16  3.397460e-01  0.000000e+00
   endloop
 endfacet
 facet normal -1.000000e+00  2.446136e-16  9.120200e-16
   outer loop
     vertex -1.538488e-16  6.142535e-01  1.148620e-03
     vertex -2.220446e-16  3.397460e-01  0.000000e+00
     vertex -1.549342e-16  6.044765e-01  2.580752e-03
   endloop
 endfacet
 facet normal -1.000000e+00  3.667499e-16  3.745857e-17
   outer loop
     vertex -1.703915e-16  4.652502e-01  1.501519e-01
     vertex -1.702325e-16  4.666824e-01  1.403748e-01
     vertex -2.220446e-16  3.397460e-01  0.000000e+00
   endloop
 endfacet
 facet normal -1.000000e+00  3.830877e-16  2.380264e-17
   outer loop
     vertex -1.704871e-16  4.643890e-01  1.599957e-01
     vertex -1.703915e-16  4.652502e-01  1.501519e-01
     vertex -2.220446e-16  3.397460e-01  0.000000e+00
   endloop
 endfacet
 facet normal -1.000000e+00  4.027457e-16  8.488283e-18
   outer loop
     vertex -1.705190e-16  4.641016e-01  1.698730e-01
     vertex -1.704871e-16  4.643890e-01  1.599957e-01
     vertex -2.220446e-16  3.397460e-01  0.000000e+00
   endloop
 endfacet
 facet normal -1.000000e+00  4.268960e-16 -9.190986e-18
   outer loop
     vertex -1.704871e-16  4.643890e-01  1.797502e-01
     vertex -1.705190e-16  4.641016e-01  1.698730e-01
     vertex -2.220446e-16  3.397460e-01  0.000000e+00
   endloop
 endfacet
 facet normal -1.000000e+00  4.573355e-16 -3.029848e-17
   outer loop
     vertex -1.703915e-16  4.652502e-01  1.895940e-01
     vertex -1.704871e-16  4.643890e-01  1.797502e-01
     vertex -2.220446e-16  3.397460e-01  0.000000e+00
   endloop
 endfacet
 facet normal -1.000000e+00  4.969661e-16 -5.653244e-17
   outer loop
     vertex -1.702325e-16  4.666824e-01  1.993711e-01
     vertex -1.703915e-16  4.652502e-01  1.895940e-01
     vertex -2.220446e-16  3.397460e-01  0.000000e+00
   endloop
 endfacet
 facet normal -1.000000e+00  5.507980e-16 -9.080638e-17
   outer loop
     vertex -1.700106e-16  4.686806e-01  2.090484e-01
     vertex -1.702325e-16  4.666824e-01  1.993711e-01
     vertex -2.220446e-16  3.397460e-01  0.000000e+00
   endloop
 endfacet
 facet normal -1.000000e+00  6.282912e-16 -1.386018e-16
   outer loop
     vertex -1.697267e-16  4.712381e-01  2.185931e-01
     vertex -1.700106e-16  4.686806e-01  2.090484e-01
     vertex -2.220446e-16  3.397460e-01  0.000000e+00
   endloop
 endfacet
 facet normal -1.000000e+00  1.613086e-13 -9.313156e-14
   outer loop
     vertex -2.220446e-16  4.868603e-01  2.548095e-01
     vertex -1.685129e-16  4.821706e-01  2.461118e-01
     vertex -2.220446e-16  3.397460e-01  0.000000e+00
   endloop
 endfacet
 facet normal -1.000000e+00  1.474664e-15 -6.358768e-16
   outer loop
     vertex -1.685129e-16  4.821706e-01  2.461118e-01
     vertex -1.689766e-16  4.779945e-01  2.371562e-01
     vertex -2.220446e-16  3.397460e-01  0.000000e+00
   endloop
 endfacet
 facet normal -1.000000e+00  9.676504e-16 -3.403166e-16
   outer loop
     vertex -1.689766e-16  4.779945e-01  2.371562e-01
     vertex -1.693816e-16  4.743462e-01  2.279730e-01
     vertex -2.220446e-16  3.397460e-01  0.000000e+00
   endloop
 endfacet
 facet normal -1.000000e+00  7.497034e-16 -2.116359e-16
   outer loop
     vertex -1.693816e-16  4.743462e-01  2.279730e-01
     vertex -1.697267e-16  4.712381e-01  2.185931e-01
     vertex -2.220446e-16  3.397460e-01  0.000000e+00
   endloop
 endfacet
 facet normal -1.000000e+00  0.000000e+00  2.410896e-13
   outer loop
     vertex -2.220446e-16  3.397460e-01  0.000000e+00
     vertex -1.527559e-16  6.240974e-01  2.873982e-04
     vertex -2.220446e-16  6.339746e-01  0.000000e+00
   endloop
 endfacet
 facet normal -1.000000e+00  2.421579e-16  1.498887e-15
   outer loop
     vertex -2.220446e-16  3.397460e-01  0.000000e+00
     vertex -1.538488e-16  6.142535e-01  1.148620e-03
     vertex -1.527559e-16  6.240974e-01  2.873982e-04
   endloop
 endfacet
 facet normal  1.069281e-16  8.802014e-01 -4.746004e-01
   outer loop
     vertex -1.685129e-16  4.821706e-01  2.461118e-01
     vertex -2.220446e-16  4.868603e-01  2.548095e-01
     vertex  1.366025e+00  4.868603e-01  2.548095e-01
   endloop
 endfacet
 facet normal  3.946289e-17  8.802014e-01 -4.746004e-01
   outer loop
     vertex -1.685129e-16  4.821706e-01  2.461118e-01
     vertex  1.366025e+00  4.868603e-01  2.548095e-01
     vertex  1.366025e+00  4.821706e-01  2.461118e-01
   endloop
 endfacet
 facet normal  2.844098e-17  9.063078e-01 -4.226183e-01
   outer loop
     vertex -1.689766e-16  4.779945e-01  2.371562e-01
     vertex  1.366025e+00  4.821706e-01  2.461118e-01
     vertex  1.366025e+00  4.779945e-01  2.371562e-01
   endloop
 endfacet
 facet normal  8.483968e-17  9.063078e-01 -4.226183e-01
   outer loop
     vertex -1.689766e-16  4.779945e-01  2.371562e-01
     vertex -1.685129e-16  4.821706e-01  2.461118e-01
     vertex  1.366025e+00  4.821706e-01  2.461118e-01
   endloop
 endfacet
 facet normal  3.930980e-17  9.293475e-01 -3.692061e-01
   outer loop
     vertex -1.693816e-16  4.743462e-01  2.279730e-01
     vertex  1.366025e+00  4.779945e-01  2.371562e-01
     vertex  1.366025e+00  4.743462e-01  2.279730e-01
   endloop
 endfacet
 facet normal  6.927738e-17  9.293475e-01 -3.692061e-01
   outer loop
     vertex -1.693816e-16  4.743462e-01  2.279730e-01
     vertex -1.689766e-16  4.779945e-01  2.371562e-01
     vertex  1.366025e+00  4.779945e-01  2.371562e-01
   endloop
 endfacet
 facet normal  6.527819e-17  9.492426e-01 -3.145448e-01
   outer loop
     vertex -1.697267e-16  4.712381e-01  2.185931e-01
     vertex  1.366025e+00  4.743462e-01  2.279730e-01
     vertex  1.366025e+00  4.712381e-01  2.185931e-01
   endloop
 endfacet
 facet normal  7.831356e-17  9.492426e-01 -3.145448e-01
   outer loop
     vertex -1.697267e-16  4.712381e-01  2.185931e-01
     vertex -1.693816e-16  4.743462e-01  2.279730e-01
     vertex  1.366025e+00  4.743462e-01  2.279730e-01
   endloop
 endfacet
 facet normal  1.040436e-16  9.659258e-01 -2.588190e-01
   outer loop
     vertex -1.700106e-16  4.686806e-01  2.090484e-01
     vertex  1.366025e+00  4.712381e-01  2.185931e-01
     vertex  1.366025e+00  4.686806e-01  2.090484e-01
   endloop
 endfacet
 facet normal  9.864496e-17  9.659258e-01 -2.588190e-01
   outer loop
     vertex -1.700106e-16  4.686806e-01  2.090484e-01
     vertex -1.697267e-16  4.712381e-01  2.185931e-01
     vertex  1.366025e+00  4.712381e-01  2.185931e-01
   endloop
 endfacet
 facet normal  1.360447e-16  9.793406e-01 -2.022176e-01
   outer loop
     vertex -1.702325e-16  4.666824e-01  1.993711e-01
     vertex -1.700106e-16  4.686806e-01  2.090484e-01
     vertex  1.366025e+00  4.686806e-01  2.090484e-01
   endloop
 endfacet
 facet normal  6.468840e-17  9.793406e-01 -2.022176e-01
   outer loop
     vertex -1.702325e-16  4.666824e-01  1.993711e-01
     vertex  1.366025e+00  4.686806e-01  2.090484e-01
     vertex  1.366025e+00  4.666824e-01  1.993711e-01
   endloop
 endfacet
 facet normal  9.312285e-17  9.894416e-01 -1.449319e-01
   outer loop
     vertex -1.703915e-16  4.652502e-01  1.895940e-01
     vertex -1.702325e-16  4.666824e-01  1.993711e-01
     vertex  1.366025e+00  4.666824e-01  1.993711e-01
   endloop
 endfacet
 facet normal  6.172783e-17  9.894416e-01 -1.449319e-01
   outer loop
     vertex -1.703915e-16  4.652502e-01  1.895940e-01
     vertex  1.366025e+00  4.666824e-01  1.993711e-01
     vertex  1.366025e+00  4.652502e-01  1.895940e-01
   endloop
 endfacet
 facet normal  4.908898e-17  9.961947e-01 -8.715574e-02
   outer loop
     vertex -1.704871e-16  4.643890e-01  1.797502e-01
     vertex  1.366025e+00  4.652502e-01  1.895940e-01
     vertex  1.366025e+00  4.643890e-01  1.797502e-01
   endloop
 endfacet
 facet normal  8.609471e-17  9.961947e-01 -8.715574e-02
   outer loop
     vertex -1.704871e-16  4.643890e-01  1.797502e-01
     vertex -1.703915e-16  4.652502e-01  1.895940e-01
     vertex  1.366025e+00  4.652502e-01  1.895940e-01
   endloop
 endfacet
 facet normal  7.296618e-17  9.995770e-01 -2.908472e-02
   outer loop
     vertex -1.705190e-16  4.641016e-01  1.698730e-01
     vertex  1.366025e+00  4.643890e-01  1.797502e-01
     vertex  1.366025e+00  4.641016e-01  1.698730e-01
   endloop
 endfacet
 facet normal  7.059515e-17  9.995770e-01 -2.908472e-02
   outer loop
     vertex -1.705190e-16  4.641016e-01  1.698730e-01
     vertex -1.704871e-16  4.643890e-01  1.797502e-01
     vertex  1.366025e+00  4.643890e-01  1.797502e-01
   endloop
 endfacet
 facet normal  4.771128e-17  9.995770e-01  2.908472e-02
   outer loop
     vertex -1.704871e-16  4.643890e-01  1.599957e-01
     vertex  1.366025e+00  4.641016e-01  1.698730e-01
     vertex  1.366025e+00  4.643890e-01  1.599957e-01
   endloop
 endfacet
 facet normal  8.951465e-17  9.995770e-01  2.908472e-02
   outer loop
     vertex -1.704871e-16  4.643890e-01  1.599957e-01
     vertex -1.705190e-16  4.641016e-01  1.698730e-01
     vertex  1.366025e+00  4.641016e-01  1.698730e-01
   endloop
 endfacet
 facet normal  9.690255e-17  9.961947e-01  8.715574e-02
   outer loop
     vertex -1.703915e-16  4.652502e-01  1.501519e-01
     vertex  1.366025e+00  4.643890e-01  1.599957e-01
     vertex  1.366025e+00  4.652502e-01  1.501519e-01
   endloop
 endfacet
 facet normal  6.174723e-17  9.961947e-01  8.715574e-02
   outer loop
     vertex -1.703915e-16  4.652502e-01  1.501519e-01
     vertex -1.704871e-16  4.643890e-01  1.599957e-01
     vertex  1.366025e+00  4.643890e-01  1.599957e-01
   endloop
 endfacet
 facet normal  9.808463e-17  9.894416e-01  1.449319e-01
   outer loop
     vertex -1.702325e-16  4.666824e-01  1.403748e-01
     vertex  1.366025e+00  4.652502e-01  1.501519e-01
     vertex  1.366025e+00  4.666824e-01  1.403748e-01
   endloop
 endfacet
 facet normal  1.069281e-16  9.894416e-01  1.449319e-01
   outer loop
     vertex -1.702325e-16  4.666824e-01  1.403748e-01
     vertex -1.703915e-16  4.652502e-01  1.501519e-01
     vertex  1.366025e+00  4.652502e-01  1.501519e-01
   endloop
 endfacet
 facet normal  9.602992e-17  9.793406e-01  2.022176e-01
   outer loop
     vertex -1.700106e-16  4.686806e-01  1.306976e-01
     vertex  1.366025e+00  4.666824e-01  1.403748e-01
     vertex  1.366025e+00  4.686806e-01  1.306976e-01
   endloop
 endfacet
 facet normal  1.044181e-16  9.793406e-01  2.022176e-01
   outer loop
     vertex -1.700106e-16  4.686806e-01  1.306976e-01
     vertex -1.702325e-16  4.666824e-01  1.403748e-01
     vertex  1.366025e+00  4.666824e-01  1.403748e-01
   endloop
 endfacet
 facet normal  4.451112e-17  9.659258e-01  2.588190e-01
   outer loop
     vertex -1.697267e-16  4.712381e-01  1.211529e-01
     vertex  1.366025e+00  4.686806e-01  1.306976e-01
     vertex  1.366025e+00  4.712381e-01  1.211529e-01
   endloop
 endfacet
 facet normal  9.964898e-17  9.659258e-01  2.588190e-01
   outer loop
     vertex -1.697267e-16  4.712381e-01  1.211529e-01
     vertex -1.700106e-16  4.686806e-01  1.306976e-01
     vertex  1.366025e+00  4.686806e-01  1.306976e-01
   endloop
 endfacet
 facet normal  6.436656e-17  9.492426e-01  3.145448e-01
   outer loop
     vertex -1.693816e-16  4.743462e-01  1.117730e-01
     vertex  1.366025e+00  4.712381e-01  1.211529e-01
     vertex  1.366025e+00  4.743462e-01  1.117730e-01
   endloop
 endfacet
 facet normal  6.052834e-17  9.293475e-01  3.692061e-01
   outer loop
     vertex -1.693816e-16  4.743462e-01  1.117730e-01
     vertex  1.366025e+00  4.743462e-01  1.117730e-01
     vertex  1.366025e+00  4.779945e-01  1.025897e-01
   endloop
 endfacet
 facet normal  4.492989e-17  9.492426e-01  3.145448e-01
   outer loop
     vertex -1.693816e-16  4.743462e-01  1.117730e-01
     vertex -1.697267e-16  4.712381e-01  1.211529e-01
     vertex  1.366025e+00  4.712381e-01  1.211529e-01
   endloop
 endfacet
 facet normal  8.704165e-17  9.293475e-01  3.692061e-01
   outer loop
     vertex -1.689766e-16  4.779945e-01  1.025897e-01
     vertex -1.693816e-16  4.743462e-01  1.117730e-01
     vertex  1.366025e+00  4.779945e-01  1.025897e-01
   endloop
 endfacet
 facet normal  9.579666e-17  9.063078e-01  4.226183e-01
   outer loop
     vertex -1.685129e-16  4.821706e-01  9.363413e-02
     vertex  1.366025e+00  4.779945e-01  1.025897e-01
     vertex  1.366025e+00  4.821706e-01  9.363413e-02
   endloop
 endfacet
 facet normal  8.082361e-17  9.063078e-01  4.226183e-01
   outer loop
     vertex -1.685129e-16  4.821706e-01  9.363413e-02
     vertex -1.689766e-16  4.779945e-01  1.025897e-01
     vertex  1.366025e+00  4.779945e-01  1.025897e-01
   endloop
 endfacet
 facet normal  6.110803e-17  8.802014e-01  4.746004e-01
   outer loop
     vertex -1.679923e-16  4.868603e-01  8.493649e-02
     vertex  1.366025e+00  4.821706e-01  9.363413e-02
     vertex  1.366025e+00  4.868603e-01  8.493649e-02
   endloop
 endfacet
 facet normal  4.768003e-17  8.511167e-01  5.249766e-01
   outer loop
     vertex -1.679923e-16  4.868603e-01  8.493649e-02
     vertex  1.366025e+00  4.868603e-01  8.493649e-02
     vertex  1.366025e+00  4.920478e-01  7.652625e-02
   endloop
 endfacet
 facet normal  8.483968e-17  8.802014e-01  4.746004e-01
   outer loop
     vertex -1.679923e-16  4.868603e-01  8.493649e-02
     vertex -1.685129e-16  4.821706e-01  9.363413e-02
     vertex  1.366025e+00  4.821706e-01  9.363413e-02
   endloop
 endfacet
 facet normal  4.989726e-17  8.191520e-01  5.735764e-01
   outer loop
     vertex -1.674163e-16  4.920478e-01  7.652625e-02
     vertex  1.366025e+00  4.920478e-01  7.652625e-02
     vertex  1.366025e+00  4.977155e-01  6.843187e-02
   endloop
 endfacet
 facet normal  6.626675e-17  8.511167e-01  5.249766e-01
   outer loop
     vertex -1.674163e-16  4.920478e-01  7.652625e-02
     vertex -1.679923e-16  4.868603e-01  8.493649e-02
     vertex  1.366025e+00  4.920478e-01  7.652625e-02
   endloop
 endfacet
 facet normal  3.372960e-17  7.844157e-01  6.202355e-01
   outer loop
     vertex -1.667871e-16  4.977155e-01  6.843187e-02
     vertex  1.366025e+00  4.977155e-01  6.843187e-02
     vertex  1.366025e+00  5.038443e-01  6.068073e-02
   endloop
 endfacet
 facet normal  5.404961e-17  8.191520e-01  5.735764e-01
   outer loop
     vertex -1.667871e-16  4.977155e-01  6.843187e-02
     vertex -1.674163e-16  4.920478e-01  7.652625e-02
     vertex  1.366025e+00  4.977155e-01  6.843187e-02
   endloop
 endfacet
 facet normal  6.050150e-17  7.470251e-01  6.647959e-01
   outer loop
     vertex -1.661066e-16  5.038443e-01  6.068073e-02
     vertex  1.366025e+00  5.038443e-01  6.068073e-02
     vertex  1.366025e+00  5.104135e-01  5.329907e-02
   endloop
 endfacet
 facet normal  8.487992e-17  7.844157e-01  6.202355e-01
   outer loop
     vertex -1.661066e-16  5.038443e-01  6.068073e-02
     vertex -1.667871e-16  4.977155e-01  6.843187e-02
     vertex  1.366025e+00  5.038443e-01  6.068073e-02
   endloop
 endfacet
 facet normal  1.436734e-17  7.071068e-01  7.071068e-01
   outer loop
     vertex -1.653773e-16  5.104135e-01  5.329907e-02
     vertex  1.366025e+00  5.104135e-01  5.329907e-02
     vertex  1.366025e+00  5.174007e-01  4.631185e-02
   endloop
 endfacet
 facet normal  4.024002e-17  7.470251e-01  6.647959e-01
   outer loop
     vertex -1.653773e-16  5.104135e-01  5.329907e-02
     vertex -1.661066e-16  5.038443e-01  6.068073e-02
     vertex  1.366025e+00  5.104135e-01  5.329907e-02
   endloop
 endfacet
 facet normal  1.970901e-17  6.647959e-01  7.470251e-01
   outer loop
     vertex -1.646016e-16  5.174007e-01  4.631185e-02
     vertex  1.366025e+00  5.174007e-01  4.631185e-02
     vertex  1.366025e+00  5.247823e-01  3.974273e-02
   endloop
 endfacet
 facet normal  5.028570e-17  7.071068e-01  7.071068e-01
   outer loop
     vertex -1.646016e-16  5.174007e-01  4.631185e-02
     vertex -1.653773e-16  5.104135e-01  5.329907e-02
     vertex  1.366025e+00  5.174007e-01  4.631185e-02
   endloop
 endfacet
 facet normal  7.931999e-17  6.202355e-01  7.844157e-01
   outer loop
     vertex -1.637821e-16  5.247823e-01  3.974273e-02
     vertex  1.366025e+00  5.247823e-01  3.974273e-02
     vertex  1.366025e+00  5.325335e-01  3.361392e-02
   endloop
 endfacet
 facet normal  1.116857e-16  6.647959e-01  7.470251e-01
   outer loop
     vertex -1.637821e-16  5.247823e-01  3.974273e-02
     vertex -1.646016e-16  5.174007e-01  4.631185e-02
     vertex  1.366025e+00  5.247823e-01  3.974273e-02
   endloop
 endfacet
 facet normal  3.004198e-17  5.735764e-01  8.191520e-01
   outer loop
     vertex -1.629215e-16  5.325335e-01  3.361392e-02
     vertex  1.366025e+00  5.325335e-01  3.361392e-02
     vertex  1.366025e+00  5.406279e-01  2.794618e-02
   endloop
 endfacet
 facet normal  6.338184e-17  6.202355e-01  7.844157e-01
   outer loop
     vertex -1.629215e-16  5.325335e-01  3.361392e-02
     vertex -1.637821e-16  5.247823e-01  3.974273e-02
     vertex  1.366025e+00  5.325335e-01  3.361392e-02
   endloop
 endfacet
 facet normal  3.118728e-17  5.249766e-01  8.511167e-01
   outer loop
     vertex -1.620229e-16  5.406279e-01  2.794618e-02
     vertex  1.366025e+00  5.406279e-01  2.794618e-02
     vertex  1.366025e+00  5.490381e-01  2.275866e-02
   endloop
 endfacet
 facet normal  6.332985e-17  5.735764e-01  8.191520e-01
   outer loop
     vertex -1.620229e-16  5.406279e-01  2.794618e-02
     vertex -1.629215e-16  5.325335e-01  3.361392e-02
     vertex  1.366025e+00  5.406279e-01  2.794618e-02
   endloop
 endfacet
 facet normal -1.060812e-18  4.746004e-01  8.802014e-01
   outer loop
     vertex -1.610891e-16  5.490381e-01  2.275866e-02
     vertex  1.366025e+00  5.490381e-01  2.275866e-02
     vertex  1.366025e+00  5.577357e-01  1.806894e-02
   endloop
 endfacet
 facet normal  3.118728e-17  5.249766e-01  8.511167e-01
   outer loop
     vertex -1.610891e-16  5.490381e-01  2.275866e-02
     vertex -1.620229e-16  5.406279e-01  2.794618e-02
     vertex  1.366025e+00  5.490381e-01  2.275866e-02
   endloop
 endfacet
 facet normal  2.193910e-17  4.226183e-01  9.063078e-01
   outer loop
     vertex -1.601235e-16  5.577357e-01  1.806894e-02
     vertex  1.366025e+00  5.577357e-01  1.806894e-02
     vertex  1.366025e+00  5.666913e-01  1.389287e-02
   endloop
 endfacet
 facet normal  5.259228e-17  4.746004e-01  8.802014e-01
   outer loop
     vertex -1.601235e-16  5.577357e-01  1.806894e-02
     vertex -1.610891e-16  5.490381e-01  2.275866e-02
     vertex  1.366025e+00  5.577357e-01  1.806894e-02
   endloop
 endfacet
 facet normal  1.009463e-17  3.692061e-01  9.293475e-01
   outer loop
     vertex -1.591292e-16  5.666913e-01  1.389287e-02
     vertex  1.366025e+00  5.666913e-01  1.389287e-02
     vertex  1.366025e+00  5.758746e-01  1.024459e-02
   endloop
 endfacet
 facet normal  4.035391e-17  4.226183e-01  9.063078e-01
   outer loop
     vertex -1.591292e-16  5.666913e-01  1.389287e-02
     vertex -1.601235e-16  5.577357e-01  1.806894e-02
     vertex  1.366025e+00  5.666913e-01  1.389287e-02
   endloop
 endfacet
 facet normal -9.116298e-19  3.145448e-01  9.492426e-01
   outer loop
     vertex -1.581097e-16  5.758746e-01  1.024459e-02
     vertex  1.366025e+00  5.758746e-01  1.024459e-02
     vertex  1.366025e+00  5.852545e-01  7.136447e-03
   endloop
 endfacet
 facet normal  2.897757e-17  3.692061e-01  9.293475e-01
   outer loop
     vertex -1.581097e-16  5.758746e-01  1.024459e-02
     vertex -1.591292e-16  5.666913e-01  1.389287e-02
     vertex  1.366025e+00  5.758746e-01  1.024459e-02
   endloop
 endfacet
 facet normal  3.138561e-17  3.145448e-01  9.492426e-01
   outer loop
     vertex -1.570683e-16  5.852545e-01  7.136447e-03
     vertex -1.581097e-16  5.758746e-01  1.024459e-02
     vertex  1.366025e+00  5.852545e-01  7.136447e-03
   endloop
 endfacet
 facet normal  7.028140e-18  2.588190e-01  9.659258e-01
   outer loop
     vertex -1.560086e-16  5.947992e-01  4.578948e-03
     vertex -1.570683e-16  5.852545e-01  7.136447e-03
     vertex  1.366025e+00  5.852545e-01  7.136447e-03
   endloop
 endfacet
 facet normal  2.667163e-17  2.588190e-01  9.659258e-01
   outer loop
     vertex -1.560086e-16  5.947992e-01  4.578948e-03
     vertex  1.366025e+00  5.852545e-01  7.136447e-03
     vertex  1.366025e+00  5.947992e-01  4.578948e-03
   endloop
 endfacet
 facet normal  2.510050e-18  2.022176e-01  9.793406e-01
   outer loop
     vertex -1.549342e-16  6.044765e-01  2.580752e-03
     vertex -1.560086e-16  5.947992e-01  4.578948e-03
     vertex  1.366025e+00  5.947992e-01  4.578948e-03
   endloop
 endfacet
 facet normal  2.247895e-17  2.022176e-01  9.793406e-01
   outer loop
     vertex -1.549342e-16  6.044765e-01  2.580752e-03
     vertex  1.366025e+00  5.947992e-01  4.578948e-03
     vertex  1.366025e+00  6.044765e-01  2.580752e-03
   endloop
 endfacet
 facet normal -1.380527e-18  1.449319e-01  9.894416e-01
   outer loop
     vertex -1.538488e-16  6.142535e-01  1.148620e-03
     vertex -1.549342e-16  6.044765e-01  2.580752e-03
     vertex  1.366025e+00  6.044765e-01  2.580752e-03
   endloop
 endfacet
 facet normal  1.868801e-17  1.449319e-01  9.894416e-01
   outer loop
     vertex -1.538488e-16  6.142535e-01  1.148620e-03
     vertex  1.366025e+00  6.044765e-01  2.580752e-03
     vertex  1.366025e+00  6.142535e-01  1.148620e-03
   endloop
 endfacet
 facet normal -5.064883e-18  8.715574e-02  9.961947e-01
   outer loop
     vertex -1.538488e-16  6.142535e-01  1.148620e-03
     vertex  1.366025e+00  6.142535e-01  1.148620e-03
     vertex  1.366025e+00  6.240974e-01  2.873982e-04
   endloop
 endfacet
 facet normal  8.092798e-18  8.715574e-02  9.961947e-01
   outer loop
     vertex -1.527559e-16  6.240974e-01  2.873982e-04
     vertex -1.538488e-16  6.142535e-01  1.148620e-03
     vertex  1.366025e+00  6.240974e-01  2.873982e-04
   endloop
 endfacet
 facet normal -1.085597e-17  2.908472e-02  9.995770e-01
   outer loop
     vertex -2.220446e-16  6.339746e-01  0.000000e+00
     vertex -1.527559e-16  6.240974e-01  2.873982e-04
     vertex  1.366025e+00  6.240974e-01  2.873982e-04
   endloop
 endfacet
 facet normal  2.363830e-18  2.908472e-02  9.995770e-01
   outer loop
     vertex -2.220446e-16  6.339746e-01  0.000000e+00
     vertex  1.366025e+00  6.240974e-01  2.873982e-04
     vertex  1.366025e+00  6.339746e-01  0.000000e+00
   endloop
 endfacet
 facet normal  1.000000e+00  0.000000e+00  0.000000e+00
   outer loop
     vertex  1.366025e+00  3.397460e-01  0.000000e+00
     vertex  1.366025e+00  4.686806e-01  2.090484e-01
     vertex  1.366025e+00  4.712381e-01  2.185931e-01
   endloop
 endfacet
 facet normal  1.000000e+00  0.000000e+00  0.000000e+00
   outer loop
     vertex  1.366025e+00  3.397460e-01  0.000000e+00
     vertex  1.366025e+00  4.666824e-01  1.993711e-01
     vertex  1.366025e+00  4.686806e-01  2.090484e-01
   endloop
 endfacet
 facet normal  1.000000e+00  0.000000e+00  0.000000e+00
   outer loop
     vertex  1.366025e+00  3.397460e-01  0.000000e+00
     vertex  1.366025e+00  4.652502e-01  1.895940e-01
     vertex  1.366025e+00  4.666824e-01  1.993711e-01
   endloop
 endfacet
 facet normal  1.000000e+00  0.000000e+00  0.000000e+00
   outer loop
     vertex  1.366025e+00  3.397460e-01  0.000000e+00
     vertex  1.366025e+00  4.643890e-01  1.797502e-01
     vertex  1.366025e+00  4.652502e-01  1.895940e-01
   endloop
 endfacet
 facet normal  1.000000e+00  0.000000e+00  0.000000e+00
   outer loop
     vertex  1.366025e+00  3.397460e-01  0.000000e+00
     vertex  1.366025e+00  4.641016e-01  1.698730e-01
     vertex  1.366025e+00  4.643890e-01  1.797502e-01
   endloop
 endfacet
 facet normal  1.000000e+00  0.000000e+00  0.000000e+00
   outer loop
     vertex  1.366025e+00  3.397460e-01  0.000000e+00
     vertex  1.366025e+00  4.643890e-01  1.599957e-01
     vertex  1.366025e+00  4.641016e-01  1.698730e-01
   endloop
 endfacet
 facet normal  1.000000e+00  0.000000e+00  0.000000e+00
   outer loop
     vertex  1.366025e+00  3.397460e-01  0.000000e+00
     vertex  1.366025e+00  4.652502e-01  1.501519e-01
     vertex  1.366025e+00  4.643890e-01  1.599957e-01
   endloop
 endfacet
 facet normal  1.000000e+00  0.000000e+00  0.000000e+00
   outer loop
     vertex  1.366025e+00  3.397460e-01  0.000000e+00
     vertex  1.366025e+00  4.666824e-01  1.403748e-01
     vertex  1.366025e+00  4.652502e-01  1.501519e-01
   endloop
 endfacet
 facet normal  1.000000e+00  0.000000e+00  0.000000e+00
   outer loop
     vertex  1.366025e+00  3.397460e-01  0.000000e+00
     vertex  1.366025e+00  4.686806e-01  1.306976e-01
     vertex  1.366025e+00  4.666824e-01  1.403748e-01
   endloop
 endfacet
 facet normal  1.000000e+00  0.000000e+00  0.000000e+00
   outer loop
     vertex  1.366025e+00  4.712381e-01  1.211529e-01
     vertex  1.366025e+00  4.686806e-01  1.306976e-01
     vertex  1.366025e+00  3.397460e-01  0.000000e+00
   endloop
 endfacet
 facet normal  1.000000e+00  0.000000e+00  0.000000e+00
   outer loop
     vertex  1.366025e+00  4.743462e-01  1.117730e-01
     vertex  1.366025e+00  4.712381e-01  1.211529e-01
     vertex  1.366025e+00  3.397460e-01  0.000000e+00
   endloop
 endfacet
 facet normal  1.000000e+00  0.000000e+00  0.000000e+00
   outer loop
     vertex  1.366025e+00  4.779945e-01  1.025897e-01
     vertex  1.366025e+00  4.743462e-01  1.117730e-01
     vertex  1.366025e+00  3.397460e-01  0.000000e+00
   endloop
 endfacet
 facet normal  1.000000e+00  0.000000e+00  0.000000e+00
   outer loop
     vertex  1.366025e+00  4.821706e-01  9.363413e-02
     vertex  1.366025e+00  4.779945e-01  1.025897e-01
     vertex  1.366025e+00  3.397460e-01  0.000000e+00
   endloop
 endfacet
 facet normal  1.000000e+00  0.000000e+00  0.000000e+00
   outer loop
     vertex  1.366025e+00  4.868603e-01  8.493649e-02
     vertex  1.366025e+00  4.821706e-01  9.363413e-02
     vertex  1.366025e+00  3.397460e-01  0.000000e+00
   endloop
 endfacet
 facet normal  1.000000e+00  0.000000e+00  0.000000e+00
   outer loop
     vertex  1.366025e+00  4.920478e-01  7.652625e-02
     vertex  1.366025e+00  4.868603e-01  8.493649e-02
     vertex  1.366025e+00  3.397460e-01  0.000000e+00
   endloop
 endfacet
 facet normal  1.000000e+00  0.000000e+00  0.000000e+00
   outer loop
     vertex  1.366025e+00  4.977155e-01  6.843187e-02
     vertex  1.366025e+00  4.920478e-01  7.652625e-02
     vertex  1.366025e+00  3.397460e-01  0.000000e+00
   endloop
 endfacet
 facet normal  1.000000e+00  0.000000e+00  0.000000e+00
   outer loop
     vertex  1.366025e+00  5.038443e-01  6.068073e-02
     vertex  1.366025e+00  4.977155e-01  6.843187e-02
     vertex  1.366025e+00  3.397460e-01  0.000000e+00
   endloop
 endfacet
 facet normal  1.000000e+00  0.000000e+00  0.000000e+00
   outer loop
     vertex  1.366025e+00  5.104135e-01  5.329907e-02
     vertex  1.366025e+00  5.038443e-01  6.068073e-02
     vertex  1.366025e+00  3.397460e-01  0.000000e+00
   endloop
 endfacet
 facet normal  1.000000e+00  0.000000e+00  0.000000e+00
   outer loop
     vertex  1.366025e+00  5.174007e-01  4.631185e-02
     vertex  1.366025e+00  5.104135e-01  5.329907e-02
     vertex  1.366025e+00  3.397460e-01  0.000000e+00
   endloop
 endfacet
 facet normal  1.000000e+00  0.000000e+00  0.000000e+00
   outer loop
     vertex  1.366025e+00  5.247823e-01  3.974273e-02
     vertex  1.366025e+00  5.174007e-01  4.631185e-02
     vertex  1.366025e+00  3.397460e-01  0.000000e+00
   endloop
 endfacet
 facet normal  1.000000e+00  0.000000e+00  0.000000e+00
   outer loop
     vertex  1.366025e+00  5.325335e-01  3.361392e-02
     vertex  1.366025e+00  5.247823e-01  3.974273e-02
     vertex  1.366025e+00  3.397460e-01  0.000000e+00
   endloop
 endfacet
 facet normal  1.000000e+00  0.000000e+00  0.000000e+00
   outer loop
     vertex  1.366025e+00  5.406279e-01  2.794618e-02
     vertex  1.366025e+00  5.325335e-01  3.361392e-02
     vertex  1.366025e+00  3.397460e-01  0.000000e+00
   endloop
 endfacet
 facet normal  1.000000e+00  0.000000e+00  0.000000e+00
   outer loop
     vertex  1.366025e+00  5.490381e-01  2.275866e-02
     vertex  1.366025e+00  5.406279e-01  2.794618e-02
     vertex  1.366025e+00  3.397460e-01  0.000000e+00
   endloop
 endfacet
 facet normal  1.000000e+00  0.000000e+00  0.000000e+00
   outer loop
     vertex  1.366025e+00  5.577357e-01  1.806894e-02
     vertex  1.366025e+00  5.490381e-01  2.275866e-02
     vertex  1.366025e+00  3.397460e-01  0.000000e+00
   endloop
 endfacet
 facet normal  1.000000e+00  0.000000e+00  0.000000e+00
   outer loop
     vertex  1.366025e+00  5.666913e-01  1.389287e-02
     vertex  1.366025e+00  5.577357e-01  1.806894e-02
     vertex  1.366025e+00  3.397460e-01  0.000000e+00
   endloop
 endfacet
 facet normal  1.000000e+00  0.000000e+00  0.000000e+00
   outer loop
     vertex  1.366025e+00  5.758746e-01  1.024459e-02
     vertex  1.366025e+00  5.666913e-01  1.389287e-02
     vertex  1.366025e+00  3.397460e-01  0.000000e+00
   endloop
 endfacet
 facet normal  1.000000e+00  0.000000e+00  0.000000e+00
   outer loop
     vertex  1.366025e+00  5.852545e-01  7.136447e-03
     vertex  1.366025e+00  5.758746e-01  1.024459e-02
     vertex  1.366025e+00  3.397460e-01  0.000000e+00
   endloop
 endfacet
 facet normal  1.000000e+00  0.000000e+00  0.000000e+00
   outer loop
     vertex  1.366025e+00  4.868603e-01  2.548095e-01
     vertex  1.366025e+00  3.397460e-01  0.000000e+00
     vertex  1.366025e+00  4.821706e-01  2.461118e-01
   endloop
 endfacet
 facet normal  1.000000e+00  0.000000e+00  0.000000e+00
   outer loop
     vertex  1.366025e+00  4.821706e-01  2.461118e-01
     vertex  1.366025e+00  3.397460e-01  0.000000e+00
     vertex  1.366025e+00  4.779945e-01  2.371562e-01
   endloop
 endfacet
 facet normal  1.000000e+00  0.000000e+00  0.000000e+00
   outer loop
     vertex  1.366025e+00  4.779945e-01  2.371562e-01
     vertex  1.366025e+00  3.397460e-01  0.000000e+00
     vertex  1.366025e+00  4.743462e-01  2.279730e-01
   endloop
 endfacet
 facet normal  1.000000e+00  0.000000e+00  0.000000e+00
   outer loop
     vertex  1.366025e+00  4.743462e-01  2.279730e-01
     vertex  1.366025e+00  3.397460e-01  0.000000e+00
     vertex  1.366025e+00  4.712381e-01  2.185931e-01
   endloop
 endfacet
 facet normal  1.000000e+00  0.000000e+00  0.000000e+00
   outer loop
     vertex  1.366025e+00  3.397460e-01  0.000000e+00
     vertex  1.366025e+00  6.339746e-01  0.000000e+00
     vertex  1.366025e+00  6.240974e-01  2.873982e-04
   endloop
 endfacet
 facet normal  1.000000e+00  0.000000e+00  0.000000e+00
   outer loop
     vertex  1.366025e+00  3.397460e-01  0.000000e+00
     vertex  1.366025e+00  6.240974e-01  2.873982e-04
     vertex  1.366025e+00  6.142535e-01  1.148620e-03
   endloop
 endfacet
 facet normal  1.000000e+00  0.000000e+00  0.000000e+00
   outer loop
     vertex  1.366025e+00  3.397460e-01  0.000000e+00
     vertex  1.366025e+00  6.142535e-01  1.148620e-03
     vertex  1.366025e+00  6.044765e-01  2.580752e-03
   endloop
 endfacet
 facet normal  1.000000e+00  0.000000e+00  0.000000e+00
   outer loop
     vertex  1.366025e+00  3.397460e-01  0.000000e+00
     vertex  1.366025e+00  6.044765e-01  2.580752e-03
     vertex  1.366025e+00  5.947992e-01  4.578948e-03
   endloop
 endfacet
 facet normal  1.000000e+00  0.000000e+00  0.000000e+00
   outer loop
     vertex  1.366025e+00  3.397460e-01  0.000000e+00
     vertex  1.366025e+00  5.947992e-01  4.578948e-03
     vertex  1.366025e+00  5.852545e-01  7.136447e-03
   endloop
 endfacet
endsolid
