solid 
 facet normal  1.395638e-16  9.659258e-01  2.588190e-01
   outer loop
     vertex -1.366025e+00  1.205771e+00  1.500000e+00
     vertex -1.366025e+00  1.516593e-16  6.000000e+00
     vertex -2.220446e-16  2.465190e-32  6.000000e+00
   endloop
 endfacet
 facet normal  1.570092e-16  9.659258e-01  2.588190e-01
   outer loop
     vertex -1.366025e+00  1.205771e+00  1.500000e+00
     vertex -2.220446e-16  2.465190e-32  6.000000e+00
     vertex  0.000000e+00  1.205771e+00  1.500000e+00
   endloop
 endfacet
 facet normal -1.046728e-16 -9.659258e-01  2.588190e-01
   outer loop
     vertex -1.366025e+00  1.516593e-16  6.000000e+00
     vertex -1.366025e+00 -8.038476e-01  3.000000e+00
     vertex -2.220446e-16 -8.038476e-01  3.000000e+00
   endloop
 endfacet
 facet normal -1.072393e-16 -9.659258e-01  2.588190e-01
   outer loop
     vertex -1.366025e+00  1.516593e-16  6.000000e+00
     vertex -2.220446e-16 -8.038476e-01  3.000000e+00
     vertex -2.220446e-16  2.465190e-32  6.000000e+00
   endloop
 endfacet
 facet normal -1.000000e+00  1.381136e-16 -7.973994e-17
   outer loop
     vertex -1.366025e+00  3.397460e-01  0.000000e+00
     vertex -1.366025e+00 -1.267949e+00  0.000000e+00
     vertex -1.366025e+00 -1.218911e+00  8.493649e-02
   endloop
 endfacet
 facet normal -1.000000e+00  0.000000e+00  0.000000e+00
   outer loop
     vertex -1.366025e+00 -4.019238e-01  1.500000e+00
     vertex -1.366025e+00  4.868603e-01  2.548095e-01
     vertex -1.366025e+00  3.397460e-01  0.000000e+00
   endloop
 endfacet
 facet normal -1.000000e+00  1.464036e-16  7.238876e-17
   outer loop
     vertex -1.366025e+00 -4.019238e-01  1.500000e+00
     vertex -1.366025e+00  3.397460e-01  0.000000e+00
     vertex -1.366025e+00 -1.218911e+00  8.493649e-02
   endloop
 endfacet
 facet normal -1.000000e+00  1.381136e-16  3.700743e-17
   outer loop
     vertex -1.366025e+00  1.205771e+00  1.500000e+00
     vertex -1.366025e+00 -4.019238e-01  1.500000e+00
     vertex -1.366025e+00 -8.038476e-01  3.000000e+00
   endloop
 endfacet
 facet normal -1.000000e+00  1.381136e-16  9.858185e-17
   outer loop
     vertex -1.366025e+00  1.205771e+00  1.500000e+00
     vertex -1.366025e+00  4.868603e-01  2.548095e-01
     vertex -1.366025e+00 -4.019238e-01  1.500000e+00
   endloop
 endfacet
 facet normal -1.000000e+00  9.207575e-17 -2.467162e-17
   outer loop
     vertex -1.366025e+00  1.516593e-16  6.000000e+00
     vertex -1.366025e+00  1.205771e+00  1.500000e+00
     vertex -1.366025e+00 -8.038476e-01  3.000000e+00
   endloop
 endfacet
 facet normal  1.130515e-16  8.660254e-01 -5.000000e-01
   outer loop
     vertex -1.366025e+00  4.868603e-01  2.548095e-01
     vertex -1.366025e+00  1.205771e+00  1.500000e+00
     vertex  0.000000e+00  1.205771e+00  1.500000e+00
   endloop
 endfacet
 facet normal  1.055780e-16  8.660254e-01 -5.000000e-01
   outer loop
     vertex -1.366025e+00  4.868603e-01  2.548095e-01
     vertex  0.000000e+00  1.205771e+00  1.500000e+00
     vertex -2.220446e-16  4.868603e-01  2.548095e-01
   endloop
 endfacet
 facet normal  1.000000e+00 -1.381136e-16  7.973994e-17
   outer loop
     vertex -2.220446e-16  3.397460e-01  0.000000e+00
     vertex -4.440892e-16 -1.218911e+00  8.493649e-02
     vertex -4.440892e-16 -1.267949e+00  0.000000e+00
   endloop
 endfacet
 facet normal  1.000000e+00  0.000000e+00  0.000000e+00
   outer loop
     vertex -2.220446e-16 -4.019238e-01  1.500000e+00
     vertex -2.220446e-16  3.397460e-01  0.000000e+00
     vertex -2.220446e-16  4.868603e-01  2.548095e-01
   endloop
 endfacet
 facet normal  1.000000e+00 -1.464036e-16 -7.238876e-17
   outer loop
     vertex -2.220446e-16 -4.019238e-01  1.500000e+00
     vertex -4.440892e-16 -1.218911e+00  8.493649e-02
     vertex -2.220446e-16  3.397460e-01  0.000000e+00
   endloop
 endfacet
 facet normal  1.000000e+00 -1.381136e-16 -3.700743e-17
   outer loop
     vertex  0.000000e+00  1.205771e+00  1.500000e+00
     vertex -2.220446e-16 -8.038476e-01  3.000000e+00
     vertex -2.220446e-16 -4.019238e-01  1.500000e+00
   endloop
 endfacet
 facet normal  1.000000e+00 -1.381136e-16 -9.858185e-17
   outer loop
     vertex  0.000000e+00  1.205771e+00  1.500000e+00
     vertex -2.220446e-16 -4.019238e-01  1.500000e+00
     vertex -2.220446e-16  4.868603e-01  2.548095e-01
   endloop
 endfacet
 facet normal  1.000000e+00 -9.207575e-17  2.467162e-17
   outer loop
     vertex -2.220446e-16  2.465190e-32  6.000000e+00
     vertex -2.220446e-16 -8.038476e-01  3.000000e+00
     vertex  0.000000e+00  1.205771e+00  1.500000e+00
   endloop
 endfacet
 facet normal -1.570092e-16 -9.659258e-01 -2.588190e-01
   outer loop
     vertex -1.366025e+00 -8.038476e-01  3.000000e+00
     vertex -1.366025e+00 -4.019238e-01  1.500000e+00
     vertex -2.220446e-16 -4.019238e-01  1.500000e+00
   endloop
 endfacet
 facet normal -7.850462e-17 -9.659258e-01 -2.588190e-01
   outer loop
     vertex -1.366025e+00 -8.038476e-01  3.000000e+00
     vertex -2.220446e-16 -4.019238e-01  1.500000e+00
     vertex -2.220446e-16 -8.038476e-01  3.000000e+00
   endloop
 endfacet
 facet normal  1.035852e-16  8.660254e-01 -5.000000e-01
   outer loop
     vertex -1.366025e+00  3.397460e-01  0.000000e+00
     vertex -1.366025e+00  4.868603e-01  2.548095e-01
     vertex -2.220446e-16  4.868603e-01  2.548095e-01
   endloop
 endfacet
 facet normal  1.055780e-16  8.660254e-01 -5.000000e-01
   outer loop
     vertex -1.366025e+00  3.397460e-01  0.000000e+00
     vertex -2.220446e-16  4.868603e-01  2.548095e-01
     vertex -2.220446e-16  3.397460e-01  0.000000e+00
   endloop
 endfacet
 facet normal  0.000000e+00  0.000000e+00 -1.000000e+00
   outer loop
     vertex -1.366025e+00 -1.267949e+00  0.000000e+00
     vertex -1.366025e+00  3.397460e-01  0.000000e+00
     vertex -2.220446e-16  3.397460e-01  0.000000e+00
   endloop
 endfacet
 facet normal  0.000000e+00  0.000000e+00 -1.000000e+00
   outer loop
     vertex -1.366025e+00 -1.267949e+00  0.000000e+00
     vertex -2.220446e-16  3.397460e-01  0.000000e+00
     vertex -4.440892e-16 -1.267949e+00  0.000000e+00
   endloop
 endfacet
 facet normal -1.424297e-16 -8.660254e-01  5.000000e-01
   outer loop
     vertex -1.366025e+00 -1.218911e+00  8.493649e-02
     vertex -1.366025e+00 -1.267949e+00  0.000000e+00
     vertex -4.440892e-16 -1.267949e+00  0.000000e+00
   endloop
 endfacet
 facet normal -1.407706e-16 -8.660254e-01  5.000000e-01
   outer loop
     vertex -1.366025e+00 -1.218911e+00  8.493649e-02
     vertex -4.440892e-16 -1.267949e+00  0.000000e+00
     vertex -4.440892e-16 -1.218911e+00  8.493649e-02
   endloop
 endfacet
 facet normal -9.948009e-17 -8.660254e-01  5.000000e-01
   outer loop
     vertex -1.366025e+00 -4.019238e-01  1.500000e+00
     vertex -1.366025e+00 -1.218911e+00  8.493649e-02
     vertex -4.440892e-16 -1.218911e+00  8.493649e-02
   endloop
 endfacet
 facet normal -1.055780e-16 -8.660254e-01  5.000000e-01
   outer loop
     vertex -1.366025e+00 -4.019238e-01  1.500000e+00
     vertex -4.440892e-16 -1.218911e+00  8.493649e-02
     vertex -2.220446e-16 -4.019238e-01  1.500000e+00
   endloop
 endfacet
 facet normal -1.625479e-16 -1.000000e+00  0.000000e+00
   outer loop
     vertex -4.440892e-16 -1.366025e+00  0.000000e+00
     vertex -1.366025e+00 -1.366025e+00  0.000000e+00
     vertex -1.366025e+00 -1.366025e+00 -2.000000e+00
   endloop
 endfacet
 facet normal -1.625479e-16 -1.000000e+00 -0.000000e+00
   outer loop
     vertex -4.440892e-16 -1.366025e+00  0.000000e+00
     vertex -1.366025e+00 -1.366025e+00 -2.000000e+00
     vertex -4.440892e-16 -1.366025e+00 -2.000000e+00
   endloop
 endfacet
 facet normal  0.000000e+00  0.000000e+00  1.000000e+00
   outer loop
     vertex -1.366025e+00 -1.267949e+00  0.000000e+00
     vertex -1.366025e+00 -1.366025e+00  0.000000e+00
     vertex -4.440892e-16 -1.366025e+00  0.000000e+00
   endloop
 endfacet
 facet normal  0.000000e+00  0.000000e+00  1.000000e+00
   outer loop
     vertex -1.366025e+00 -1.267949e+00  0.000000e+00
     vertex -4.440892e-16 -1.366025e+00  0.000000e+00
     vertex -4.440892e-16 -1.267949e+00  0.000000e+00
   endloop
 endfacet
 facet normal  1.000000e+00  0.000000e+00  0.000000e+00
   outer loop
     vertex -4.440892e-16 -1.267949e+00  0.000000e+00
     vertex -4.440892e-16 -1.366025e+00  0.000000e+00
     vertex -4.440892e-16 -1.366025e+00 -2.000000e+00
   endloop
 endfacet
 facet normal  1.000000e+00 -1.625479e-16  2.761250e-17
   outer loop
     vertex -2.220446e-16  3.397460e-01  0.000000e+00
     vertex -4.440892e-16 -1.366025e+00 -2.000000e+00
     vertex  0.000000e+00  1.366025e+00 -2.000000e+00
   endloop
 endfacet
 facet normal  1.000000e+00 -1.381136e-16  6.772831e-18
   outer loop
     vertex -2.220446e-16  3.397460e-01  0.000000e+00
     vertex -4.440892e-16 -1.267949e+00  0.000000e+00
     vertex -4.440892e-16 -1.366025e+00 -2.000000e+00
   endloop
 endfacet
 facet normal  1.000000e+00  0.000000e+00  1.110223e-16
   outer loop
     vertex -2.220446e-16  6.339746e-01  0.000000e+00
     vertex -2.220446e-16  3.397460e-01  0.000000e+00
     vertex  0.000000e+00  1.366025e+00 -2.000000e+00
   endloop
 endfacet
 facet normal  1.000000e+00 -3.033186e-16  0.000000e+00
   outer loop
     vertex  0.000000e+00  1.366025e+00  0.000000e+00
     vertex -2.220446e-16  6.339746e-01  0.000000e+00
     vertex  0.000000e+00  1.366025e+00 -2.000000e+00
   endloop
 endfacet
 facet normal  0.000000e+00 -0.000000e+00 -1.000000e+00
   outer loop
     vertex -1.366025e+00  1.366025e+00 -2.000000e+00
     vertex -4.440892e-16 -1.366025e+00 -2.000000e+00
     vertex -1.366025e+00 -1.366025e+00 -2.000000e+00
   endloop
 endfacet
 facet normal  0.000000e+00  0.000000e+00 -1.000000e+00
   outer loop
     vertex -1.366025e+00  1.366025e+00 -2.000000e+00
     vertex  0.000000e+00  1.366025e+00 -2.000000e+00
     vertex -4.440892e-16 -1.366025e+00 -2.000000e+00
   endloop
 endfacet
 facet normal -1.000000e+00  3.033186e-16  0.000000e+00
   outer loop
     vertex -1.366025e+00  6.339746e-01  0.000000e+00
     vertex -1.366025e+00  1.366025e+00  0.000000e+00
     vertex -1.366025e+00  1.366025e+00 -2.000000e+00
   endloop
 endfacet
 facet normal -1.000000e+00  1.625479e-16 -2.761250e-17
   outer loop
     vertex -1.366025e+00  3.397460e-01  0.000000e+00
     vertex -1.366025e+00  1.366025e+00 -2.000000e+00
     vertex -1.366025e+00 -1.366025e+00 -2.000000e+00
   endloop
 endfacet
 facet normal -1.000000e+00  0.000000e+00 -1.110223e-16
   outer loop
     vertex -1.366025e+00  3.397460e-01  0.000000e+00
     vertex -1.366025e+00  6.339746e-01  0.000000e+00
     vertex -1.366025e+00  1.366025e+00 -2.000000e+00
   endloop
 endfacet
 facet normal -1.000000e+00  1.381136e-16 -6.772831e-18
   outer loop
     vertex -1.366025e+00 -1.267949e+00  0.000000e+00
     vertex -1.366025e+00  3.397460e-01  0.000000e+00
     vertex -1.366025e+00 -1.366025e+00 -2.000000e+00
   endloop
 endfacet
 facet normal -1.000000e+00  0.000000e+00  0.000000e+00
   outer loop
     vertex -1.366025e+00 -1.366025e+00  0.000000e+00
     vertex -1.366025e+00 -1.267949e+00  0.000000e+00
     vertex -1.366025e+00 -1.366025e+00 -2.000000e+00
   endloop
 endfacet
 facet normal  0.000000e+00  0.000000e+00  1.000000e+00
   outer loop
     vertex -1.366025e+00 -1.267949e+00  0.000000e+00
     vertex -2.220446e-16  3.397460e-01  0.000000e+00
     vertex -1.366025e+00  3.397460e-01  0.000000e+00
   endloop
 endfacet
 facet normal -0.000000e+00  0.000000e+00  1.000000e+00
   outer loop
     vertex -1.366025e+00 -1.267949e+00  0.000000e+00
     vertex -4.440892e-16 -1.267949e+00  0.000000e+00
     vertex -2.220446e-16  3.397460e-01  0.000000e+00
   endloop
 endfacet
 facet normal  0.000000e+00  0.000000e+00  1.000000e+00
   outer loop
     vertex -1.366025e+00  6.339746e-01  0.000000e+00
     vertex -1.366025e+00  3.397460e-01  0.000000e+00
     vertex -2.220446e-16  3.397460e-01  0.000000e+00
   endloop
 endfacet
 facet normal  0.000000e+00  0.000000e+00  1.000000e+00
   outer loop
     vertex -1.366025e+00  6.339746e-01  0.000000e+00
     vertex -2.220446e-16  3.397460e-01  0.000000e+00
     vertex -2.220446e-16  6.339746e-01  0.000000e+00
   endloop
 endfacet
 facet normal  0.000000e+00  0.000000e+00  1.000000e+00
   outer loop
     vertex -1.366025e+00  1.366025e+00  0.000000e+00
     vertex -1.366025e+00  6.339746e-01  0.000000e+00
     vertex -2.220446e-16  6.339746e-01  0.000000e+00
   endloop
 endfacet
 facet normal  0.000000e+00  0.000000e+00  1.000000e+00
   outer loop
     vertex -1.366025e+00  1.366025e+00  0.000000e+00
     vertex -2.220446e-16  6.339746e-01  0.000000e+00
     vertex  0.000000e+00  1.366025e+00  0.000000e+00
   endloop
 endfacet
 facet normal  1.625479e-16  1.000000e+00  0.000000e+00
   outer loop
     vertex -1.366025e+00  1.366025e+00  0.000000e+00
     vertex  0.000000e+00  1.366025e+00  0.000000e+00
     vertex  0.000000e+00  1.366025e+00 -2.000000e+00
   endloop
 endfacet
 facet normal  1.625479e-16  1.000000e+00  0.000000e+00
   outer loop
     vertex -1.366025e+00  1.366025e+00  0.000000e+00
     vertex  0.000000e+00  1.366025e+00 -2.000000e+00
     vertex -1.366025e+00  1.366025e+00 -2.000000e+00
   endloop
 endfacet
 facet normal  0.000000e+00  0.000000e+00 -1.000000e+00
   outer loop
     vertex -1.366025e+00 -1.267949e+00  0.000000e+00
     vertex -4.440892e-16 -1.366025e+00  0.000000e+00
     vertex -1.366025e+00 -1.366025e+00  0.000000e+00
   endloop
 endfacet
 facet normal  0.000000e+00  0.000000e+00 -1.000000e+00
   outer loop
     vertex -1.366025e+00 -1.267949e+00  0.000000e+00
     vertex -4.440892e-16 -1.267949e+00  0.000000e+00
     vertex -4.440892e-16 -1.366025e+00  0.000000e+00
   endloop
 endfacet
 facet normal -1.000000e+00  0.000000e+00  0.000000e+00
   outer loop
     vertex -1.366025e+00 -1.267949e+00  0.000000e+00
     vertex -1.366025e+00 -1.336527e+00  2.580752e-03
     vertex -1.366025e+00 -1.326850e+00  4.578948e-03
   endloop
 endfacet
 facet normal -1.000000e+00  0.000000e+00  0.000000e+00
   outer loop
     vertex -1.366025e+00 -1.267949e+00  0.000000e+00
     vertex -1.366025e+00 -1.326850e+00  4.578948e-03
     vertex -1.366025e+00 -1.317305e+00  7.136447e-03
   endloop
 endfacet
 facet normal -1.000000e+00  0.000000e+00  0.000000e+00
   outer loop
     vertex -1.366025e+00 -1.267949e+00  0.000000e+00
     vertex -1.366025e+00 -1.317305e+00  7.136447e-03
     vertex -1.366025e+00 -1.307925e+00  1.024459e-02
   endloop
 endfacet
 facet normal -1.000000e+00  0.000000e+00  0.000000e+00
   outer loop
     vertex -1.366025e+00 -1.267949e+00  0.000000e+00
     vertex -1.366025e+00 -1.307925e+00  1.024459e-02
     vertex -1.366025e+00 -1.298742e+00  1.389287e-02
   endloop
 endfacet
 facet normal -1.000000e+00  0.000000e+00  0.000000e+00
   outer loop
     vertex -1.366025e+00 -1.267949e+00  0.000000e+00
     vertex -1.366025e+00 -1.298742e+00  1.389287e-02
     vertex -1.366025e+00 -1.289787e+00  1.806894e-02
   endloop
 endfacet
 facet normal -1.000000e+00  0.000000e+00  0.000000e+00
   outer loop
     vertex -1.366025e+00 -1.267949e+00  0.000000e+00
     vertex -1.366025e+00 -1.289787e+00  1.806894e-02
     vertex -1.366025e+00 -1.281089e+00  2.275866e-02
   endloop
 endfacet
 facet normal -1.000000e+00  0.000000e+00  0.000000e+00
   outer loop
     vertex -1.366025e+00 -1.267949e+00  0.000000e+00
     vertex -1.366025e+00 -1.281089e+00  2.275866e-02
     vertex -1.366025e+00 -1.272679e+00  2.794618e-02
   endloop
 endfacet
 facet normal -1.000000e+00  0.000000e+00  0.000000e+00
   outer loop
     vertex -1.366025e+00 -1.267949e+00  0.000000e+00
     vertex -1.366025e+00 -1.272679e+00  2.794618e-02
     vertex -1.366025e+00 -1.264584e+00  3.361392e-02
   endloop
 endfacet
 facet normal -1.000000e+00  0.000000e+00  0.000000e+00
   outer loop
     vertex -1.366025e+00 -1.267949e+00  0.000000e+00
     vertex -1.366025e+00 -1.264584e+00  3.361392e-02
     vertex -1.366025e+00 -1.256833e+00  3.974273e-02
   endloop
 endfacet
 facet normal -1.000000e+00  0.000000e+00  0.000000e+00
   outer loop
     vertex -1.366025e+00 -1.267949e+00  0.000000e+00
     vertex -1.366025e+00 -1.256833e+00  3.974273e-02
     vertex -1.366025e+00 -1.249451e+00  4.631185e-02
   endloop
 endfacet
 facet normal -1.000000e+00  0.000000e+00  0.000000e+00
   outer loop
     vertex -1.366025e+00 -1.267949e+00  0.000000e+00
     vertex -1.366025e+00 -1.249451e+00  4.631185e-02
     vertex -1.366025e+00 -1.242464e+00  5.329907e-02
   endloop
 endfacet
 facet normal -1.000000e+00  0.000000e+00  0.000000e+00
   outer loop
     vertex -1.366025e+00 -1.366025e+00  0.000000e+00
     vertex -1.366025e+00 -1.356148e+00  2.873982e-04
     vertex -1.366025e+00 -1.267949e+00  0.000000e+00
   endloop
 endfacet
 facet normal -1.000000e+00  0.000000e+00  0.000000e+00
   outer loop
     vertex -1.366025e+00 -1.356148e+00  2.873982e-04
     vertex -1.366025e+00 -1.346304e+00  1.148620e-03
     vertex -1.366025e+00 -1.267949e+00  0.000000e+00
   endloop
 endfacet
 facet normal -1.000000e+00  0.000000e+00  0.000000e+00
   outer loop
     vertex -1.366025e+00 -1.346304e+00  1.148620e-03
     vertex -1.366025e+00 -1.336527e+00  2.580752e-03
     vertex -1.366025e+00 -1.267949e+00  0.000000e+00
   endloop
 endfacet
 facet normal -1.000000e+00  0.000000e+00  0.000000e+00
   outer loop
     vertex -1.366025e+00 -1.267949e+00  0.000000e+00
     vertex -1.366025e+00 -1.224099e+00  7.652625e-02
     vertex -1.366025e+00 -1.218911e+00  8.493649e-02
   endloop
 endfacet
 facet normal -1.000000e+00  0.000000e+00  0.000000e+00
   outer loop
     vertex -1.366025e+00 -1.267949e+00  0.000000e+00
     vertex -1.366025e+00 -1.229766e+00  6.843187e-02
     vertex -1.366025e+00 -1.224099e+00  7.652625e-02
   endloop
 endfacet
 facet normal -1.000000e+00  0.000000e+00  0.000000e+00
   outer loop
     vertex -1.366025e+00 -1.267949e+00  0.000000e+00
     vertex -1.366025e+00 -1.235895e+00  6.068073e-02
     vertex -1.366025e+00 -1.229766e+00  6.843187e-02
   endloop
 endfacet
 facet normal -1.000000e+00  0.000000e+00  0.000000e+00
   outer loop
     vertex -1.366025e+00 -1.267949e+00  0.000000e+00
     vertex -1.366025e+00 -1.242464e+00  5.329907e-02
     vertex -1.366025e+00 -1.235895e+00  6.068073e-02
   endloop
 endfacet
 facet normal  1.424297e-16  8.660254e-01 -5.000000e-01
   outer loop
     vertex -1.366025e+00 -1.218911e+00  8.493649e-02
     vertex -4.440892e-16 -1.267949e+00  0.000000e+00
     vertex -1.366025e+00 -1.267949e+00  0.000000e+00
   endloop
 endfacet
 facet normal  1.407706e-16  8.660254e-01 -5.000000e-01
   outer loop
     vertex -1.366025e+00 -1.218911e+00  8.493649e-02
     vertex -4.440892e-16 -1.218911e+00  8.493649e-02
     vertex -4.440892e-16 -1.267949e+00  0.000000e+00
   endloop
 endfacet
 facet normal  1.000000e+00  1.230435e-15 -2.876764e-15
   outer loop
     vertex -4.440892e-16 -1.267949e+00  0.000000e+00
     vertex -3.652397e-16 -1.289787e+00  1.806894e-02
     vertex -3.662339e-16 -1.298742e+00  1.389287e-02
   endloop
 endfacet
 facet normal  1.000000e+00  1.124831e-15 -3.110830e-15
   outer loop
     vertex -4.440892e-16 -1.267949e+00  0.000000e+00
     vertex -3.662339e-16 -1.298742e+00  1.389287e-02
     vertex -3.672535e-16 -1.307925e+00  1.024459e-02
   endloop
 endfacet
 facet normal  1.000000e+00  1.035414e-15 -3.459751e-15
   outer loop
     vertex -4.440892e-16 -1.267949e+00  0.000000e+00
     vertex -3.672535e-16 -1.307925e+00  1.024459e-02
     vertex -3.682949e-16 -1.317305e+00  7.136447e-03
   endloop
 endfacet
 facet normal  1.000000e+00  9.585173e-16 -3.991576e-15
   outer loop
     vertex -4.440892e-16 -1.267949e+00  0.000000e+00
     vertex -3.682949e-16 -1.317305e+00  7.136447e-03
     vertex -3.693545e-16 -1.326850e+00  4.578948e-03
   endloop
 endfacet
 facet normal  1.000000e+00  8.914111e-16 -4.854790e-15
   outer loop
     vertex -4.440892e-16 -1.267949e+00  0.000000e+00
     vertex -3.693545e-16 -1.326850e+00  4.578948e-03
     vertex -3.704289e-16 -1.336527e+00  2.580752e-03
   endloop
 endfacet
 facet normal  1.000000e+00  8.318669e-16 -6.437052e-15
   outer loop
     vertex -4.440892e-16 -1.267949e+00  0.000000e+00
     vertex -3.704289e-16 -1.336527e+00  2.580752e-03
     vertex -3.715144e-16 -1.346304e+00  1.148620e-03
   endloop
 endfacet
 facet normal  1.000000e+00  7.773736e-16 -1.015441e-14
   outer loop
     vertex -4.440892e-16 -1.267949e+00  0.000000e+00
     vertex -3.715144e-16 -1.346304e+00  1.148620e-03
     vertex -3.726073e-16 -1.356148e+00  2.873982e-04
   endloop
 endfacet
 facet normal  1.000000e+00  1.357387e-15 -2.723335e-15
   outer loop
     vertex -3.642740e-16 -1.281089e+00  2.275866e-02
     vertex -3.652397e-16 -1.289787e+00  1.806894e-02
     vertex -4.440892e-16 -1.267949e+00  0.000000e+00
   endloop
 endfacet
 facet normal  1.000000e+00  1.513251e-15 -2.633348e-15
   outer loop
     vertex -3.633403e-16 -1.272679e+00  2.794618e-02
     vertex -3.642740e-16 -1.281089e+00  2.275866e-02
     vertex -4.440892e-16 -1.267949e+00  0.000000e+00
   endloop
 endfacet
 facet normal  1.000000e+00  1.709600e-15 -2.600118e-15
   outer loop
     vertex -3.624417e-16 -1.264584e+00  3.361392e-02
     vertex -3.633403e-16 -1.272679e+00  2.794618e-02
     vertex -4.440892e-16 -1.267949e+00  0.000000e+00
   endloop
 endfacet
 facet normal  1.000000e+00  1.965109e-15 -2.625696e-15
   outer loop
     vertex -3.615811e-16 -1.256833e+00  3.974273e-02
     vertex -3.624417e-16 -1.264584e+00  3.361392e-02
     vertex -4.440892e-16 -1.267949e+00  0.000000e+00
   endloop
 endfacet
 facet normal  1.000000e+00  2.311992e-15 -2.722719e-15
   outer loop
     vertex -3.607616e-16 -1.249451e+00  4.631185e-02
     vertex -3.615811e-16 -1.256833e+00  3.974273e-02
     vertex -4.440892e-16 -1.267949e+00  0.000000e+00
   endloop
 endfacet
 facet normal  1.000000e+00  2.811014e-15 -2.922037e-15
   outer loop
     vertex -3.599858e-16 -1.242464e+00  5.329907e-02
     vertex -3.607616e-16 -1.249451e+00  4.631185e-02
     vertex -4.440892e-16 -1.267949e+00  0.000000e+00
   endloop
 endfacet
 facet normal  1.000000e+00  3.592132e-15 -3.295528e-15
   outer loop
     vertex -3.592565e-16 -1.235895e+00  6.068073e-02
     vertex -3.599858e-16 -1.242464e+00  5.329907e-02
     vertex -4.440892e-16 -1.267949e+00  0.000000e+00
   endloop
 endfacet
 facet normal  1.000000e+00  2.595753e-13 -1.498659e-13
   outer loop
     vertex -4.440892e-16 -1.267949e+00  0.000000e+00
     vertex -4.440892e-16 -1.218911e+00  8.493649e-02
     vertex -3.579468e-16 -1.224099e+00  7.652625e-02
   endloop
 endfacet
 facet normal  1.000000e+00  8.238758e-15 -5.846579e-15
   outer loop
     vertex -4.440892e-16 -1.267949e+00  0.000000e+00
     vertex -3.579468e-16 -1.224099e+00  7.652625e-02
     vertex -3.585761e-16 -1.229766e+00  6.843187e-02
   endloop
 endfacet
 facet normal  1.000000e+00  4.992183e-15 -4.035092e-15
   outer loop
     vertex -4.440892e-16 -1.267949e+00  0.000000e+00
     vertex -3.585761e-16 -1.229766e+00  6.843187e-02
     vertex -3.592565e-16 -1.235895e+00  6.068073e-02
   endloop
 endfacet
 facet normal  1.000000e+00  0.000000e+00 -2.487208e-13
   outer loop
     vertex -4.440892e-16 -1.366025e+00  0.000000e+00
     vertex -4.440892e-16 -1.267949e+00  0.000000e+00
     vertex -3.726073e-16 -1.356148e+00  2.873982e-04
   endloop
 endfacet
 facet normal -4.706343e-18 -2.908472e-02  9.995770e-01
   outer loop
     vertex -1.366025e+00 -1.356148e+00  2.873982e-04
     vertex -1.366025e+00 -1.366025e+00  0.000000e+00
     vertex -4.440892e-16 -1.366025e+00  0.000000e+00
   endloop
 endfacet
 facet normal  0.000000e+00 -2.908472e-02  9.995770e-01
   outer loop
     vertex -1.366025e+00 -1.356148e+00  2.873982e-04
     vertex -4.440892e-16 -1.366025e+00  0.000000e+00
     vertex -3.726073e-16 -1.356148e+00  2.873982e-04
   endloop
 endfacet
 facet normal -2.355837e-17 -1.449319e-01  9.894416e-01
   outer loop
     vertex -1.366025e+00 -1.346304e+00  1.148620e-03
     vertex -3.715144e-16 -1.346304e+00  1.148620e-03
     vertex -3.704289e-16 -1.336527e+00  2.580752e-03
   endloop
 endfacet
 facet normal -1.416699e-17 -8.715574e-02  9.961947e-01
   outer loop
     vertex -1.366025e+00 -1.346304e+00  1.148620e-03
     vertex -3.726073e-16 -1.356148e+00  2.873982e-04
     vertex -3.715144e-16 -1.346304e+00  1.148620e-03
   endloop
 endfacet
 facet normal  0.000000e+00 -8.715574e-02  9.961947e-01
   outer loop
     vertex -1.366025e+00 -1.346304e+00  1.148620e-03
     vertex -1.366025e+00 -1.356148e+00  2.873982e-04
     vertex -3.726073e-16 -1.356148e+00  2.873982e-04
   endloop
 endfacet
 facet normal -3.287005e-17 -2.022176e-01  9.793406e-01
   outer loop
     vertex -1.366025e+00 -1.336527e+00  2.580752e-03
     vertex -3.704289e-16 -1.336527e+00  2.580752e-03
     vertex -3.693545e-16 -1.326850e+00  4.578948e-03
   endloop
 endfacet
 facet normal -2.355837e-17 -1.449319e-01  9.894416e-01
   outer loop
     vertex -1.366025e+00 -1.336527e+00  2.580752e-03
     vertex -1.366025e+00 -1.346304e+00  1.148620e-03
     vertex -3.704289e-16 -1.336527e+00  2.580752e-03
   endloop
 endfacet
 facet normal -6.451485e-17 -2.588190e-01  9.659258e-01
   outer loop
     vertex -1.366025e+00 -1.326850e+00  4.578948e-03
     vertex -3.693545e-16 -1.326850e+00  4.578948e-03
     vertex -3.682949e-16 -1.317305e+00  7.136447e-03
   endloop
 endfacet
 facet normal -4.584137e-17 -2.022176e-01  9.793406e-01
   outer loop
     vertex -1.366025e+00 -1.326850e+00  4.578948e-03
     vertex -1.366025e+00 -1.336527e+00  2.580752e-03
     vertex -3.693545e-16 -1.326850e+00  4.578948e-03
   endloop
 endfacet
 facet normal -6.368284e-17 -3.145448e-01  9.492426e-01
   outer loop
     vertex -1.366025e+00 -1.317305e+00  7.136447e-03
     vertex -3.682949e-16 -1.317305e+00  7.136447e-03
     vertex -3.672535e-16 -1.307925e+00  1.024459e-02
   endloop
 endfacet
 facet normal -4.488869e-17 -2.588190e-01  9.659258e-01
   outer loop
     vertex -1.366025e+00 -1.317305e+00  7.136447e-03
     vertex -1.366025e+00 -1.326850e+00  4.578948e-03
     vertex -3.682949e-16 -1.317305e+00  7.136447e-03
   endloop
 endfacet
 facet normal -2.224782e-17 -3.692061e-01  9.293475e-01
   outer loop
     vertex -1.366025e+00 -1.307925e+00  1.024459e-02
     vertex -3.672535e-16 -1.307925e+00  1.024459e-02
     vertex -3.662339e-16 -1.298742e+00  1.389287e-02
   endloop
 endfacet
 facet normal -1.255424e-17 -3.145448e-01  9.492426e-01
   outer loop
     vertex -1.366025e+00 -1.307925e+00  1.024459e-02
     vertex -1.366025e+00 -1.317305e+00  7.136447e-03
     vertex -3.672535e-16 -1.307925e+00  1.024459e-02
   endloop
 endfacet
 facet normal -1.005618e-16 -4.226183e-01  9.063078e-01
   outer loop
     vertex -1.366025e+00 -1.298742e+00  1.389287e-02
     vertex -3.662339e-16 -1.298742e+00  1.389287e-02
     vertex -3.652397e-16 -1.289787e+00  1.806894e-02
   endloop
 endfacet
 facet normal -8.226151e-17 -3.692061e-01  9.293475e-01
   outer loop
     vertex -1.366025e+00 -1.298742e+00  1.389287e-02
     vertex -1.366025e+00 -1.307925e+00  1.024459e-02
     vertex -3.662339e-16 -1.298742e+00  1.389287e-02
   endloop
 endfacet
 facet normal -1.006375e-16 -4.746004e-01  8.802014e-01
   outer loop
     vertex -1.366025e+00 -1.289787e+00  1.806894e-02
     vertex -3.652397e-16 -1.289787e+00  1.806894e-02
     vertex -3.642740e-16 -1.281089e+00  2.275866e-02
   endloop
 endfacet
 facet normal -8.214703e-17 -4.226183e-01  9.063078e-01
   outer loop
     vertex -1.366025e+00 -1.289787e+00  1.806894e-02
     vertex -1.366025e+00 -1.298742e+00  1.389287e-02
     vertex -3.652397e-16 -1.289787e+00  1.806894e-02
   endloop
 endfacet
 facet normal -8.420068e-17 -5.249766e-01  8.511167e-01
   outer loop
     vertex -1.366025e+00 -1.281089e+00  2.275866e-02
     vertex -3.642740e-16 -1.281089e+00  2.275866e-02
     vertex -3.633403e-16 -1.272679e+00  2.794618e-02
   endloop
 endfacet
 facet normal -6.486879e-17 -4.746004e-01  8.802014e-01
   outer loop
     vertex -1.366025e+00 -1.281089e+00  2.275866e-02
     vertex -1.366025e+00 -1.289787e+00  1.806894e-02
     vertex -3.642740e-16 -1.281089e+00  2.275866e-02
   endloop
 endfacet
 facet normal -8.660372e-17 -5.735764e-01  8.191520e-01
   outer loop
     vertex -1.366025e+00 -1.272679e+00  2.794618e-02
     vertex -3.633403e-16 -1.272679e+00  2.794618e-02
     vertex -3.624417e-16 -1.264584e+00  3.361392e-02
   endloop
 endfacet
 facet normal -6.690727e-17 -5.249766e-01  8.511167e-01
   outer loop
     vertex -1.366025e+00 -1.272679e+00  2.794618e-02
     vertex -1.366025e+00 -1.281089e+00  2.275866e-02
     vertex -3.633403e-16 -1.272679e+00  2.794618e-02
   endloop
 endfacet
 facet normal -1.060071e-16 -6.202355e-01  7.844157e-01
   outer loop
     vertex -1.366025e+00 -1.264584e+00  3.361392e-02
     vertex -3.624417e-16 -1.264584e+00  3.361392e-02
     vertex -3.615811e-16 -1.256833e+00  3.974273e-02
   endloop
 endfacet
 facet normal -8.660372e-17 -5.735764e-01  8.191520e-01
   outer loop
     vertex -1.366025e+00 -1.264584e+00  3.361392e-02
     vertex -1.366025e+00 -1.272679e+00  2.794618e-02
     vertex -3.624417e-16 -1.264584e+00  3.361392e-02
   endloop
 endfacet
 facet normal -2.027562e-16 -6.647959e-01  7.470251e-01
   outer loop
     vertex -1.366025e+00 -1.256833e+00  3.974273e-02
     vertex -3.615811e-16 -1.256833e+00  3.974273e-02
     vertex -3.607616e-16 -1.249451e+00  4.631185e-02
   endloop
 endfacet
 facet normal -1.749488e-16 -6.202355e-01  7.844157e-01
   outer loop
     vertex -1.366025e+00 -1.256833e+00  3.974273e-02
     vertex -1.366025e+00 -1.264584e+00  3.361392e-02
     vertex -3.615811e-16 -1.256833e+00  3.974273e-02
   endloop
 endfacet
 facet normal -2.155101e-16 -7.071068e-01  7.071068e-01
   outer loop
     vertex -1.366025e+00 -1.249451e+00  4.631185e-02
     vertex -3.607616e-16 -1.249451e+00  4.631185e-02
     vertex -3.599858e-16 -1.242464e+00  5.329907e-02
   endloop
 endfacet
 facet normal -1.875778e-16 -6.647959e-01  7.470251e-01
   outer loop
     vertex -1.366025e+00 -1.249451e+00  4.631185e-02
     vertex -1.366025e+00 -1.256833e+00  3.974273e-02
     vertex -3.607616e-16 -1.249451e+00  4.631185e-02
   endloop
 endfacet
 facet normal -8.751680e-17 -7.470251e-01  6.647959e-01
   outer loop
     vertex -1.366025e+00 -1.242464e+00  5.329907e-02
     vertex -3.599858e-16 -1.242464e+00  5.329907e-02
     vertex -3.592565e-16 -1.235895e+00  6.068073e-02
   endloop
 endfacet
 facet normal -6.465304e-17 -7.071068e-01  7.071068e-01
   outer loop
     vertex -1.366025e+00 -1.242464e+00  5.329907e-02
     vertex -1.366025e+00 -1.249451e+00  4.631185e-02
     vertex -3.599858e-16 -1.242464e+00  5.329907e-02
   endloop
 endfacet
 facet normal -6.725532e-17 -7.470251e-01  6.647959e-01
   outer loop
     vertex -1.366025e+00 -1.235895e+00  6.068073e-02
     vertex -1.366025e+00 -1.242464e+00  5.329907e-02
     vertex -3.592565e-16 -1.235895e+00  6.068073e-02
   endloop
 endfacet
 facet normal -9.118104e-17 -7.844157e-01  6.202355e-01
   outer loop
     vertex -1.366025e+00 -1.235895e+00  6.068073e-02
     vertex -3.592565e-16 -1.235895e+00  6.068073e-02
     vertex -3.585761e-16 -1.229766e+00  6.843187e-02
   endloop
 endfacet
 facet normal -7.227767e-17 -7.844157e-01  6.202355e-01
   outer loop
     vertex -1.366025e+00 -1.229766e+00  6.843187e-02
     vertex -1.366025e+00 -1.235895e+00  6.068073e-02
     vertex -3.585761e-16 -1.229766e+00  6.843187e-02
   endloop
 endfacet
 facet normal -9.731693e-17 -8.191520e-01  5.735764e-01
   outer loop
     vertex -1.366025e+00 -1.229766e+00  6.843187e-02
     vertex -3.585761e-16 -1.229766e+00  6.843187e-02
     vertex -3.579468e-16 -1.224099e+00  7.652625e-02
   endloop
 endfacet
 facet normal -7.983561e-17 -8.191520e-01  5.735764e-01
   outer loop
     vertex -1.366025e+00 -1.224099e+00  7.652625e-02
     vertex -1.366025e+00 -1.229766e+00  6.843187e-02
     vertex -3.579468e-16 -1.224099e+00  7.652625e-02
   endloop
 endfacet
 facet normal -1.060268e-16 -8.511167e-01  5.249766e-01
   outer loop
     vertex -1.366025e+00 -1.224099e+00  7.652625e-02
     vertex -3.579468e-16 -1.224099e+00  7.652625e-02
     vertex -4.440892e-16 -1.218911e+00  8.493649e-02
   endloop
 endfacet
 facet normal -1.383473e-16 -8.511167e-01  5.249766e-01
   outer loop
     vertex -1.366025e+00 -1.218911e+00  8.493649e-02
     vertex -1.366025e+00 -1.224099e+00  7.652625e-02
     vertex -4.440892e-16 -1.218911e+00  8.493649e-02
   endloop
 endfacet
 facet normal  0.000000e+00  0.000000e+00 -1.000000e+00
   outer loop
     vertex -1.366025e+00  6.339746e-01  0.000000e+00
     vertex -2.220446e-16  3.397460e-01  0.000000e+00
     vertex -1.366025e+00  3.397460e-01  0.000000e+00
   endloop
 endfacet
 facet normal  0.000000e+00  0.000000e+00 -1.000000e+00
   outer loop
     vertex -1.366025e+00  6.339746e-01  0.000000e+00
     vertex -2.220446e-16  6.339746e-01  0.000000e+00
     vertex -2.220446e-16  3.397460e-01  0.000000e+00
   endloop
 endfacet
 facet normal -1.035852e-16 -8.660254e-01  5.000000e-01
   outer loop
     vertex -1.366025e+00  3.397460e-01  0.000000e+00
     vertex -2.220446e-16  4.868603e-01  2.548095e-01
     vertex -1.366025e+00  4.868603e-01  2.548095e-01
   endloop
 endfacet
 facet normal -1.055780e-16 -8.660254e-01  5.000000e-01
   outer loop
     vertex -1.366025e+00  3.397460e-01  0.000000e+00
     vertex -2.220446e-16  3.397460e-01  0.000000e+00
     vertex -2.220446e-16  4.868603e-01  2.548095e-01
   endloop
 endfacet
 facet normal -1.000000e+00  0.000000e+00  0.000000e+00
   outer loop
     vertex -1.366025e+00  3.397460e-01  0.000000e+00
     vertex -1.366025e+00  4.712381e-01  2.185931e-01
     vertex -1.366025e+00  4.686806e-01  2.090484e-01
   endloop
 endfacet
 facet normal -1.000000e+00  0.000000e+00  0.000000e+00
   outer loop
     vertex -1.366025e+00  3.397460e-01  0.000000e+00
     vertex -1.366025e+00  4.686806e-01  2.090484e-01
     vertex -1.366025e+00  4.666824e-01  1.993711e-01
   endloop
 endfacet
 facet normal -1.000000e+00  0.000000e+00  0.000000e+00
   outer loop
     vertex -1.366025e+00  3.397460e-01  0.000000e+00
     vertex -1.366025e+00  4.666824e-01  1.993711e-01
     vertex -1.366025e+00  4.652502e-01  1.895940e-01
   endloop
 endfacet
 facet normal -1.000000e+00  0.000000e+00  0.000000e+00
   outer loop
     vertex -1.366025e+00  3.397460e-01  0.000000e+00
     vertex -1.366025e+00  4.652502e-01  1.895940e-01
     vertex -1.366025e+00  4.643890e-01  1.797502e-01
   endloop
 endfacet
 facet normal -1.000000e+00  0.000000e+00  0.000000e+00
   outer loop
     vertex -1.366025e+00  3.397460e-01  0.000000e+00
     vertex -1.366025e+00  4.643890e-01  1.797502e-01
     vertex -1.366025e+00  4.641016e-01  1.698730e-01
   endloop
 endfacet
 facet normal -1.000000e+00  0.000000e+00  0.000000e+00
   outer loop
     vertex -1.366025e+00  3.397460e-01  0.000000e+00
     vertex -1.366025e+00  4.641016e-01  1.698730e-01
     vertex -1.366025e+00  4.643890e-01  1.599957e-01
   endloop
 endfacet
 facet normal -1.000000e+00  0.000000e+00  0.000000e+00
   outer loop
     vertex -1.366025e+00  3.397460e-01  0.000000e+00
     vertex -1.366025e+00  4.643890e-01  1.599957e-01
     vertex -1.366025e+00  4.652502e-01  1.501519e-01
   endloop
 endfacet
 facet normal -1.000000e+00  0.000000e+00  0.000000e+00
   outer loop
     vertex -1.366025e+00  3.397460e-01  0.000000e+00
     vertex -1.366025e+00  4.652502e-01  1.501519e-01
     vertex -1.366025e+00  4.666824e-01  1.403748e-01
   endloop
 endfacet
 facet normal -1.000000e+00  0.000000e+00  0.000000e+00
   outer loop
     vertex -1.366025e+00  3.397460e-01  0.000000e+00
     vertex -1.366025e+00  4.666824e-01  1.403748e-01
     vertex -1.366025e+00  4.686806e-01  1.306976e-01
   endloop
 endfacet
 facet normal -1.000000e+00 -0.000000e+00  0.000000e+00
   outer loop
     vertex -1.366025e+00  4.712381e-01  1.211529e-01
     vertex -1.366025e+00  3.397460e-01  0.000000e+00
     vertex -1.366025e+00  4.686806e-01  1.306976e-01
   endloop
 endfacet
 facet normal -1.000000e+00 -0.000000e+00  0.000000e+00
   outer loop
     vertex -1.366025e+00  4.743462e-01  1.117730e-01
     vertex -1.366025e+00  3.397460e-01  0.000000e+00
     vertex -1.366025e+00  4.712381e-01  1.211529e-01
   endloop
 endfacet
 facet normal -1.000000e+00 -0.000000e+00  0.000000e+00
   outer loop
     vertex -1.366025e+00  4.779945e-01  1.025897e-01
     vertex -1.366025e+00  3.397460e-01  0.000000e+00
     vertex -1.366025e+00  4.743462e-01  1.117730e-01
   endloop
 endfacet
 facet normal -1.000000e+00 -0.000000e+00  0.000000e+00
   outer loop
     vertex -1.366025e+00  4.821706e-01  9.363413e-02
     vertex -1.366025e+00  3.397460e-01  0.000000e+00
     vertex -1.366025e+00  4.779945e-01  1.025897e-01
   endloop
 endfacet
 facet normal -1.000000e+00 -0.000000e+00  0.000000e+00
   outer loop
     vertex -1.366025e+00  4.868603e-01  8.493649e-02
     vertex -1.366025e+00  3.397460e-01  0.000000e+00
     vertex -1.366025e+00  4.821706e-01  9.363413e-02
   endloop
 endfacet
 facet normal -1.000000e+00 -0.000000e+00  0.000000e+00
   outer loop
     vertex -1.366025e+00  4.920478e-01  7.652625e-02
     vertex -1.366025e+00  3.397460e-01  0.000000e+00
     vertex -1.366025e+00  4.868603e-01  8.493649e-02
   endloop
 endfacet
 facet normal -1.000000e+00 -0.000000e+00  0.000000e+00
   outer loop
     vertex -1.366025e+00  4.977155e-01  6.843187e-02
     vertex -1.366025e+00  3.397460e-01  0.000000e+00
     vertex -1.366025e+00  4.920478e-01  7.652625e-02
   endloop
 endfacet
 facet normal -1.000000e+00 -0.000000e+00  0.000000e+00
   outer loop
     vertex -1.366025e+00  5.038443e-01  6.068073e-02
     vertex -1.366025e+00  3.397460e-01  0.000000e+00
     vertex -1.366025e+00  4.977155e-01  6.843187e-02
   endloop
 endfacet
 facet normal -1.000000e+00 -0.000000e+00  0.000000e+00
   outer loop
     vertex -1.366025e+00  5.104135e-01  5.329907e-02
     vertex -1.366025e+00  3.397460e-01  0.000000e+00
     vertex -1.366025e+00  5.038443e-01  6.068073e-02
   endloop
 endfacet
 facet normal -1.000000e+00 -0.000000e+00  0.000000e+00
   outer loop
     vertex -1.366025e+00  5.174007e-01  4.631185e-02
     vertex -1.366025e+00  3.397460e-01  0.000000e+00
     vertex -1.366025e+00  5.104135e-01  5.329907e-02
   endloop
 endfacet
 facet normal -1.000000e+00 -0.000000e+00  0.000000e+00
   outer loop
     vertex -1.366025e+00  5.247823e-01  3.974273e-02
     vertex -1.366025e+00  3.397460e-01  0.000000e+00
     vertex -1.366025e+00  5.174007e-01  4.631185e-02
   endloop
 endfacet
 facet normal -1.000000e+00 -0.000000e+00  0.000000e+00
   outer loop
     vertex -1.366025e+00  5.325335e-01  3.361392e-02
     vertex -1.366025e+00  3.397460e-01  0.000000e+00
     vertex -1.366025e+00  5.247823e-01  3.974273e-02
   endloop
 endfacet
 facet normal -1.000000e+00 -0.000000e+00  0.000000e+00
   outer loop
     vertex -1.366025e+00  5.406279e-01  2.794618e-02
     vertex -1.366025e+00  3.397460e-01  0.000000e+00
     vertex -1.366025e+00  5.325335e-01  3.361392e-02
   endloop
 endfacet
 facet normal -1.000000e+00 -0.000000e+00  0.000000e+00
   outer loop
     vertex -1.366025e+00  5.490381e-01  2.275866e-02
     vertex -1.366025e+00  3.397460e-01  0.000000e+00
     vertex -1.366025e+00  5.406279e-01  2.794618e-02
   endloop
 endfacet
 facet normal -1.000000e+00 -0.000000e+00  0.000000e+00
   outer loop
     vertex -1.366025e+00  5.577357e-01  1.806894e-02
     vertex -1.366025e+00  3.397460e-01  0.000000e+00
     vertex -1.366025e+00  5.490381e-01  2.275866e-02
   endloop
 endfacet
 facet normal -1.000000e+00 -0.000000e+00  0.000000e+00
   outer loop
     vertex -1.366025e+00  5.666913e-01  1.389287e-02
     vertex -1.366025e+00  3.397460e-01  0.000000e+00
     vertex -1.366025e+00  5.577357e-01  1.806894e-02
   endloop
 endfacet
 facet normal -1.000000e+00 -0.000000e+00  0.000000e+00
   outer loop
     vertex -1.366025e+00  5.758746e-01  1.024459e-02
     vertex -1.366025e+00  3.397460e-01  0.000000e+00
     vertex -1.366025e+00  5.666913e-01  1.389287e-02
   endloop
 endfacet
 facet normal -1.000000e+00 -0.000000e+00  0.000000e+00
   outer loop
     vertex -1.366025e+00  5.852545e-01  7.136447e-03
     vertex -1.366025e+00  3.397460e-01  0.000000e+00
     vertex -1.366025e+00  5.758746e-01  1.024459e-02
   endloop
 endfacet
 facet normal -1.000000e+00  0.000000e+00  0.000000e+00
   outer loop
     vertex -1.366025e+00  3.397460e-01  0.000000e+00
     vertex -1.366025e+00  6.240974e-01  2.873982e-04
     vertex -1.366025e+00  6.339746e-01  0.000000e+00
   endloop
 endfacet
 facet normal -1.000000e+00  0.000000e+00  0.000000e+00
   outer loop
     vertex -1.366025e+00  3.397460e-01  0.000000e+00
     vertex -1.366025e+00  6.142535e-01  1.148620e-03
     vertex -1.366025e+00  6.240974e-01  2.873982e-04
   endloop
 endfacet
 facet normal -1.000000e+00  0.000000e+00  0.000000e+00
   outer loop
     vertex -1.366025e+00  3.397460e-01  0.000000e+00
     vertex -1.366025e+00  6.044765e-01  2.580752e-03
     vertex -1.366025e+00  6.142535e-01  1.148620e-03
   endloop
 endfacet
 facet normal -1.000000e+00  0.000000e+00  0.000000e+00
   outer loop
     vertex -1.366025e+00  3.397460e-01  0.000000e+00
     vertex -1.366025e+00  5.947992e-01  4.578948e-03
     vertex -1.366025e+00  6.044765e-01  2.580752e-03
   endloop
 endfacet
 facet normal -1.000000e+00  0.000000e+00  0.000000e+00
   outer loop
     vertex -1.366025e+00  3.397460e-01  0.000000e+00
     vertex -1.366025e+00  5.852545e-01  7.136447e-03
     vertex -1.366025e+00  5.947992e-01  4.578948e-03
   endloop
 endfacet
 facet normal -1.000000e+00  0.000000e+00  0.000000e+00
   outer loop
     vertex -1.366025e+00  4.868603e-01  2.548095e-01
     vertex -1.366025e+00  4.821706e-01  2.461118e-01
     vertex -1.366025e+00  3.397460e-01  0.000000e+00
   endloop
 endfacet
 facet normal -1.000000e+00  0.000000e+00  0.000000e+00
   outer loop
     vertex -1.366025e+00  4.821706e-01  2.461118e-01
     vertex -1.366025e+00  4.779945e-01  2.371562e-01
     vertex -1.366025e+00  3.397460e-01  0.000000e+00
   endloop
 endfacet
 facet normal -1.000000e+00  0.000000e+00  0.000000e+00
   outer loop
     vertex -1.366025e+00  4.779945e-01  2.371562e-01
     vertex -1.366025e+00  4.743462e-01  2.279730e-01
     vertex -1.366025e+00  3.397460e-01  0.000000e+00
   endloop
 endfacet
 facet normal -1.000000e+00  0.000000e+00  0.000000e+00
   outer loop
     vertex -1.366025e+00  4.743462e-01  2.279730e-01
     vertex -1.366025e+00  4.712381e-01  2.185931e-01
     vertex -1.366025e+00  3.397460e-01  0.000000e+00
   endloop
 endfacet
 facet normal  1.073062e-16  8.802014e-01 -4.746004e-01
   outer loop
     vertex -1.366025e+00  4.868603e-01  2.548095e-01
     vertex -2.220446e-16  4.868603e-01  2.548095e-01
     vertex -1.685129e-16  4.821706e-01  2.461118e-01
   endloop
 endfacet
 facet normal  6.239218e-17  9.063078e-01 -4.226183e-01
   outer loop
     vertex -1.366025e+00  4.821706e-01  2.461118e-01
     vertex -1.685129e-16  4.821706e-01  2.461118e-01
     vertex -1.689766e-16  4.779945e-01  2.371562e-01
   endloop
 endfacet
 facet normal  1.036120e-16  8.802014e-01 -4.746004e-01
   outer loop
     vertex -1.366025e+00  4.821706e-01  2.461118e-01
     vertex -1.366025e+00  4.868603e-01  2.548095e-01
     vertex -1.685129e-16  4.821706e-01  2.461118e-01
   endloop
 endfacet
 facet normal  8.148955e-17  9.293475e-01 -3.692061e-01
   outer loop
     vertex -1.366025e+00  4.779945e-01  2.371562e-01
     vertex -1.689766e-16  4.779945e-01  2.371562e-01
     vertex -1.693816e-16  4.743462e-01  2.279730e-01
   endloop
 endfacet
 facet normal  1.188775e-16  9.063078e-01 -4.226183e-01
   outer loop
     vertex -1.366025e+00  4.779945e-01  2.371562e-01
     vertex -1.366025e+00  4.821706e-01  2.461118e-01
     vertex -1.689766e-16  4.779945e-01  2.371562e-01
   endloop
 endfacet
 facet normal  7.600918e-17  9.492426e-01 -3.145448e-01
   outer loop
     vertex -1.366025e+00  4.743462e-01  2.279730e-01
     vertex -1.693816e-16  4.743462e-01  2.279730e-01
     vertex -1.697267e-16  4.712381e-01  2.185931e-01
   endloop
 endfacet
 facet normal  1.117537e-16  9.293475e-01 -3.692061e-01
   outer loop
     vertex -1.366025e+00  4.743462e-01  2.279730e-01
     vertex -1.366025e+00  4.779945e-01  2.371562e-01
     vertex -1.693816e-16  4.743462e-01  2.279730e-01
   endloop
 endfacet
 facet normal  5.822450e-17  9.659258e-01 -2.588190e-01
   outer loop
     vertex -1.366025e+00  4.712381e-01  2.185931e-01
     vertex -1.697267e-16  4.712381e-01  2.185931e-01
     vertex -1.700106e-16  4.686806e-01  2.090484e-01
   endloop
 endfacet
 facet normal  8.901923e-17  9.492426e-01 -3.145448e-01
   outer loop
     vertex -1.366025e+00  4.712381e-01  2.185931e-01
     vertex -1.366025e+00  4.743462e-01  2.279730e-01
     vertex -1.697267e-16  4.712381e-01  2.185931e-01
   endloop
 endfacet
 facet normal  2.312400e-17  9.793406e-01 -2.022176e-01
   outer loop
     vertex -1.366025e+00  4.686806e-01  2.090484e-01
     vertex -1.700106e-16  4.686806e-01  2.090484e-01
     vertex -1.702325e-16  4.666824e-01  1.993711e-01
   endloop
 endfacet
 facet normal  5.296569e-17  9.659258e-01 -2.588190e-01
   outer loop
     vertex -1.366025e+00  4.686806e-01  2.090484e-01
     vertex -1.366025e+00  4.712381e-01  2.185931e-01
     vertex -1.700106e-16  4.686806e-01  2.090484e-01
   endloop
 endfacet
 facet normal  9.450139e-17  9.793406e-01 -2.022176e-01
   outer loop
     vertex -1.366025e+00  4.666824e-01  1.993711e-01
     vertex -1.366025e+00  4.686806e-01  2.090484e-01
     vertex -1.702325e-16  4.666824e-01  1.993711e-01
   endloop
 endfacet
 facet normal  6.773033e-17  9.894416e-01 -1.449319e-01
   outer loop
     vertex -1.366025e+00  4.666824e-01  1.993711e-01
     vertex -1.702325e-16  4.666824e-01  1.993711e-01
     vertex -1.703915e-16  4.652502e-01  1.895940e-01
   endloop
 endfacet
 facet normal  9.910386e-17  9.894416e-01 -1.449319e-01
   outer loop
     vertex -1.366025e+00  4.652502e-01  1.895940e-01
     vertex -1.366025e+00  4.666824e-01  1.993711e-01
     vertex -1.703915e-16  4.652502e-01  1.895940e-01
   endloop
 endfacet
 facet normal  7.589981e-17  9.961947e-01 -8.715574e-02
   outer loop
     vertex -1.366025e+00  4.652502e-01  1.895940e-01
     vertex -1.703915e-16  4.652502e-01  1.895940e-01
     vertex -1.704871e-16  4.643890e-01  1.797502e-01
   endloop
 endfacet
 facet normal  1.128404e-16  9.961947e-01 -8.715574e-02
   outer loop
     vertex -1.366025e+00  4.643890e-01  1.797502e-01
     vertex -1.366025e+00  4.652502e-01  1.895940e-01
     vertex -1.704871e-16  4.643890e-01  1.797502e-01
   endloop
 endfacet
 facet normal  9.187682e-17  9.995770e-01 -2.908472e-02
   outer loop
     vertex -1.366025e+00  4.643890e-01  1.797502e-01
     vertex -1.704871e-16  4.643890e-01  1.797502e-01
     vertex -1.705190e-16  4.641016e-01  1.698730e-01
   endloop
 endfacet
 facet normal  8.951299e-17  9.995770e-01 -2.908472e-02
   outer loop
     vertex -1.366025e+00  4.641016e-01  1.698730e-01
     vertex -1.366025e+00  4.643890e-01  1.797502e-01
     vertex -1.705190e-16  4.641016e-01  1.698730e-01
   endloop
 endfacet
 facet normal  7.296618e-17  9.995770e-01  2.908472e-02
   outer loop
     vertex -1.366025e+00  4.641016e-01  1.698730e-01
     vertex -1.705190e-16  4.641016e-01  1.698730e-01
     vertex -1.704871e-16  4.643890e-01  1.599957e-01
   endloop
 endfacet
 facet normal  1.147679e-16  9.995770e-01  2.908472e-02
   outer loop
     vertex -1.366025e+00  4.643890e-01  1.599957e-01
     vertex -1.366025e+00  4.641016e-01  1.698730e-01
     vertex -1.704871e-16  4.643890e-01  1.599957e-01
   endloop
 endfacet
 facet normal  1.001966e-16  9.961947e-01  8.715574e-02
   outer loop
     vertex -1.366025e+00  4.643890e-01  1.599957e-01
     vertex -1.704871e-16  4.643890e-01  1.599957e-01
     vertex -1.703915e-16  4.652502e-01  1.501519e-01
   endloop
 endfacet
 facet normal  6.502684e-17  9.961947e-01  8.715574e-02
   outer loop
     vertex -1.366025e+00  4.652502e-01  1.501519e-01
     vertex -1.366025e+00  4.643890e-01  1.599957e-01
     vertex -1.703915e-16  4.652502e-01  1.501519e-01
   endloop
 endfacet
 facet normal  5.391268e-17  9.894416e-01  1.449319e-01
   outer loop
     vertex -1.366025e+00  4.652502e-01  1.501519e-01
     vertex -1.703915e-16  4.652502e-01  1.501519e-01
     vertex -1.702325e-16  4.666824e-01  1.403748e-01
   endloop
 endfacet
 facet normal  6.274707e-17  9.894416e-01  1.449319e-01
   outer loop
     vertex -1.366025e+00  4.666824e-01  1.403748e-01
     vertex -1.366025e+00  4.652502e-01  1.501519e-01
     vertex -1.702325e-16  4.666824e-01  1.403748e-01
   endloop
 endfacet
 facet normal  5.746937e-17  9.659258e-01  2.588190e-01
   outer loop
     vertex -1.366025e+00  4.686806e-01  1.306976e-01
     vertex -1.700106e-16  4.686806e-01  1.306976e-01
     vertex -1.697267e-16  4.712381e-01  1.211529e-01
   endloop
 endfacet
 facet normal  6.315987e-17  9.793406e-01  2.022176e-01
   outer loop
     vertex -1.366025e+00  4.686806e-01  1.306976e-01
     vertex -1.702325e-16  4.666824e-01  1.403748e-01
     vertex -1.700106e-16  4.686806e-01  1.306976e-01
   endloop
 endfacet
 facet normal  5.497009e-17  9.793406e-01  2.022176e-01
   outer loop
     vertex -1.366025e+00  4.686806e-01  1.306976e-01
     vertex -1.366025e+00  4.666824e-01  1.403748e-01
     vertex -1.702325e-16  4.666824e-01  1.403748e-01
   endloop
 endfacet
 facet normal  1.124981e-16  9.659258e-01  2.588190e-01
   outer loop
     vertex -1.366025e+00  4.712381e-01  1.211529e-01
     vertex -1.366025e+00  4.686806e-01  1.306976e-01
     vertex -1.697267e-16  4.712381e-01  1.211529e-01
   endloop
 endfacet
 facet normal  8.993086e-17  9.492426e-01  3.145448e-01
   outer loop
     vertex -1.366025e+00  4.743462e-01  1.117730e-01
     vertex -1.697267e-16  4.712381e-01  1.211529e-01
     vertex -1.693816e-16  4.743462e-01  1.117730e-01
   endloop
 endfacet
 facet normal  1.091872e-16  9.492426e-01  3.145448e-01
   outer loop
     vertex -1.366025e+00  4.743462e-01  1.117730e-01
     vertex -1.366025e+00  4.712381e-01  1.211529e-01
     vertex -1.697267e-16  4.712381e-01  1.211529e-01
   endloop
 endfacet
 facet normal  6.402187e-17  9.293475e-01  3.692061e-01
   outer loop
     vertex -1.366025e+00  4.779945e-01  1.025897e-01
     vertex -1.693816e-16  4.743462e-01  1.117730e-01
     vertex -1.689766e-16  4.779945e-01  1.025897e-01
   endloop
 endfacet
 facet normal  9.036179e-17  9.293475e-01  3.692061e-01
   outer loop
     vertex -1.366025e+00  4.779945e-01  1.025897e-01
     vertex -1.366025e+00  4.743462e-01  1.117730e-01
     vertex -1.693816e-16  4.743462e-01  1.117730e-01
   endloop
 endfacet
 facet normal  5.152179e-17  9.063078e-01  4.226183e-01
   outer loop
     vertex -1.366025e+00  4.821706e-01  9.363413e-02
     vertex -1.689766e-16  4.779945e-01  1.025897e-01
     vertex -1.685129e-16  4.821706e-01  9.363413e-02
   endloop
 endfacet
 facet normal  6.676733e-17  9.063078e-01  4.226183e-01
   outer loop
     vertex -1.366025e+00  4.821706e-01  9.363413e-02
     vertex -1.366025e+00  4.779945e-01  1.025897e-01
     vertex -1.689766e-16  4.779945e-01  1.025897e-01
   endloop
 endfacet
 facet normal  8.196689e-17  8.802014e-01  4.746004e-01
   outer loop
     vertex -1.366025e+00  4.868603e-01  8.493649e-02
     vertex -1.685129e-16  4.821706e-01  9.363413e-02
     vertex -1.679923e-16  4.868603e-01  8.493649e-02
   endloop
 endfacet
 facet normal  5.773115e-17  8.802014e-01  4.746004e-01
   outer loop
     vertex -1.366025e+00  4.868603e-01  8.493649e-02
     vertex -1.366025e+00  4.821706e-01  9.363413e-02
     vertex -1.685129e-16  4.821706e-01  9.363413e-02
   endloop
 endfacet
 facet normal  7.208051e-17  8.511167e-01  5.249766e-01
   outer loop
     vertex -1.366025e+00  4.920478e-01  7.652625e-02
     vertex -1.679923e-16  4.868603e-01  8.493649e-02
     vertex -1.674163e-16  4.920478e-01  7.652625e-02
   endloop
 endfacet
 facet normal  9.086380e-17  8.511167e-01  5.249766e-01
   outer loop
     vertex -1.366025e+00  4.920478e-01  7.652625e-02
     vertex -1.366025e+00  4.868603e-01  8.493649e-02
     vertex -1.679923e-16  4.868603e-01  8.493649e-02
   endloop
 endfacet
 facet normal  7.910186e-17  8.191520e-01  5.735764e-01
   outer loop
     vertex -1.366025e+00  4.977155e-01  6.843187e-02
     vertex -1.674163e-16  4.920478e-01  7.652625e-02
     vertex -1.667871e-16  4.977155e-01  6.843187e-02
   endloop
 endfacet
 facet normal  8.333365e-17  8.191520e-01  5.735764e-01
   outer loop
     vertex -1.366025e+00  4.977155e-01  6.843187e-02
     vertex -1.366025e+00  4.920478e-01  7.652625e-02
     vertex -1.674163e-16  4.920478e-01  7.652625e-02
   endloop
 endfacet
 facet normal  4.262522e-17  7.844157e-01  6.202355e-01
   outer loop
     vertex -1.366025e+00  5.038443e-01  6.068073e-02
     vertex -1.667871e-16  4.977155e-01  6.843187e-02
     vertex -1.661066e-16  5.038443e-01  6.068073e-02
   endloop
 endfacet
 facet normal  9.387586e-17  7.844157e-01  6.202355e-01
   outer loop
     vertex -1.366025e+00  5.038443e-01  6.068073e-02
     vertex -1.366025e+00  4.977155e-01  6.843187e-02
     vertex -1.667871e-16  4.977155e-01  6.843187e-02
   endloop
 endfacet
 facet normal  8.118736e-17  7.470251e-01  6.647959e-01
   outer loop
     vertex -1.366025e+00  5.104135e-01  5.329907e-02
     vertex -1.661066e-16  5.038443e-01  6.068073e-02
     vertex -1.653773e-16  5.104135e-01  5.329907e-02
   endloop
 endfacet
 facet normal  6.074321e-17  7.470251e-01  6.647959e-01
   outer loop
     vertex -1.366025e+00  5.104135e-01  5.329907e-02
     vertex -1.366025e+00  5.038443e-01  6.068073e-02
     vertex -1.661066e-16  5.038443e-01  6.068073e-02
   endloop
 endfacet
 facet normal  6.465304e-17  7.071068e-01  7.071068e-01
   outer loop
     vertex -1.366025e+00  5.174007e-01  4.631185e-02
     vertex -1.653773e-16  5.104135e-01  5.329907e-02
     vertex -1.646016e-16  5.174007e-01  4.631185e-02
   endloop
 endfacet
 facet normal  1.004020e-16  7.071068e-01  7.071068e-01
   outer loop
     vertex -1.366025e+00  5.174007e-01  4.631185e-02
     vertex -1.366025e+00  5.104135e-01  5.329907e-02
     vertex -1.653773e-16  5.104135e-01  5.329907e-02
   endloop
 endfacet
 facet normal -3.624470e-18  6.647959e-01  7.470251e-01
   outer loop
     vertex -1.366025e+00  5.247823e-01  3.974273e-02
     vertex -1.646016e-16  5.174007e-01  4.631185e-02
     vertex -1.637821e-16  5.247823e-01  3.974273e-02
   endloop
 endfacet
 facet normal  8.835375e-17  6.647959e-01  7.470251e-01
   outer loop
     vertex -1.366025e+00  5.247823e-01  3.974273e-02
     vertex -1.366025e+00  5.174007e-01  4.631185e-02
     vertex -1.646016e-16  5.174007e-01  4.631185e-02
   endloop
 endfacet
 facet normal  3.743615e-17  6.202355e-01  7.844157e-01
   outer loop
     vertex -1.366025e+00  5.325335e-01  3.361392e-02
     vertex -1.637821e-16  5.247823e-01  3.974273e-02
     vertex -1.629215e-16  5.325335e-01  3.361392e-02
   endloop
 endfacet
 facet normal  2.158643e-17  6.202355e-01  7.844157e-01
   outer loop
     vertex -1.366025e+00  5.325335e-01  3.361392e-02
     vertex -1.366025e+00  5.247823e-01  3.974273e-02
     vertex -1.637821e-16  5.247823e-01  3.974273e-02
   endloop
 endfacet
 facet normal  2.990381e-17  5.735764e-01  8.191520e-01
   outer loop
     vertex -1.366025e+00  5.406279e-01  2.794618e-02
     vertex -1.629215e-16  5.325335e-01  3.361392e-02
     vertex -1.620229e-16  5.406279e-01  2.794618e-02
   endloop
 endfacet
 facet normal  6.325326e-17  5.735764e-01  8.191520e-01
   outer loop
     vertex -1.366025e+00  5.406279e-01  2.794618e-02
     vertex -1.366025e+00  5.325335e-01  3.361392e-02
     vertex -1.629215e-16  5.325335e-01  3.361392e-02
   endloop
 endfacet
 facet normal  5.414657e-17  5.249766e-01  8.511167e-01
   outer loop
     vertex -1.366025e+00  5.490381e-01  2.275866e-02
     vertex -1.620229e-16  5.406279e-01  2.794618e-02
     vertex -1.610891e-16  5.490381e-01  2.275866e-02
   endloop
 endfacet
 facet normal  5.421708e-17  5.249766e-01  8.511167e-01
   outer loop
     vertex -1.366025e+00  5.490381e-01  2.275866e-02
     vertex -1.366025e+00  5.406279e-01  2.794618e-02
     vertex -1.620229e-16  5.406279e-01  2.794618e-02
   endloop
 endfacet
 facet normal  2.455303e-17  4.746004e-01  8.802014e-01
   outer loop
     vertex -1.366025e+00  5.577357e-01  1.806894e-02
     vertex -1.610891e-16  5.490381e-01  2.275866e-02
     vertex -1.601235e-16  5.577357e-01  1.806894e-02
   endloop
 endfacet
 facet normal  7.781155e-17  4.746004e-01  8.802014e-01
   outer loop
     vertex -1.366025e+00  5.577357e-01  1.806894e-02
     vertex -1.366025e+00  5.490381e-01  2.275866e-02
     vertex -1.610891e-16  5.490381e-01  2.275866e-02
   endloop
 endfacet
 facet normal  2.834181e-17  4.226183e-01  9.063078e-01
   outer loop
     vertex -1.366025e+00  5.666913e-01  1.389287e-02
     vertex -1.601235e-16  5.577357e-01  1.806894e-02
     vertex -1.591292e-16  5.666913e-01  1.389287e-02
   endloop
 endfacet
 facet normal  4.668693e-17  4.226183e-01  9.063078e-01
   outer loop
     vertex -1.366025e+00  5.666913e-01  1.389287e-02
     vertex -1.366025e+00  5.577357e-01  1.806894e-02
     vertex -1.601235e-16  5.577357e-01  1.806894e-02
   endloop
 endfacet
 facet normal  3.103613e-17  3.692061e-01  9.293475e-01
   outer loop
     vertex -1.366025e+00  5.758746e-01  1.024459e-02
     vertex -1.591292e-16  5.666913e-01  1.389287e-02
     vertex -1.581097e-16  5.758746e-01  1.024459e-02
   endloop
 endfacet
 facet normal  5.020100e-17  3.692061e-01  9.293475e-01
   outer loop
     vertex -1.366025e+00  5.758746e-01  1.024459e-02
     vertex -1.366025e+00  5.666913e-01  1.389287e-02
     vertex -1.591292e-16  5.666913e-01  1.389287e-02
   endloop
 endfacet
 facet normal  3.502503e-17  2.588190e-01  9.659258e-01
   outer loop
     vertex -1.366025e+00  5.852545e-01  7.136447e-03
     vertex -1.570683e-16  5.852545e-01  7.136447e-03
     vertex -1.560086e-16  5.947992e-01  4.578948e-03
   endloop
 endfacet
 facet normal  1.974299e-17  3.145448e-01  9.492426e-01
   outer loop
     vertex -1.366025e+00  5.852545e-01  7.136447e-03
     vertex -1.581097e-16  5.758746e-01  1.024459e-02
     vertex -1.570683e-16  5.852545e-01  7.136447e-03
   endloop
 endfacet
 facet normal  5.220904e-17  3.145448e-01  9.492426e-01
   outer loop
     vertex -1.366025e+00  5.852545e-01  7.136447e-03
     vertex -1.366025e+00  5.758746e-01  1.024459e-02
     vertex -1.581097e-16  5.758746e-01  1.024459e-02
   endloop
 endfacet
 facet normal  1.539887e-17  2.588190e-01  9.659258e-01
   outer loop
     vertex -1.366025e+00  5.947992e-01  4.578948e-03
     vertex -1.366025e+00  5.852545e-01  7.136447e-03
     vertex -1.560086e-16  5.947992e-01  4.578948e-03
   endloop
 endfacet
 facet normal  1.039110e-17  2.022176e-01  9.793406e-01
   outer loop
     vertex -1.366025e+00  6.044765e-01  2.580752e-03
     vertex -1.560086e-16  5.947992e-01  4.578948e-03
     vertex -1.549342e-16  6.044765e-01  2.580752e-03
   endloop
 endfacet
 facet normal  3.037160e-17  2.022176e-01  9.793406e-01
   outer loop
     vertex -1.366025e+00  6.044765e-01  2.580752e-03
     vertex -1.366025e+00  5.947992e-01  4.578948e-03
     vertex -1.560086e-16  5.947992e-01  4.578948e-03
   endloop
 endfacet
 facet normal  4.870362e-18  1.449319e-01  9.894416e-01
   outer loop
     vertex -1.366025e+00  6.142535e-01  1.148620e-03
     vertex -1.549342e-16  6.044765e-01  2.580752e-03
     vertex -1.538488e-16  6.142535e-01  1.148620e-03
   endloop
 endfacet
 facet normal  2.497500e-17  1.449319e-01  9.894416e-01
   outer loop
     vertex -1.366025e+00  6.142535e-01  1.148620e-03
     vertex -1.366025e+00  6.044765e-01  2.580752e-03
     vertex -1.549342e-16  6.044765e-01  2.580752e-03
   endloop
 endfacet
 facet normal  6.074188e-18  8.715574e-02  9.961947e-01
   outer loop
     vertex -1.366025e+00  6.240974e-01  2.873982e-04
     vertex -1.538488e-16  6.142535e-01  1.148620e-03
     vertex -1.527559e-16  6.240974e-01  2.873982e-04
   endloop
 endfacet
 facet normal  1.920188e-17  8.715574e-02  9.961947e-01
   outer loop
     vertex -1.366025e+00  6.240974e-01  2.873982e-04
     vertex -1.366025e+00  6.142535e-01  1.148620e-03
     vertex -1.538488e-16  6.142535e-01  1.148620e-03
   endloop
 endfacet
 facet normal  2.363830e-18  2.908472e-02  9.995770e-01
   outer loop
     vertex -1.366025e+00  6.339746e-01  0.000000e+00
     vertex -1.527559e-16  6.240974e-01  2.873982e-04
     vertex -2.220446e-16  6.339746e-01  0.000000e+00
   endloop
 endfacet
 facet normal  1.559368e-17  2.908472e-02  9.995770e-01
   outer loop
     vertex -1.366025e+00  6.339746e-01  0.000000e+00
     vertex -1.366025e+00  6.240974e-01  2.873982e-04
     vertex -1.527559e-16  6.240974e-01  2.873982e-04
   endloop
 endfacet
 facet normal  1.000000e+00 -2.794375e-16 -1.684152e-16
   outer loop
     vertex -1.653773e-16  5.104135e-01  5.329907e-02
     vertex -2.220446e-16  3.397460e-01  0.000000e+00
     vertex -1.646016e-16  5.174007e-01  4.631185e-02
   endloop
 endfacet
 facet normal  1.000000e+00 -2.752374e-16 -1.845270e-16
   outer loop
     vertex -1.637821e-16  5.247823e-01  3.974273e-02
     vertex -1.646016e-16  5.174007e-01  4.631185e-02
     vertex -2.220446e-16  3.397460e-01  0.000000e+00
   endloop
 endfacet
 facet normal  1.000000e+00 -2.839679e-16 -1.539085e-16
   outer loop
     vertex -1.661066e-16  5.038443e-01  6.068073e-02
     vertex -2.220446e-16  3.397460e-01  0.000000e+00
     vertex -1.653773e-16  5.104135e-01  5.329907e-02
   endloop
 endfacet
 facet normal  1.000000e+00 -2.713262e-16 -2.027373e-16
   outer loop
     vertex -1.629215e-16  5.325335e-01  3.361392e-02
     vertex -1.637821e-16  5.247823e-01  3.974273e-02
     vertex -2.220446e-16  3.397460e-01  0.000000e+00
   endloop
 endfacet
 facet normal  1.000000e+00 -2.888781e-16 -1.406301e-16
   outer loop
     vertex -1.667871e-16  4.977155e-01  6.843187e-02
     vertex -2.220446e-16  3.397460e-01  0.000000e+00
     vertex -1.661066e-16  5.038443e-01  6.068073e-02
   endloop
 endfacet
 facet normal  1.000000e+00 -2.676687e-16 -2.237142e-16
   outer loop
     vertex -1.620229e-16  5.406279e-01  2.794618e-02
     vertex -1.629215e-16  5.325335e-01  3.361392e-02
     vertex -2.220446e-16  3.397460e-01  0.000000e+00
   endloop
 endfacet
 facet normal  1.000000e+00 -2.942274e-16 -1.282816e-16
   outer loop
     vertex -1.674163e-16  4.920478e-01  7.652625e-02
     vertex -2.220446e-16  3.397460e-01  0.000000e+00
     vertex -1.667871e-16  4.977155e-01  6.843187e-02
   endloop
 endfacet
 facet normal  1.000000e+00 -2.642351e-16 -2.483957e-16
   outer loop
     vertex -1.610891e-16  5.490381e-01  2.275866e-02
     vertex -1.620229e-16  5.406279e-01  2.794618e-02
     vertex -2.220446e-16  3.397460e-01  0.000000e+00
   endloop
 endfacet
 facet normal  1.000000e+00 -3.000882e-16 -1.166176e-16
   outer loop
     vertex -1.679923e-16  4.868603e-01  8.493649e-02
     vertex -2.220446e-16  3.397460e-01  0.000000e+00
     vertex -1.674163e-16  4.920478e-01  7.652625e-02
   endloop
 endfacet
 facet normal  1.000000e+00 -2.609995e-16 -2.781501e-16
   outer loop
     vertex -1.601235e-16  5.577357e-01  1.806894e-02
     vertex -1.610891e-16  5.490381e-01  2.275866e-02
     vertex -2.220446e-16  3.397460e-01  0.000000e+00
   endloop
 endfacet
 facet normal  1.000000e+00 -3.065490e-16 -1.054271e-16
   outer loop
     vertex -1.685129e-16  4.821706e-01  9.363413e-02
     vertex -2.220446e-16  3.397460e-01  0.000000e+00
     vertex -1.679923e-16  4.868603e-01  8.493649e-02
   endloop
 endfacet
 facet normal  1.000000e+00 -2.579397e-16 -3.150653e-16
   outer loop
     vertex -1.591292e-16  5.666913e-01  1.389287e-02
     vertex -1.601235e-16  5.577357e-01  1.806894e-02
     vertex -2.220446e-16  3.397460e-01  0.000000e+00
   endloop
 endfacet
 facet normal  1.000000e+00 -3.137200e-16 -9.451947e-17
   outer loop
     vertex -1.689766e-16  4.779945e-01  1.025897e-01
     vertex -2.220446e-16  3.397460e-01  0.000000e+00
     vertex -1.685129e-16  4.821706e-01  9.363413e-02
   endloop
 endfacet
 facet normal  1.000000e+00 -2.550357e-16 -3.625033e-16
   outer loop
     vertex -1.581097e-16  5.758746e-01  1.024459e-02
     vertex -1.591292e-16  5.666913e-01  1.389287e-02
     vertex -2.220446e-16  3.397460e-01  0.000000e+00
   endloop
 endfacet
 facet normal  1.000000e+00 -3.217394e-16 -8.371255e-17
   outer loop
     vertex -1.693816e-16  4.743462e-01  1.117730e-01
     vertex -2.220446e-16  3.397460e-01  0.000000e+00
     vertex -1.689766e-16  4.779945e-01  1.025897e-01
   endloop
 endfacet
 facet normal  1.000000e+00 -2.522695e-16 -4.262601e-16
   outer loop
     vertex -1.570683e-16  5.852545e-01  7.136447e-03
     vertex -1.581097e-16  5.758746e-01  1.024459e-02
     vertex -2.220446e-16  3.397460e-01  0.000000e+00
   endloop
 endfacet
 facet normal  1.000000e+00 -3.307838e-16 -7.282103e-17
   outer loop
     vertex -1.697267e-16  4.712381e-01  1.211529e-01
     vertex -2.220446e-16  3.397460e-01  0.000000e+00
     vertex -1.693816e-16  4.743462e-01  1.117730e-01
   endloop
 endfacet
 facet normal  1.000000e+00 -2.496241e-16 -5.172689e-16
   outer loop
     vertex -1.560086e-16  5.947992e-01  4.578948e-03
     vertex -1.570683e-16  5.852545e-01  7.136447e-03
     vertex -2.220446e-16  3.397460e-01  0.000000e+00
   endloop
 endfacet
 facet normal  1.000000e+00 -3.410818e-16 -6.164425e-17
   outer loop
     vertex -1.700106e-16  4.686806e-01  1.306976e-01
     vertex -2.220446e-16  3.397460e-01  0.000000e+00
     vertex -1.697267e-16  4.712381e-01  1.211529e-01
   endloop
 endfacet
 facet normal  1.000000e+00 -2.470808e-16 -6.589320e-16
   outer loop
     vertex -1.549342e-16  6.044765e-01  2.580752e-03
     vertex -1.560086e-16  5.947992e-01  4.578948e-03
     vertex -2.220446e-16  3.397460e-01  0.000000e+00
   endloop
 endfacet
 facet normal  1.000000e+00 -3.529350e-16 -4.995095e-17
   outer loop
     vertex -1.702325e-16  4.666824e-01  1.403748e-01
     vertex -2.220446e-16  3.397460e-01  0.000000e+00
     vertex -1.700106e-16  4.686806e-01  1.306976e-01
   endloop
 endfacet
 facet normal  1.000000e+00 -2.446136e-16 -9.120200e-16
   outer loop
     vertex -1.538488e-16  6.142535e-01  1.148620e-03
     vertex -1.549342e-16  6.044765e-01  2.580752e-03
     vertex -2.220446e-16  3.397460e-01  0.000000e+00
   endloop
 endfacet
 facet normal  1.000000e+00 -3.667499e-16 -3.745857e-17
   outer loop
     vertex -1.703915e-16  4.652502e-01  1.501519e-01
     vertex -2.220446e-16  3.397460e-01  0.000000e+00
     vertex -1.702325e-16  4.666824e-01  1.403748e-01
   endloop
 endfacet
 facet normal  1.000000e+00 -3.830877e-16 -2.380264e-17
   outer loop
     vertex -1.704871e-16  4.643890e-01  1.599957e-01
     vertex -2.220446e-16  3.397460e-01  0.000000e+00
     vertex -1.703915e-16  4.652502e-01  1.501519e-01
   endloop
 endfacet
 facet normal  1.000000e+00 -4.027457e-16 -8.488283e-18
   outer loop
     vertex -1.705190e-16  4.641016e-01  1.698730e-01
     vertex -2.220446e-16  3.397460e-01  0.000000e+00
     vertex -1.704871e-16  4.643890e-01  1.599957e-01
   endloop
 endfacet
 facet normal  1.000000e+00 -4.268960e-16  9.190986e-18
   outer loop
     vertex -1.704871e-16  4.643890e-01  1.797502e-01
     vertex -2.220446e-16  3.397460e-01  0.000000e+00
     vertex -1.705190e-16  4.641016e-01  1.698730e-01
   endloop
 endfacet
 facet normal  1.000000e+00 -4.573355e-16  3.029848e-17
   outer loop
     vertex -1.703915e-16  4.652502e-01  1.895940e-01
     vertex -2.220446e-16  3.397460e-01  0.000000e+00
     vertex -1.704871e-16  4.643890e-01  1.797502e-01
   endloop
 endfacet
 facet normal  1.000000e+00 -4.969661e-16  5.653244e-17
   outer loop
     vertex -1.702325e-16  4.666824e-01  1.993711e-01
     vertex -2.220446e-16  3.397460e-01  0.000000e+00
     vertex -1.703915e-16  4.652502e-01  1.895940e-01
   endloop
 endfacet
 facet normal  1.000000e+00 -5.507980e-16  9.080638e-17
   outer loop
     vertex -1.700106e-16  4.686806e-01  2.090484e-01
     vertex -2.220446e-16  3.397460e-01  0.000000e+00
     vertex -1.702325e-16  4.666824e-01  1.993711e-01
   endloop
 endfacet
 facet normal  1.000000e+00 -6.282912e-16  1.386018e-16
   outer loop
     vertex -1.697267e-16  4.712381e-01  2.185931e-01
     vertex -2.220446e-16  3.397460e-01  0.000000e+00
     vertex -1.700106e-16  4.686806e-01  2.090484e-01
   endloop
 endfacet
 facet normal  1.000000e+00 -1.613086e-13  9.313156e-14
   outer loop
     vertex -2.220446e-16  4.868603e-01  2.548095e-01
     vertex -2.220446e-16  3.397460e-01  0.000000e+00
     vertex -1.685129e-16  4.821706e-01  2.461118e-01
   endloop
 endfacet
 facet normal  1.000000e+00 -1.474664e-15  6.358768e-16
   outer loop
     vertex -1.685129e-16  4.821706e-01  2.461118e-01
     vertex -2.220446e-16  3.397460e-01  0.000000e+00
     vertex -1.689766e-16  4.779945e-01  2.371562e-01
   endloop
 endfacet
 facet normal  1.000000e+00 -9.676504e-16  3.403166e-16
   outer loop
     vertex -1.689766e-16  4.779945e-01  2.371562e-01
     vertex -2.220446e-16  3.397460e-01  0.000000e+00
     vertex -1.693816e-16  4.743462e-01  2.279730e-01
   endloop
 endfacet
 facet normal  1.000000e+00 -7.497034e-16  2.116359e-16
   outer loop
     vertex -1.693816e-16  4.743462e-01  2.279730e-01
     vertex -2.220446e-16  3.397460e-01  0.000000e+00
     vertex -1.697267e-16  4.712381e-01  2.185931e-01
   endloop
 endfacet
 facet normal  1.000000e+00  0.000000e+00 -2.410896e-13
   outer loop
     vertex -2.220446e-16  3.397460e-01  0.000000e+00
     vertex -2.220446e-16  6.339746e-01  0.000000e+00
     vertex -1.527559e-16  6.240974e-01  2.873982e-04
   endloop
 endfacet
 facet normal  1.000000e+00 -2.421579e-16 -1.498887e-15
   outer loop
     vertex -2.220446e-16  3.397460e-01  0.000000e+00
     vertex -1.527559e-16  6.240974e-01  2.873982e-04
     vertex -1.538488e-16  6.142535e-01  1.148620e-03
   endloop
 endfacet
endsolid
