solid 
 facet normal  9.659258e-01  0.000000e+00  2.588190e-01
   outer loop
     vertex  1.205771e+00  1.366025e+00  1.500000e+00
     vertex  0.000000e+00 -1.366025e+00  6.000000e+00
     vertex  1.205771e+00 -1.366025e+00  1.500000e+00
   endloop
 endfacet
 facet normal  9.659258e-01  0.000000e+00  2.588190e-01
   outer loop
     vertex  1.205771e+00  1.366025e+00  1.500000e+00
     vertex  0.000000e+00  1.366025e+00  6.000000e+00
     vertex  0.000000e+00 -1.366025e+00  6.000000e+00
   endloop
 endfacet
 facet normal -9.659258e-01  0.000000e+00  2.588190e-01
   outer loop
     vertex  0.000000e+00  1.366025e+00  6.000000e+00
     vertex -8.038476e-01 -1.366025e+00  3.000000e+00
     vertex  0.000000e+00 -1.366025e+00  6.000000e+00
   endloop
 endfacet
 facet normal -9.659258e-01  0.000000e+00  2.588190e-01
   outer loop
     vertex  0.000000e+00  1.366025e+00  6.000000e+00
     vertex -8.038476e-01  1.366025e+00  3.000000e+00
     vertex -8.038476e-01 -1.366025e+00  3.000000e+00
   endloop
 endfacet
 facet normal  8.660254e-01  0.000000e+00 -5.000000e-01
   outer loop
     vertex  4.868603e-01  1.366025e+00  2.548095e-01
     vertex  1.205771e+00  1.366025e+00  1.500000e+00
     vertex  1.205771e+00 -1.366025e+00  1.500000e+00
   endloop
 endfacet
 facet normal  8.660254e-01  0.000000e+00 -5.000000e-01
   outer loop
     vertex  4.868603e-01  1.366025e+00  2.548095e-01
     vertex  1.205771e+00 -1.366025e+00  1.500000e+00
     vertex  4.868603e-01 -1.366025e+00  2.548095e-01
   endloop
 endfacet
 facet normal  8.660254e-01  0.000000e+00 -5.000000e-01
   outer loop
     vertex  3.397460e-01  1.366025e+00  0.000000e+00
     vertex  4.868603e-01  1.366025e+00  2.548095e-01
     vertex  4.868603e-01 -1.366025e+00  2.548095e-01
   endloop
 endfacet
 facet normal  8.660254e-01  0.000000e+00 -5.000000e-01
   outer loop
     vertex  3.397460e-01  1.366025e+00  0.000000e+00
     vertex  4.868603e-01 -1.366025e+00  2.548095e-01
     vertex  3.397460e-01 -1.366025e+00  0.000000e+00
   endloop
 endfacet
 facet normal  0.000000e+00 -1.000000e+00  0.000000e+00
   outer loop
     vertex  3.397460e-01 -1.366025e+00  0.000000e+00
     vertex -1.218911e+00 -1.366025e+00  8.493649e-02
     vertex -1.267949e+00 -1.366025e+00  0.000000e+00
   endloop
 endfacet
 facet normal  0.000000e+00 -1.000000e+00  0.000000e+00
   outer loop
     vertex -4.019238e-01 -1.366025e+00  1.500000e+00
     vertex  3.397460e-01 -1.366025e+00  0.000000e+00
     vertex  4.868603e-01 -1.366025e+00  2.548095e-01
   endloop
 endfacet
 facet normal  0.000000e+00 -1.000000e+00 -0.000000e+00
   outer loop
     vertex -4.019238e-01 -1.366025e+00  1.500000e+00
     vertex -1.218911e+00 -1.366025e+00  8.493649e-02
     vertex  3.397460e-01 -1.366025e+00  0.000000e+00
   endloop
 endfacet
 facet normal  0.000000e+00 -1.000000e+00  0.000000e+00
   outer loop
     vertex  1.205771e+00 -1.366025e+00  1.500000e+00
     vertex -8.038476e-01 -1.366025e+00  3.000000e+00
     vertex -4.019238e-01 -1.366025e+00  1.500000e+00
   endloop
 endfacet
 facet normal -0.000000e+00 -1.000000e+00  0.000000e+00
   outer loop
     vertex  1.205771e+00 -1.366025e+00  1.500000e+00
     vertex -4.019238e-01 -1.366025e+00  1.500000e+00
     vertex  4.868603e-01 -1.366025e+00  2.548095e-01
   endloop
 endfacet
 facet normal  0.000000e+00 -1.000000e+00 -0.000000e+00
   outer loop
     vertex  0.000000e+00 -1.366025e+00  6.000000e+00
     vertex -8.038476e-01 -1.366025e+00  3.000000e+00
     vertex  1.205771e+00 -1.366025e+00  1.500000e+00
   endloop
 endfacet
 facet normal -9.659258e-01 -0.000000e+00 -2.588190e-01
   outer loop
     vertex -8.038476e-01  1.366025e+00  3.000000e+00
     vertex -4.019238e-01 -1.366025e+00  1.500000e+00
     vertex -8.038476e-01 -1.366025e+00  3.000000e+00
   endloop
 endfacet
 facet normal -9.659258e-01  0.000000e+00 -2.588190e-01
   outer loop
     vertex -8.038476e-01  1.366025e+00  3.000000e+00
     vertex -4.019238e-01  1.366025e+00  1.500000e+00
     vertex -4.019238e-01 -1.366025e+00  1.500000e+00
   endloop
 endfacet
 facet normal  0.000000e+00  0.000000e+00 -1.000000e+00
   outer loop
     vertex -1.267949e+00  1.366025e+00  0.000000e+00
     vertex  3.397460e-01  1.366025e+00  0.000000e+00
     vertex  3.397460e-01 -1.366025e+00  0.000000e+00
   endloop
 endfacet
 facet normal  0.000000e+00  0.000000e+00 -1.000000e+00
   outer loop
     vertex -1.267949e+00  1.366025e+00  0.000000e+00
     vertex  3.397460e-01 -1.366025e+00  0.000000e+00
     vertex -1.267949e+00 -1.366025e+00  0.000000e+00
   endloop
 endfacet
 facet normal  0.000000e+00  1.000000e+00  0.000000e+00
   outer loop
     vertex  3.397460e-01  1.366025e+00  0.000000e+00
     vertex -1.267949e+00  1.366025e+00  0.000000e+00
     vertex -1.218911e+00  1.366025e+00  8.493649e-02
   endloop
 endfacet
 facet normal  0.000000e+00  1.000000e+00  0.000000e+00
   outer loop
     vertex -4.019238e-01  1.366025e+00  1.500000e+00
     vertex  4.868603e-01  1.366025e+00  2.548095e-01
     vertex  3.397460e-01  1.366025e+00  0.000000e+00
   endloop
 endfacet
 facet normal  0.000000e+00  1.000000e+00  0.000000e+00
   outer loop
     vertex -4.019238e-01  1.366025e+00  1.500000e+00
     vertex  3.397460e-01  1.366025e+00  0.000000e+00
     vertex -1.218911e+00  1.366025e+00  8.493649e-02
   endloop
 endfacet
 facet normal  0.000000e+00  1.000000e+00  0.000000e+00
   outer loop
     vertex  1.205771e+00  1.366025e+00  1.500000e+00
     vertex -4.019238e-01  1.366025e+00  1.500000e+00
     vertex -8.038476e-01  1.366025e+00  3.000000e+00
   endloop
 endfacet
 facet normal  0.000000e+00  1.000000e+00  0.000000e+00
   outer loop
     vertex  1.205771e+00  1.366025e+00  1.500000e+00
     vertex  4.868603e-01  1.366025e+00  2.548095e-01
     vertex -4.019238e-01  1.366025e+00  1.500000e+00
   endloop
 endfacet
 facet normal  0.000000e+00  1.000000e+00  0.000000e+00
   outer loop
     vertex  0.000000e+00  1.366025e+00  6.000000e+00
     vertex  1.205771e+00  1.366025e+00  1.500000e+00
     vertex -8.038476e-01  1.366025e+00  3.000000e+00
   endloop
 endfacet
 facet normal -8.660254e-01  0.000000e+00  5.000000e-01
   outer loop
     vertex -1.218911e+00  1.366025e+00  8.493649e-02
     vertex -1.267949e+00  1.366025e+00  0.000000e+00
     vertex -1.267949e+00 -1.366025e+00  0.000000e+00
   endloop
 endfacet
 facet normal -8.660254e-01  0.000000e+00  5.000000e-01
   outer loop
     vertex -1.218911e+00  1.366025e+00  8.493649e-02
     vertex -1.267949e+00 -1.366025e+00  0.000000e+00
     vertex -1.218911e+00 -1.366025e+00  8.493649e-02
   endloop
 endfacet
 facet normal -8.660254e-01  0.000000e+00  5.000000e-01
   outer loop
     vertex -4.019238e-01  1.366025e+00  1.500000e+00
     vertex -1.218911e+00  1.366025e+00  8.493649e-02
     vertex -1.218911e+00 -1.366025e+00  8.493649e-02
   endloop
 endfacet
 facet normal -8.660254e-01  0.000000e+00  5.000000e-01
   outer loop
     vertex -4.019238e-01  1.366025e+00  1.500000e+00
     vertex -1.218911e+00 -1.366025e+00  8.493649e-02
     vertex -4.019238e-01 -1.366025e+00  1.500000e+00
   endloop
 endfacet
 facet normal -0.000000e+00 -1.000000e+00  0.000000e+00
   outer loop
     vertex -1.267949e+00 -1.366025e+00  0.000000e+00
     vertex -1.366025e+00 -1.366025e+00  0.000000e+00
     vertex -1.366025e+00 -1.366025e+00 -2.000000e+00
   endloop
 endfacet
 facet normal  0.000000e+00 -1.000000e+00 -0.000000e+00
   outer loop
     vertex  3.397460e-01 -1.366025e+00  0.000000e+00
     vertex -1.366025e+00 -1.366025e+00 -2.000000e+00
     vertex  1.366025e+00 -1.366025e+00 -2.000000e+00
   endloop
 endfacet
 facet normal -0.000000e+00 -1.000000e+00  0.000000e+00
   outer loop
     vertex  3.397460e-01 -1.366025e+00  0.000000e+00
     vertex -1.267949e+00 -1.366025e+00  0.000000e+00
     vertex -1.366025e+00 -1.366025e+00 -2.000000e+00
   endloop
 endfacet
 facet normal -0.000000e+00 -1.000000e+00 -0.000000e+00
   outer loop
     vertex  6.339746e-01 -1.366025e+00  0.000000e+00
     vertex  3.397460e-01 -1.366025e+00  0.000000e+00
     vertex  1.366025e+00 -1.366025e+00 -2.000000e+00
   endloop
 endfacet
 facet normal -0.000000e+00 -1.000000e+00 -0.000000e+00
   outer loop
     vertex  1.366025e+00 -1.366025e+00  0.000000e+00
     vertex  6.339746e-01 -1.366025e+00  0.000000e+00
     vertex  1.366025e+00 -1.366025e+00 -2.000000e+00
   endloop
 endfacet
 facet normal  1.000000e+00  0.000000e+00  0.000000e+00
   outer loop
     vertex  1.366025e+00  1.366025e+00  0.000000e+00
     vertex  1.366025e+00 -1.366025e+00  0.000000e+00
     vertex  1.366025e+00 -1.366025e+00 -2.000000e+00
   endloop
 endfacet
 facet normal  1.000000e+00  0.000000e+00  0.000000e+00
   outer loop
     vertex  1.366025e+00  1.366025e+00  0.000000e+00
     vertex  1.366025e+00 -1.366025e+00 -2.000000e+00
     vertex  1.366025e+00  1.366025e+00 -2.000000e+00
   endloop
 endfacet
 facet normal -0.000000e+00  1.000000e+00  0.000000e+00
   outer loop
     vertex  6.339746e-01  1.366025e+00  0.000000e+00
     vertex  1.366025e+00  1.366025e+00  0.000000e+00
     vertex  1.366025e+00  1.366025e+00 -2.000000e+00
   endloop
 endfacet
 facet normal  0.000000e+00  1.000000e+00  0.000000e+00
   outer loop
     vertex  3.397460e-01  1.366025e+00  0.000000e+00
     vertex  1.366025e+00  1.366025e+00 -2.000000e+00
     vertex -1.366025e+00  1.366025e+00 -2.000000e+00
   endloop
 endfacet
 facet normal -0.000000e+00  1.000000e+00  0.000000e+00
   outer loop
     vertex  3.397460e-01  1.366025e+00  0.000000e+00
     vertex  6.339746e-01  1.366025e+00  0.000000e+00
     vertex  1.366025e+00  1.366025e+00 -2.000000e+00
   endloop
 endfacet
 facet normal -0.000000e+00  1.000000e+00  0.000000e+00
   outer loop
     vertex -1.267949e+00  1.366025e+00  0.000000e+00
     vertex  3.397460e-01  1.366025e+00  0.000000e+00
     vertex -1.366025e+00  1.366025e+00 -2.000000e+00
   endloop
 endfacet
 facet normal -0.000000e+00  1.000000e+00  0.000000e+00
   outer loop
     vertex -1.366025e+00  1.366025e+00  0.000000e+00
     vertex -1.267949e+00  1.366025e+00  0.000000e+00
     vertex -1.366025e+00  1.366025e+00 -2.000000e+00
   endloop
 endfacet
 facet normal -1.000000e+00  0.000000e+00  0.000000e+00
   outer loop
     vertex -1.366025e+00 -1.366025e+00  0.000000e+00
     vertex -1.366025e+00  1.366025e+00  0.000000e+00
     vertex -1.366025e+00  1.366025e+00 -2.000000e+00
   endloop
 endfacet
 facet normal -1.000000e+00  0.000000e+00  0.000000e+00
   outer loop
     vertex -1.366025e+00 -1.366025e+00  0.000000e+00
     vertex -1.366025e+00  1.366025e+00 -2.000000e+00
     vertex -1.366025e+00 -1.366025e+00 -2.000000e+00
   endloop
 endfacet
 facet normal  0.000000e+00  0.000000e+00  1.000000e+00
   outer loop
     vertex -1.267949e+00  1.366025e+00  0.000000e+00
     vertex -1.366025e+00  1.366025e+00  0.000000e+00
     vertex -1.366025e+00 -1.366025e+00  0.000000e+00
   endloop
 endfacet
 facet normal  0.000000e+00  0.000000e+00  1.000000e+00
   outer loop
     vertex -1.267949e+00  1.366025e+00  0.000000e+00
     vertex -1.366025e+00 -1.366025e+00  0.000000e+00
     vertex -1.267949e+00 -1.366025e+00  0.000000e+00
   endloop
 endfacet
 facet normal -0.000000e+00  0.000000e+00  1.000000e+00
   outer loop
     vertex -1.267949e+00  1.366025e+00  0.000000e+00
     vertex  3.397460e-01 -1.366025e+00  0.000000e+00
     vertex  3.397460e-01  1.366025e+00  0.000000e+00
   endloop
 endfacet
 facet normal  0.000000e+00  0.000000e+00  1.000000e+00
   outer loop
     vertex -1.267949e+00  1.366025e+00  0.000000e+00
     vertex -1.267949e+00 -1.366025e+00  0.000000e+00
     vertex  3.397460e-01 -1.366025e+00  0.000000e+00
   endloop
 endfacet
 facet normal  0.000000e+00  0.000000e+00  1.000000e+00
   outer loop
     vertex  6.339746e-01  1.366025e+00  0.000000e+00
     vertex  3.397460e-01  1.366025e+00  0.000000e+00
     vertex  3.397460e-01 -1.366025e+00  0.000000e+00
   endloop
 endfacet
 facet normal  0.000000e+00  0.000000e+00  1.000000e+00
   outer loop
     vertex  6.339746e-01  1.366025e+00  0.000000e+00
     vertex  3.397460e-01 -1.366025e+00  0.000000e+00
     vertex  6.339746e-01 -1.366025e+00  0.000000e+00
   endloop
 endfacet
 facet normal  0.000000e+00  0.000000e+00  1.000000e+00
   outer loop
     vertex  1.366025e+00  1.366025e+00  0.000000e+00
     vertex  6.339746e-01  1.366025e+00  0.000000e+00
     vertex  6.339746e-01 -1.366025e+00  0.000000e+00
   endloop
 endfacet
 facet normal  0.000000e+00  0.000000e+00  1.000000e+00
   outer loop
     vertex  1.366025e+00  1.366025e+00  0.000000e+00
     vertex  6.339746e-01 -1.366025e+00  0.000000e+00
     vertex  1.366025e+00 -1.366025e+00  0.000000e+00
   endloop
 endfacet
 facet normal  0.000000e+00 -0.000000e+00 -1.000000e+00
   outer loop
     vertex  1.366025e+00  1.366025e+00 -2.000000e+00
     vertex  1.366025e+00 -1.366025e+00 -2.000000e+00
     vertex -1.366025e+00 -1.366025e+00 -2.000000e+00
   endloop
 endfacet
 facet normal -0.000000e+00  0.000000e+00 -1.000000e+00
   outer loop
     vertex  1.366025e+00  1.366025e+00 -2.000000e+00
     vertex -1.366025e+00 -1.366025e+00 -2.000000e+00
     vertex -1.366025e+00  1.366025e+00 -2.000000e+00
   endloop
 endfacet
 facet normal -0.000000e+00  0.000000e+00 -1.000000e+00
   outer loop
     vertex -1.267949e+00  1.366025e+00  0.000000e+00
     vertex -1.366025e+00 -1.366025e+00  0.000000e+00
     vertex -1.366025e+00  1.366025e+00  0.000000e+00
   endloop
 endfacet
 facet normal  0.000000e+00 -0.000000e+00 -1.000000e+00
   outer loop
     vertex -1.267949e+00  1.366025e+00  0.000000e+00
     vertex -1.267949e+00 -1.366025e+00  0.000000e+00
     vertex -1.366025e+00 -1.366025e+00  0.000000e+00
   endloop
 endfacet
 facet normal -2.908472e-02  0.000000e+00  9.995770e-01
   outer loop
     vertex -1.356148e+00  1.366025e+00  2.873982e-04
     vertex -1.366025e+00  1.366025e+00  0.000000e+00
     vertex -1.366025e+00 -1.366025e+00  0.000000e+00
   endloop
 endfacet
 facet normal -2.908472e-02  0.000000e+00  9.995770e-01
   outer loop
     vertex -1.356148e+00  1.366025e+00  2.873982e-04
     vertex -1.366025e+00 -1.366025e+00  0.000000e+00
     vertex -1.356148e+00 -1.366025e+00  2.873982e-04
   endloop
 endfacet
 facet normal -8.715574e-02  0.000000e+00  9.961947e-01
   outer loop
     vertex -1.346304e+00  1.366025e+00  1.148620e-03
     vertex -1.356148e+00 -1.366025e+00  2.873982e-04
     vertex -1.346304e+00 -1.366025e+00  1.148620e-03
   endloop
 endfacet
 facet normal -8.715574e-02  0.000000e+00  9.961947e-01
   outer loop
     vertex -1.346304e+00  1.366025e+00  1.148620e-03
     vertex -1.356148e+00  1.366025e+00  2.873982e-04
     vertex -1.356148e+00 -1.366025e+00  2.873982e-04
   endloop
 endfacet
 facet normal -1.449319e-01  0.000000e+00  9.894416e-01
   outer loop
     vertex -1.336527e+00  1.366025e+00  2.580752e-03
     vertex -1.346304e+00 -1.366025e+00  1.148620e-03
     vertex -1.336527e+00 -1.366025e+00  2.580752e-03
   endloop
 endfacet
 facet normal -1.449319e-01  0.000000e+00  9.894416e-01
   outer loop
     vertex -1.336527e+00  1.366025e+00  2.580752e-03
     vertex -1.346304e+00  1.366025e+00  1.148620e-03
     vertex -1.346304e+00 -1.366025e+00  1.148620e-03
   endloop
 endfacet
 facet normal -2.022176e-01  0.000000e+00  9.793406e-01
   outer loop
     vertex -1.326850e+00  1.366025e+00  4.578948e-03
     vertex -1.336527e+00 -1.366025e+00  2.580752e-03
     vertex -1.326850e+00 -1.366025e+00  4.578948e-03
   endloop
 endfacet
 facet normal -2.022176e-01  0.000000e+00  9.793406e-01
   outer loop
     vertex -1.326850e+00  1.366025e+00  4.578948e-03
     vertex -1.336527e+00  1.366025e+00  2.580752e-03
     vertex -1.336527e+00 -1.366025e+00  2.580752e-03
   endloop
 endfacet
 facet normal -2.588190e-01  0.000000e+00  9.659258e-01
   outer loop
     vertex -1.317305e+00  1.366025e+00  7.136447e-03
     vertex -1.326850e+00 -1.366025e+00  4.578948e-03
     vertex -1.317305e+00 -1.366025e+00  7.136447e-03
   endloop
 endfacet
 facet normal -3.145448e-01  0.000000e+00  9.492426e-01
   outer loop
     vertex -1.317305e+00  1.366025e+00  7.136447e-03
     vertex -1.317305e+00 -1.366025e+00  7.136447e-03
     vertex -1.307925e+00 -1.366025e+00  1.024459e-02
   endloop
 endfacet
 facet normal -2.588190e-01  0.000000e+00  9.659258e-01
   outer loop
     vertex -1.317305e+00  1.366025e+00  7.136447e-03
     vertex -1.326850e+00  1.366025e+00  4.578948e-03
     vertex -1.326850e+00 -1.366025e+00  4.578948e-03
   endloop
 endfacet
 facet normal -3.145448e-01  0.000000e+00  9.492426e-01
   outer loop
     vertex -1.307925e+00  1.366025e+00  1.024459e-02
     vertex -1.317305e+00  1.366025e+00  7.136447e-03
     vertex -1.307925e+00 -1.366025e+00  1.024459e-02
   endloop
 endfacet
 facet normal -3.692061e-01  0.000000e+00  9.293475e-01
   outer loop
     vertex -1.298742e+00  1.366025e+00  1.389287e-02
     vertex -1.307925e+00 -1.366025e+00  1.024459e-02
     vertex -1.298742e+00 -1.366025e+00  1.389287e-02
   endloop
 endfacet
 facet normal -4.226183e-01  0.000000e+00  9.063078e-01
   outer loop
     vertex -1.298742e+00  1.366025e+00  1.389287e-02
     vertex -1.298742e+00 -1.366025e+00  1.389287e-02
     vertex -1.289787e+00 -1.366025e+00  1.806894e-02
   endloop
 endfacet
 facet normal -3.692061e-01  0.000000e+00  9.293475e-01
   outer loop
     vertex -1.298742e+00  1.366025e+00  1.389287e-02
     vertex -1.307925e+00  1.366025e+00  1.024459e-02
     vertex -1.307925e+00 -1.366025e+00  1.024459e-02
   endloop
 endfacet
 facet normal -4.226183e-01  0.000000e+00  9.063078e-01
   outer loop
     vertex -1.289787e+00  1.366025e+00  1.806894e-02
     vertex -1.298742e+00  1.366025e+00  1.389287e-02
     vertex -1.289787e+00 -1.366025e+00  1.806894e-02
   endloop
 endfacet
 facet normal -4.746004e-01  0.000000e+00  8.802014e-01
   outer loop
     vertex -1.281089e+00  1.366025e+00  2.275866e-02
     vertex -1.289787e+00 -1.366025e+00  1.806894e-02
     vertex -1.281089e+00 -1.366025e+00  2.275866e-02
   endloop
 endfacet
 facet normal -4.746004e-01  0.000000e+00  8.802014e-01
   outer loop
     vertex -1.281089e+00  1.366025e+00  2.275866e-02
     vertex -1.289787e+00  1.366025e+00  1.806894e-02
     vertex -1.289787e+00 -1.366025e+00  1.806894e-02
   endloop
 endfacet
 facet normal -5.249766e-01  0.000000e+00  8.511167e-01
   outer loop
     vertex -1.272679e+00  1.366025e+00  2.794618e-02
     vertex -1.281089e+00 -1.366025e+00  2.275866e-02
     vertex -1.272679e+00 -1.366025e+00  2.794618e-02
   endloop
 endfacet
 facet normal -5.249766e-01  0.000000e+00  8.511167e-01
   outer loop
     vertex -1.272679e+00  1.366025e+00  2.794618e-02
     vertex -1.281089e+00  1.366025e+00  2.275866e-02
     vertex -1.281089e+00 -1.366025e+00  2.275866e-02
   endloop
 endfacet
 facet normal -5.735764e-01  0.000000e+00  8.191520e-01
   outer loop
     vertex -1.264584e+00  1.366025e+00  3.361392e-02
     vertex -1.272679e+00 -1.366025e+00  2.794618e-02
     vertex -1.264584e+00 -1.366025e+00  3.361392e-02
   endloop
 endfacet
 facet normal -5.735764e-01  0.000000e+00  8.191520e-01
   outer loop
     vertex -1.264584e+00  1.366025e+00  3.361392e-02
     vertex -1.272679e+00  1.366025e+00  2.794618e-02
     vertex -1.272679e+00 -1.366025e+00  2.794618e-02
   endloop
 endfacet
 facet normal -6.202355e-01  0.000000e+00  7.844157e-01
   outer loop
     vertex -1.256833e+00  1.366025e+00  3.974273e-02
     vertex -1.264584e+00 -1.366025e+00  3.361392e-02
     vertex -1.256833e+00 -1.366025e+00  3.974273e-02
   endloop
 endfacet
 facet normal -6.202355e-01  0.000000e+00  7.844157e-01
   outer loop
     vertex -1.256833e+00  1.366025e+00  3.974273e-02
     vertex -1.264584e+00  1.366025e+00  3.361392e-02
     vertex -1.264584e+00 -1.366025e+00  3.361392e-02
   endloop
 endfacet
 facet normal -6.647959e-01  0.000000e+00  7.470251e-01
   outer loop
     vertex -1.249451e+00  1.366025e+00  4.631185e-02
     vertex -1.256833e+00 -1.366025e+00  3.974273e-02
     vertex -1.249451e+00 -1.366025e+00  4.631185e-02
   endloop
 endfacet
 facet normal -6.647959e-01  0.000000e+00  7.470251e-01
   outer loop
     vertex -1.249451e+00  1.366025e+00  4.631185e-02
     vertex -1.256833e+00  1.366025e+00  3.974273e-02
     vertex -1.256833e+00 -1.366025e+00  3.974273e-02
   endloop
 endfacet
 facet normal -7.071068e-01  0.000000e+00  7.071068e-01
   outer loop
     vertex -1.242464e+00  1.366025e+00  5.329907e-02
     vertex -1.249451e+00 -1.366025e+00  4.631185e-02
     vertex -1.242464e+00 -1.366025e+00  5.329907e-02
   endloop
 endfacet
 facet normal -7.071068e-01  0.000000e+00  7.071068e-01
   outer loop
     vertex -1.242464e+00  1.366025e+00  5.329907e-02
     vertex -1.249451e+00  1.366025e+00  4.631185e-02
     vertex -1.249451e+00 -1.366025e+00  4.631185e-02
   endloop
 endfacet
 facet normal -7.470251e-01  0.000000e+00  6.647959e-01
   outer loop
     vertex -1.235895e+00  1.366025e+00  6.068073e-02
     vertex -1.242464e+00  1.366025e+00  5.329907e-02
     vertex -1.242464e+00 -1.366025e+00  5.329907e-02
   endloop
 endfacet
 facet normal -7.470251e-01  0.000000e+00  6.647959e-01
   outer loop
     vertex -1.235895e+00  1.366025e+00  6.068073e-02
     vertex -1.242464e+00 -1.366025e+00  5.329907e-02
     vertex -1.235895e+00 -1.366025e+00  6.068073e-02
   endloop
 endfacet
 facet normal -7.844157e-01  0.000000e+00  6.202355e-01
   outer loop
     vertex -1.229766e+00  1.366025e+00  6.843187e-02
     vertex -1.235895e+00  1.366025e+00  6.068073e-02
     vertex -1.235895e+00 -1.366025e+00  6.068073e-02
   endloop
 endfacet
 facet normal -7.844157e-01  0.000000e+00  6.202355e-01
   outer loop
     vertex -1.229766e+00  1.366025e+00  6.843187e-02
     vertex -1.235895e+00 -1.366025e+00  6.068073e-02
     vertex -1.229766e+00 -1.366025e+00  6.843187e-02
   endloop
 endfacet
 facet normal -8.191520e-01  0.000000e+00  5.735764e-01
   outer loop
     vertex -1.229766e+00  1.366025e+00  6.843187e-02
     vertex -1.229766e+00 -1.366025e+00  6.843187e-02
     vertex -1.224099e+00 -1.366025e+00  7.652625e-02
   endloop
 endfacet
 facet normal -8.191520e-01  0.000000e+00  5.735764e-01
   outer loop
     vertex -1.224099e+00  1.366025e+00  7.652625e-02
     vertex -1.229766e+00  1.366025e+00  6.843187e-02
     vertex -1.224099e+00 -1.366025e+00  7.652625e-02
   endloop
 endfacet
 facet normal -8.511167e-01  0.000000e+00  5.249766e-01
   outer loop
     vertex -1.218911e+00  1.366025e+00  8.493649e-02
     vertex -1.224099e+00  1.366025e+00  7.652625e-02
     vertex -1.224099e+00 -1.366025e+00  7.652625e-02
   endloop
 endfacet
 facet normal -8.511167e-01  0.000000e+00  5.249766e-01
   outer loop
     vertex -1.218911e+00  1.366025e+00  8.493649e-02
     vertex -1.224099e+00 -1.366025e+00  7.652625e-02
     vertex -1.218911e+00 -1.366025e+00  8.493649e-02
   endloop
 endfacet
 facet normal  0.000000e+00  1.000000e+00  0.000000e+00
   outer loop
     vertex -1.267949e+00  1.366025e+00  0.000000e+00
     vertex -1.336527e+00  1.366025e+00  2.580752e-03
     vertex -1.326850e+00  1.366025e+00  4.578948e-03
   endloop
 endfacet
 facet normal  0.000000e+00  1.000000e+00  0.000000e+00
   outer loop
     vertex -1.267949e+00  1.366025e+00  0.000000e+00
     vertex -1.326850e+00  1.366025e+00  4.578948e-03
     vertex -1.317305e+00  1.366025e+00  7.136447e-03
   endloop
 endfacet
 facet normal  0.000000e+00  1.000000e+00  0.000000e+00
   outer loop
     vertex -1.267949e+00  1.366025e+00  0.000000e+00
     vertex -1.317305e+00  1.366025e+00  7.136447e-03
     vertex -1.307925e+00  1.366025e+00  1.024459e-02
   endloop
 endfacet
 facet normal  0.000000e+00  1.000000e+00  0.000000e+00
   outer loop
     vertex -1.267949e+00  1.366025e+00  0.000000e+00
     vertex -1.307925e+00  1.366025e+00  1.024459e-02
     vertex -1.298742e+00  1.366025e+00  1.389287e-02
   endloop
 endfacet
 facet normal  0.000000e+00  1.000000e+00  0.000000e+00
   outer loop
     vertex -1.267949e+00  1.366025e+00  0.000000e+00
     vertex -1.298742e+00  1.366025e+00  1.389287e-02
     vertex -1.289787e+00  1.366025e+00  1.806894e-02
   endloop
 endfacet
 facet normal  0.000000e+00  1.000000e+00  0.000000e+00
   outer loop
     vertex -1.267949e+00  1.366025e+00  0.000000e+00
     vertex -1.289787e+00  1.366025e+00  1.806894e-02
     vertex -1.281089e+00  1.366025e+00  2.275866e-02
   endloop
 endfacet
 facet normal  0.000000e+00  1.000000e+00  0.000000e+00
   outer loop
     vertex -1.267949e+00  1.366025e+00  0.000000e+00
     vertex -1.281089e+00  1.366025e+00  2.275866e-02
     vertex -1.272679e+00  1.366025e+00  2.794618e-02
   endloop
 endfacet
 facet normal  0.000000e+00  1.000000e+00 -0.000000e+00
   outer loop
     vertex -1.267949e+00  1.366025e+00  0.000000e+00
     vertex -1.272679e+00  1.366025e+00  2.794618e-02
     vertex -1.264584e+00  1.366025e+00  3.361392e-02
   endloop
 endfacet
 facet normal  0.000000e+00  1.000000e+00  0.000000e+00
   outer loop
     vertex -1.267949e+00  1.366025e+00  0.000000e+00
     vertex -1.264584e+00  1.366025e+00  3.361392e-02
     vertex -1.256833e+00  1.366025e+00  3.974273e-02
   endloop
 endfacet
 facet normal  0.000000e+00  1.000000e+00  0.000000e+00
   outer loop
     vertex -1.267949e+00  1.366025e+00  0.000000e+00
     vertex -1.256833e+00  1.366025e+00  3.974273e-02
     vertex -1.249451e+00  1.366025e+00  4.631185e-02
   endloop
 endfacet
 facet normal  0.000000e+00  1.000000e+00  0.000000e+00
   outer loop
     vertex -1.267949e+00  1.366025e+00  0.000000e+00
     vertex -1.249451e+00  1.366025e+00  4.631185e-02
     vertex -1.242464e+00  1.366025e+00  5.329907e-02
   endloop
 endfacet
 facet normal  0.000000e+00  1.000000e+00  0.000000e+00
   outer loop
     vertex -1.366025e+00  1.366025e+00  0.000000e+00
     vertex -1.356148e+00  1.366025e+00  2.873982e-04
     vertex -1.267949e+00  1.366025e+00  0.000000e+00
   endloop
 endfacet
 facet normal -0.000000e+00  1.000000e+00  0.000000e+00
   outer loop
     vertex -1.356148e+00  1.366025e+00  2.873982e-04
     vertex -1.346304e+00  1.366025e+00  1.148620e-03
     vertex -1.267949e+00  1.366025e+00  0.000000e+00
   endloop
 endfacet
 facet normal -0.000000e+00  1.000000e+00  0.000000e+00
   outer loop
     vertex -1.346304e+00  1.366025e+00  1.148620e-03
     vertex -1.336527e+00  1.366025e+00  2.580752e-03
     vertex -1.267949e+00  1.366025e+00  0.000000e+00
   endloop
 endfacet
 facet normal  0.000000e+00  1.000000e+00  0.000000e+00
   outer loop
     vertex -1.267949e+00  1.366025e+00  0.000000e+00
     vertex -1.224099e+00  1.366025e+00  7.652625e-02
     vertex -1.218911e+00  1.366025e+00  8.493649e-02
   endloop
 endfacet
 facet normal  0.000000e+00  1.000000e+00  0.000000e+00
   outer loop
     vertex -1.267949e+00  1.366025e+00  0.000000e+00
     vertex -1.229766e+00  1.366025e+00  6.843187e-02
     vertex -1.224099e+00  1.366025e+00  7.652625e-02
   endloop
 endfacet
 facet normal  0.000000e+00  1.000000e+00  0.000000e+00
   outer loop
     vertex -1.267949e+00  1.366025e+00  0.000000e+00
     vertex -1.235895e+00  1.366025e+00  6.068073e-02
     vertex -1.229766e+00  1.366025e+00  6.843187e-02
   endloop
 endfacet
 facet normal  0.000000e+00  1.000000e+00  0.000000e+00
   outer loop
     vertex -1.267949e+00  1.366025e+00  0.000000e+00
     vertex -1.242464e+00  1.366025e+00  5.329907e-02
     vertex -1.235895e+00  1.366025e+00  6.068073e-02
   endloop
 endfacet
 facet normal  8.660254e-01  0.000000e+00 -5.000000e-01
   outer loop
     vertex -1.218911e+00  1.366025e+00  8.493649e-02
     vertex -1.267949e+00 -1.366025e+00  0.000000e+00
     vertex -1.267949e+00  1.366025e+00  0.000000e+00
   endloop
 endfacet
 facet normal  8.660254e-01  0.000000e+00 -5.000000e-01
   outer loop
     vertex -1.218911e+00  1.366025e+00  8.493649e-02
     vertex -1.218911e+00 -1.366025e+00  8.493649e-02
     vertex -1.267949e+00 -1.366025e+00  0.000000e+00
   endloop
 endfacet
 facet normal  0.000000e+00 -1.000000e+00  0.000000e+00
   outer loop
     vertex -1.267949e+00 -1.366025e+00  0.000000e+00
     vertex -1.326850e+00 -1.366025e+00  4.578948e-03
     vertex -1.336527e+00 -1.366025e+00  2.580752e-03
   endloop
 endfacet
 facet normal  0.000000e+00 -1.000000e+00  0.000000e+00
   outer loop
     vertex -1.267949e+00 -1.366025e+00  0.000000e+00
     vertex -1.317305e+00 -1.366025e+00  7.136447e-03
     vertex -1.326850e+00 -1.366025e+00  4.578948e-03
   endloop
 endfacet
 facet normal  0.000000e+00 -1.000000e+00  0.000000e+00
   outer loop
     vertex -1.267949e+00 -1.366025e+00  0.000000e+00
     vertex -1.307925e+00 -1.366025e+00  1.024459e-02
     vertex -1.317305e+00 -1.366025e+00  7.136447e-03
   endloop
 endfacet
 facet normal  0.000000e+00 -1.000000e+00  0.000000e+00
   outer loop
     vertex -1.267949e+00 -1.366025e+00  0.000000e+00
     vertex -1.298742e+00 -1.366025e+00  1.389287e-02
     vertex -1.307925e+00 -1.366025e+00  1.024459e-02
   endloop
 endfacet
 facet normal  0.000000e+00 -1.000000e+00  0.000000e+00
   outer loop
     vertex -1.267949e+00 -1.366025e+00  0.000000e+00
     vertex -1.289787e+00 -1.366025e+00  1.806894e-02
     vertex -1.298742e+00 -1.366025e+00  1.389287e-02
   endloop
 endfacet
 facet normal  0.000000e+00 -1.000000e+00  0.000000e+00
   outer loop
     vertex -1.267949e+00 -1.366025e+00  0.000000e+00
     vertex -1.281089e+00 -1.366025e+00  2.275866e-02
     vertex -1.289787e+00 -1.366025e+00  1.806894e-02
   endloop
 endfacet
 facet normal  0.000000e+00 -1.000000e+00  0.000000e+00
   outer loop
     vertex -1.267949e+00 -1.366025e+00  0.000000e+00
     vertex -1.272679e+00 -1.366025e+00  2.794618e-02
     vertex -1.281089e+00 -1.366025e+00  2.275866e-02
   endloop
 endfacet
 facet normal  0.000000e+00 -1.000000e+00  0.000000e+00
   outer loop
     vertex -1.267949e+00 -1.366025e+00  0.000000e+00
     vertex -1.264584e+00 -1.366025e+00  3.361392e-02
     vertex -1.272679e+00 -1.366025e+00  2.794618e-02
   endloop
 endfacet
 facet normal  0.000000e+00 -1.000000e+00  0.000000e+00
   outer loop
     vertex -1.267949e+00 -1.366025e+00  0.000000e+00
     vertex -1.256833e+00 -1.366025e+00  3.974273e-02
     vertex -1.264584e+00 -1.366025e+00  3.361392e-02
   endloop
 endfacet
 facet normal  0.000000e+00 -1.000000e+00  0.000000e+00
   outer loop
     vertex -1.267949e+00 -1.366025e+00  0.000000e+00
     vertex -1.249451e+00 -1.366025e+00  4.631185e-02
     vertex -1.256833e+00 -1.366025e+00  3.974273e-02
   endloop
 endfacet
 facet normal  0.000000e+00 -1.000000e+00  0.000000e+00
   outer loop
     vertex -1.267949e+00 -1.366025e+00  0.000000e+00
     vertex -1.242464e+00 -1.366025e+00  5.329907e-02
     vertex -1.249451e+00 -1.366025e+00  4.631185e-02
   endloop
 endfacet
 facet normal  0.000000e+00 -1.000000e+00  0.000000e+00
   outer loop
     vertex -1.366025e+00 -1.366025e+00  0.000000e+00
     vertex -1.267949e+00 -1.366025e+00  0.000000e+00
     vertex -1.356148e+00 -1.366025e+00  2.873982e-04
   endloop
 endfacet
 facet normal  0.000000e+00 -1.000000e+00  0.000000e+00
   outer loop
     vertex -1.356148e+00 -1.366025e+00  2.873982e-04
     vertex -1.267949e+00 -1.366025e+00  0.000000e+00
     vertex -1.346304e+00 -1.366025e+00  1.148620e-03
   endloop
 endfacet
 facet normal  0.000000e+00 -1.000000e+00  0.000000e+00
   outer loop
     vertex -1.346304e+00 -1.366025e+00  1.148620e-03
     vertex -1.267949e+00 -1.366025e+00  0.000000e+00
     vertex -1.336527e+00 -1.366025e+00  2.580752e-03
   endloop
 endfacet
 facet normal  0.000000e+00 -1.000000e+00  0.000000e+00
   outer loop
     vertex -1.267949e+00 -1.366025e+00  0.000000e+00
     vertex -1.218911e+00 -1.366025e+00  8.493649e-02
     vertex -1.224099e+00 -1.366025e+00  7.652625e-02
   endloop
 endfacet
 facet normal  0.000000e+00 -1.000000e+00  0.000000e+00
   outer loop
     vertex -1.267949e+00 -1.366025e+00  0.000000e+00
     vertex -1.224099e+00 -1.366025e+00  7.652625e-02
     vertex -1.229766e+00 -1.366025e+00  6.843187e-02
   endloop
 endfacet
 facet normal  0.000000e+00 -1.000000e+00  0.000000e+00
   outer loop
     vertex -1.267949e+00 -1.366025e+00  0.000000e+00
     vertex -1.229766e+00 -1.366025e+00  6.843187e-02
     vertex -1.235895e+00 -1.366025e+00  6.068073e-02
   endloop
 endfacet
 facet normal  0.000000e+00 -1.000000e+00  0.000000e+00
   outer loop
     vertex -1.267949e+00 -1.366025e+00  0.000000e+00
     vertex -1.235895e+00 -1.366025e+00  6.068073e-02
     vertex -1.242464e+00 -1.366025e+00  5.329907e-02
   endloop
 endfacet
 facet normal -0.000000e+00  0.000000e+00 -1.000000e+00
   outer loop
     vertex  6.339746e-01  1.366025e+00  0.000000e+00
     vertex  3.397460e-01 -1.366025e+00  0.000000e+00
     vertex  3.397460e-01  1.366025e+00  0.000000e+00
   endloop
 endfacet
 facet normal  0.000000e+00 -0.000000e+00 -1.000000e+00
   outer loop
     vertex  6.339746e-01  1.366025e+00  0.000000e+00
     vertex  6.339746e-01 -1.366025e+00  0.000000e+00
     vertex  3.397460e-01 -1.366025e+00  0.000000e+00
   endloop
 endfacet
 facet normal -8.660254e-01  0.000000e+00  5.000000e-01
   outer loop
     vertex  3.397460e-01  1.366025e+00  0.000000e+00
     vertex  4.868603e-01 -1.366025e+00  2.548095e-01
     vertex  4.868603e-01  1.366025e+00  2.548095e-01
   endloop
 endfacet
 facet normal -8.660254e-01  0.000000e+00  5.000000e-01
   outer loop
     vertex  3.397460e-01  1.366025e+00  0.000000e+00
     vertex  3.397460e-01 -1.366025e+00  0.000000e+00
     vertex  4.868603e-01 -1.366025e+00  2.548095e-01
   endloop
 endfacet
 facet normal  0.000000e+00  1.000000e+00  0.000000e+00
   outer loop
     vertex  3.397460e-01  1.366025e+00  0.000000e+00
     vertex  4.712381e-01  1.366025e+00  2.185931e-01
     vertex  4.686806e-01  1.366025e+00  2.090484e-01
   endloop
 endfacet
 facet normal  0.000000e+00  1.000000e+00  0.000000e+00
   outer loop
     vertex  3.397460e-01  1.366025e+00  0.000000e+00
     vertex  4.686806e-01  1.366025e+00  2.090484e-01
     vertex  4.666824e-01  1.366025e+00  1.993711e-01
   endloop
 endfacet
 facet normal  0.000000e+00  1.000000e+00  0.000000e+00
   outer loop
     vertex  3.397460e-01  1.366025e+00  0.000000e+00
     vertex  4.666824e-01  1.366025e+00  1.993711e-01
     vertex  4.652502e-01  1.366025e+00  1.895940e-01
   endloop
 endfacet
 facet normal  0.000000e+00  1.000000e+00  0.000000e+00
   outer loop
     vertex  3.397460e-01  1.366025e+00  0.000000e+00
     vertex  4.652502e-01  1.366025e+00  1.895940e-01
     vertex  4.643890e-01  1.366025e+00  1.797502e-01
   endloop
 endfacet
 facet normal  0.000000e+00  1.000000e+00  0.000000e+00
   outer loop
     vertex  3.397460e-01  1.366025e+00  0.000000e+00
     vertex  4.643890e-01  1.366025e+00  1.797502e-01
     vertex  4.641016e-01  1.366025e+00  1.698730e-01
   endloop
 endfacet
 facet normal  0.000000e+00  1.000000e+00  0.000000e+00
   outer loop
     vertex  3.397460e-01  1.366025e+00  0.000000e+00
     vertex  4.641016e-01  1.366025e+00  1.698730e-01
     vertex  4.643890e-01  1.366025e+00  1.599957e-01
   endloop
 endfacet
 facet normal  0.000000e+00  1.000000e+00  0.000000e+00
   outer loop
     vertex  3.397460e-01  1.366025e+00  0.000000e+00
     vertex  4.643890e-01  1.366025e+00  1.599957e-01
     vertex  4.652502e-01  1.366025e+00  1.501519e-01
   endloop
 endfacet
 facet normal  0.000000e+00  1.000000e+00  0.000000e+00
   outer loop
     vertex  3.397460e-01  1.366025e+00  0.000000e+00
     vertex  4.652502e-01  1.366025e+00  1.501519e-01
     vertex  4.666824e-01  1.366025e+00  1.403748e-01
   endloop
 endfacet
 facet normal  0.000000e+00  1.000000e+00  0.000000e+00
   outer loop
     vertex  3.397460e-01  1.366025e+00  0.000000e+00
     vertex  4.666824e-01  1.366025e+00  1.403748e-01
     vertex  4.686806e-01  1.366025e+00  1.306976e-01
   endloop
 endfacet
 facet normal  0.000000e+00  1.000000e+00  0.000000e+00
   outer loop
     vertex  4.712381e-01  1.366025e+00  1.211529e-01
     vertex  3.397460e-01  1.366025e+00  0.000000e+00
     vertex  4.686806e-01  1.366025e+00  1.306976e-01
   endloop
 endfacet
 facet normal  0.000000e+00  1.000000e+00  0.000000e+00
   outer loop
     vertex  4.743462e-01  1.366025e+00  1.117730e-01
     vertex  3.397460e-01  1.366025e+00  0.000000e+00
     vertex  4.712381e-01  1.366025e+00  1.211529e-01
   endloop
 endfacet
 facet normal  0.000000e+00  1.000000e+00  0.000000e+00
   outer loop
     vertex  4.779945e-01  1.366025e+00  1.025897e-01
     vertex  3.397460e-01  1.366025e+00  0.000000e+00
     vertex  4.743462e-01  1.366025e+00  1.117730e-01
   endloop
 endfacet
 facet normal  0.000000e+00  1.000000e+00  0.000000e+00
   outer loop
     vertex  4.821706e-01  1.366025e+00  9.363413e-02
     vertex  3.397460e-01  1.366025e+00  0.000000e+00
     vertex  4.779945e-01  1.366025e+00  1.025897e-01
   endloop
 endfacet
 facet normal  0.000000e+00  1.000000e+00  0.000000e+00
   outer loop
     vertex  4.868603e-01  1.366025e+00  8.493649e-02
     vertex  3.397460e-01  1.366025e+00  0.000000e+00
     vertex  4.821706e-01  1.366025e+00  9.363413e-02
   endloop
 endfacet
 facet normal  0.000000e+00  1.000000e+00  0.000000e+00
   outer loop
     vertex  4.920478e-01  1.366025e+00  7.652625e-02
     vertex  3.397460e-01  1.366025e+00  0.000000e+00
     vertex  4.868603e-01  1.366025e+00  8.493649e-02
   endloop
 endfacet
 facet normal  0.000000e+00  1.000000e+00  0.000000e+00
   outer loop
     vertex  4.977155e-01  1.366025e+00  6.843187e-02
     vertex  3.397460e-01  1.366025e+00  0.000000e+00
     vertex  4.920478e-01  1.366025e+00  7.652625e-02
   endloop
 endfacet
 facet normal  0.000000e+00  1.000000e+00  0.000000e+00
   outer loop
     vertex  5.038443e-01  1.366025e+00  6.068073e-02
     vertex  3.397460e-01  1.366025e+00  0.000000e+00
     vertex  4.977155e-01  1.366025e+00  6.843187e-02
   endloop
 endfacet
 facet normal  0.000000e+00  1.000000e+00  0.000000e+00
   outer loop
     vertex  5.104135e-01  1.366025e+00  5.329907e-02
     vertex  3.397460e-01  1.366025e+00  0.000000e+00
     vertex  5.038443e-01  1.366025e+00  6.068073e-02
   endloop
 endfacet
 facet normal  0.000000e+00  1.000000e+00  0.000000e+00
   outer loop
     vertex  5.174007e-01  1.366025e+00  4.631185e-02
     vertex  3.397460e-01  1.366025e+00  0.000000e+00
     vertex  5.104135e-01  1.366025e+00  5.329907e-02
   endloop
 endfacet
 facet normal  0.000000e+00  1.000000e+00  0.000000e+00
   outer loop
     vertex  5.247823e-01  1.366025e+00  3.974273e-02
     vertex  3.397460e-01  1.366025e+00  0.000000e+00
     vertex  5.174007e-01  1.366025e+00  4.631185e-02
   endloop
 endfacet
 facet normal  0.000000e+00  1.000000e+00  0.000000e+00
   outer loop
     vertex  5.325335e-01  1.366025e+00  3.361392e-02
     vertex  3.397460e-01  1.366025e+00  0.000000e+00
     vertex  5.247823e-01  1.366025e+00  3.974273e-02
   endloop
 endfacet
 facet normal  0.000000e+00  1.000000e+00  0.000000e+00
   outer loop
     vertex  5.406279e-01  1.366025e+00  2.794618e-02
     vertex  3.397460e-01  1.366025e+00  0.000000e+00
     vertex  5.325335e-01  1.366025e+00  3.361392e-02
   endloop
 endfacet
 facet normal  0.000000e+00  1.000000e+00  0.000000e+00
   outer loop
     vertex  5.490381e-01  1.366025e+00  2.275866e-02
     vertex  3.397460e-01  1.366025e+00  0.000000e+00
     vertex  5.406279e-01  1.366025e+00  2.794618e-02
   endloop
 endfacet
 facet normal  0.000000e+00  1.000000e+00  0.000000e+00
   outer loop
     vertex  5.577357e-01  1.366025e+00  1.806894e-02
     vertex  3.397460e-01  1.366025e+00  0.000000e+00
     vertex  5.490381e-01  1.366025e+00  2.275866e-02
   endloop
 endfacet
 facet normal  0.000000e+00  1.000000e+00  0.000000e+00
   outer loop
     vertex  5.666913e-01  1.366025e+00  1.389287e-02
     vertex  3.397460e-01  1.366025e+00  0.000000e+00
     vertex  5.577357e-01  1.366025e+00  1.806894e-02
   endloop
 endfacet
 facet normal  0.000000e+00  1.000000e+00  0.000000e+00
   outer loop
     vertex  5.758746e-01  1.366025e+00  1.024459e-02
     vertex  3.397460e-01  1.366025e+00  0.000000e+00
     vertex  5.666913e-01  1.366025e+00  1.389287e-02
   endloop
 endfacet
 facet normal  0.000000e+00  1.000000e+00  0.000000e+00
   outer loop
     vertex  5.852545e-01  1.366025e+00  7.136447e-03
     vertex  3.397460e-01  1.366025e+00  0.000000e+00
     vertex  5.758746e-01  1.366025e+00  1.024459e-02
   endloop
 endfacet
 facet normal  0.000000e+00  1.000000e+00  0.000000e+00
   outer loop
     vertex  3.397460e-01  1.366025e+00  0.000000e+00
     vertex  6.240974e-01  1.366025e+00  2.873982e-04
     vertex  6.339746e-01  1.366025e+00  0.000000e+00
   endloop
 endfacet
 facet normal  0.000000e+00  1.000000e+00  0.000000e+00
   outer loop
     vertex  3.397460e-01  1.366025e+00  0.000000e+00
     vertex  6.142535e-01  1.366025e+00  1.148620e-03
     vertex  6.240974e-01  1.366025e+00  2.873982e-04
   endloop
 endfacet
 facet normal  0.000000e+00  1.000000e+00  0.000000e+00
   outer loop
     vertex  3.397460e-01  1.366025e+00  0.000000e+00
     vertex  6.044765e-01  1.366025e+00  2.580752e-03
     vertex  6.142535e-01  1.366025e+00  1.148620e-03
   endloop
 endfacet
 facet normal  0.000000e+00  1.000000e+00  0.000000e+00
   outer loop
     vertex  3.397460e-01  1.366025e+00  0.000000e+00
     vertex  5.947992e-01  1.366025e+00  4.578948e-03
     vertex  6.044765e-01  1.366025e+00  2.580752e-03
   endloop
 endfacet
 facet normal  0.000000e+00  1.000000e+00  0.000000e+00
   outer loop
     vertex  3.397460e-01  1.366025e+00  0.000000e+00
     vertex  5.852545e-01  1.366025e+00  7.136447e-03
     vertex  5.947992e-01  1.366025e+00  4.578948e-03
   endloop
 endfacet
 facet normal  0.000000e+00  1.000000e+00  0.000000e+00
   outer loop
     vertex  4.868603e-01  1.366025e+00  2.548095e-01
     vertex  4.821706e-01  1.366025e+00  2.461118e-01
     vertex  3.397460e-01  1.366025e+00  0.000000e+00
   endloop
 endfacet
 facet normal  0.000000e+00  1.000000e+00  0.000000e+00
   outer loop
     vertex  4.821706e-01  1.366025e+00  2.461118e-01
     vertex  4.779945e-01  1.366025e+00  2.371562e-01
     vertex  3.397460e-01  1.366025e+00  0.000000e+00
   endloop
 endfacet
 facet normal  0.000000e+00  1.000000e+00  0.000000e+00
   outer loop
     vertex  4.779945e-01  1.366025e+00  2.371562e-01
     vertex  4.743462e-01  1.366025e+00  2.279730e-01
     vertex  3.397460e-01  1.366025e+00  0.000000e+00
   endloop
 endfacet
 facet normal  0.000000e+00  1.000000e+00  0.000000e+00
   outer loop
     vertex  4.743462e-01  1.366025e+00  2.279730e-01
     vertex  4.712381e-01  1.366025e+00  2.185931e-01
     vertex  3.397460e-01  1.366025e+00  0.000000e+00
   endloop
 endfacet
 facet normal  8.802014e-01  0.000000e+00 -4.746004e-01
   outer loop
     vertex  4.821706e-01  1.366025e+00  2.461118e-01
     vertex  4.868603e-01  1.366025e+00  2.548095e-01
     vertex  4.868603e-01 -1.366025e+00  2.548095e-01
   endloop
 endfacet
 facet normal  8.802014e-01  0.000000e+00 -4.746004e-01
   outer loop
     vertex  4.821706e-01  1.366025e+00  2.461118e-01
     vertex  4.868603e-01 -1.366025e+00  2.548095e-01
     vertex  4.821706e-01 -1.366025e+00  2.461118e-01
   endloop
 endfacet
 facet normal  9.063078e-01  0.000000e+00 -4.226183e-01
   outer loop
     vertex  4.779945e-01  1.366025e+00  2.371562e-01
     vertex  4.821706e-01 -1.366025e+00  2.461118e-01
     vertex  4.779945e-01 -1.366025e+00  2.371562e-01
   endloop
 endfacet
 facet normal  9.293475e-01  0.000000e+00 -3.692061e-01
   outer loop
     vertex  4.779945e-01  1.366025e+00  2.371562e-01
     vertex  4.779945e-01 -1.366025e+00  2.371562e-01
     vertex  4.743462e-01 -1.366025e+00  2.279730e-01
   endloop
 endfacet
 facet normal  9.063078e-01  0.000000e+00 -4.226183e-01
   outer loop
     vertex  4.779945e-01  1.366025e+00  2.371562e-01
     vertex  4.821706e-01  1.366025e+00  2.461118e-01
     vertex  4.821706e-01 -1.366025e+00  2.461118e-01
   endloop
 endfacet
 facet normal  9.293475e-01  0.000000e+00 -3.692061e-01
   outer loop
     vertex  4.743462e-01  1.366025e+00  2.279730e-01
     vertex  4.779945e-01  1.366025e+00  2.371562e-01
     vertex  4.743462e-01 -1.366025e+00  2.279730e-01
   endloop
 endfacet
 facet normal  9.492426e-01  0.000000e+00 -3.145448e-01
   outer loop
     vertex  4.712381e-01  1.366025e+00  2.185931e-01
     vertex  4.743462e-01 -1.366025e+00  2.279730e-01
     vertex  4.712381e-01 -1.366025e+00  2.185931e-01
   endloop
 endfacet
 facet normal  9.492426e-01  0.000000e+00 -3.145448e-01
   outer loop
     vertex  4.712381e-01  1.366025e+00  2.185931e-01
     vertex  4.743462e-01  1.366025e+00  2.279730e-01
     vertex  4.743462e-01 -1.366025e+00  2.279730e-01
   endloop
 endfacet
 facet normal  9.659258e-01  0.000000e+00 -2.588190e-01
   outer loop
     vertex  4.686806e-01  1.366025e+00  2.090484e-01
     vertex  4.712381e-01 -1.366025e+00  2.185931e-01
     vertex  4.686806e-01 -1.366025e+00  2.090484e-01
   endloop
 endfacet
 facet normal  9.659258e-01  0.000000e+00 -2.588190e-01
   outer loop
     vertex  4.686806e-01  1.366025e+00  2.090484e-01
     vertex  4.712381e-01  1.366025e+00  2.185931e-01
     vertex  4.712381e-01 -1.366025e+00  2.185931e-01
   endloop
 endfacet
 facet normal  9.793406e-01  0.000000e+00 -2.022176e-01
   outer loop
     vertex  4.666824e-01  1.366025e+00  1.993711e-01
     vertex  4.686806e-01  1.366025e+00  2.090484e-01
     vertex  4.686806e-01 -1.366025e+00  2.090484e-01
   endloop
 endfacet
 facet normal  9.793406e-01  0.000000e+00 -2.022176e-01
   outer loop
     vertex  4.666824e-01  1.366025e+00  1.993711e-01
     vertex  4.686806e-01 -1.366025e+00  2.090484e-01
     vertex  4.666824e-01 -1.366025e+00  1.993711e-01
   endloop
 endfacet
 facet normal  9.894416e-01  0.000000e+00 -1.449319e-01
   outer loop
     vertex  4.652502e-01  1.366025e+00  1.895940e-01
     vertex  4.666824e-01  1.366025e+00  1.993711e-01
     vertex  4.666824e-01 -1.366025e+00  1.993711e-01
   endloop
 endfacet
 facet normal  9.894416e-01  0.000000e+00 -1.449319e-01
   outer loop
     vertex  4.652502e-01  1.366025e+00  1.895940e-01
     vertex  4.666824e-01 -1.366025e+00  1.993711e-01
     vertex  4.652502e-01 -1.366025e+00  1.895940e-01
   endloop
 endfacet
 facet normal  9.961947e-01  0.000000e+00 -8.715574e-02
   outer loop
     vertex  4.643890e-01  1.366025e+00  1.797502e-01
     vertex  4.652502e-01 -1.366025e+00  1.895940e-01
     vertex  4.643890e-01 -1.366025e+00  1.797502e-01
   endloop
 endfacet
 facet normal  9.995770e-01  0.000000e+00 -2.908472e-02
   outer loop
     vertex  4.643890e-01  1.366025e+00  1.797502e-01
     vertex  4.643890e-01 -1.366025e+00  1.797502e-01
     vertex  4.641016e-01 -1.366025e+00  1.698730e-01
   endloop
 endfacet
 facet normal  9.961947e-01  0.000000e+00 -8.715574e-02
   outer loop
     vertex  4.643890e-01  1.366025e+00  1.797502e-01
     vertex  4.652502e-01  1.366025e+00  1.895940e-01
     vertex  4.652502e-01 -1.366025e+00  1.895940e-01
   endloop
 endfacet
 facet normal  9.995770e-01  0.000000e+00 -2.908472e-02
   outer loop
     vertex  4.641016e-01  1.366025e+00  1.698730e-01
     vertex  4.643890e-01  1.366025e+00  1.797502e-01
     vertex  4.641016e-01 -1.366025e+00  1.698730e-01
   endloop
 endfacet
 facet normal  9.995770e-01  0.000000e+00  2.908472e-02
   outer loop
     vertex  4.641016e-01  1.366025e+00  1.698730e-01
     vertex  4.641016e-01 -1.366025e+00  1.698730e-01
     vertex  4.643890e-01 -1.366025e+00  1.599957e-01
   endloop
 endfacet
 facet normal  9.995770e-01  0.000000e+00  2.908472e-02
   outer loop
     vertex  4.643890e-01  1.366025e+00  1.599957e-01
     vertex  4.641016e-01  1.366025e+00  1.698730e-01
     vertex  4.643890e-01 -1.366025e+00  1.599957e-01
   endloop
 endfacet
 facet normal  9.961947e-01  0.000000e+00  8.715574e-02
   outer loop
     vertex  4.652502e-01  1.366025e+00  1.501519e-01
     vertex  4.643890e-01 -1.366025e+00  1.599957e-01
     vertex  4.652502e-01 -1.366025e+00  1.501519e-01
   endloop
 endfacet
 facet normal  9.894416e-01  0.000000e+00  1.449319e-01
   outer loop
     vertex  4.652502e-01  1.366025e+00  1.501519e-01
     vertex  4.652502e-01 -1.366025e+00  1.501519e-01
     vertex  4.666824e-01 -1.366025e+00  1.403748e-01
   endloop
 endfacet
 facet normal  9.961947e-01  0.000000e+00  8.715574e-02
   outer loop
     vertex  4.652502e-01  1.366025e+00  1.501519e-01
     vertex  4.643890e-01  1.366025e+00  1.599957e-01
     vertex  4.643890e-01 -1.366025e+00  1.599957e-01
   endloop
 endfacet
 facet normal  9.793406e-01  0.000000e+00  2.022176e-01
   outer loop
     vertex  4.666824e-01  1.366025e+00  1.403748e-01
     vertex  4.666824e-01 -1.366025e+00  1.403748e-01
     vertex  4.686806e-01 -1.366025e+00  1.306976e-01
   endloop
 endfacet
 facet normal  9.894416e-01  0.000000e+00  1.449319e-01
   outer loop
     vertex  4.666824e-01  1.366025e+00  1.403748e-01
     vertex  4.652502e-01  1.366025e+00  1.501519e-01
     vertex  4.666824e-01 -1.366025e+00  1.403748e-01
   endloop
 endfacet
 facet normal  9.793406e-01  0.000000e+00  2.022176e-01
   outer loop
     vertex  4.686806e-01  1.366025e+00  1.306976e-01
     vertex  4.666824e-01  1.366025e+00  1.403748e-01
     vertex  4.686806e-01 -1.366025e+00  1.306976e-01
   endloop
 endfacet
 facet normal  9.659258e-01  0.000000e+00  2.588190e-01
   outer loop
     vertex  4.712381e-01  1.366025e+00  1.211529e-01
     vertex  4.686806e-01 -1.366025e+00  1.306976e-01
     vertex  4.712381e-01 -1.366025e+00  1.211529e-01
   endloop
 endfacet
 facet normal  9.659258e-01  0.000000e+00  2.588190e-01
   outer loop
     vertex  4.712381e-01  1.366025e+00  1.211529e-01
     vertex  4.686806e-01  1.366025e+00  1.306976e-01
     vertex  4.686806e-01 -1.366025e+00  1.306976e-01
   endloop
 endfacet
 facet normal  9.492426e-01  0.000000e+00  3.145448e-01
   outer loop
     vertex  4.743462e-01  1.366025e+00  1.117730e-01
     vertex  4.712381e-01 -1.366025e+00  1.211529e-01
     vertex  4.743462e-01 -1.366025e+00  1.117730e-01
   endloop
 endfacet
 facet normal  9.492426e-01  0.000000e+00  3.145448e-01
   outer loop
     vertex  4.743462e-01  1.366025e+00  1.117730e-01
     vertex  4.712381e-01  1.366025e+00  1.211529e-01
     vertex  4.712381e-01 -1.366025e+00  1.211529e-01
   endloop
 endfacet
 facet normal  9.293475e-01  0.000000e+00  3.692061e-01
   outer loop
     vertex  4.779945e-01  1.366025e+00  1.025897e-01
     vertex  4.743462e-01 -1.366025e+00  1.117730e-01
     vertex  4.779945e-01 -1.366025e+00  1.025897e-01
   endloop
 endfacet
 facet normal  9.063078e-01  0.000000e+00  4.226183e-01
   outer loop
     vertex  4.779945e-01  1.366025e+00  1.025897e-01
     vertex  4.779945e-01 -1.366025e+00  1.025897e-01
     vertex  4.821706e-01 -1.366025e+00  9.363413e-02
   endloop
 endfacet
 facet normal  9.293475e-01  0.000000e+00  3.692061e-01
   outer loop
     vertex  4.779945e-01  1.366025e+00  1.025897e-01
     vertex  4.743462e-01  1.366025e+00  1.117730e-01
     vertex  4.743462e-01 -1.366025e+00  1.117730e-01
   endloop
 endfacet
 facet normal  8.802014e-01  0.000000e+00  4.746004e-01
   outer loop
     vertex  4.821706e-01  1.366025e+00  9.363413e-02
     vertex  4.821706e-01 -1.366025e+00  9.363413e-02
     vertex  4.868603e-01 -1.366025e+00  8.493649e-02
   endloop
 endfacet
 facet normal  9.063078e-01  0.000000e+00  4.226183e-01
   outer loop
     vertex  4.821706e-01  1.366025e+00  9.363413e-02
     vertex  4.779945e-01  1.366025e+00  1.025897e-01
     vertex  4.821706e-01 -1.366025e+00  9.363413e-02
   endloop
 endfacet
 facet normal  8.802014e-01  0.000000e+00  4.746004e-01
   outer loop
     vertex  4.868603e-01  1.366025e+00  8.493649e-02
     vertex  4.821706e-01  1.366025e+00  9.363413e-02
     vertex  4.868603e-01 -1.366025e+00  8.493649e-02
   endloop
 endfacet
 facet normal  8.511167e-01  0.000000e+00  5.249766e-01
   outer loop
     vertex  4.920478e-01  1.366025e+00  7.652625e-02
     vertex  4.868603e-01 -1.366025e+00  8.493649e-02
     vertex  4.920478e-01 -1.366025e+00  7.652625e-02
   endloop
 endfacet
 facet normal  8.511167e-01  0.000000e+00  5.249766e-01
   outer loop
     vertex  4.920478e-01  1.366025e+00  7.652625e-02
     vertex  4.868603e-01  1.366025e+00  8.493649e-02
     vertex  4.868603e-01 -1.366025e+00  8.493649e-02
   endloop
 endfacet
 facet normal  8.191520e-01  0.000000e+00  5.735764e-01
   outer loop
     vertex  4.977155e-01  1.366025e+00  6.843187e-02
     vertex  4.920478e-01 -1.366025e+00  7.652625e-02
     vertex  4.977155e-01 -1.366025e+00  6.843187e-02
   endloop
 endfacet
 facet normal  8.191520e-01  0.000000e+00  5.735764e-01
   outer loop
     vertex  4.977155e-01  1.366025e+00  6.843187e-02
     vertex  4.920478e-01  1.366025e+00  7.652625e-02
     vertex  4.920478e-01 -1.366025e+00  7.652625e-02
   endloop
 endfacet
 facet normal  7.844157e-01  0.000000e+00  6.202355e-01
   outer loop
     vertex  5.038443e-01  1.366025e+00  6.068073e-02
     vertex  4.977155e-01 -1.366025e+00  6.843187e-02
     vertex  5.038443e-01 -1.366025e+00  6.068073e-02
   endloop
 endfacet
 facet normal  7.844157e-01  0.000000e+00  6.202355e-01
   outer loop
     vertex  5.038443e-01  1.366025e+00  6.068073e-02
     vertex  4.977155e-01  1.366025e+00  6.843187e-02
     vertex  4.977155e-01 -1.366025e+00  6.843187e-02
   endloop
 endfacet
 facet normal  7.470251e-01  0.000000e+00  6.647959e-01
   outer loop
     vertex  5.104135e-01  1.366025e+00  5.329907e-02
     vertex  5.038443e-01 -1.366025e+00  6.068073e-02
     vertex  5.104135e-01 -1.366025e+00  5.329907e-02
   endloop
 endfacet
 facet normal  7.470251e-01  0.000000e+00  6.647959e-01
   outer loop
     vertex  5.104135e-01  1.366025e+00  5.329907e-02
     vertex  5.038443e-01  1.366025e+00  6.068073e-02
     vertex  5.038443e-01 -1.366025e+00  6.068073e-02
   endloop
 endfacet
 facet normal  7.071068e-01  0.000000e+00  7.071068e-01
   outer loop
     vertex  5.174007e-01  1.366025e+00  4.631185e-02
     vertex  5.104135e-01 -1.366025e+00  5.329907e-02
     vertex  5.174007e-01 -1.366025e+00  4.631185e-02
   endloop
 endfacet
 facet normal  7.071068e-01  0.000000e+00  7.071068e-01
   outer loop
     vertex  5.174007e-01  1.366025e+00  4.631185e-02
     vertex  5.104135e-01  1.366025e+00  5.329907e-02
     vertex  5.104135e-01 -1.366025e+00  5.329907e-02
   endloop
 endfacet
 facet normal  6.647959e-01  0.000000e+00  7.470251e-01
   outer loop
     vertex  5.247823e-01  1.366025e+00  3.974273e-02
     vertex  5.174007e-01 -1.366025e+00  4.631185e-02
     vertex  5.247823e-01 -1.366025e+00  3.974273e-02
   endloop
 endfacet
 facet normal  6.647959e-01  0.000000e+00  7.470251e-01
   outer loop
     vertex  5.247823e-01  1.366025e+00  3.974273e-02
     vertex  5.174007e-01  1.366025e+00  4.631185e-02
     vertex  5.174007e-01 -1.366025e+00  4.631185e-02
   endloop
 endfacet
 facet normal  6.202355e-01  0.000000e+00  7.844157e-01
   outer loop
     vertex  5.325335e-01  1.366025e+00  3.361392e-02
     vertex  5.247823e-01 -1.366025e+00  3.974273e-02
     vertex  5.325335e-01 -1.366025e+00  3.361392e-02
   endloop
 endfacet
 facet normal  6.202355e-01  0.000000e+00  7.844157e-01
   outer loop
     vertex  5.325335e-01  1.366025e+00  3.361392e-02
     vertex  5.247823e-01  1.366025e+00  3.974273e-02
     vertex  5.247823e-01 -1.366025e+00  3.974273e-02
   endloop
 endfacet
 facet normal  5.735764e-01  0.000000e+00  8.191520e-01
   outer loop
     vertex  5.406279e-01  1.366025e+00  2.794618e-02
     vertex  5.325335e-01 -1.366025e+00  3.361392e-02
     vertex  5.406279e-01 -1.366025e+00  2.794618e-02
   endloop
 endfacet
 facet normal  5.249766e-01  0.000000e+00  8.511167e-01
   outer loop
     vertex  5.406279e-01  1.366025e+00  2.794618e-02
     vertex  5.406279e-01 -1.366025e+00  2.794618e-02
     vertex  5.490381e-01 -1.366025e+00  2.275866e-02
   endloop
 endfacet
 facet normal  5.735764e-01  0.000000e+00  8.191520e-01
   outer loop
     vertex  5.406279e-01  1.366025e+00  2.794618e-02
     vertex  5.325335e-01  1.366025e+00  3.361392e-02
     vertex  5.325335e-01 -1.366025e+00  3.361392e-02
   endloop
 endfacet
 facet normal  4.746004e-01  0.000000e+00  8.802014e-01
   outer loop
     vertex  5.490381e-01  1.366025e+00  2.275866e-02
     vertex  5.490381e-01 -1.366025e+00  2.275866e-02
     vertex  5.577357e-01 -1.366025e+00  1.806894e-02
   endloop
 endfacet
 facet normal  5.249766e-01  0.000000e+00  8.511167e-01
   outer loop
     vertex  5.490381e-01  1.366025e+00  2.275866e-02
     vertex  5.406279e-01  1.366025e+00  2.794618e-02
     vertex  5.490381e-01 -1.366025e+00  2.275866e-02
   endloop
 endfacet
 facet normal  4.746004e-01  0.000000e+00  8.802014e-01
   outer loop
     vertex  5.577357e-01  1.366025e+00  1.806894e-02
     vertex  5.490381e-01  1.366025e+00  2.275866e-02
     vertex  5.577357e-01 -1.366025e+00  1.806894e-02
   endloop
 endfacet
 facet normal  4.226183e-01  0.000000e+00  9.063078e-01
   outer loop
     vertex  5.666913e-01  1.366025e+00  1.389287e-02
     vertex  5.577357e-01 -1.366025e+00  1.806894e-02
     vertex  5.666913e-01 -1.366025e+00  1.389287e-02
   endloop
 endfacet
 facet normal  4.226183e-01  0.000000e+00  9.063078e-01
   outer loop
     vertex  5.666913e-01  1.366025e+00  1.389287e-02
     vertex  5.577357e-01  1.366025e+00  1.806894e-02
     vertex  5.577357e-01 -1.366025e+00  1.806894e-02
   endloop
 endfacet
 facet normal  3.692061e-01  0.000000e+00  9.293475e-01
   outer loop
     vertex  5.758746e-01  1.366025e+00  1.024459e-02
     vertex  5.666913e-01 -1.366025e+00  1.389287e-02
     vertex  5.758746e-01 -1.366025e+00  1.024459e-02
   endloop
 endfacet
 facet normal  3.692061e-01  0.000000e+00  9.293475e-01
   outer loop
     vertex  5.758746e-01  1.366025e+00  1.024459e-02
     vertex  5.666913e-01  1.366025e+00  1.389287e-02
     vertex  5.666913e-01 -1.366025e+00  1.389287e-02
   endloop
 endfacet
 facet normal  3.145448e-01  0.000000e+00  9.492426e-01
   outer loop
     vertex  5.852545e-01  1.366025e+00  7.136447e-03
     vertex  5.758746e-01  1.366025e+00  1.024459e-02
     vertex  5.758746e-01 -1.366025e+00  1.024459e-02
   endloop
 endfacet
 facet normal  3.145448e-01  0.000000e+00  9.492426e-01
   outer loop
     vertex  5.852545e-01  1.366025e+00  7.136447e-03
     vertex  5.758746e-01 -1.366025e+00  1.024459e-02
     vertex  5.852545e-01 -1.366025e+00  7.136447e-03
   endloop
 endfacet
 facet normal  2.588190e-01  0.000000e+00  9.659258e-01
   outer loop
     vertex  5.947992e-01  1.366025e+00  4.578948e-03
     vertex  5.852545e-01  1.366025e+00  7.136447e-03
     vertex  5.852545e-01 -1.366025e+00  7.136447e-03
   endloop
 endfacet
 facet normal  2.588190e-01  0.000000e+00  9.659258e-01
   outer loop
     vertex  5.947992e-01  1.366025e+00  4.578948e-03
     vertex  5.852545e-01 -1.366025e+00  7.136447e-03
     vertex  5.947992e-01 -1.366025e+00  4.578948e-03
   endloop
 endfacet
 facet normal  2.022176e-01  0.000000e+00  9.793406e-01
   outer loop
     vertex  6.044765e-01  1.366025e+00  2.580752e-03
     vertex  5.947992e-01  1.366025e+00  4.578948e-03
     vertex  5.947992e-01 -1.366025e+00  4.578948e-03
   endloop
 endfacet
 facet normal  2.022176e-01  0.000000e+00  9.793406e-01
   outer loop
     vertex  6.044765e-01  1.366025e+00  2.580752e-03
     vertex  5.947992e-01 -1.366025e+00  4.578948e-03
     vertex  6.044765e-01 -1.366025e+00  2.580752e-03
   endloop
 endfacet
 facet normal  1.449319e-01  0.000000e+00  9.894416e-01
   outer loop
     vertex  6.044765e-01  1.366025e+00  2.580752e-03
     vertex  6.044765e-01 -1.366025e+00  2.580752e-03
     vertex  6.142535e-01 -1.366025e+00  1.148620e-03
   endloop
 endfacet
 facet normal  1.449319e-01  0.000000e+00  9.894416e-01
   outer loop
     vertex  6.142535e-01  1.366025e+00  1.148620e-03
     vertex  6.044765e-01  1.366025e+00  2.580752e-03
     vertex  6.142535e-01 -1.366025e+00  1.148620e-03
   endloop
 endfacet
 facet normal  8.715574e-02  0.000000e+00  9.961947e-01
   outer loop
     vertex  6.240974e-01  1.366025e+00  2.873982e-04
     vertex  6.142535e-01  1.366025e+00  1.148620e-03
     vertex  6.142535e-01 -1.366025e+00  1.148620e-03
   endloop
 endfacet
 facet normal  8.715574e-02  0.000000e+00  9.961947e-01
   outer loop
     vertex  6.240974e-01  1.366025e+00  2.873982e-04
     vertex  6.142535e-01 -1.366025e+00  1.148620e-03
     vertex  6.240974e-01 -1.366025e+00  2.873982e-04
   endloop
 endfacet
 facet normal  2.908472e-02  0.000000e+00  9.995770e-01
   outer loop
     vertex  6.339746e-01  1.366025e+00  0.000000e+00
     vertex  6.240974e-01  1.366025e+00  2.873982e-04
     vertex  6.240974e-01 -1.366025e+00  2.873982e-04
   endloop
 endfacet
 facet normal  2.908472e-02  0.000000e+00  9.995770e-01
   outer loop
     vertex  6.339746e-01  1.366025e+00  0.000000e+00
     vertex  6.240974e-01 -1.366025e+00  2.873982e-04
     vertex  6.339746e-01 -1.366025e+00  0.000000e+00
   endloop
 endfacet
 facet normal  0.000000e+00 -1.000000e+00  0.000000e+00
   outer loop
     vertex  3.397460e-01 -1.366025e+00  0.000000e+00
     vertex  4.686806e-01 -1.366025e+00  2.090484e-01
     vertex  4.712381e-01 -1.366025e+00  2.185931e-01
   endloop
 endfacet
 facet normal  0.000000e+00 -1.000000e+00  0.000000e+00
   outer loop
     vertex  3.397460e-01 -1.366025e+00  0.000000e+00
     vertex  4.666824e-01 -1.366025e+00  1.993711e-01
     vertex  4.686806e-01 -1.366025e+00  2.090484e-01
   endloop
 endfacet
 facet normal  0.000000e+00 -1.000000e+00  0.000000e+00
   outer loop
     vertex  3.397460e-01 -1.366025e+00  0.000000e+00
     vertex  4.652502e-01 -1.366025e+00  1.895940e-01
     vertex  4.666824e-01 -1.366025e+00  1.993711e-01
   endloop
 endfacet
 facet normal  0.000000e+00 -1.000000e+00  0.000000e+00
   outer loop
     vertex  3.397460e-01 -1.366025e+00  0.000000e+00
     vertex  4.643890e-01 -1.366025e+00  1.797502e-01
     vertex  4.652502e-01 -1.366025e+00  1.895940e-01
   endloop
 endfacet
 facet normal  0.000000e+00 -1.000000e+00  0.000000e+00
   outer loop
     vertex  3.397460e-01 -1.366025e+00  0.000000e+00
     vertex  4.641016e-01 -1.366025e+00  1.698730e-01
     vertex  4.643890e-01 -1.366025e+00  1.797502e-01
   endloop
 endfacet
 facet normal  0.000000e+00 -1.000000e+00  0.000000e+00
   outer loop
     vertex  3.397460e-01 -1.366025e+00  0.000000e+00
     vertex  4.643890e-01 -1.366025e+00  1.599957e-01
     vertex  4.641016e-01 -1.366025e+00  1.698730e-01
   endloop
 endfacet
 facet normal  0.000000e+00 -1.000000e+00  0.000000e+00
   outer loop
     vertex  3.397460e-01 -1.366025e+00  0.000000e+00
     vertex  4.652502e-01 -1.366025e+00  1.501519e-01
     vertex  4.643890e-01 -1.366025e+00  1.599957e-01
   endloop
 endfacet
 facet normal  0.000000e+00 -1.000000e+00  0.000000e+00
   outer loop
     vertex  3.397460e-01 -1.366025e+00  0.000000e+00
     vertex  4.666824e-01 -1.366025e+00  1.403748e-01
     vertex  4.652502e-01 -1.366025e+00  1.501519e-01
   endloop
 endfacet
 facet normal  0.000000e+00 -1.000000e+00  0.000000e+00
   outer loop
     vertex  3.397460e-01 -1.366025e+00  0.000000e+00
     vertex  4.686806e-01 -1.366025e+00  1.306976e-01
     vertex  4.666824e-01 -1.366025e+00  1.403748e-01
   endloop
 endfacet
 facet normal -0.000000e+00 -1.000000e+00  0.000000e+00
   outer loop
     vertex  4.712381e-01 -1.366025e+00  1.211529e-01
     vertex  4.686806e-01 -1.366025e+00  1.306976e-01
     vertex  3.397460e-01 -1.366025e+00  0.000000e+00
   endloop
 endfacet
 facet normal -0.000000e+00 -1.000000e+00  0.000000e+00
   outer loop
     vertex  4.743462e-01 -1.366025e+00  1.117730e-01
     vertex  4.712381e-01 -1.366025e+00  1.211529e-01
     vertex  3.397460e-01 -1.366025e+00  0.000000e+00
   endloop
 endfacet
 facet normal -0.000000e+00 -1.000000e+00  0.000000e+00
   outer loop
     vertex  4.779945e-01 -1.366025e+00  1.025897e-01
     vertex  4.743462e-01 -1.366025e+00  1.117730e-01
     vertex  3.397460e-01 -1.366025e+00  0.000000e+00
   endloop
 endfacet
 facet normal -0.000000e+00 -1.000000e+00  0.000000e+00
   outer loop
     vertex  4.821706e-01 -1.366025e+00  9.363413e-02
     vertex  4.779945e-01 -1.366025e+00  1.025897e-01
     vertex  3.397460e-01 -1.366025e+00  0.000000e+00
   endloop
 endfacet
 facet normal -0.000000e+00 -1.000000e+00  0.000000e+00
   outer loop
     vertex  4.868603e-01 -1.366025e+00  8.493649e-02
     vertex  4.821706e-01 -1.366025e+00  9.363413e-02
     vertex  3.397460e-01 -1.366025e+00  0.000000e+00
   endloop
 endfacet
 facet normal -0.000000e+00 -1.000000e+00  0.000000e+00
   outer loop
     vertex  4.920478e-01 -1.366025e+00  7.652625e-02
     vertex  4.868603e-01 -1.366025e+00  8.493649e-02
     vertex  3.397460e-01 -1.366025e+00  0.000000e+00
   endloop
 endfacet
 facet normal -0.000000e+00 -1.000000e+00  0.000000e+00
   outer loop
     vertex  4.977155e-01 -1.366025e+00  6.843187e-02
     vertex  4.920478e-01 -1.366025e+00  7.652625e-02
     vertex  3.397460e-01 -1.366025e+00  0.000000e+00
   endloop
 endfacet
 facet normal -0.000000e+00 -1.000000e+00  0.000000e+00
   outer loop
     vertex  5.038443e-01 -1.366025e+00  6.068073e-02
     vertex  4.977155e-01 -1.366025e+00  6.843187e-02
     vertex  3.397460e-01 -1.366025e+00  0.000000e+00
   endloop
 endfacet
 facet normal -0.000000e+00 -1.000000e+00  0.000000e+00
   outer loop
     vertex  5.104135e-01 -1.366025e+00  5.329907e-02
     vertex  5.038443e-01 -1.366025e+00  6.068073e-02
     vertex  3.397460e-01 -1.366025e+00  0.000000e+00
   endloop
 endfacet
 facet normal -0.000000e+00 -1.000000e+00  0.000000e+00
   outer loop
     vertex  5.174007e-01 -1.366025e+00  4.631185e-02
     vertex  5.104135e-01 -1.366025e+00  5.329907e-02
     vertex  3.397460e-01 -1.366025e+00  0.000000e+00
   endloop
 endfacet
 facet normal -0.000000e+00 -1.000000e+00  0.000000e+00
   outer loop
     vertex  5.247823e-01 -1.366025e+00  3.974273e-02
     vertex  5.174007e-01 -1.366025e+00  4.631185e-02
     vertex  3.397460e-01 -1.366025e+00  0.000000e+00
   endloop
 endfacet
 facet normal -0.000000e+00 -1.000000e+00  0.000000e+00
   outer loop
     vertex  5.325335e-01 -1.366025e+00  3.361392e-02
     vertex  5.247823e-01 -1.366025e+00  3.974273e-02
     vertex  3.397460e-01 -1.366025e+00  0.000000e+00
   endloop
 endfacet
 facet normal -0.000000e+00 -1.000000e+00  0.000000e+00
   outer loop
     vertex  5.406279e-01 -1.366025e+00  2.794618e-02
     vertex  5.325335e-01 -1.366025e+00  3.361392e-02
     vertex  3.397460e-01 -1.366025e+00  0.000000e+00
   endloop
 endfacet
 facet normal -0.000000e+00 -1.000000e+00  0.000000e+00
   outer loop
     vertex  5.490381e-01 -1.366025e+00  2.275866e-02
     vertex  5.406279e-01 -1.366025e+00  2.794618e-02
     vertex  3.397460e-01 -1.366025e+00  0.000000e+00
   endloop
 endfacet
 facet normal -0.000000e+00 -1.000000e+00  0.000000e+00
   outer loop
     vertex  5.577357e-01 -1.366025e+00  1.806894e-02
     vertex  5.490381e-01 -1.366025e+00  2.275866e-02
     vertex  3.397460e-01 -1.366025e+00  0.000000e+00
   endloop
 endfacet
 facet normal -0.000000e+00 -1.000000e+00  0.000000e+00
   outer loop
     vertex  5.666913e-01 -1.366025e+00  1.389287e-02
     vertex  5.577357e-01 -1.366025e+00  1.806894e-02
     vertex  3.397460e-01 -1.366025e+00  0.000000e+00
   endloop
 endfacet
 facet normal -0.000000e+00 -1.000000e+00  0.000000e+00
   outer loop
     vertex  5.758746e-01 -1.366025e+00  1.024459e-02
     vertex  5.666913e-01 -1.366025e+00  1.389287e-02
     vertex  3.397460e-01 -1.366025e+00  0.000000e+00
   endloop
 endfacet
 facet normal -0.000000e+00 -1.000000e+00  0.000000e+00
   outer loop
     vertex  5.852545e-01 -1.366025e+00  7.136447e-03
     vertex  5.758746e-01 -1.366025e+00  1.024459e-02
     vertex  3.397460e-01 -1.366025e+00  0.000000e+00
   endloop
 endfacet
 facet normal  0.000000e+00 -1.000000e+00  0.000000e+00
   outer loop
     vertex  4.868603e-01 -1.366025e+00  2.548095e-01
     vertex  3.397460e-01 -1.366025e+00  0.000000e+00
     vertex  4.821706e-01 -1.366025e+00  2.461118e-01
   endloop
 endfacet
 facet normal  0.000000e+00 -1.000000e+00  0.000000e+00
   outer loop
     vertex  4.821706e-01 -1.366025e+00  2.461118e-01
     vertex  3.397460e-01 -1.366025e+00  0.000000e+00
     vertex  4.779945e-01 -1.366025e+00  2.371562e-01
   endloop
 endfacet
 facet normal  0.000000e+00 -1.000000e+00  0.000000e+00
   outer loop
     vertex  4.779945e-01 -1.366025e+00  2.371562e-01
     vertex  3.397460e-01 -1.366025e+00  0.000000e+00
     vertex  4.743462e-01 -1.366025e+00  2.279730e-01
   endloop
 endfacet
 facet normal  0.000000e+00 -1.000000e+00  0.000000e+00
   outer loop
     vertex  4.743462e-01 -1.366025e+00  2.279730e-01
     vertex  3.397460e-01 -1.366025e+00  0.000000e+00
     vertex  4.712381e-01 -1.366025e+00  2.185931e-01
   endloop
 endfacet
 facet normal  0.000000e+00 -1.000000e+00  0.000000e+00
   outer loop
     vertex  3.397460e-01 -1.366025e+00  0.000000e+00
     vertex  6.339746e-01 -1.366025e+00  0.000000e+00
     vertex  6.240974e-01 -1.366025e+00  2.873982e-04
   endloop
 endfacet
 facet normal  0.000000e+00 -1.000000e+00  0.000000e+00
   outer loop
     vertex  3.397460e-01 -1.366025e+00  0.000000e+00
     vertex  6.240974e-01 -1.366025e+00  2.873982e-04
     vertex  6.142535e-01 -1.366025e+00  1.148620e-03
   endloop
 endfacet
 facet normal  0.000000e+00 -1.000000e+00  0.000000e+00
   outer loop
     vertex  3.397460e-01 -1.366025e+00  0.000000e+00
     vertex  6.142535e-01 -1.366025e+00  1.148620e-03
     vertex  6.044765e-01 -1.366025e+00  2.580752e-03
   endloop
 endfacet
 facet normal  0.000000e+00 -1.000000e+00  0.000000e+00
   outer loop
     vertex  3.397460e-01 -1.366025e+00  0.000000e+00
     vertex  6.044765e-01 -1.366025e+00  2.580752e-03
     vertex  5.947992e-01 -1.366025e+00  4.578948e-03
   endloop
 endfacet
 facet normal  0.000000e+00 -1.000000e+00  0.000000e+00
   outer loop
     vertex  3.397460e-01 -1.366025e+00  0.000000e+00
     vertex  5.947992e-01 -1.366025e+00  4.578948e-03
     vertex  5.852545e-01 -1.366025e+00  7.136447e-03
   endloop
 endfacet
endsolid
