solid 
 facet normal  9.659258e-01  0.000000e+00  2.588190e-01
   outer loop
     vertex  1.205771e+00  1.366025e+00  1.500000e+00
     vertex  0.000000e+00  1.366025e+00  6.000000e+00
     vertex  0.000000e+00 -2.220446e-16  6.000000e+00
   endloop
 endfacet
 facet normal  9.659258e-01  0.000000e+00  2.588190e-01
   outer loop
     vertex  1.205771e+00  1.366025e+00  1.500000e+00
     vertex  0.000000e+00 -2.220446e-16  6.000000e+00
     vertex  1.205771e+00 -2.220446e-16  1.500000e+00
   endloop
 endfacet
 facet normal -9.659258e-01  0.000000e+00  2.588190e-01
   outer loop
     vertex  0.000000e+00  1.366025e+00  6.000000e+00
     vertex -8.038476e-01  1.366025e+00  3.000000e+00
     vertex -8.038476e-01 -2.220446e-16  3.000000e+00
   endloop
 endfacet
 facet normal -9.659258e-01  0.000000e+00  2.588190e-01
   outer loop
     vertex  0.000000e+00  1.366025e+00  6.000000e+00
     vertex -8.038476e-01 -2.220446e-16  3.000000e+00
     vertex  0.000000e+00 -2.220446e-16  6.000000e+00
   endloop
 endfacet
 facet normal  0.000000e+00  1.000000e+00  0.000000e+00
   outer loop
     vertex  3.397460e-01  1.366025e+00  0.000000e+00
     vertex -1.267949e+00  1.366025e+00  0.000000e+00
     vertex -1.218911e+00  1.366025e+00  8.493649e-02
   endloop
 endfacet
 facet normal  0.000000e+00  1.000000e+00  0.000000e+00
   outer loop
     vertex -4.019238e-01  1.366025e+00  1.500000e+00
     vertex  4.868603e-01  1.366025e+00  2.548095e-01
     vertex  3.397460e-01  1.366025e+00  0.000000e+00
   endloop
 endfacet
 facet normal  0.000000e+00  1.000000e+00  0.000000e+00
   outer loop
     vertex -4.019238e-01  1.366025e+00  1.500000e+00
     vertex  3.397460e-01  1.366025e+00  0.000000e+00
     vertex -1.218911e+00  1.366025e+00  8.493649e-02
   endloop
 endfacet
 facet normal  0.000000e+00  1.000000e+00  0.000000e+00
   outer loop
     vertex  1.205771e+00  1.366025e+00  1.500000e+00
     vertex -4.019238e-01  1.366025e+00  1.500000e+00
     vertex -8.038476e-01  1.366025e+00  3.000000e+00
   endloop
 endfacet
 facet normal  0.000000e+00  1.000000e+00  0.000000e+00
   outer loop
     vertex  1.205771e+00  1.366025e+00  1.500000e+00
     vertex  4.868603e-01  1.366025e+00  2.548095e-01
     vertex -4.019238e-01  1.366025e+00  1.500000e+00
   endloop
 endfacet
 facet normal  0.000000e+00  1.000000e+00  0.000000e+00
   outer loop
     vertex  0.000000e+00  1.366025e+00  6.000000e+00
     vertex  1.205771e+00  1.366025e+00  1.500000e+00
     vertex -8.038476e-01  1.366025e+00  3.000000e+00
   endloop
 endfacet
 facet normal  8.660254e-01  0.000000e+00 -5.000000e-01
   outer loop
     vertex  4.868603e-01  1.366025e+00  2.548095e-01
     vertex  1.205771e+00  1.366025e+00  1.500000e+00
     vertex  1.205771e+00 -2.220446e-16  1.500000e+00
   endloop
 endfacet
 facet normal  8.660254e-01  0.000000e+00 -5.000000e-01
   outer loop
     vertex  4.868603e-01  1.366025e+00  2.548095e-01
     vertex  1.205771e+00 -2.220446e-16  1.500000e+00
     vertex  4.868603e-01 -2.220446e-16  2.548095e-01
   endloop
 endfacet
 facet normal  0.000000e+00 -1.000000e+00  0.000000e+00
   outer loop
     vertex  3.397460e-01 -2.220446e-16  0.000000e+00
     vertex -1.218911e+00 -2.220446e-16  8.493649e-02
     vertex -1.267949e+00 -2.220446e-16  0.000000e+00
   endloop
 endfacet
 facet normal  0.000000e+00 -1.000000e+00  0.000000e+00
   outer loop
     vertex -4.019238e-01 -2.220446e-16  1.500000e+00
     vertex  3.397460e-01 -2.220446e-16  0.000000e+00
     vertex  4.868603e-01 -2.220446e-16  2.548095e-01
   endloop
 endfacet
 facet normal  0.000000e+00 -1.000000e+00 -0.000000e+00
   outer loop
     vertex -4.019238e-01 -2.220446e-16  1.500000e+00
     vertex -1.218911e+00 -2.220446e-16  8.493649e-02
     vertex  3.397460e-01 -2.220446e-16  0.000000e+00
   endloop
 endfacet
 facet normal  0.000000e+00 -1.000000e+00  0.000000e+00
   outer loop
     vertex  1.205771e+00 -2.220446e-16  1.500000e+00
     vertex -8.038476e-01 -2.220446e-16  3.000000e+00
     vertex -4.019238e-01 -2.220446e-16  1.500000e+00
   endloop
 endfacet
 facet normal -0.000000e+00 -1.000000e+00  0.000000e+00
   outer loop
     vertex  1.205771e+00 -2.220446e-16  1.500000e+00
     vertex -4.019238e-01 -2.220446e-16  1.500000e+00
     vertex  4.868603e-01 -2.220446e-16  2.548095e-01
   endloop
 endfacet
 facet normal  0.000000e+00 -1.000000e+00 -0.000000e+00
   outer loop
     vertex  0.000000e+00 -2.220446e-16  6.000000e+00
     vertex -8.038476e-01 -2.220446e-16  3.000000e+00
     vertex  1.205771e+00 -2.220446e-16  1.500000e+00
   endloop
 endfacet
 facet normal -9.659258e-01  0.000000e+00 -2.588190e-01
   outer loop
     vertex -8.038476e-01  1.366025e+00  3.000000e+00
     vertex -4.019238e-01  1.366025e+00  1.500000e+00
     vertex -4.019238e-01 -2.220446e-16  1.500000e+00
   endloop
 endfacet
 facet normal -9.659258e-01 -0.000000e+00 -2.588190e-01
   outer loop
     vertex -8.038476e-01  1.366025e+00  3.000000e+00
     vertex -4.019238e-01 -2.220446e-16  1.500000e+00
     vertex -8.038476e-01 -2.220446e-16  3.000000e+00
   endloop
 endfacet
 facet normal  8.660254e-01  0.000000e+00 -5.000000e-01
   outer loop
     vertex  3.397460e-01  1.366025e+00  0.000000e+00
     vertex  4.868603e-01  1.366025e+00  2.548095e-01
     vertex  4.868603e-01 -2.220446e-16  2.548095e-01
   endloop
 endfacet
 facet normal  8.660254e-01  0.000000e+00 -5.000000e-01
   outer loop
     vertex  3.397460e-01  1.366025e+00  0.000000e+00
     vertex  4.868603e-01 -2.220446e-16  2.548095e-01
     vertex  3.397460e-01 -2.220446e-16  0.000000e+00
   endloop
 endfacet
 facet normal  0.000000e+00  0.000000e+00 -1.000000e+00
   outer loop
     vertex -1.267949e+00  1.366025e+00  0.000000e+00
     vertex  3.397460e-01  1.366025e+00  0.000000e+00
     vertex  3.397460e-01 -2.220446e-16  0.000000e+00
   endloop
 endfacet
 facet normal  0.000000e+00  0.000000e+00 -1.000000e+00
   outer loop
     vertex -1.267949e+00  1.366025e+00  0.000000e+00
     vertex  3.397460e-01 -2.220446e-16  0.000000e+00
     vertex -1.267949e+00 -2.220446e-16  0.000000e+00
   endloop
 endfacet
 facet normal -8.660254e-01  0.000000e+00  5.000000e-01
   outer loop
     vertex -1.218911e+00  1.366025e+00  8.493649e-02
     vertex -1.267949e+00  1.366025e+00  0.000000e+00
     vertex -1.267949e+00 -2.220446e-16  0.000000e+00
   endloop
 endfacet
 facet normal -8.660254e-01  0.000000e+00  5.000000e-01
   outer loop
     vertex -1.218911e+00  1.366025e+00  8.493649e-02
     vertex -1.267949e+00 -2.220446e-16  0.000000e+00
     vertex -1.218911e+00 -2.220446e-16  8.493649e-02
   endloop
 endfacet
 facet normal -8.660254e-01  0.000000e+00  5.000000e-01
   outer loop
     vertex -4.019238e-01  1.366025e+00  1.500000e+00
     vertex -1.218911e+00  1.366025e+00  8.493649e-02
     vertex -1.218911e+00 -2.220446e-16  8.493649e-02
   endloop
 endfacet
 facet normal -8.660254e-01  0.000000e+00  5.000000e-01
   outer loop
     vertex -4.019238e-01  1.366025e+00  1.500000e+00
     vertex -1.218911e+00 -2.220446e-16  8.493649e-02
     vertex -4.019238e-01 -2.220446e-16  1.500000e+00
   endloop
 endfacet
 facet normal -1.000000e+00  0.000000e+00  0.000000e+00
   outer loop
     vertex -1.366025e+00 -2.220446e-16  0.000000e+00
     vertex -1.366025e+00  1.366025e+00  0.000000e+00
     vertex -1.366025e+00  1.366025e+00 -2.000000e+00
   endloop
 endfacet
 facet normal -1.000000e+00  0.000000e+00  0.000000e+00
   outer loop
     vertex -1.366025e+00 -2.220446e-16  0.000000e+00
     vertex -1.366025e+00  1.366025e+00 -2.000000e+00
     vertex -1.366025e+00 -2.220446e-16 -2.000000e+00
   endloop
 endfacet
 facet normal  0.000000e+00  0.000000e+00  1.000000e+00
   outer loop
     vertex -1.267949e+00  1.366025e+00  0.000000e+00
     vertex -1.366025e+00  1.366025e+00  0.000000e+00
     vertex -1.366025e+00 -2.220446e-16  0.000000e+00
   endloop
 endfacet
 facet normal  0.000000e+00  0.000000e+00  1.000000e+00
   outer loop
     vertex -1.267949e+00  1.366025e+00  0.000000e+00
     vertex -1.366025e+00 -2.220446e-16  0.000000e+00
     vertex -1.267949e+00 -2.220446e-16  0.000000e+00
   endloop
 endfacet
 facet normal -0.000000e+00 -1.000000e+00  0.000000e+00
   outer loop
     vertex -1.267949e+00 -2.220446e-16  0.000000e+00
     vertex -1.366025e+00 -2.220446e-16  0.000000e+00
     vertex -1.366025e+00 -2.220446e-16 -2.000000e+00
   endloop
 endfacet
 facet normal  0.000000e+00 -1.000000e+00 -0.000000e+00
   outer loop
     vertex  3.397460e-01 -2.220446e-16  0.000000e+00
     vertex -1.366025e+00 -2.220446e-16 -2.000000e+00
     vertex  1.366025e+00 -2.220446e-16 -2.000000e+00
   endloop
 endfacet
 facet normal -0.000000e+00 -1.000000e+00  0.000000e+00
   outer loop
     vertex  3.397460e-01 -2.220446e-16  0.000000e+00
     vertex -1.267949e+00 -2.220446e-16  0.000000e+00
     vertex -1.366025e+00 -2.220446e-16 -2.000000e+00
   endloop
 endfacet
 facet normal -0.000000e+00 -1.000000e+00 -0.000000e+00
   outer loop
     vertex  6.339746e-01 -2.220446e-16  0.000000e+00
     vertex  3.397460e-01 -2.220446e-16  0.000000e+00
     vertex  1.366025e+00 -2.220446e-16 -2.000000e+00
   endloop
 endfacet
 facet normal -0.000000e+00 -1.000000e+00 -0.000000e+00
   outer loop
     vertex  1.366025e+00 -2.220446e-16  0.000000e+00
     vertex  6.339746e-01 -2.220446e-16  0.000000e+00
     vertex  1.366025e+00 -2.220446e-16 -2.000000e+00
   endloop
 endfacet
 facet normal -0.000000e+00  0.000000e+00 -1.000000e+00
   outer loop
     vertex  1.366025e+00  1.366025e+00 -2.000000e+00
     vertex -1.366025e+00 -2.220446e-16 -2.000000e+00
     vertex -1.366025e+00  1.366025e+00 -2.000000e+00
   endloop
 endfacet
 facet normal  0.000000e+00 -0.000000e+00 -1.000000e+00
   outer loop
     vertex  1.366025e+00  1.366025e+00 -2.000000e+00
     vertex  1.366025e+00 -2.220446e-16 -2.000000e+00
     vertex -1.366025e+00 -2.220446e-16 -2.000000e+00
   endloop
 endfacet
 facet normal -0.000000e+00  1.000000e+00  0.000000e+00
   outer loop
     vertex  6.339746e-01  1.366025e+00  0.000000e+00
     vertex  1.366025e+00  1.366025e+00  0.000000e+00
     vertex  1.366025e+00  1.366025e+00 -2.000000e+00
   endloop
 endfacet
 facet normal  0.000000e+00  1.000000e+00  0.000000e+00
   outer loop
     vertex  3.397460e-01  1.366025e+00  0.000000e+00
     vertex  1.366025e+00  1.366025e+00 -2.000000e+00
     vertex -1.366025e+00  1.366025e+00 -2.000000e+00
   endloop
 endfacet
 facet normal -0.000000e+00  1.000000e+00  0.000000e+00
   outer loop
     vertex  3.397460e-01  1.366025e+00  0.000000e+00
     vertex  6.339746e-01  1.366025e+00  0.000000e+00
     vertex  1.366025e+00  1.366025e+00 -2.000000e+00
   endloop
 endfacet
 facet normal -0.000000e+00  1.000000e+00  0.000000e+00
   outer loop
     vertex -1.267949e+00  1.366025e+00  0.000000e+00
     vertex  3.397460e-01  1.366025e+00  0.000000e+00
     vertex -1.366025e+00  1.366025e+00 -2.000000e+00
   endloop
 endfacet
 facet normal -0.000000e+00  1.000000e+00  0.000000e+00
   outer loop
     vertex -1.366025e+00  1.366025e+00  0.000000e+00
     vertex -1.267949e+00  1.366025e+00  0.000000e+00
     vertex -1.366025e+00  1.366025e+00 -2.000000e+00
   endloop
 endfacet
 facet normal -0.000000e+00  0.000000e+00  1.000000e+00
   outer loop
     vertex -1.267949e+00  1.366025e+00  0.000000e+00
     vertex  3.397460e-01 -2.220446e-16  0.000000e+00
     vertex  3.397460e-01  1.366025e+00  0.000000e+00
   endloop
 endfacet
 facet normal  0.000000e+00  0.000000e+00  1.000000e+00
   outer loop
     vertex -1.267949e+00  1.366025e+00  0.000000e+00
     vertex -1.267949e+00 -2.220446e-16  0.000000e+00
     vertex  3.397460e-01 -2.220446e-16  0.000000e+00
   endloop
 endfacet
 facet normal  1.000000e+00  0.000000e+00  0.000000e+00
   outer loop
     vertex  1.366025e+00  1.366025e+00  0.000000e+00
     vertex  1.366025e+00 -2.220446e-16  0.000000e+00
     vertex  1.366025e+00 -2.220446e-16 -2.000000e+00
   endloop
 endfacet
 facet normal  1.000000e+00  0.000000e+00  0.000000e+00
   outer loop
     vertex  1.366025e+00  1.366025e+00  0.000000e+00
     vertex  1.366025e+00 -2.220446e-16 -2.000000e+00
     vertex  1.366025e+00  1.366025e+00 -2.000000e+00
   endloop
 endfacet
 facet normal  0.000000e+00  0.000000e+00  1.000000e+00
   outer loop
     vertex  1.366025e+00  1.366025e+00  0.000000e+00
     vertex  6.339746e-01  1.366025e+00  0.000000e+00
     vertex  6.339746e-01 -2.220446e-16  0.000000e+00
   endloop
 endfacet
 facet normal  0.000000e+00  0.000000e+00  1.000000e+00
   outer loop
     vertex  1.366025e+00  1.366025e+00  0.000000e+00
     vertex  6.339746e-01 -2.220446e-16  0.000000e+00
     vertex  1.366025e+00 -2.220446e-16  0.000000e+00
   endloop
 endfacet
 facet normal  0.000000e+00  0.000000e+00  1.000000e+00
   outer loop
     vertex  6.339746e-01  1.366025e+00  0.000000e+00
     vertex  3.397460e-01  1.366025e+00  0.000000e+00
     vertex  3.397460e-01 -2.220446e-16  0.000000e+00
   endloop
 endfacet
 facet normal  0.000000e+00  0.000000e+00  1.000000e+00
   outer loop
     vertex  6.339746e-01  1.366025e+00  0.000000e+00
     vertex  3.397460e-01 -2.220446e-16  0.000000e+00
     vertex  6.339746e-01 -2.220446e-16  0.000000e+00
   endloop
 endfacet
 facet normal -0.000000e+00  0.000000e+00 -1.000000e+00
   outer loop
     vertex -1.267949e+00  1.366025e+00  0.000000e+00
     vertex -1.366025e+00 -2.220446e-16  0.000000e+00
     vertex -1.366025e+00  1.366025e+00  0.000000e+00
   endloop
 endfacet
 facet normal  0.000000e+00 -0.000000e+00 -1.000000e+00
   outer loop
     vertex -1.267949e+00  1.366025e+00  0.000000e+00
     vertex -1.267949e+00 -2.220446e-16  0.000000e+00
     vertex -1.366025e+00 -2.220446e-16  0.000000e+00
   endloop
 endfacet
 facet normal  0.000000e+00  1.000000e+00  0.000000e+00
   outer loop
     vertex -1.267949e+00  1.366025e+00  0.000000e+00
     vertex -1.336527e+00  1.366025e+00  2.580752e-03
     vertex -1.326850e+00  1.366025e+00  4.578948e-03
   endloop
 endfacet
 facet normal  0.000000e+00  1.000000e+00  0.000000e+00
   outer loop
     vertex -1.267949e+00  1.366025e+00  0.000000e+00
     vertex -1.326850e+00  1.366025e+00  4.578948e-03
     vertex -1.317305e+00  1.366025e+00  7.136447e-03
   endloop
 endfacet
 facet normal  0.000000e+00  1.000000e+00  0.000000e+00
   outer loop
     vertex -1.267949e+00  1.366025e+00  0.000000e+00
     vertex -1.317305e+00  1.366025e+00  7.136447e-03
     vertex -1.307925e+00  1.366025e+00  1.024459e-02
   endloop
 endfacet
 facet normal  0.000000e+00  1.000000e+00  0.000000e+00
   outer loop
     vertex -1.267949e+00  1.366025e+00  0.000000e+00
     vertex -1.307925e+00  1.366025e+00  1.024459e-02
     vertex -1.298742e+00  1.366025e+00  1.389287e-02
   endloop
 endfacet
 facet normal  0.000000e+00  1.000000e+00  0.000000e+00
   outer loop
     vertex -1.267949e+00  1.366025e+00  0.000000e+00
     vertex -1.298742e+00  1.366025e+00  1.389287e-02
     vertex -1.289787e+00  1.366025e+00  1.806894e-02
   endloop
 endfacet
 facet normal  0.000000e+00  1.000000e+00  0.000000e+00
   outer loop
     vertex -1.267949e+00  1.366025e+00  0.000000e+00
     vertex -1.289787e+00  1.366025e+00  1.806894e-02
     vertex -1.281089e+00  1.366025e+00  2.275866e-02
   endloop
 endfacet
 facet normal  0.000000e+00  1.000000e+00  0.000000e+00
   outer loop
     vertex -1.267949e+00  1.366025e+00  0.000000e+00
     vertex -1.281089e+00  1.366025e+00  2.275866e-02
     vertex -1.272679e+00  1.366025e+00  2.794618e-02
   endloop
 endfacet
 facet normal  0.000000e+00  1.000000e+00 -0.000000e+00
   outer loop
     vertex -1.267949e+00  1.366025e+00  0.000000e+00
     vertex -1.272679e+00  1.366025e+00  2.794618e-02
     vertex -1.264584e+00  1.366025e+00  3.361392e-02
   endloop
 endfacet
 facet normal  0.000000e+00  1.000000e+00  0.000000e+00
   outer loop
     vertex -1.267949e+00  1.366025e+00  0.000000e+00
     vertex -1.264584e+00  1.366025e+00  3.361392e-02
     vertex -1.256833e+00  1.366025e+00  3.974273e-02
   endloop
 endfacet
 facet normal  0.000000e+00  1.000000e+00  0.000000e+00
   outer loop
     vertex -1.267949e+00  1.366025e+00  0.000000e+00
     vertex -1.256833e+00  1.366025e+00  3.974273e-02
     vertex -1.249451e+00  1.366025e+00  4.631185e-02
   endloop
 endfacet
 facet normal  0.000000e+00  1.000000e+00  0.000000e+00
   outer loop
     vertex -1.267949e+00  1.366025e+00  0.000000e+00
     vertex -1.249451e+00  1.366025e+00  4.631185e-02
     vertex -1.242464e+00  1.366025e+00  5.329907e-02
   endloop
 endfacet
 facet normal  0.000000e+00  1.000000e+00  0.000000e+00
   outer loop
     vertex -1.366025e+00  1.366025e+00  0.000000e+00
     vertex -1.356148e+00  1.366025e+00  2.873982e-04
     vertex -1.267949e+00  1.366025e+00  0.000000e+00
   endloop
 endfacet
 facet normal -0.000000e+00  1.000000e+00  0.000000e+00
   outer loop
     vertex -1.356148e+00  1.366025e+00  2.873982e-04
     vertex -1.346304e+00  1.366025e+00  1.148620e-03
     vertex -1.267949e+00  1.366025e+00  0.000000e+00
   endloop
 endfacet
 facet normal -0.000000e+00  1.000000e+00  0.000000e+00
   outer loop
     vertex -1.346304e+00  1.366025e+00  1.148620e-03
     vertex -1.336527e+00  1.366025e+00  2.580752e-03
     vertex -1.267949e+00  1.366025e+00  0.000000e+00
   endloop
 endfacet
 facet normal  0.000000e+00  1.000000e+00  0.000000e+00
   outer loop
     vertex -1.267949e+00  1.366025e+00  0.000000e+00
     vertex -1.224099e+00  1.366025e+00  7.652625e-02
     vertex -1.218911e+00  1.366025e+00  8.493649e-02
   endloop
 endfacet
 facet normal  0.000000e+00  1.000000e+00  0.000000e+00
   outer loop
     vertex -1.267949e+00  1.366025e+00  0.000000e+00
     vertex -1.229766e+00  1.366025e+00  6.843187e-02
     vertex -1.224099e+00  1.366025e+00  7.652625e-02
   endloop
 endfacet
 facet normal  0.000000e+00  1.000000e+00  0.000000e+00
   outer loop
     vertex -1.267949e+00  1.366025e+00  0.000000e+00
     vertex -1.235895e+00  1.366025e+00  6.068073e-02
     vertex -1.229766e+00  1.366025e+00  6.843187e-02
   endloop
 endfacet
 facet normal  0.000000e+00  1.000000e+00  0.000000e+00
   outer loop
     vertex -1.267949e+00  1.366025e+00  0.000000e+00
     vertex -1.242464e+00  1.366025e+00  5.329907e-02
     vertex -1.235895e+00  1.366025e+00  6.068073e-02
   endloop
 endfacet
 facet normal  8.660254e-01  0.000000e+00 -5.000000e-01
   outer loop
     vertex -1.218911e+00  1.366025e+00  8.493649e-02
     vertex -1.267949e+00 -2.220446e-16  0.000000e+00
     vertex -1.267949e+00  1.366025e+00  0.000000e+00
   endloop
 endfacet
 facet normal  8.660254e-01  0.000000e+00 -5.000000e-01
   outer loop
     vertex -1.218911e+00  1.366025e+00  8.493649e-02
     vertex -1.218911e+00 -2.220446e-16  8.493649e-02
     vertex -1.267949e+00 -2.220446e-16  0.000000e+00
   endloop
 endfacet
 facet normal  0.000000e+00 -1.000000e+00  0.000000e+00
   outer loop
     vertex -1.267949e+00 -2.220446e-16  0.000000e+00
     vertex -1.289787e+00 -2.220446e-16  1.806894e-02
     vertex -1.298742e+00 -2.220446e-16  1.389287e-02
   endloop
 endfacet
 facet normal  0.000000e+00 -1.000000e+00  0.000000e+00
   outer loop
     vertex -1.267949e+00 -2.220446e-16  0.000000e+00
     vertex -1.298742e+00 -2.220446e-16  1.389287e-02
     vertex -1.307925e+00 -2.220446e-16  1.024459e-02
   endloop
 endfacet
 facet normal  0.000000e+00 -1.000000e+00  0.000000e+00
   outer loop
     vertex -1.267949e+00 -2.220446e-16  0.000000e+00
     vertex -1.307925e+00 -2.220446e-16  1.024459e-02
     vertex -1.317305e+00 -2.220446e-16  7.136447e-03
   endloop
 endfacet
 facet normal  0.000000e+00 -1.000000e+00  0.000000e+00
   outer loop
     vertex -1.267949e+00 -2.220446e-16  0.000000e+00
     vertex -1.317305e+00 -2.220446e-16  7.136447e-03
     vertex -1.326850e+00 -2.220446e-16  4.578948e-03
   endloop
 endfacet
 facet normal  0.000000e+00 -1.000000e+00  0.000000e+00
   outer loop
     vertex -1.267949e+00 -2.220446e-16  0.000000e+00
     vertex -1.326850e+00 -2.220446e-16  4.578948e-03
     vertex -1.336527e+00 -2.220446e-16  2.580752e-03
   endloop
 endfacet
 facet normal  0.000000e+00 -1.000000e+00 -0.000000e+00
   outer loop
     vertex -1.281089e+00 -2.220446e-16  2.275866e-02
     vertex -1.289787e+00 -2.220446e-16  1.806894e-02
     vertex -1.267949e+00 -2.220446e-16  0.000000e+00
   endloop
 endfacet
 facet normal  0.000000e+00 -1.000000e+00 -0.000000e+00
   outer loop
     vertex -1.272679e+00 -2.220446e-16  2.794618e-02
     vertex -1.281089e+00 -2.220446e-16  2.275866e-02
     vertex -1.267949e+00 -2.220446e-16  0.000000e+00
   endloop
 endfacet
 facet normal  0.000000e+00 -1.000000e+00  0.000000e+00
   outer loop
     vertex -1.264584e+00 -2.220446e-16  3.361392e-02
     vertex -1.272679e+00 -2.220446e-16  2.794618e-02
     vertex -1.267949e+00 -2.220446e-16  0.000000e+00
   endloop
 endfacet
 facet normal  0.000000e+00 -1.000000e+00  0.000000e+00
   outer loop
     vertex -1.256833e+00 -2.220446e-16  3.974273e-02
     vertex -1.264584e+00 -2.220446e-16  3.361392e-02
     vertex -1.267949e+00 -2.220446e-16  0.000000e+00
   endloop
 endfacet
 facet normal  0.000000e+00 -1.000000e+00  0.000000e+00
   outer loop
     vertex -1.249451e+00 -2.220446e-16  4.631185e-02
     vertex -1.256833e+00 -2.220446e-16  3.974273e-02
     vertex -1.267949e+00 -2.220446e-16  0.000000e+00
   endloop
 endfacet
 facet normal  0.000000e+00 -1.000000e+00  0.000000e+00
   outer loop
     vertex -1.242464e+00 -2.220446e-16  5.329907e-02
     vertex -1.249451e+00 -2.220446e-16  4.631185e-02
     vertex -1.267949e+00 -2.220446e-16  0.000000e+00
   endloop
 endfacet
 facet normal  0.000000e+00 -1.000000e+00  0.000000e+00
   outer loop
     vertex -1.218911e+00 -2.220446e-16  8.493649e-02
     vertex -1.224099e+00 -2.220446e-16  7.652625e-02
     vertex -1.267949e+00 -2.220446e-16  0.000000e+00
   endloop
 endfacet
 facet normal  0.000000e+00 -1.000000e+00  0.000000e+00
   outer loop
     vertex -1.224099e+00 -2.220446e-16  7.652625e-02
     vertex -1.229766e+00 -2.220446e-16  6.843187e-02
     vertex -1.267949e+00 -2.220446e-16  0.000000e+00
   endloop
 endfacet
 facet normal  0.000000e+00 -1.000000e+00  0.000000e+00
   outer loop
     vertex -1.229766e+00 -2.220446e-16  6.843187e-02
     vertex -1.235895e+00 -2.220446e-16  6.068073e-02
     vertex -1.267949e+00 -2.220446e-16  0.000000e+00
   endloop
 endfacet
 facet normal  0.000000e+00 -1.000000e+00  0.000000e+00
   outer loop
     vertex -1.235895e+00 -2.220446e-16  6.068073e-02
     vertex -1.242464e+00 -2.220446e-16  5.329907e-02
     vertex -1.267949e+00 -2.220446e-16  0.000000e+00
   endloop
 endfacet
 facet normal  0.000000e+00 -1.000000e+00  0.000000e+00
   outer loop
     vertex -1.267949e+00 -2.220446e-16  0.000000e+00
     vertex -1.356148e+00 -2.220446e-16  2.873982e-04
     vertex -1.366025e+00 -2.220446e-16  0.000000e+00
   endloop
 endfacet
 facet normal  0.000000e+00 -1.000000e+00  0.000000e+00
   outer loop
     vertex -1.267949e+00 -2.220446e-16  0.000000e+00
     vertex -1.346304e+00 -2.220446e-16  1.148620e-03
     vertex -1.356148e+00 -2.220446e-16  2.873982e-04
   endloop
 endfacet
 facet normal  0.000000e+00 -1.000000e+00  0.000000e+00
   outer loop
     vertex -1.267949e+00 -2.220446e-16  0.000000e+00
     vertex -1.336527e+00 -2.220446e-16  2.580752e-03
     vertex -1.346304e+00 -2.220446e-16  1.148620e-03
   endloop
 endfacet
 facet normal -2.908472e-02  0.000000e+00  9.995770e-01
   outer loop
     vertex -1.356148e+00  1.366025e+00  2.873982e-04
     vertex -1.366025e+00  1.366025e+00  0.000000e+00
     vertex -1.366025e+00 -2.220446e-16  0.000000e+00
   endloop
 endfacet
 facet normal -2.908472e-02 -4.727661e-18  9.995770e-01
   outer loop
     vertex -1.356148e+00  1.366025e+00  2.873982e-04
     vertex -1.366025e+00 -2.220446e-16  0.000000e+00
     vertex -1.356148e+00 -2.220446e-16  2.873982e-04
   endloop
 endfacet
 facet normal -1.449319e-01  0.000000e+00  9.894416e-01
   outer loop
     vertex -1.346304e+00  1.366025e+00  1.148620e-03
     vertex -1.346304e+00 -2.220446e-16  1.148620e-03
     vertex -1.336527e+00 -2.220446e-16  2.580752e-03
   endloop
 endfacet
 facet normal -8.715574e-02  0.000000e+00  9.961947e-01
   outer loop
     vertex -1.346304e+00  1.366025e+00  1.148620e-03
     vertex -1.356148e+00 -2.220446e-16  2.873982e-04
     vertex -1.346304e+00 -2.220446e-16  1.148620e-03
   endloop
 endfacet
 facet normal -8.715574e-02 -1.418178e-17  9.961947e-01
   outer loop
     vertex -1.346304e+00  1.366025e+00  1.148620e-03
     vertex -1.356148e+00  1.366025e+00  2.873982e-04
     vertex -1.356148e+00 -2.220446e-16  2.873982e-04
   endloop
 endfacet
 facet normal -2.022176e-01  0.000000e+00  9.793406e-01
   outer loop
     vertex -1.336527e+00  1.366025e+00  2.580752e-03
     vertex -1.336527e+00 -2.220446e-16  2.580752e-03
     vertex -1.326850e+00 -2.220446e-16  4.578948e-03
   endloop
 endfacet
 facet normal -1.449319e-01  0.000000e+00  9.894416e-01
   outer loop
     vertex -1.336527e+00  1.366025e+00  2.580752e-03
     vertex -1.346304e+00  1.366025e+00  1.148620e-03
     vertex -1.336527e+00 -2.220446e-16  2.580752e-03
   endloop
 endfacet
 facet normal -2.588190e-01  2.244434e-17  9.659258e-01
   outer loop
     vertex -1.326850e+00  1.366025e+00  4.578948e-03
     vertex -1.326850e+00 -2.220446e-16  4.578948e-03
     vertex -1.317305e+00 -2.220446e-16  7.136447e-03
   endloop
 endfacet
 facet normal -2.022176e-01  1.297132e-17  9.793406e-01
   outer loop
     vertex -1.326850e+00  1.366025e+00  4.578948e-03
     vertex -1.336527e+00  1.366025e+00  2.580752e-03
     vertex -1.326850e+00 -2.220446e-16  4.578948e-03
   endloop
 endfacet
 facet normal -3.145448e-01  1.255424e-17  9.492426e-01
   outer loop
     vertex -1.317305e+00  1.366025e+00  7.136447e-03
     vertex -1.317305e+00 -2.220446e-16  7.136447e-03
     vertex -1.307925e+00 -2.220446e-16  1.024459e-02
   endloop
 endfacet
 facet normal -2.588190e-01  2.818189e-18  9.659258e-01
   outer loop
     vertex -1.317305e+00  1.366025e+00  7.136447e-03
     vertex -1.326850e+00  1.366025e+00  4.578948e-03
     vertex -1.317305e+00 -2.220446e-16  7.136447e-03
   endloop
 endfacet
 facet normal -3.692061e-01 -3.776588e-17  9.293475e-01
   outer loop
     vertex -1.307925e+00  1.366025e+00  1.024459e-02
     vertex -1.307925e+00 -2.220446e-16  1.024459e-02
     vertex -1.298742e+00 -2.220446e-16  1.389287e-02
   endloop
 endfacet
 facet normal -3.145448e-01 -3.857436e-17  9.492426e-01
   outer loop
     vertex -1.307925e+00  1.366025e+00  1.024459e-02
     vertex -1.317305e+00  1.366025e+00  7.136447e-03
     vertex -1.307925e+00 -2.220446e-16  1.024459e-02
   endloop
 endfacet
 facet normal -4.226183e-01  3.186611e-17  9.063078e-01
   outer loop
     vertex -1.298742e+00  1.366025e+00  1.389287e-02
     vertex -1.298742e+00 -2.220446e-16  1.389287e-02
     vertex -1.289787e+00 -2.220446e-16  1.806894e-02
   endloop
 endfacet
 facet normal -3.692061e-01  2.224782e-17  9.293475e-01
   outer loop
     vertex -1.298742e+00  1.366025e+00  1.389287e-02
     vertex -1.307925e+00  1.366025e+00  1.024459e-02
     vertex -1.298742e+00 -2.220446e-16  1.389287e-02
   endloop
 endfacet
 facet normal -4.746004e-01  2.349222e-17  8.802014e-01
   outer loop
     vertex -1.289787e+00  1.366025e+00  1.806894e-02
     vertex -1.289787e+00 -2.220446e-16  1.806894e-02
     vertex -1.281089e+00 -2.220446e-16  2.275866e-02
   endloop
 endfacet
 facet normal -4.226183e-01  1.345130e-17  9.063078e-01
   outer loop
     vertex -1.289787e+00  1.366025e+00  1.806894e-02
     vertex -1.298742e+00  1.366025e+00  1.389287e-02
     vertex -1.289787e+00 -2.220446e-16  1.806894e-02
   endloop
 endfacet
 facet normal -5.249766e-01 -1.133177e-18  8.511167e-01
   outer loop
     vertex -1.281089e+00  1.366025e+00  2.275866e-02
     vertex -1.281089e+00 -2.220446e-16  2.275866e-02
     vertex -1.272679e+00 -2.220446e-16  2.794618e-02
   endloop
 endfacet
 facet normal -4.746004e-01 -1.227651e-17  8.802014e-01
   outer loop
     vertex -1.281089e+00  1.366025e+00  2.275866e-02
     vertex -1.289787e+00  1.366025e+00  1.806894e-02
     vertex -1.281089e+00 -2.220446e-16  2.275866e-02
   endloop
 endfacet
 facet normal -5.735764e-01 -6.629940e-18  8.191520e-01
   outer loop
     vertex -1.272679e+00  1.366025e+00  2.794618e-02
     vertex -1.272679e+00 -2.220446e-16  2.794618e-02
     vertex -1.264584e+00 -2.220446e-16  3.361392e-02
   endloop
 endfacet
 facet normal -5.249766e-01 -1.842658e-17  8.511167e-01
   outer loop
     vertex -1.272679e+00  1.366025e+00  2.794618e-02
     vertex -1.281089e+00  1.366025e+00  2.275866e-02
     vertex -1.272679e+00 -2.220446e-16  2.794618e-02
   endloop
 endfacet
 facet normal -6.202355e-01  5.189138e-18  7.844157e-01
   outer loop
     vertex -1.264584e+00  1.366025e+00  3.361392e-02
     vertex -1.264584e+00 -2.220446e-16  3.361392e-02
     vertex -1.256833e+00 -2.220446e-16  3.974273e-02
   endloop
 endfacet
 facet normal -5.735764e-01 -6.629940e-18  8.191520e-01
   outer loop
     vertex -1.264584e+00  1.366025e+00  3.361392e-02
     vertex -1.272679e+00  1.366025e+00  2.794618e-02
     vertex -1.264584e+00 -2.220446e-16  3.361392e-02
   endloop
 endfacet
 facet normal -6.647959e-01  9.469501e-17  7.470251e-01
   outer loop
     vertex -1.256833e+00  1.366025e+00  3.974273e-02
     vertex -1.256833e+00 -2.220446e-16  3.974273e-02
     vertex -1.249451e+00 -2.220446e-16  4.631185e-02
   endloop
 endfacet
 facet normal -6.202355e-01  7.413085e-17  7.844157e-01
   outer loop
     vertex -1.256833e+00  1.366025e+00  3.974273e-02
     vertex -1.264584e+00  1.366025e+00  3.361392e-02
     vertex -1.256833e+00 -2.220446e-16  3.974273e-02
   endloop
 endfacet
 facet normal -7.071068e-01  1.005714e-16  7.071068e-01
   outer loop
     vertex -1.249451e+00  1.366025e+00  4.631185e-02
     vertex -1.249451e+00 -2.220446e-16  4.631185e-02
     vertex -1.242464e+00 -2.220446e-16  5.329907e-02
   endloop
 endfacet
 facet normal -6.647959e-01  7.951658e-17  7.470251e-01
   outer loop
     vertex -1.249451e+00  1.366025e+00  4.631185e-02
     vertex -1.256833e+00  1.366025e+00  3.974273e-02
     vertex -1.249451e+00 -2.220446e-16  4.631185e-02
   endloop
 endfacet
 facet normal -7.470251e-01 -3.391058e-17  6.647959e-01
   outer loop
     vertex -1.242464e+00  1.366025e+00  5.329907e-02
     vertex -1.242464e+00 -2.220446e-16  5.329907e-02
     vertex -1.235895e+00 -2.220446e-16  6.068073e-02
   endloop
 endfacet
 facet normal -7.071068e-01 -5.028570e-17  7.071068e-01
   outer loop
     vertex -1.242464e+00  1.366025e+00  5.329907e-02
     vertex -1.249451e+00  1.366025e+00  4.631185e-02
     vertex -1.242464e+00 -2.220446e-16  5.329907e-02
   endloop
 endfacet
 facet normal -7.470251e-01 -5.417206e-17  6.647959e-01
   outer loop
     vertex -1.235895e+00  1.366025e+00  6.068073e-02
     vertex -1.242464e+00  1.366025e+00  5.329907e-02
     vertex -1.235895e+00 -2.220446e-16  6.068073e-02
   endloop
 endfacet
 facet normal -7.844157e-01 -3.632410e-17  6.202355e-01
   outer loop
     vertex -1.235895e+00  1.366025e+00  6.068073e-02
     vertex -1.235895e+00 -2.220446e-16  6.068073e-02
     vertex -1.229766e+00 -2.220446e-16  6.843187e-02
   endloop
 endfacet
 facet normal -7.844157e-01 -5.522747e-17  6.202355e-01
   outer loop
     vertex -1.229766e+00  1.366025e+00  6.843187e-02
     vertex -1.235895e+00  1.366025e+00  6.068073e-02
     vertex -1.229766e+00 -2.220446e-16  6.843187e-02
   endloop
 endfacet
 facet normal -8.191520e-01 -3.583454e-17  5.735764e-01
   outer loop
     vertex -1.229766e+00  1.366025e+00  6.843187e-02
     vertex -1.229766e+00 -2.220446e-16  6.843187e-02
     vertex -1.224099e+00 -2.220446e-16  7.652625e-02
   endloop
 endfacet
 facet normal -8.191520e-01 -5.331586e-17  5.735764e-01
   outer loop
     vertex -1.224099e+00  1.366025e+00  7.652625e-02
     vertex -1.229766e+00  1.366025e+00  6.843187e-02
     vertex -1.224099e+00 -2.220446e-16  7.652625e-02
   endloop
 endfacet
 facet normal -8.511167e-01 -3.232046e-17  5.249766e-01
   outer loop
     vertex -1.224099e+00  1.366025e+00  7.652625e-02
     vertex -1.224099e+00 -2.220446e-16  7.652625e-02
     vertex -1.218911e+00 -2.220446e-16  8.493649e-02
   endloop
 endfacet
 facet normal -8.511167e-01  0.000000e+00  5.249766e-01
   outer loop
     vertex -1.218911e+00  1.366025e+00  8.493649e-02
     vertex -1.224099e+00  1.366025e+00  7.652625e-02
     vertex -1.218911e+00 -2.220446e-16  8.493649e-02
   endloop
 endfacet
 facet normal -0.000000e+00  0.000000e+00 -1.000000e+00
   outer loop
     vertex  6.339746e-01  1.366025e+00  0.000000e+00
     vertex  3.397460e-01 -2.220446e-16  0.000000e+00
     vertex  3.397460e-01  1.366025e+00  0.000000e+00
   endloop
 endfacet
 facet normal  0.000000e+00 -0.000000e+00 -1.000000e+00
   outer loop
     vertex  6.339746e-01  1.366025e+00  0.000000e+00
     vertex  6.339746e-01 -2.220446e-16  0.000000e+00
     vertex  3.397460e-01 -2.220446e-16  0.000000e+00
   endloop
 endfacet
 facet normal -8.660254e-01  0.000000e+00  5.000000e-01
   outer loop
     vertex  3.397460e-01  1.366025e+00  0.000000e+00
     vertex  4.868603e-01 -2.220446e-16  2.548095e-01
     vertex  4.868603e-01  1.366025e+00  2.548095e-01
   endloop
 endfacet
 facet normal -8.660254e-01  0.000000e+00  5.000000e-01
   outer loop
     vertex  3.397460e-01  1.366025e+00  0.000000e+00
     vertex  3.397460e-01 -2.220446e-16  0.000000e+00
     vertex  4.868603e-01 -2.220446e-16  2.548095e-01
   endloop
 endfacet
 facet normal  0.000000e+00  1.000000e+00  0.000000e+00
   outer loop
     vertex  3.397460e-01  1.366025e+00  0.000000e+00
     vertex  4.712381e-01  1.366025e+00  2.185931e-01
     vertex  4.686806e-01  1.366025e+00  2.090484e-01
   endloop
 endfacet
 facet normal  0.000000e+00  1.000000e+00  0.000000e+00
   outer loop
     vertex  3.397460e-01  1.366025e+00  0.000000e+00
     vertex  4.686806e-01  1.366025e+00  2.090484e-01
     vertex  4.666824e-01  1.366025e+00  1.993711e-01
   endloop
 endfacet
 facet normal  0.000000e+00  1.000000e+00  0.000000e+00
   outer loop
     vertex  3.397460e-01  1.366025e+00  0.000000e+00
     vertex  4.666824e-01  1.366025e+00  1.993711e-01
     vertex  4.652502e-01  1.366025e+00  1.895940e-01
   endloop
 endfacet
 facet normal  0.000000e+00  1.000000e+00  0.000000e+00
   outer loop
     vertex  3.397460e-01  1.366025e+00  0.000000e+00
     vertex  4.652502e-01  1.366025e+00  1.895940e-01
     vertex  4.643890e-01  1.366025e+00  1.797502e-01
   endloop
 endfacet
 facet normal  0.000000e+00  1.000000e+00  0.000000e+00
   outer loop
     vertex  3.397460e-01  1.366025e+00  0.000000e+00
     vertex  4.643890e-01  1.366025e+00  1.797502e-01
     vertex  4.641016e-01  1.366025e+00  1.698730e-01
   endloop
 endfacet
 facet normal  0.000000e+00  1.000000e+00  0.000000e+00
   outer loop
     vertex  3.397460e-01  1.366025e+00  0.000000e+00
     vertex  4.641016e-01  1.366025e+00  1.698730e-01
     vertex  4.643890e-01  1.366025e+00  1.599957e-01
   endloop
 endfacet
 facet normal  0.000000e+00  1.000000e+00  0.000000e+00
   outer loop
     vertex  3.397460e-01  1.366025e+00  0.000000e+00
     vertex  4.643890e-01  1.366025e+00  1.599957e-01
     vertex  4.652502e-01  1.366025e+00  1.501519e-01
   endloop
 endfacet
 facet normal  0.000000e+00  1.000000e+00  0.000000e+00
   outer loop
     vertex  3.397460e-01  1.366025e+00  0.000000e+00
     vertex  4.652502e-01  1.366025e+00  1.501519e-01
     vertex  4.666824e-01  1.366025e+00  1.403748e-01
   endloop
 endfacet
 facet normal  0.000000e+00  1.000000e+00  0.000000e+00
   outer loop
     vertex  3.397460e-01  1.366025e+00  0.000000e+00
     vertex  4.666824e-01  1.366025e+00  1.403748e-01
     vertex  4.686806e-01  1.366025e+00  1.306976e-01
   endloop
 endfacet
 facet normal  0.000000e+00  1.000000e+00  0.000000e+00
   outer loop
     vertex  4.712381e-01  1.366025e+00  1.211529e-01
     vertex  3.397460e-01  1.366025e+00  0.000000e+00
     vertex  4.686806e-01  1.366025e+00  1.306976e-01
   endloop
 endfacet
 facet normal  0.000000e+00  1.000000e+00  0.000000e+00
   outer loop
     vertex  4.743462e-01  1.366025e+00  1.117730e-01
     vertex  3.397460e-01  1.366025e+00  0.000000e+00
     vertex  4.712381e-01  1.366025e+00  1.211529e-01
   endloop
 endfacet
 facet normal  0.000000e+00  1.000000e+00  0.000000e+00
   outer loop
     vertex  4.779945e-01  1.366025e+00  1.025897e-01
     vertex  3.397460e-01  1.366025e+00  0.000000e+00
     vertex  4.743462e-01  1.366025e+00  1.117730e-01
   endloop
 endfacet
 facet normal  0.000000e+00  1.000000e+00  0.000000e+00
   outer loop
     vertex  4.821706e-01  1.366025e+00  9.363413e-02
     vertex  3.397460e-01  1.366025e+00  0.000000e+00
     vertex  4.779945e-01  1.366025e+00  1.025897e-01
   endloop
 endfacet
 facet normal  0.000000e+00  1.000000e+00  0.000000e+00
   outer loop
     vertex  4.868603e-01  1.366025e+00  8.493649e-02
     vertex  3.397460e-01  1.366025e+00  0.000000e+00
     vertex  4.821706e-01  1.366025e+00  9.363413e-02
   endloop
 endfacet
 facet normal  0.000000e+00  1.000000e+00  0.000000e+00
   outer loop
     vertex  4.920478e-01  1.366025e+00  7.652625e-02
     vertex  3.397460e-01  1.366025e+00  0.000000e+00
     vertex  4.868603e-01  1.366025e+00  8.493649e-02
   endloop
 endfacet
 facet normal  0.000000e+00  1.000000e+00  0.000000e+00
   outer loop
     vertex  4.977155e-01  1.366025e+00  6.843187e-02
     vertex  3.397460e-01  1.366025e+00  0.000000e+00
     vertex  4.920478e-01  1.366025e+00  7.652625e-02
   endloop
 endfacet
 facet normal  0.000000e+00  1.000000e+00  0.000000e+00
   outer loop
     vertex  5.038443e-01  1.366025e+00  6.068073e-02
     vertex  3.397460e-01  1.366025e+00  0.000000e+00
     vertex  4.977155e-01  1.366025e+00  6.843187e-02
   endloop
 endfacet
 facet normal  0.000000e+00  1.000000e+00  0.000000e+00
   outer loop
     vertex  5.104135e-01  1.366025e+00  5.329907e-02
     vertex  3.397460e-01  1.366025e+00  0.000000e+00
     vertex  5.038443e-01  1.366025e+00  6.068073e-02
   endloop
 endfacet
 facet normal  0.000000e+00  1.000000e+00  0.000000e+00
   outer loop
     vertex  5.174007e-01  1.366025e+00  4.631185e-02
     vertex  3.397460e-01  1.366025e+00  0.000000e+00
     vertex  5.104135e-01  1.366025e+00  5.329907e-02
   endloop
 endfacet
 facet normal  0.000000e+00  1.000000e+00  0.000000e+00
   outer loop
     vertex  5.247823e-01  1.366025e+00  3.974273e-02
     vertex  3.397460e-01  1.366025e+00  0.000000e+00
     vertex  5.174007e-01  1.366025e+00  4.631185e-02
   endloop
 endfacet
 facet normal  0.000000e+00  1.000000e+00  0.000000e+00
   outer loop
     vertex  5.325335e-01  1.366025e+00  3.361392e-02
     vertex  3.397460e-01  1.366025e+00  0.000000e+00
     vertex  5.247823e-01  1.366025e+00  3.974273e-02
   endloop
 endfacet
 facet normal  0.000000e+00  1.000000e+00  0.000000e+00
   outer loop
     vertex  5.406279e-01  1.366025e+00  2.794618e-02
     vertex  3.397460e-01  1.366025e+00  0.000000e+00
     vertex  5.325335e-01  1.366025e+00  3.361392e-02
   endloop
 endfacet
 facet normal  0.000000e+00  1.000000e+00  0.000000e+00
   outer loop
     vertex  5.490381e-01  1.366025e+00  2.275866e-02
     vertex  3.397460e-01  1.366025e+00  0.000000e+00
     vertex  5.406279e-01  1.366025e+00  2.794618e-02
   endloop
 endfacet
 facet normal  0.000000e+00  1.000000e+00  0.000000e+00
   outer loop
     vertex  5.577357e-01  1.366025e+00  1.806894e-02
     vertex  3.397460e-01  1.366025e+00  0.000000e+00
     vertex  5.490381e-01  1.366025e+00  2.275866e-02
   endloop
 endfacet
 facet normal  0.000000e+00  1.000000e+00  0.000000e+00
   outer loop
     vertex  5.666913e-01  1.366025e+00  1.389287e-02
     vertex  3.397460e-01  1.366025e+00  0.000000e+00
     vertex  5.577357e-01  1.366025e+00  1.806894e-02
   endloop
 endfacet
 facet normal  0.000000e+00  1.000000e+00  0.000000e+00
   outer loop
     vertex  5.758746e-01  1.366025e+00  1.024459e-02
     vertex  3.397460e-01  1.366025e+00  0.000000e+00
     vertex  5.666913e-01  1.366025e+00  1.389287e-02
   endloop
 endfacet
 facet normal  0.000000e+00  1.000000e+00  0.000000e+00
   outer loop
     vertex  5.852545e-01  1.366025e+00  7.136447e-03
     vertex  3.397460e-01  1.366025e+00  0.000000e+00
     vertex  5.758746e-01  1.366025e+00  1.024459e-02
   endloop
 endfacet
 facet normal  0.000000e+00  1.000000e+00  0.000000e+00
   outer loop
     vertex  3.397460e-01  1.366025e+00  0.000000e+00
     vertex  6.240974e-01  1.366025e+00  2.873982e-04
     vertex  6.339746e-01  1.366025e+00  0.000000e+00
   endloop
 endfacet
 facet normal  0.000000e+00  1.000000e+00  0.000000e+00
   outer loop
     vertex  3.397460e-01  1.366025e+00  0.000000e+00
     vertex  6.142535e-01  1.366025e+00  1.148620e-03
     vertex  6.240974e-01  1.366025e+00  2.873982e-04
   endloop
 endfacet
 facet normal  0.000000e+00  1.000000e+00  0.000000e+00
   outer loop
     vertex  3.397460e-01  1.366025e+00  0.000000e+00
     vertex  6.044765e-01  1.366025e+00  2.580752e-03
     vertex  6.142535e-01  1.366025e+00  1.148620e-03
   endloop
 endfacet
 facet normal  0.000000e+00  1.000000e+00  0.000000e+00
   outer loop
     vertex  3.397460e-01  1.366025e+00  0.000000e+00
     vertex  5.947992e-01  1.366025e+00  4.578948e-03
     vertex  6.044765e-01  1.366025e+00  2.580752e-03
   endloop
 endfacet
 facet normal  0.000000e+00  1.000000e+00  0.000000e+00
   outer loop
     vertex  3.397460e-01  1.366025e+00  0.000000e+00
     vertex  5.852545e-01  1.366025e+00  7.136447e-03
     vertex  5.947992e-01  1.366025e+00  4.578948e-03
   endloop
 endfacet
 facet normal  0.000000e+00  1.000000e+00  0.000000e+00
   outer loop
     vertex  4.868603e-01  1.366025e+00  2.548095e-01
     vertex  4.821706e-01  1.366025e+00  2.461118e-01
     vertex  3.397460e-01  1.366025e+00  0.000000e+00
   endloop
 endfacet
 facet normal  0.000000e+00  1.000000e+00  0.000000e+00
   outer loop
     vertex  4.821706e-01  1.366025e+00  2.461118e-01
     vertex  4.779945e-01  1.366025e+00  2.371562e-01
     vertex  3.397460e-01  1.366025e+00  0.000000e+00
   endloop
 endfacet
 facet normal  0.000000e+00  1.000000e+00  0.000000e+00
   outer loop
     vertex  4.779945e-01  1.366025e+00  2.371562e-01
     vertex  4.743462e-01  1.366025e+00  2.279730e-01
     vertex  3.397460e-01  1.366025e+00  0.000000e+00
   endloop
 endfacet
 facet normal  0.000000e+00  1.000000e+00  0.000000e+00
   outer loop
     vertex  4.743462e-01  1.366025e+00  2.279730e-01
     vertex  4.712381e-01  1.366025e+00  2.185931e-01
     vertex  3.397460e-01  1.366025e+00  0.000000e+00
   endloop
 endfacet
 facet normal  8.802014e-01  0.000000e+00 -4.746004e-01
   outer loop
     vertex  4.868603e-01  1.366025e+00  2.548095e-01
     vertex  4.868603e-01 -2.220446e-16  2.548095e-01
     vertex  4.821706e-01 -2.220446e-16  2.461118e-01
   endloop
 endfacet
 facet normal  9.063078e-01  1.126705e-17 -4.226183e-01
   outer loop
     vertex  4.821706e-01  1.366025e+00  2.461118e-01
     vertex  4.821706e-01 -2.220446e-16  2.461118e-01
     vertex  4.779945e-01 -2.220446e-16  2.371562e-01
   endloop
 endfacet
 facet normal  8.802014e-01 -3.207457e-17 -4.746004e-01
   outer loop
     vertex  4.821706e-01  1.366025e+00  2.461118e-01
     vertex  4.868603e-01  1.366025e+00  2.548095e-01
     vertex  4.821706e-01 -2.220446e-16  2.461118e-01
   endloop
 endfacet
 facet normal  9.293475e-01 -5.957794e-18 -3.692061e-01
   outer loop
     vertex  4.779945e-01  1.366025e+00  2.371562e-01
     vertex  4.779945e-01 -2.220446e-16  2.371562e-01
     vertex  4.743462e-01 -2.220446e-16  2.279730e-01
   endloop
 endfacet
 facet normal  9.063078e-01 -4.521825e-17 -4.226183e-01
   outer loop
     vertex  4.779945e-01  1.366025e+00  2.371562e-01
     vertex  4.821706e-01  1.366025e+00  2.461118e-01
     vertex  4.779945e-01 -2.220446e-16  2.371562e-01
   endloop
 endfacet
 facet normal  9.492426e-01  1.139537e-18 -3.145448e-01
   outer loop
     vertex  4.743462e-01  1.366025e+00  2.279730e-01
     vertex  4.743462e-01 -2.220446e-16  2.279730e-01
     vertex  4.712381e-01 -2.220446e-16  2.185931e-01
   endloop
 endfacet
 facet normal  9.293475e-01 -3.622196e-17 -3.692061e-01
   outer loop
     vertex  4.743462e-01  1.366025e+00  2.279730e-01
     vertex  4.779945e-01  1.366025e+00  2.371562e-01
     vertex  4.743462e-01 -2.220446e-16  2.279730e-01
   endloop
 endfacet
 facet normal  9.659258e-01  2.028012e-17 -2.588190e-01
   outer loop
     vertex  4.712381e-01  1.366025e+00  2.185931e-01
     vertex  4.712381e-01 -2.220446e-16  2.185931e-01
     vertex  4.686806e-01 -2.220446e-16  2.090484e-01
   endloop
 endfacet
 facet normal  9.492426e-01 -1.187052e-17 -3.145448e-01
   outer loop
     vertex  4.712381e-01  1.366025e+00  2.185931e-01
     vertex  4.743462e-01  1.366025e+00  2.279730e-01
     vertex  4.712381e-01 -2.220446e-16  2.185931e-01
   endloop
 endfacet
 facet normal  9.793406e-01  5.647089e-17 -2.022176e-01
   outer loop
     vertex  4.686806e-01  1.366025e+00  2.090484e-01
     vertex  4.686806e-01 -2.220446e-16  2.090484e-01
     vertex  4.666824e-01 -2.220446e-16  1.993711e-01
   endloop
 endfacet
 facet normal  9.659258e-01  2.553893e-17 -2.588190e-01
   outer loop
     vertex  4.686806e-01  1.366025e+00  2.090484e-01
     vertex  4.712381e-01  1.366025e+00  2.185931e-01
     vertex  4.686806e-01 -2.220446e-16  2.090484e-01
   endloop
 endfacet
 facet normal  9.793406e-01 -1.490649e-17 -2.022176e-01
   outer loop
     vertex  4.666824e-01  1.366025e+00  1.993711e-01
     vertex  4.686806e-01  1.366025e+00  2.090484e-01
     vertex  4.666824e-01 -2.220446e-16  1.993711e-01
   endloop
 endfacet
 facet normal  9.894416e-01  1.268552e-17 -1.449319e-01
   outer loop
     vertex  4.666824e-01  1.366025e+00  1.993711e-01
     vertex  4.666824e-01 -2.220446e-16  1.993711e-01
     vertex  4.652502e-01 -2.220446e-16  1.895940e-01
   endloop
 endfacet
 facet normal  9.894416e-01 -1.868801e-17 -1.449319e-01
   outer loop
     vertex  4.652502e-01  1.366025e+00  1.895940e-01
     vertex  4.666824e-01  1.366025e+00  1.993711e-01
     vertex  4.652502e-01 -2.220446e-16  1.895940e-01
   endloop
 endfacet
 facet normal  9.961947e-01  5.064883e-18 -8.715574e-02
   outer loop
     vertex  4.652502e-01  1.366025e+00  1.895940e-01
     vertex  4.652502e-01 -2.220446e-16  1.895940e-01
     vertex  4.643890e-01 -2.220446e-16  1.797502e-01
   endloop
 endfacet
 facet normal  9.961947e-01 -3.187572e-17 -8.715574e-02
   outer loop
     vertex  4.643890e-01  1.366025e+00  1.797502e-01
     vertex  4.652502e-01  1.366025e+00  1.895940e-01
     vertex  4.643890e-01 -2.220446e-16  1.797502e-01
   endloop
 endfacet
 facet normal  9.995770e-01 -1.063724e-17 -2.908472e-02
   outer loop
     vertex  4.643890e-01  1.366025e+00  1.797502e-01
     vertex  4.643890e-01 -2.220446e-16  1.797502e-01
     vertex  4.641016e-01 -2.220446e-16  1.698730e-01
   endloop
 endfacet
 facet normal  9.995770e-01 -8.273407e-18 -2.908472e-02
   outer loop
     vertex  4.641016e-01  1.366025e+00  1.698730e-01
     vertex  4.643890e-01  1.366025e+00  1.797502e-01
     vertex  4.641016e-01 -2.220446e-16  1.698730e-01
   endloop
 endfacet
 facet normal  9.995770e-01  8.273407e-18  2.908472e-02
   outer loop
     vertex  4.641016e-01  1.366025e+00  1.698730e-01
     vertex  4.641016e-01 -2.220446e-16  1.698730e-01
     vertex  4.643890e-01 -2.220446e-16  1.599957e-01
   endloop
 endfacet
 facet normal  9.995770e-01 -3.352830e-17  2.908472e-02
   outer loop
     vertex  4.643890e-01  1.366025e+00  1.599957e-01
     vertex  4.641016e-01  1.366025e+00  1.698730e-01
     vertex  4.643890e-01 -2.220446e-16  1.599957e-01
   endloop
 endfacet
 facet normal  9.961947e-01 -1.923187e-17  8.715574e-02
   outer loop
     vertex  4.643890e-01  1.366025e+00  1.599957e-01
     vertex  4.643890e-01 -2.220446e-16  1.599957e-01
     vertex  4.652502e-01 -2.220446e-16  1.501519e-01
   endloop
 endfacet
 facet normal  9.961947e-01  1.593786e-17  8.715574e-02
   outer loop
     vertex  4.652502e-01  1.366025e+00  1.501519e-01
     vertex  4.643890e-01  1.366025e+00  1.599957e-01
     vertex  4.652502e-01 -2.220446e-16  1.501519e-01
   endloop
 endfacet
 facet normal  9.894416e-01  2.650317e-17  1.449319e-01
   outer loop
     vertex  4.652502e-01  1.366025e+00  1.501519e-01
     vertex  4.652502e-01 -2.220446e-16  1.501519e-01
     vertex  4.666824e-01 -2.220446e-16  1.403748e-01
   endloop
 endfacet
 facet normal  9.793406e-01  2.465254e-17  2.022176e-01
   outer loop
     vertex  4.666824e-01  1.366025e+00  1.403748e-01
     vertex  4.666824e-01 -2.220446e-16  1.403748e-01
     vertex  4.686806e-01 -2.220446e-16  1.306976e-01
   endloop
 endfacet
 facet normal  9.894416e-01  1.766878e-17  1.449319e-01
   outer loop
     vertex  4.666824e-01  1.366025e+00  1.403748e-01
     vertex  4.652502e-01  1.366025e+00  1.501519e-01
     vertex  4.666824e-01 -2.220446e-16  1.403748e-01
   endloop
 endfacet
 facet normal  9.659258e-01  2.103525e-17  2.588190e-01
   outer loop
     vertex  4.686806e-01  1.366025e+00  1.306976e-01
     vertex  4.686806e-01 -2.220446e-16  1.306976e-01
     vertex  4.712381e-01 -2.220446e-16  1.211529e-01
   endloop
 endfacet
 facet normal  9.793406e-01  1.643502e-17  2.022176e-01
   outer loop
     vertex  4.686806e-01  1.366025e+00  1.306976e-01
     vertex  4.666824e-01  1.366025e+00  1.403748e-01
     vertex  4.686806e-01 -2.220446e-16  1.306976e-01
   endloop
 endfacet
 facet normal  9.492426e-01 -3.218328e-17  3.145448e-01
   outer loop
     vertex  4.712381e-01  1.366025e+00  1.211529e-01
     vertex  4.712381e-01 -2.220446e-16  1.211529e-01
     vertex  4.743462e-01 -2.220446e-16  1.117730e-01
   endloop
 endfacet
 facet normal  9.659258e-01 -3.399350e-17  2.588190e-01
   outer loop
     vertex  4.712381e-01  1.366025e+00  1.211529e-01
     vertex  4.686806e-01  1.366025e+00  1.306976e-01
     vertex  4.712381e-01 -2.220446e-16  1.211529e-01
   endloop
 endfacet
 facet normal  9.492426e-01 -1.278215e-17  3.145448e-01
   outer loop
     vertex  4.743462e-01  1.366025e+00  1.117730e-01
     vertex  4.712381e-01  1.366025e+00  1.211529e-01
     vertex  4.743462e-01 -2.220446e-16  1.117730e-01
   endloop
 endfacet
 facet normal  9.293475e-01  1.150989e-17  3.692061e-01
   outer loop
     vertex  4.779945e-01  1.366025e+00  1.025897e-01
     vertex  4.743462e-01 -2.220446e-16  1.117730e-01
     vertex  4.779945e-01 -2.220446e-16  1.025897e-01
   endloop
 endfacet
 facet normal  9.293475e-01 -1.506030e-17  3.692061e-01
   outer loop
     vertex  4.779945e-01  1.366025e+00  1.025897e-01
     vertex  4.743462e-01  1.366025e+00  1.117730e-01
     vertex  4.743462e-01 -2.220446e-16  1.117730e-01
   endloop
 endfacet
 facet normal  9.063078e-01  2.213743e-17  4.226183e-01
   outer loop
     vertex  4.821706e-01  1.366025e+00  9.363413e-02
     vertex  4.779945e-01 -2.220446e-16  1.025897e-01
     vertex  4.821706e-01 -2.220446e-16  9.363413e-02
   endloop
 endfacet
 facet normal  9.063078e-01  7.028140e-18  4.226183e-01
   outer loop
     vertex  4.821706e-01  1.366025e+00  9.363413e-02
     vertex  4.779945e-01  1.366025e+00  1.025897e-01
     vertex  4.779945e-01 -2.220446e-16  1.025897e-01
   endloop
 endfacet
 facet normal  8.802014e-01 -1.042943e-17  4.746004e-01
   outer loop
     vertex  4.868603e-01  1.366025e+00  8.493649e-02
     vertex  4.821706e-01 -2.220446e-16  9.363413e-02
     vertex  4.868603e-01 -2.220446e-16  8.493649e-02
   endloop
 endfacet
 facet normal  8.802014e-01  1.355427e-17  4.746004e-01
   outer loop
     vertex  4.868603e-01  1.366025e+00  8.493649e-02
     vertex  4.821706e-01  1.366025e+00  9.363413e-02
     vertex  4.821706e-01 -2.220446e-16  9.363413e-02
   endloop
 endfacet
 facet normal  8.511167e-01 -2.906881e-18  5.249766e-01
   outer loop
     vertex  4.920478e-01  1.366025e+00  7.652625e-02
     vertex  4.868603e-01 -2.220446e-16  8.493649e-02
     vertex  4.920478e-01 -2.220446e-16  7.652625e-02
   endloop
 endfacet
 facet normal  8.511167e-01 -2.158643e-17  5.249766e-01
   outer loop
     vertex  4.920478e-01  1.366025e+00  7.652625e-02
     vertex  4.868603e-01  1.366025e+00  8.493649e-02
     vertex  4.868603e-01 -2.220446e-16  8.493649e-02
   endloop
 endfacet
 facet normal  8.191520e-01 -1.252613e-17  5.735764e-01
   outer loop
     vertex  4.977155e-01  1.366025e+00  6.843187e-02
     vertex  4.920478e-01 -2.220446e-16  7.652625e-02
     vertex  4.977155e-01 -2.220446e-16  6.843187e-02
   endloop
 endfacet
 facet normal  8.191520e-01 -1.656633e-17  5.735764e-01
   outer loop
     vertex  4.977155e-01  1.366025e+00  6.843187e-02
     vertex  4.920478e-01  1.366025e+00  7.652625e-02
     vertex  4.920478e-01 -2.220446e-16  7.652625e-02
   endloop
 endfacet
 facet normal  7.844157e-01  2.112735e-17  6.202355e-01
   outer loop
     vertex  5.038443e-01  1.366025e+00  6.068073e-02
     vertex  4.977155e-01 -2.220446e-16  6.843187e-02
     vertex  5.038443e-01 -2.220446e-16  6.068073e-02
   endloop
 endfacet
 facet normal  7.844157e-01 -3.012060e-17  6.202355e-01
   outer loop
     vertex  5.038443e-01  1.366025e+00  6.068073e-02
     vertex  4.977155e-01  1.366025e+00  6.843187e-02
     vertex  4.977155e-01 -2.220446e-16  6.843187e-02
   endloop
 endfacet
 facet normal  7.470251e-01 -2.047367e-17  6.647959e-01
   outer loop
     vertex  5.104135e-01  1.366025e+00  5.329907e-02
     vertex  5.038443e-01 -2.220446e-16  6.068073e-02
     vertex  5.104135e-01 -2.220446e-16  5.329907e-02
   endloop
 endfacet
 facet normal  7.470251e-01  0.000000e+00  6.647959e-01
   outer loop
     vertex  5.104135e-01  1.366025e+00  5.329907e-02
     vertex  5.038443e-01  1.366025e+00  6.068073e-02
     vertex  5.038443e-01 -2.220446e-16  6.068073e-02
   endloop
 endfacet
 facet normal  7.071068e-01 -7.183672e-18  7.071068e-01
   outer loop
     vertex  5.174007e-01  1.366025e+00  4.631185e-02
     vertex  5.104135e-01 -2.220446e-16  5.329907e-02
     vertex  5.174007e-01 -2.220446e-16  4.631185e-02
   endloop
 endfacet
 facet normal  7.071068e-01 -4.317286e-17  7.071068e-01
   outer loop
     vertex  5.174007e-01  1.366025e+00  4.631185e-02
     vertex  5.104135e-01  1.366025e+00  5.329907e-02
     vertex  5.104135e-01 -2.220446e-16  5.329907e-02
   endloop
 endfacet
 facet normal  6.647959e-01  5.765507e-17  7.470251e-01
   outer loop
     vertex  5.247823e-01  1.366025e+00  3.974273e-02
     vertex  5.174007e-01 -2.220446e-16  4.631185e-02
     vertex  5.247823e-01 -2.220446e-16  3.974273e-02
   endloop
 endfacet
 facet normal  6.647959e-01 -3.413668e-17  7.470251e-01
   outer loop
     vertex  5.247823e-01  1.366025e+00  3.974273e-02
     vertex  5.174007e-01  1.366025e+00  4.631185e-02
     vertex  5.174007e-01 -2.220446e-16  4.631185e-02
   endloop
 endfacet
 facet normal  6.202355e-01  1.297285e-17  7.844157e-01
   outer loop
     vertex  5.325335e-01  1.366025e+00  3.361392e-02
     vertex  5.247823e-01 -2.220446e-16  3.974273e-02
     vertex  5.325335e-01 -2.220446e-16  3.361392e-02
   endloop
 endfacet
 facet normal  6.202355e-01  2.861457e-17  7.844157e-01
   outer loop
     vertex  5.325335e-01  1.366025e+00  3.361392e-02
     vertex  5.247823e-01  1.366025e+00  3.974273e-02
     vertex  5.247823e-01 -2.220446e-16  3.974273e-02
   endloop
 endfacet
 facet normal  5.735764e-01  1.671302e-17  8.191520e-01
   outer loop
     vertex  5.406279e-01  1.366025e+00  2.794618e-02
     vertex  5.325335e-01 -2.220446e-16  3.361392e-02
     vertex  5.406279e-01 -2.220446e-16  2.794618e-02
   endloop
 endfacet
 facet normal  5.735764e-01 -1.706834e-17  8.191520e-01
   outer loop
     vertex  5.406279e-01  1.366025e+00  2.794618e-02
     vertex  5.325335e-01  1.366025e+00  3.361392e-02
     vertex  5.325335e-01 -2.220446e-16  3.361392e-02
   endloop
 endfacet
 facet normal  5.249766e-01 -1.147965e-17  8.511167e-01
   outer loop
     vertex  5.490381e-01  1.366025e+00  2.275866e-02
     vertex  5.406279e-01 -2.220446e-16  2.794618e-02
     vertex  5.490381e-01 -2.220446e-16  2.275866e-02
   endloop
 endfacet
 facet normal  5.249766e-01 -1.154623e-17  8.511167e-01
   outer loop
     vertex  5.490381e-01  1.366025e+00  2.275866e-02
     vertex  5.406279e-01  1.366025e+00  2.794618e-02
     vertex  5.406279e-01 -2.220446e-16  2.794618e-02
   endloop
 endfacet
 facet normal  4.746004e-01  5.259228e-17  8.802014e-01
   outer loop
     vertex  5.577357e-01  1.366025e+00  1.806894e-02
     vertex  5.490381e-01 -2.220446e-16  2.275866e-02
     vertex  5.577357e-01 -2.220446e-16  1.806894e-02
   endloop
 endfacet
 facet normal  4.746004e-01 -3.965879e-17  8.802014e-01
   outer loop
     vertex  5.577357e-01  1.366025e+00  1.806894e-02
     vertex  5.490381e-01  1.366025e+00  2.275866e-02
     vertex  5.490381e-01 -2.220446e-16  2.275866e-02
   endloop
 endfacet
 facet normal  4.226183e-01  6.006048e-18  9.063078e-01
   outer loop
     vertex  5.666913e-01  1.366025e+00  1.389287e-02
     vertex  5.577357e-01 -2.220446e-16  1.806894e-02
     vertex  5.666913e-01 -2.220446e-16  1.389287e-02
   endloop
 endfacet
 facet normal  4.226183e-01  2.208844e-17  9.063078e-01
   outer loop
     vertex  5.666913e-01  1.366025e+00  1.389287e-02
     vertex  5.577357e-01  1.366025e+00  1.806894e-02
     vertex  5.577357e-01 -2.220446e-16  1.806894e-02
   endloop
 endfacet
 facet normal  3.692061e-01 -1.029279e-18  9.293475e-01
   outer loop
     vertex  5.758746e-01  1.366025e+00  1.024459e-02
     vertex  5.666913e-01 -2.220446e-16  1.389287e-02
     vertex  5.758746e-01 -2.220446e-16  1.024459e-02
   endloop
 endfacet
 facet normal  3.692061e-01 -2.008040e-17  9.293475e-01
   outer loop
     vertex  5.758746e-01  1.366025e+00  1.024459e-02
     vertex  5.666913e-01  1.366025e+00  1.389287e-02
     vertex  5.666913e-01 -2.220446e-16  1.389287e-02
   endloop
 endfacet
 facet normal  3.145448e-01  5.821306e-18  9.492426e-01
   outer loop
     vertex  5.852545e-01  1.366025e+00  7.136447e-03
     vertex  5.758746e-01 -2.220446e-16  1.024459e-02
     vertex  5.852545e-01 -2.220446e-16  7.136447e-03
   endloop
 endfacet
 facet normal  3.145448e-01 -2.660653e-17  9.492426e-01
   outer loop
     vertex  5.852545e-01  1.366025e+00  7.136447e-03
     vertex  5.758746e-01  1.366025e+00  1.024459e-02
     vertex  5.758746e-01 -2.220446e-16  1.024459e-02
   endloop
 endfacet
 facet normal  2.588190e-01 -1.405628e-17  9.659258e-01
   outer loop
     vertex  5.947992e-01  1.366025e+00  4.578948e-03
     vertex  5.852545e-01  1.366025e+00  7.136447e-03
     vertex  5.852545e-01 -2.220446e-16  7.136447e-03
   endloop
 endfacet
 facet normal  2.588190e-01  5.636378e-18  9.659258e-01
   outer loop
     vertex  5.947992e-01  1.366025e+00  4.578948e-03
     vertex  5.852545e-01 -2.220446e-16  7.136447e-03
     vertex  5.947992e-01 -2.220446e-16  4.578948e-03
   endloop
 endfacet
 facet normal  2.022176e-01 -1.380527e-17  9.793406e-01
   outer loop
     vertex  6.044765e-01  1.366025e+00  2.580752e-03
     vertex  5.947992e-01  1.366025e+00  4.578948e-03
     vertex  5.947992e-01 -2.220446e-16  4.578948e-03
   endloop
 endfacet
 facet normal  2.022176e-01  6.043924e-18  9.793406e-01
   outer loop
     vertex  6.044765e-01  1.366025e+00  2.580752e-03
     vertex  5.947992e-01 -2.220446e-16  4.578948e-03
     vertex  6.044765e-01 -2.220446e-16  2.580752e-03
   endloop
 endfacet
 facet normal  8.715574e-02 -1.214838e-17  9.961947e-01
   outer loop
     vertex  6.142535e-01  1.366025e+00  1.148620e-03
     vertex  6.142535e-01 -2.220446e-16  1.148620e-03
     vertex  6.240974e-01 -2.220446e-16  2.873982e-04
   endloop
 endfacet
 facet normal  1.449319e-01  6.908825e-18  9.894416e-01
   outer loop
     vertex  6.142535e-01  1.366025e+00  1.148620e-03
     vertex  6.044765e-01 -2.220446e-16  2.580752e-03
     vertex  6.142535e-01 -2.220446e-16  1.148620e-03
   endloop
 endfacet
 facet normal  1.449319e-01 -1.317776e-17  9.894416e-01
   outer loop
     vertex  6.142535e-01  1.366025e+00  1.148620e-03
     vertex  6.044765e-01  1.366025e+00  2.580752e-03
     vertex  6.044765e-01 -2.220446e-16  2.580752e-03
   endloop
 endfacet
 facet normal  2.908472e-02 -1.321840e-17  9.995770e-01
   outer loop
     vertex  6.240974e-01  1.366025e+00  2.873982e-04
     vertex  6.240974e-01 -2.220446e-16  2.873982e-04
     vertex  6.339746e-01 -2.220446e-16  0.000000e+00
   endloop
 endfacet
 facet normal  8.715574e-02  1.009305e-18  9.961947e-01
   outer loop
     vertex  6.240974e-01  1.366025e+00  2.873982e-04
     vertex  6.142535e-01  1.366025e+00  1.148620e-03
     vertex  6.240974e-01 -2.220446e-16  2.873982e-04
   endloop
 endfacet
 facet normal  2.908472e-02  0.000000e+00  9.995770e-01
   outer loop
     vertex  6.339746e-01  1.366025e+00  0.000000e+00
     vertex  6.240974e-01  1.366025e+00  2.873982e-04
     vertex  6.339746e-01 -2.220446e-16  0.000000e+00
   endloop
 endfacet
 facet normal  0.000000e+00 -1.000000e+00 -0.000000e+00
   outer loop
     vertex  5.104135e-01 -2.220446e-16  5.329907e-02
     vertex  3.397460e-01 -2.220446e-16  0.000000e+00
     vertex  5.174007e-01 -2.220446e-16  4.631185e-02
   endloop
 endfacet
 facet normal -0.000000e+00 -1.000000e+00  0.000000e+00
   outer loop
     vertex  5.247823e-01 -2.220446e-16  3.974273e-02
     vertex  5.174007e-01 -2.220446e-16  4.631185e-02
     vertex  3.397460e-01 -2.220446e-16  0.000000e+00
   endloop
 endfacet
 facet normal  0.000000e+00 -1.000000e+00 -0.000000e+00
   outer loop
     vertex  5.038443e-01 -2.220446e-16  6.068073e-02
     vertex  3.397460e-01 -2.220446e-16  0.000000e+00
     vertex  5.104135e-01 -2.220446e-16  5.329907e-02
   endloop
 endfacet
 facet normal -0.000000e+00 -1.000000e+00  0.000000e+00
   outer loop
     vertex  5.325335e-01 -2.220446e-16  3.361392e-02
     vertex  5.247823e-01 -2.220446e-16  3.974273e-02
     vertex  3.397460e-01 -2.220446e-16  0.000000e+00
   endloop
 endfacet
 facet normal  0.000000e+00 -1.000000e+00 -0.000000e+00
   outer loop
     vertex  4.977155e-01 -2.220446e-16  6.843187e-02
     vertex  3.397460e-01 -2.220446e-16  0.000000e+00
     vertex  5.038443e-01 -2.220446e-16  6.068073e-02
   endloop
 endfacet
 facet normal -0.000000e+00 -1.000000e+00  0.000000e+00
   outer loop
     vertex  5.406279e-01 -2.220446e-16  2.794618e-02
     vertex  5.325335e-01 -2.220446e-16  3.361392e-02
     vertex  3.397460e-01 -2.220446e-16  0.000000e+00
   endloop
 endfacet
 facet normal  0.000000e+00 -1.000000e+00 -0.000000e+00
   outer loop
     vertex  4.920478e-01 -2.220446e-16  7.652625e-02
     vertex  3.397460e-01 -2.220446e-16  0.000000e+00
     vertex  4.977155e-01 -2.220446e-16  6.843187e-02
   endloop
 endfacet
 facet normal -0.000000e+00 -1.000000e+00  0.000000e+00
   outer loop
     vertex  5.490381e-01 -2.220446e-16  2.275866e-02
     vertex  5.406279e-01 -2.220446e-16  2.794618e-02
     vertex  3.397460e-01 -2.220446e-16  0.000000e+00
   endloop
 endfacet
 facet normal  0.000000e+00 -1.000000e+00 -0.000000e+00
   outer loop
     vertex  4.868603e-01 -2.220446e-16  8.493649e-02
     vertex  3.397460e-01 -2.220446e-16  0.000000e+00
     vertex  4.920478e-01 -2.220446e-16  7.652625e-02
   endloop
 endfacet
 facet normal -0.000000e+00 -1.000000e+00  0.000000e+00
   outer loop
     vertex  5.577357e-01 -2.220446e-16  1.806894e-02
     vertex  5.490381e-01 -2.220446e-16  2.275866e-02
     vertex  3.397460e-01 -2.220446e-16  0.000000e+00
   endloop
 endfacet
 facet normal  0.000000e+00 -1.000000e+00 -0.000000e+00
   outer loop
     vertex  4.821706e-01 -2.220446e-16  9.363413e-02
     vertex  3.397460e-01 -2.220446e-16  0.000000e+00
     vertex  4.868603e-01 -2.220446e-16  8.493649e-02
   endloop
 endfacet
 facet normal -0.000000e+00 -1.000000e+00  0.000000e+00
   outer loop
     vertex  5.666913e-01 -2.220446e-16  1.389287e-02
     vertex  5.577357e-01 -2.220446e-16  1.806894e-02
     vertex  3.397460e-01 -2.220446e-16  0.000000e+00
   endloop
 endfacet
 facet normal  0.000000e+00 -1.000000e+00 -0.000000e+00
   outer loop
     vertex  4.779945e-01 -2.220446e-16  1.025897e-01
     vertex  3.397460e-01 -2.220446e-16  0.000000e+00
     vertex  4.821706e-01 -2.220446e-16  9.363413e-02
   endloop
 endfacet
 facet normal -0.000000e+00 -1.000000e+00  0.000000e+00
   outer loop
     vertex  5.758746e-01 -2.220446e-16  1.024459e-02
     vertex  5.666913e-01 -2.220446e-16  1.389287e-02
     vertex  3.397460e-01 -2.220446e-16  0.000000e+00
   endloop
 endfacet
 facet normal  0.000000e+00 -1.000000e+00 -0.000000e+00
   outer loop
     vertex  4.743462e-01 -2.220446e-16  1.117730e-01
     vertex  3.397460e-01 -2.220446e-16  0.000000e+00
     vertex  4.779945e-01 -2.220446e-16  1.025897e-01
   endloop
 endfacet
 facet normal -0.000000e+00 -1.000000e+00  0.000000e+00
   outer loop
     vertex  5.852545e-01 -2.220446e-16  7.136447e-03
     vertex  5.758746e-01 -2.220446e-16  1.024459e-02
     vertex  3.397460e-01 -2.220446e-16  0.000000e+00
   endloop
 endfacet
 facet normal  0.000000e+00 -1.000000e+00 -0.000000e+00
   outer loop
     vertex  4.712381e-01 -2.220446e-16  1.211529e-01
     vertex  3.397460e-01 -2.220446e-16  0.000000e+00
     vertex  4.743462e-01 -2.220446e-16  1.117730e-01
   endloop
 endfacet
 facet normal  0.000000e+00 -1.000000e+00 -0.000000e+00
   outer loop
     vertex  4.686806e-01 -2.220446e-16  1.306976e-01
     vertex  3.397460e-01 -2.220446e-16  0.000000e+00
     vertex  4.712381e-01 -2.220446e-16  1.211529e-01
   endloop
 endfacet
 facet normal  0.000000e+00 -1.000000e+00 -0.000000e+00
   outer loop
     vertex  4.666824e-01 -2.220446e-16  1.403748e-01
     vertex  3.397460e-01 -2.220446e-16  0.000000e+00
     vertex  4.686806e-01 -2.220446e-16  1.306976e-01
   endloop
 endfacet
 facet normal  0.000000e+00 -1.000000e+00 -0.000000e+00
   outer loop
     vertex  4.652502e-01 -2.220446e-16  1.501519e-01
     vertex  3.397460e-01 -2.220446e-16  0.000000e+00
     vertex  4.666824e-01 -2.220446e-16  1.403748e-01
   endloop
 endfacet
 facet normal  0.000000e+00 -1.000000e+00 -0.000000e+00
   outer loop
     vertex  4.643890e-01 -2.220446e-16  1.599957e-01
     vertex  3.397460e-01 -2.220446e-16  0.000000e+00
     vertex  4.652502e-01 -2.220446e-16  1.501519e-01
   endloop
 endfacet
 facet normal  0.000000e+00 -1.000000e+00 -0.000000e+00
   outer loop
     vertex  4.641016e-01 -2.220446e-16  1.698730e-01
     vertex  3.397460e-01 -2.220446e-16  0.000000e+00
     vertex  4.643890e-01 -2.220446e-16  1.599957e-01
   endloop
 endfacet
 facet normal  0.000000e+00 -1.000000e+00  0.000000e+00
   outer loop
     vertex  4.643890e-01 -2.220446e-16  1.797502e-01
     vertex  3.397460e-01 -2.220446e-16  0.000000e+00
     vertex  4.641016e-01 -2.220446e-16  1.698730e-01
   endloop
 endfacet
 facet normal  0.000000e+00 -1.000000e+00  0.000000e+00
   outer loop
     vertex  4.652502e-01 -2.220446e-16  1.895940e-01
     vertex  3.397460e-01 -2.220446e-16  0.000000e+00
     vertex  4.643890e-01 -2.220446e-16  1.797502e-01
   endloop
 endfacet
 facet normal  0.000000e+00 -1.000000e+00  0.000000e+00
   outer loop
     vertex  4.666824e-01 -2.220446e-16  1.993711e-01
     vertex  3.397460e-01 -2.220446e-16  0.000000e+00
     vertex  4.652502e-01 -2.220446e-16  1.895940e-01
   endloop
 endfacet
 facet normal  0.000000e+00 -1.000000e+00  0.000000e+00
   outer loop
     vertex  4.686806e-01 -2.220446e-16  2.090484e-01
     vertex  3.397460e-01 -2.220446e-16  0.000000e+00
     vertex  4.666824e-01 -2.220446e-16  1.993711e-01
   endloop
 endfacet
 facet normal  0.000000e+00 -1.000000e+00  0.000000e+00
   outer loop
     vertex  4.712381e-01 -2.220446e-16  2.185931e-01
     vertex  3.397460e-01 -2.220446e-16  0.000000e+00
     vertex  4.686806e-01 -2.220446e-16  2.090484e-01
   endloop
 endfacet
 facet normal  0.000000e+00 -1.000000e+00  0.000000e+00
   outer loop
     vertex  3.397460e-01 -2.220446e-16  0.000000e+00
     vertex  4.821706e-01 -2.220446e-16  2.461118e-01
     vertex  4.868603e-01 -2.220446e-16  2.548095e-01
   endloop
 endfacet
 facet normal  0.000000e+00 -1.000000e+00  0.000000e+00
   outer loop
     vertex  3.397460e-01 -2.220446e-16  0.000000e+00
     vertex  4.779945e-01 -2.220446e-16  2.371562e-01
     vertex  4.821706e-01 -2.220446e-16  2.461118e-01
   endloop
 endfacet
 facet normal  0.000000e+00 -1.000000e+00  0.000000e+00
   outer loop
     vertex  3.397460e-01 -2.220446e-16  0.000000e+00
     vertex  4.743462e-01 -2.220446e-16  2.279730e-01
     vertex  4.779945e-01 -2.220446e-16  2.371562e-01
   endloop
 endfacet
 facet normal  0.000000e+00 -1.000000e+00  0.000000e+00
   outer loop
     vertex  3.397460e-01 -2.220446e-16  0.000000e+00
     vertex  4.712381e-01 -2.220446e-16  2.185931e-01
     vertex  4.743462e-01 -2.220446e-16  2.279730e-01
   endloop
 endfacet
 facet normal  0.000000e+00 -1.000000e+00  0.000000e+00
   outer loop
     vertex  6.339746e-01 -2.220446e-16  0.000000e+00
     vertex  6.240974e-01 -2.220446e-16  2.873982e-04
     vertex  3.397460e-01 -2.220446e-16  0.000000e+00
   endloop
 endfacet
 facet normal -0.000000e+00 -1.000000e+00  0.000000e+00
   outer loop
     vertex  6.240974e-01 -2.220446e-16  2.873982e-04
     vertex  6.142535e-01 -2.220446e-16  1.148620e-03
     vertex  3.397460e-01 -2.220446e-16  0.000000e+00
   endloop
 endfacet
 facet normal -0.000000e+00 -1.000000e+00  0.000000e+00
   outer loop
     vertex  6.142535e-01 -2.220446e-16  1.148620e-03
     vertex  6.044765e-01 -2.220446e-16  2.580752e-03
     vertex  3.397460e-01 -2.220446e-16  0.000000e+00
   endloop
 endfacet
 facet normal -0.000000e+00 -1.000000e+00  0.000000e+00
   outer loop
     vertex  6.044765e-01 -2.220446e-16  2.580752e-03
     vertex  5.947992e-01 -2.220446e-16  4.578948e-03
     vertex  3.397460e-01 -2.220446e-16  0.000000e+00
   endloop
 endfacet
 facet normal -0.000000e+00 -1.000000e+00  0.000000e+00
   outer loop
     vertex  5.947992e-01 -2.220446e-16  4.578948e-03
     vertex  5.852545e-01 -2.220446e-16  7.136447e-03
     vertex  3.397460e-01 -2.220446e-16  0.000000e+00
   endloop
 endfacet
endsolid
