solid 
 facet normal  9.659258e-01  0.000000e+00  2.588190e-01
   outer loop
     vertex  1.205771e+00 -2.220446e-16  1.500000e+00
     vertex  0.000000e+00 -2.220446e-16  6.000000e+00
     vertex  0.000000e+00 -1.366025e+00  6.000000e+00
   endloop
 endfacet
 facet normal  9.659258e-01  0.000000e+00  2.588190e-01
   outer loop
     vertex  1.205771e+00 -2.220446e-16  1.500000e+00
     vertex  0.000000e+00 -1.366025e+00  6.000000e+00
     vertex  1.205771e+00 -1.366025e+00  1.500000e+00
   endloop
 endfacet
 facet normal -9.659258e-01  0.000000e+00  2.588190e-01
   outer loop
     vertex  0.000000e+00 -2.220446e-16  6.000000e+00
     vertex -8.038476e-01 -2.220446e-16  3.000000e+00
     vertex -8.038476e-01 -1.366025e+00  3.000000e+00
   endloop
 endfacet
 facet normal -9.659258e-01  0.000000e+00  2.588190e-01
   outer loop
     vertex  0.000000e+00 -2.220446e-16  6.000000e+00
     vertex -8.038476e-01 -1.366025e+00  3.000000e+00
     vertex  0.000000e+00 -1.366025e+00  6.000000e+00
   endloop
 endfacet
 facet normal  0.000000e+00  1.000000e+00  0.000000e+00
   outer loop
     vertex  3.397460e-01 -2.220446e-16  0.000000e+00
     vertex -1.267949e+00 -2.220446e-16  0.000000e+00
     vertex -1.218911e+00 -2.220446e-16  8.493649e-02
   endloop
 endfacet
 facet normal  0.000000e+00  1.000000e+00  0.000000e+00
   outer loop
     vertex -4.019238e-01 -2.220446e-16  1.500000e+00
     vertex  4.868603e-01 -2.220446e-16  2.548095e-01
     vertex  3.397460e-01 -2.220446e-16  0.000000e+00
   endloop
 endfacet
 facet normal  0.000000e+00  1.000000e+00  0.000000e+00
   outer loop
     vertex -4.019238e-01 -2.220446e-16  1.500000e+00
     vertex  3.397460e-01 -2.220446e-16  0.000000e+00
     vertex -1.218911e+00 -2.220446e-16  8.493649e-02
   endloop
 endfacet
 facet normal  0.000000e+00  1.000000e+00  0.000000e+00
   outer loop
     vertex  1.205771e+00 -2.220446e-16  1.500000e+00
     vertex -4.019238e-01 -2.220446e-16  1.500000e+00
     vertex -8.038476e-01 -2.220446e-16  3.000000e+00
   endloop
 endfacet
 facet normal  0.000000e+00  1.000000e+00  0.000000e+00
   outer loop
     vertex  1.205771e+00 -2.220446e-16  1.500000e+00
     vertex  4.868603e-01 -2.220446e-16  2.548095e-01
     vertex -4.019238e-01 -2.220446e-16  1.500000e+00
   endloop
 endfacet
 facet normal  0.000000e+00  1.000000e+00  0.000000e+00
   outer loop
     vertex  0.000000e+00 -2.220446e-16  6.000000e+00
     vertex  1.205771e+00 -2.220446e-16  1.500000e+00
     vertex -8.038476e-01 -2.220446e-16  3.000000e+00
   endloop
 endfacet
 facet normal  8.660254e-01  0.000000e+00 -5.000000e-01
   outer loop
     vertex  4.868603e-01 -2.220446e-16  2.548095e-01
     vertex  1.205771e+00 -2.220446e-16  1.500000e+00
     vertex  1.205771e+00 -1.366025e+00  1.500000e+00
   endloop
 endfacet
 facet normal  8.660254e-01  0.000000e+00 -5.000000e-01
   outer loop
     vertex  4.868603e-01 -2.220446e-16  2.548095e-01
     vertex  1.205771e+00 -1.366025e+00  1.500000e+00
     vertex  4.868603e-01 -1.366025e+00  2.548095e-01
   endloop
 endfacet
 facet normal  0.000000e+00 -1.000000e+00  0.000000e+00
   outer loop
     vertex  3.397460e-01 -1.366025e+00  0.000000e+00
     vertex -1.218911e+00 -1.366025e+00  8.493649e-02
     vertex -1.267949e+00 -1.366025e+00  0.000000e+00
   endloop
 endfacet
 facet normal  0.000000e+00 -1.000000e+00  0.000000e+00
   outer loop
     vertex -4.019238e-01 -1.366025e+00  1.500000e+00
     vertex  3.397460e-01 -1.366025e+00  0.000000e+00
     vertex  4.868603e-01 -1.366025e+00  2.548095e-01
   endloop
 endfacet
 facet normal  0.000000e+00 -1.000000e+00 -0.000000e+00
   outer loop
     vertex -4.019238e-01 -1.366025e+00  1.500000e+00
     vertex -1.218911e+00 -1.366025e+00  8.493649e-02
     vertex  3.397460e-01 -1.366025e+00  0.000000e+00
   endloop
 endfacet
 facet normal  0.000000e+00 -1.000000e+00  0.000000e+00
   outer loop
     vertex  1.205771e+00 -1.366025e+00  1.500000e+00
     vertex -8.038476e-01 -1.366025e+00  3.000000e+00
     vertex -4.019238e-01 -1.366025e+00  1.500000e+00
   endloop
 endfacet
 facet normal -0.000000e+00 -1.000000e+00  0.000000e+00
   outer loop
     vertex  1.205771e+00 -1.366025e+00  1.500000e+00
     vertex -4.019238e-01 -1.366025e+00  1.500000e+00
     vertex  4.868603e-01 -1.366025e+00  2.548095e-01
   endloop
 endfacet
 facet normal  0.000000e+00 -1.000000e+00 -0.000000e+00
   outer loop
     vertex  0.000000e+00 -1.366025e+00  6.000000e+00
     vertex -8.038476e-01 -1.366025e+00  3.000000e+00
     vertex  1.205771e+00 -1.366025e+00  1.500000e+00
   endloop
 endfacet
 facet normal -9.659258e-01  0.000000e+00 -2.588190e-01
   outer loop
     vertex -8.038476e-01 -2.220446e-16  3.000000e+00
     vertex -4.019238e-01 -2.220446e-16  1.500000e+00
     vertex -4.019238e-01 -1.366025e+00  1.500000e+00
   endloop
 endfacet
 facet normal -9.659258e-01 -0.000000e+00 -2.588190e-01
   outer loop
     vertex -8.038476e-01 -2.220446e-16  3.000000e+00
     vertex -4.019238e-01 -1.366025e+00  1.500000e+00
     vertex -8.038476e-01 -1.366025e+00  3.000000e+00
   endloop
 endfacet
 facet normal -8.660254e-01  0.000000e+00  5.000000e-01
   outer loop
     vertex -4.019238e-01 -2.220446e-16  1.500000e+00
     vertex -1.218911e+00 -2.220446e-16  8.493649e-02
     vertex -1.218911e+00 -1.366025e+00  8.493649e-02
   endloop
 endfacet
 facet normal -8.660254e-01  0.000000e+00  5.000000e-01
   outer loop
     vertex -4.019238e-01 -2.220446e-16  1.500000e+00
     vertex -1.218911e+00 -1.366025e+00  8.493649e-02
     vertex -4.019238e-01 -1.366025e+00  1.500000e+00
   endloop
 endfacet
 facet normal -8.660254e-01  0.000000e+00  5.000000e-01
   outer loop
     vertex -1.218911e+00 -2.220446e-16  8.493649e-02
     vertex -1.267949e+00 -2.220446e-16  0.000000e+00
     vertex -1.267949e+00 -1.366025e+00  0.000000e+00
   endloop
 endfacet
 facet normal -8.660254e-01  0.000000e+00  5.000000e-01
   outer loop
     vertex -1.218911e+00 -2.220446e-16  8.493649e-02
     vertex -1.267949e+00 -1.366025e+00  0.000000e+00
     vertex -1.218911e+00 -1.366025e+00  8.493649e-02
   endloop
 endfacet
 facet normal  0.000000e+00  0.000000e+00 -1.000000e+00
   outer loop
     vertex -1.267949e+00 -2.220446e-16  0.000000e+00
     vertex  3.397460e-01 -2.220446e-16  0.000000e+00
     vertex  3.397460e-01 -1.366025e+00  0.000000e+00
   endloop
 endfacet
 facet normal  0.000000e+00  0.000000e+00 -1.000000e+00
   outer loop
     vertex -1.267949e+00 -2.220446e-16  0.000000e+00
     vertex  3.397460e-01 -1.366025e+00  0.000000e+00
     vertex -1.267949e+00 -1.366025e+00  0.000000e+00
   endloop
 endfacet
 facet normal  8.660254e-01  0.000000e+00 -5.000000e-01
   outer loop
     vertex  3.397460e-01 -2.220446e-16  0.000000e+00
     vertex  4.868603e-01 -2.220446e-16  2.548095e-01
     vertex  4.868603e-01 -1.366025e+00  2.548095e-01
   endloop
 endfacet
 facet normal  8.660254e-01  0.000000e+00 -5.000000e-01
   outer loop
     vertex  3.397460e-01 -2.220446e-16  0.000000e+00
     vertex  4.868603e-01 -1.366025e+00  2.548095e-01
     vertex  3.397460e-01 -1.366025e+00  0.000000e+00
   endloop
 endfacet
 facet normal -0.000000e+00 -1.000000e+00  0.000000e+00
   outer loop
     vertex -1.267949e+00 -1.366025e+00  0.000000e+00
     vertex -1.366025e+00 -1.366025e+00  0.000000e+00
     vertex -1.366025e+00 -1.366025e+00 -2.000000e+00
   endloop
 endfacet
 facet normal  0.000000e+00 -1.000000e+00 -0.000000e+00
   outer loop
     vertex  3.397460e-01 -1.366025e+00  0.000000e+00
     vertex -1.366025e+00 -1.366025e+00 -2.000000e+00
     vertex  1.366025e+00 -1.366025e+00 -2.000000e+00
   endloop
 endfacet
 facet normal -0.000000e+00 -1.000000e+00  0.000000e+00
   outer loop
     vertex  3.397460e-01 -1.366025e+00  0.000000e+00
     vertex -1.267949e+00 -1.366025e+00  0.000000e+00
     vertex -1.366025e+00 -1.366025e+00 -2.000000e+00
   endloop
 endfacet
 facet normal -0.000000e+00 -1.000000e+00 -0.000000e+00
   outer loop
     vertex  6.339746e-01 -1.366025e+00  0.000000e+00
     vertex  3.397460e-01 -1.366025e+00  0.000000e+00
     vertex  1.366025e+00 -1.366025e+00 -2.000000e+00
   endloop
 endfacet
 facet normal -0.000000e+00 -1.000000e+00 -0.000000e+00
   outer loop
     vertex  1.366025e+00 -1.366025e+00  0.000000e+00
     vertex  6.339746e-01 -1.366025e+00  0.000000e+00
     vertex  1.366025e+00 -1.366025e+00 -2.000000e+00
   endloop
 endfacet
 facet normal -1.000000e+00  0.000000e+00  0.000000e+00
   outer loop
     vertex -1.366025e+00 -1.366025e+00  0.000000e+00
     vertex -1.366025e+00 -2.220446e-16  0.000000e+00
     vertex -1.366025e+00 -2.220446e-16 -2.000000e+00
   endloop
 endfacet
 facet normal -1.000000e+00  0.000000e+00  0.000000e+00
   outer loop
     vertex -1.366025e+00 -1.366025e+00  0.000000e+00
     vertex -1.366025e+00 -2.220446e-16 -2.000000e+00
     vertex -1.366025e+00 -1.366025e+00 -2.000000e+00
   endloop
 endfacet
 facet normal  1.000000e+00  0.000000e+00  0.000000e+00
   outer loop
     vertex  1.366025e+00 -2.220446e-16  0.000000e+00
     vertex  1.366025e+00 -1.366025e+00  0.000000e+00
     vertex  1.366025e+00 -1.366025e+00 -2.000000e+00
   endloop
 endfacet
 facet normal  1.000000e+00  0.000000e+00  0.000000e+00
   outer loop
     vertex  1.366025e+00 -2.220446e-16  0.000000e+00
     vertex  1.366025e+00 -1.366025e+00 -2.000000e+00
     vertex  1.366025e+00 -2.220446e-16 -2.000000e+00
   endloop
 endfacet
 facet normal  0.000000e+00  0.000000e+00  1.000000e+00
   outer loop
     vertex -1.267949e+00 -2.220446e-16  0.000000e+00
     vertex -1.366025e+00 -2.220446e-16  0.000000e+00
     vertex -1.366025e+00 -1.366025e+00  0.000000e+00
   endloop
 endfacet
 facet normal  0.000000e+00  0.000000e+00  1.000000e+00
   outer loop
     vertex -1.267949e+00 -2.220446e-16  0.000000e+00
     vertex -1.366025e+00 -1.366025e+00  0.000000e+00
     vertex -1.267949e+00 -1.366025e+00  0.000000e+00
   endloop
 endfacet
 facet normal -0.000000e+00  0.000000e+00  1.000000e+00
   outer loop
     vertex -1.267949e+00 -2.220446e-16  0.000000e+00
     vertex  3.397460e-01 -1.366025e+00  0.000000e+00
     vertex  3.397460e-01 -2.220446e-16  0.000000e+00
   endloop
 endfacet
 facet normal  0.000000e+00  0.000000e+00  1.000000e+00
   outer loop
     vertex -1.267949e+00 -2.220446e-16  0.000000e+00
     vertex -1.267949e+00 -1.366025e+00  0.000000e+00
     vertex  3.397460e-01 -1.366025e+00  0.000000e+00
   endloop
 endfacet
 facet normal  0.000000e+00  0.000000e+00  1.000000e+00
   outer loop
     vertex  6.339746e-01 -2.220446e-16  0.000000e+00
     vertex  3.397460e-01 -2.220446e-16  0.000000e+00
     vertex  3.397460e-01 -1.366025e+00  0.000000e+00
   endloop
 endfacet
 facet normal  0.000000e+00  0.000000e+00  1.000000e+00
   outer loop
     vertex  6.339746e-01 -2.220446e-16  0.000000e+00
     vertex  3.397460e-01 -1.366025e+00  0.000000e+00
     vertex  6.339746e-01 -1.366025e+00  0.000000e+00
   endloop
 endfacet
 facet normal  0.000000e+00  0.000000e+00  1.000000e+00
   outer loop
     vertex  1.366025e+00 -2.220446e-16  0.000000e+00
     vertex  6.339746e-01 -2.220446e-16  0.000000e+00
     vertex  6.339746e-01 -1.366025e+00  0.000000e+00
   endloop
 endfacet
 facet normal  0.000000e+00  0.000000e+00  1.000000e+00
   outer loop
     vertex  1.366025e+00 -2.220446e-16  0.000000e+00
     vertex  6.339746e-01 -1.366025e+00  0.000000e+00
     vertex  1.366025e+00 -1.366025e+00  0.000000e+00
   endloop
 endfacet
 facet normal -0.000000e+00  0.000000e+00 -1.000000e+00
   outer loop
     vertex  1.366025e+00 -2.220446e-16 -2.000000e+00
     vertex -1.366025e+00 -1.366025e+00 -2.000000e+00
     vertex -1.366025e+00 -2.220446e-16 -2.000000e+00
   endloop
 endfacet
 facet normal  0.000000e+00 -0.000000e+00 -1.000000e+00
   outer loop
     vertex  1.366025e+00 -2.220446e-16 -2.000000e+00
     vertex  1.366025e+00 -1.366025e+00 -2.000000e+00
     vertex -1.366025e+00 -1.366025e+00 -2.000000e+00
   endloop
 endfacet
 facet normal  0.000000e+00  1.000000e+00  0.000000e+00
   outer loop
     vertex -1.267949e+00 -2.220446e-16  0.000000e+00
     vertex -1.366025e+00 -2.220446e-16 -2.000000e+00
     vertex -1.366025e+00 -2.220446e-16  0.000000e+00
   endloop
 endfacet
 facet normal  0.000000e+00  1.000000e+00  0.000000e+00
   outer loop
     vertex  3.397460e-01 -2.220446e-16  0.000000e+00
     vertex  1.366025e+00 -2.220446e-16 -2.000000e+00
     vertex -1.366025e+00 -2.220446e-16 -2.000000e+00
   endloop
 endfacet
 facet normal  0.000000e+00  1.000000e+00  0.000000e+00
   outer loop
     vertex  3.397460e-01 -2.220446e-16  0.000000e+00
     vertex -1.366025e+00 -2.220446e-16 -2.000000e+00
     vertex -1.267949e+00 -2.220446e-16  0.000000e+00
   endloop
 endfacet
 facet normal  0.000000e+00  1.000000e+00  0.000000e+00
   outer loop
     vertex  6.339746e-01 -2.220446e-16  0.000000e+00
     vertex  1.366025e+00 -2.220446e-16 -2.000000e+00
     vertex  3.397460e-01 -2.220446e-16  0.000000e+00
   endloop
 endfacet
 facet normal  0.000000e+00  1.000000e+00  0.000000e+00
   outer loop
     vertex  1.366025e+00 -2.220446e-16  0.000000e+00
     vertex  1.366025e+00 -2.220446e-16 -2.000000e+00
     vertex  6.339746e-01 -2.220446e-16  0.000000e+00
   endloop
 endfacet
 facet normal -0.000000e+00  0.000000e+00 -1.000000e+00
   outer loop
     vertex -1.267949e+00 -2.220446e-16  0.000000e+00
     vertex -1.366025e+00 -1.366025e+00  0.000000e+00
     vertex -1.366025e+00 -2.220446e-16  0.000000e+00
   endloop
 endfacet
 facet normal  0.000000e+00 -0.000000e+00 -1.000000e+00
   outer loop
     vertex -1.267949e+00 -2.220446e-16  0.000000e+00
     vertex -1.267949e+00 -1.366025e+00  0.000000e+00
     vertex -1.366025e+00 -1.366025e+00  0.000000e+00
   endloop
 endfacet
 facet normal  0.000000e+00  1.000000e+00  0.000000e+00
   outer loop
     vertex -1.267949e+00 -2.220446e-16  0.000000e+00
     vertex -1.298742e+00 -2.220446e-16  1.389287e-02
     vertex -1.289787e+00 -2.220446e-16  1.806894e-02
   endloop
 endfacet
 facet normal  0.000000e+00  1.000000e+00  0.000000e+00
   outer loop
     vertex -1.267949e+00 -2.220446e-16  0.000000e+00
     vertex -1.307925e+00 -2.220446e-16  1.024459e-02
     vertex -1.298742e+00 -2.220446e-16  1.389287e-02
   endloop
 endfacet
 facet normal  0.000000e+00  1.000000e+00  0.000000e+00
   outer loop
     vertex -1.267949e+00 -2.220446e-16  0.000000e+00
     vertex -1.317305e+00 -2.220446e-16  7.136447e-03
     vertex -1.307925e+00 -2.220446e-16  1.024459e-02
   endloop
 endfacet
 facet normal  0.000000e+00  1.000000e+00  0.000000e+00
   outer loop
     vertex -1.267949e+00 -2.220446e-16  0.000000e+00
     vertex -1.326850e+00 -2.220446e-16  4.578948e-03
     vertex -1.317305e+00 -2.220446e-16  7.136447e-03
   endloop
 endfacet
 facet normal  0.000000e+00  1.000000e+00  0.000000e+00
   outer loop
     vertex -1.267949e+00 -2.220446e-16  0.000000e+00
     vertex -1.336527e+00 -2.220446e-16  2.580752e-03
     vertex -1.326850e+00 -2.220446e-16  4.578948e-03
   endloop
 endfacet
 facet normal  0.000000e+00  1.000000e+00  0.000000e+00
   outer loop
     vertex -1.281089e+00 -2.220446e-16  2.275866e-02
     vertex -1.267949e+00 -2.220446e-16  0.000000e+00
     vertex -1.289787e+00 -2.220446e-16  1.806894e-02
   endloop
 endfacet
 facet normal  0.000000e+00  1.000000e+00  0.000000e+00
   outer loop
     vertex -1.272679e+00 -2.220446e-16  2.794618e-02
     vertex -1.267949e+00 -2.220446e-16  0.000000e+00
     vertex -1.281089e+00 -2.220446e-16  2.275866e-02
   endloop
 endfacet
 facet normal  0.000000e+00  1.000000e+00  0.000000e+00
   outer loop
     vertex -1.264584e+00 -2.220446e-16  3.361392e-02
     vertex -1.267949e+00 -2.220446e-16  0.000000e+00
     vertex -1.272679e+00 -2.220446e-16  2.794618e-02
   endloop
 endfacet
 facet normal  0.000000e+00  1.000000e+00  0.000000e+00
   outer loop
     vertex -1.256833e+00 -2.220446e-16  3.974273e-02
     vertex -1.267949e+00 -2.220446e-16  0.000000e+00
     vertex -1.264584e+00 -2.220446e-16  3.361392e-02
   endloop
 endfacet
 facet normal  0.000000e+00  1.000000e+00  0.000000e+00
   outer loop
     vertex -1.249451e+00 -2.220446e-16  4.631185e-02
     vertex -1.267949e+00 -2.220446e-16  0.000000e+00
     vertex -1.256833e+00 -2.220446e-16  3.974273e-02
   endloop
 endfacet
 facet normal  0.000000e+00  1.000000e+00  0.000000e+00
   outer loop
     vertex -1.242464e+00 -2.220446e-16  5.329907e-02
     vertex -1.267949e+00 -2.220446e-16  0.000000e+00
     vertex -1.249451e+00 -2.220446e-16  4.631185e-02
   endloop
 endfacet
 facet normal  0.000000e+00  1.000000e+00  0.000000e+00
   outer loop
     vertex -1.218911e+00 -2.220446e-16  8.493649e-02
     vertex -1.267949e+00 -2.220446e-16  0.000000e+00
     vertex -1.224099e+00 -2.220446e-16  7.652625e-02
   endloop
 endfacet
 facet normal  0.000000e+00  1.000000e+00  0.000000e+00
   outer loop
     vertex -1.224099e+00 -2.220446e-16  7.652625e-02
     vertex -1.267949e+00 -2.220446e-16  0.000000e+00
     vertex -1.229766e+00 -2.220446e-16  6.843187e-02
   endloop
 endfacet
 facet normal  0.000000e+00  1.000000e+00  0.000000e+00
   outer loop
     vertex -1.229766e+00 -2.220446e-16  6.843187e-02
     vertex -1.267949e+00 -2.220446e-16  0.000000e+00
     vertex -1.235895e+00 -2.220446e-16  6.068073e-02
   endloop
 endfacet
 facet normal  0.000000e+00  1.000000e+00  0.000000e+00
   outer loop
     vertex -1.235895e+00 -2.220446e-16  6.068073e-02
     vertex -1.267949e+00 -2.220446e-16  0.000000e+00
     vertex -1.242464e+00 -2.220446e-16  5.329907e-02
   endloop
 endfacet
 facet normal  0.000000e+00  1.000000e+00  0.000000e+00
   outer loop
     vertex -1.267949e+00 -2.220446e-16  0.000000e+00
     vertex -1.366025e+00 -2.220446e-16  0.000000e+00
     vertex -1.356148e+00 -2.220446e-16  2.873982e-04
   endloop
 endfacet
 facet normal  0.000000e+00  1.000000e+00  0.000000e+00
   outer loop
     vertex -1.267949e+00 -2.220446e-16  0.000000e+00
     vertex -1.356148e+00 -2.220446e-16  2.873982e-04
     vertex -1.346304e+00 -2.220446e-16  1.148620e-03
   endloop
 endfacet
 facet normal  0.000000e+00  1.000000e+00  0.000000e+00
   outer loop
     vertex -1.267949e+00 -2.220446e-16  0.000000e+00
     vertex -1.346304e+00 -2.220446e-16  1.148620e-03
     vertex -1.336527e+00 -2.220446e-16  2.580752e-03
   endloop
 endfacet
 facet normal  8.660254e-01  0.000000e+00 -5.000000e-01
   outer loop
     vertex -1.218911e+00 -2.220446e-16  8.493649e-02
     vertex -1.267949e+00 -1.366025e+00  0.000000e+00
     vertex -1.267949e+00 -2.220446e-16  0.000000e+00
   endloop
 endfacet
 facet normal  8.660254e-01  0.000000e+00 -5.000000e-01
   outer loop
     vertex -1.218911e+00 -2.220446e-16  8.493649e-02
     vertex -1.218911e+00 -1.366025e+00  8.493649e-02
     vertex -1.267949e+00 -1.366025e+00  0.000000e+00
   endloop
 endfacet
 facet normal  0.000000e+00 -1.000000e+00  0.000000e+00
   outer loop
     vertex -1.267949e+00 -1.366025e+00  0.000000e+00
     vertex -1.326850e+00 -1.366025e+00  4.578948e-03
     vertex -1.336527e+00 -1.366025e+00  2.580752e-03
   endloop
 endfacet
 facet normal  0.000000e+00 -1.000000e+00  0.000000e+00
   outer loop
     vertex -1.267949e+00 -1.366025e+00  0.000000e+00
     vertex -1.317305e+00 -1.366025e+00  7.136447e-03
     vertex -1.326850e+00 -1.366025e+00  4.578948e-03
   endloop
 endfacet
 facet normal  0.000000e+00 -1.000000e+00  0.000000e+00
   outer loop
     vertex -1.267949e+00 -1.366025e+00  0.000000e+00
     vertex -1.307925e+00 -1.366025e+00  1.024459e-02
     vertex -1.317305e+00 -1.366025e+00  7.136447e-03
   endloop
 endfacet
 facet normal  0.000000e+00 -1.000000e+00  0.000000e+00
   outer loop
     vertex -1.267949e+00 -1.366025e+00  0.000000e+00
     vertex -1.298742e+00 -1.366025e+00  1.389287e-02
     vertex -1.307925e+00 -1.366025e+00  1.024459e-02
   endloop
 endfacet
 facet normal  0.000000e+00 -1.000000e+00  0.000000e+00
   outer loop
     vertex -1.267949e+00 -1.366025e+00  0.000000e+00
     vertex -1.289787e+00 -1.366025e+00  1.806894e-02
     vertex -1.298742e+00 -1.366025e+00  1.389287e-02
   endloop
 endfacet
 facet normal  0.000000e+00 -1.000000e+00  0.000000e+00
   outer loop
     vertex -1.267949e+00 -1.366025e+00  0.000000e+00
     vertex -1.281089e+00 -1.366025e+00  2.275866e-02
     vertex -1.289787e+00 -1.366025e+00  1.806894e-02
   endloop
 endfacet
 facet normal  0.000000e+00 -1.000000e+00  0.000000e+00
   outer loop
     vertex -1.267949e+00 -1.366025e+00  0.000000e+00
     vertex -1.272679e+00 -1.366025e+00  2.794618e-02
     vertex -1.281089e+00 -1.366025e+00  2.275866e-02
   endloop
 endfacet
 facet normal  0.000000e+00 -1.000000e+00  0.000000e+00
   outer loop
     vertex -1.267949e+00 -1.366025e+00  0.000000e+00
     vertex -1.264584e+00 -1.366025e+00  3.361392e-02
     vertex -1.272679e+00 -1.366025e+00  2.794618e-02
   endloop
 endfacet
 facet normal  0.000000e+00 -1.000000e+00  0.000000e+00
   outer loop
     vertex -1.267949e+00 -1.366025e+00  0.000000e+00
     vertex -1.256833e+00 -1.366025e+00  3.974273e-02
     vertex -1.264584e+00 -1.366025e+00  3.361392e-02
   endloop
 endfacet
 facet normal  0.000000e+00 -1.000000e+00  0.000000e+00
   outer loop
     vertex -1.267949e+00 -1.366025e+00  0.000000e+00
     vertex -1.249451e+00 -1.366025e+00  4.631185e-02
     vertex -1.256833e+00 -1.366025e+00  3.974273e-02
   endloop
 endfacet
 facet normal  0.000000e+00 -1.000000e+00  0.000000e+00
   outer loop
     vertex -1.267949e+00 -1.366025e+00  0.000000e+00
     vertex -1.242464e+00 -1.366025e+00  5.329907e-02
     vertex -1.249451e+00 -1.366025e+00  4.631185e-02
   endloop
 endfacet
 facet normal  0.000000e+00 -1.000000e+00  0.000000e+00
   outer loop
     vertex -1.366025e+00 -1.366025e+00  0.000000e+00
     vertex -1.267949e+00 -1.366025e+00  0.000000e+00
     vertex -1.356148e+00 -1.366025e+00  2.873982e-04
   endloop
 endfacet
 facet normal  0.000000e+00 -1.000000e+00  0.000000e+00
   outer loop
     vertex -1.356148e+00 -1.366025e+00  2.873982e-04
     vertex -1.267949e+00 -1.366025e+00  0.000000e+00
     vertex -1.346304e+00 -1.366025e+00  1.148620e-03
   endloop
 endfacet
 facet normal  0.000000e+00 -1.000000e+00  0.000000e+00
   outer loop
     vertex -1.346304e+00 -1.366025e+00  1.148620e-03
     vertex -1.267949e+00 -1.366025e+00  0.000000e+00
     vertex -1.336527e+00 -1.366025e+00  2.580752e-03
   endloop
 endfacet
 facet normal  0.000000e+00 -1.000000e+00  0.000000e+00
   outer loop
     vertex -1.267949e+00 -1.366025e+00  0.000000e+00
     vertex -1.218911e+00 -1.366025e+00  8.493649e-02
     vertex -1.224099e+00 -1.366025e+00  7.652625e-02
   endloop
 endfacet
 facet normal  0.000000e+00 -1.000000e+00  0.000000e+00
   outer loop
     vertex -1.267949e+00 -1.366025e+00  0.000000e+00
     vertex -1.224099e+00 -1.366025e+00  7.652625e-02
     vertex -1.229766e+00 -1.366025e+00  6.843187e-02
   endloop
 endfacet
 facet normal  0.000000e+00 -1.000000e+00  0.000000e+00
   outer loop
     vertex -1.267949e+00 -1.366025e+00  0.000000e+00
     vertex -1.229766e+00 -1.366025e+00  6.843187e-02
     vertex -1.235895e+00 -1.366025e+00  6.068073e-02
   endloop
 endfacet
 facet normal  0.000000e+00 -1.000000e+00  0.000000e+00
   outer loop
     vertex -1.267949e+00 -1.366025e+00  0.000000e+00
     vertex -1.235895e+00 -1.366025e+00  6.068073e-02
     vertex -1.242464e+00 -1.366025e+00  5.329907e-02
   endloop
 endfacet
 facet normal -2.908472e-02  0.000000e+00  9.995770e-01
   outer loop
     vertex -1.356148e+00 -2.220446e-16  2.873982e-04
     vertex -1.366025e+00 -2.220446e-16  0.000000e+00
     vertex -1.366025e+00 -1.366025e+00  0.000000e+00
   endloop
 endfacet
 facet normal -2.908472e-02  4.727661e-18  9.995770e-01
   outer loop
     vertex -1.356148e+00 -2.220446e-16  2.873982e-04
     vertex -1.366025e+00 -1.366025e+00  0.000000e+00
     vertex -1.356148e+00 -1.366025e+00  2.873982e-04
   endloop
 endfacet
 facet normal -8.715574e-02  0.000000e+00  9.961947e-01
   outer loop
     vertex -1.346304e+00 -2.220446e-16  1.148620e-03
     vertex -1.356148e+00 -1.366025e+00  2.873982e-04
     vertex -1.346304e+00 -1.366025e+00  1.148620e-03
   endloop
 endfacet
 facet normal -8.715574e-02  1.418178e-17  9.961947e-01
   outer loop
     vertex -1.346304e+00 -2.220446e-16  1.148620e-03
     vertex -1.356148e+00 -2.220446e-16  2.873982e-04
     vertex -1.356148e+00 -1.366025e+00  2.873982e-04
   endloop
 endfacet
 facet normal -1.449319e-01  0.000000e+00  9.894416e-01
   outer loop
     vertex -1.336527e+00 -2.220446e-16  2.580752e-03
     vertex -1.346304e+00 -1.366025e+00  1.148620e-03
     vertex -1.336527e+00 -1.366025e+00  2.580752e-03
   endloop
 endfacet
 facet normal -1.449319e-01  0.000000e+00  9.894416e-01
   outer loop
     vertex -1.336527e+00 -2.220446e-16  2.580752e-03
     vertex -1.346304e+00 -2.220446e-16  1.148620e-03
     vertex -1.346304e+00 -1.366025e+00  1.148620e-03
   endloop
 endfacet
 facet normal -2.022176e-01 -1.297132e-17  9.793406e-01
   outer loop
     vertex -1.326850e+00 -2.220446e-16  4.578948e-03
     vertex -1.336527e+00 -1.366025e+00  2.580752e-03
     vertex -1.326850e+00 -1.366025e+00  4.578948e-03
   endloop
 endfacet
 facet normal -2.022176e-01  0.000000e+00  9.793406e-01
   outer loop
     vertex -1.326850e+00 -2.220446e-16  4.578948e-03
     vertex -1.336527e+00 -2.220446e-16  2.580752e-03
     vertex -1.336527e+00 -1.366025e+00  2.580752e-03
   endloop
 endfacet
 facet normal -2.588190e-01 -2.818189e-18  9.659258e-01
   outer loop
     vertex -1.317305e+00 -2.220446e-16  7.136447e-03
     vertex -1.326850e+00 -1.366025e+00  4.578948e-03
     vertex -1.317305e+00 -1.366025e+00  7.136447e-03
   endloop
 endfacet
 facet normal -2.588190e-01 -2.233944e-17  9.659258e-01
   outer loop
     vertex -1.317305e+00 -2.220446e-16  7.136447e-03
     vertex -1.326850e+00 -2.220446e-16  4.578948e-03
     vertex -1.326850e+00 -1.366025e+00  4.578948e-03
   endloop
 endfacet
 facet normal -3.145448e-01  3.857436e-17  9.492426e-01
   outer loop
     vertex -1.307925e+00 -2.220446e-16  1.024459e-02
     vertex -1.317305e+00 -1.366025e+00  7.136447e-03
     vertex -1.307925e+00 -1.366025e+00  1.024459e-02
   endloop
 endfacet
 facet normal -3.145448e-01 -1.255025e-17  9.492426e-01
   outer loop
     vertex -1.307925e+00 -2.220446e-16  1.024459e-02
     vertex -1.317305e+00 -2.220446e-16  7.136447e-03
     vertex -1.317305e+00 -1.366025e+00  7.136447e-03
   endloop
 endfacet
 facet normal -3.692061e-01 -2.224782e-17  9.293475e-01
   outer loop
     vertex -1.298742e+00 -2.220446e-16  1.389287e-02
     vertex -1.307925e+00 -1.366025e+00  1.024459e-02
     vertex -1.298742e+00 -1.366025e+00  1.389287e-02
   endloop
 endfacet
 facet normal -3.692061e-01  3.815276e-17  9.293475e-01
   outer loop
     vertex -1.298742e+00 -2.220446e-16  1.389287e-02
     vertex -1.307925e+00 -2.220446e-16  1.024459e-02
     vertex -1.307925e+00 -1.366025e+00  1.024459e-02
   endloop
 endfacet
 facet normal -4.226183e-01 -1.345130e-17  9.063078e-01
   outer loop
     vertex -1.289787e+00 -2.220446e-16  1.806894e-02
     vertex -1.298742e+00 -1.366025e+00  1.389287e-02
     vertex -1.289787e+00 -1.366025e+00  1.806894e-02
   endloop
 endfacet
 facet normal -4.226183e-01 -3.162663e-17  9.063078e-01
   outer loop
     vertex -1.289787e+00 -2.220446e-16  1.806894e-02
     vertex -1.298742e+00 -2.220446e-16  1.389287e-02
     vertex -1.298742e+00 -1.366025e+00  1.389287e-02
   endloop
 endfacet
 facet normal -4.746004e-01  1.227651e-17  8.802014e-01
   outer loop
     vertex -1.281089e+00 -2.220446e-16  2.275866e-02
     vertex -1.289787e+00 -1.366025e+00  1.806894e-02
     vertex -1.281089e+00 -1.366025e+00  2.275866e-02
   endloop
 endfacet
 facet normal -4.746004e-01 -2.359447e-17  8.802014e-01
   outer loop
     vertex -1.281089e+00 -2.220446e-16  2.275866e-02
     vertex -1.289787e+00 -2.220446e-16  1.806894e-02
     vertex -1.289787e+00 -1.366025e+00  1.806894e-02
   endloop
 endfacet
 facet normal -5.249766e-01  1.842658e-17  8.511167e-01
   outer loop
     vertex -1.272679e+00 -2.220446e-16  2.794618e-02
     vertex -1.281089e+00 -1.366025e+00  2.275866e-02
     vertex -1.272679e+00 -1.366025e+00  2.794618e-02
   endloop
 endfacet
 facet normal -5.249766e-01  1.506030e-18  8.511167e-01
   outer loop
     vertex -1.272679e+00 -2.220446e-16  2.794618e-02
     vertex -1.281089e+00 -2.220446e-16  2.275866e-02
     vertex -1.281089e+00 -1.366025e+00  2.275866e-02
   endloop
 endfacet
 facet normal -5.735764e-01  6.629940e-18  8.191520e-01
   outer loop
     vertex -1.264584e+00 -2.220446e-16  3.361392e-02
     vertex -1.272679e+00 -1.366025e+00  2.794618e-02
     vertex -1.264584e+00 -1.366025e+00  3.361392e-02
   endloop
 endfacet
 facet normal -5.735764e-01  6.526130e-18  8.191520e-01
   outer loop
     vertex -1.264584e+00 -2.220446e-16  3.361392e-02
     vertex -1.272679e+00 -2.220446e-16  2.794618e-02
     vertex -1.272679e+00 -1.366025e+00  2.794618e-02
   endloop
 endfacet
 facet normal -6.202355e-01 -7.413085e-17  7.844157e-01
   outer loop
     vertex -1.256833e+00 -2.220446e-16  3.974273e-02
     vertex -1.264584e+00 -1.366025e+00  3.361392e-02
     vertex -1.256833e+00 -1.366025e+00  3.974273e-02
   endloop
 endfacet
 facet normal -6.202355e-01 -5.020100e-18  7.844157e-01
   outer loop
     vertex -1.256833e+00 -2.220446e-16  3.974273e-02
     vertex -1.264584e+00 -2.220446e-16  3.361392e-02
     vertex -1.264584e+00 -1.366025e+00  3.361392e-02
   endloop
 endfacet
 facet normal -6.647959e-01 -7.951658e-17  7.470251e-01
   outer loop
     vertex -1.249451e+00 -2.220446e-16  4.631185e-02
     vertex -1.256833e+00 -1.366025e+00  3.974273e-02
     vertex -1.249451e+00 -1.366025e+00  4.631185e-02
   endloop
 endfacet
 facet normal -6.647959e-01 -9.437787e-17  7.470251e-01
   outer loop
     vertex -1.249451e+00 -2.220446e-16  4.631185e-02
     vertex -1.256833e+00 -2.220446e-16  3.974273e-02
     vertex -1.256833e+00 -1.366025e+00  3.974273e-02
   endloop
 endfacet
 facet normal -7.071068e-01  5.028570e-17  7.071068e-01
   outer loop
     vertex -1.242464e+00 -2.220446e-16  5.329907e-02
     vertex -1.249451e+00 -1.366025e+00  4.631185e-02
     vertex -1.242464e+00 -1.366025e+00  5.329907e-02
   endloop
 endfacet
 facet normal -7.071068e-01 -1.004020e-16  7.071068e-01
   outer loop
     vertex -1.242464e+00 -2.220446e-16  5.329907e-02
     vertex -1.249451e+00 -2.220446e-16  4.631185e-02
     vertex -1.249451e+00 -1.366025e+00  4.631185e-02
   endloop
 endfacet
 facet normal -7.470251e-01  3.363467e-17  6.647959e-01
   outer loop
     vertex -1.235895e+00 -2.220446e-16  6.068073e-02
     vertex -1.242464e+00 -2.220446e-16  5.329907e-02
     vertex -1.242464e+00 -1.366025e+00  5.329907e-02
   endloop
 endfacet
 facet normal -7.470251e-01  5.417206e-17  6.647959e-01
   outer loop
     vertex -1.235895e+00 -2.220446e-16  6.068073e-02
     vertex -1.242464e+00 -1.366025e+00  5.329907e-02
     vertex -1.235895e+00 -1.366025e+00  6.068073e-02
   endloop
 endfacet
 facet normal -7.844157e-01  3.664673e-17  6.202355e-01
   outer loop
     vertex -1.229766e+00 -2.220446e-16  6.843187e-02
     vertex -1.235895e+00 -2.220446e-16  6.068073e-02
     vertex -1.235895e+00 -1.366025e+00  6.068073e-02
   endloop
 endfacet
 facet normal -7.844157e-01  5.522747e-17  6.202355e-01
   outer loop
     vertex -1.229766e+00 -2.220446e-16  6.843187e-02
     vertex -1.235895e+00 -1.366025e+00  6.068073e-02
     vertex -1.229766e+00 -1.366025e+00  6.843187e-02
   endloop
 endfacet
 facet normal -8.191520e-01  3.564271e-17  5.735764e-01
   outer loop
     vertex -1.224099e+00 -2.220446e-16  7.652625e-02
     vertex -1.229766e+00 -2.220446e-16  6.843187e-02
     vertex -1.229766e+00 -1.366025e+00  6.843187e-02
   endloop
 endfacet
 facet normal -8.191520e-01  5.331586e-17  5.735764e-01
   outer loop
     vertex -1.224099e+00 -2.220446e-16  7.652625e-02
     vertex -1.229766e+00 -1.366025e+00  6.843187e-02
     vertex -1.224099e+00 -1.366025e+00  7.652625e-02
   endloop
 endfacet
 facet normal -8.511167e-01  3.263065e-17  5.249766e-01
   outer loop
     vertex -1.218911e+00 -2.220446e-16  8.493649e-02
     vertex -1.224099e+00 -2.220446e-16  7.652625e-02
     vertex -1.224099e+00 -1.366025e+00  7.652625e-02
   endloop
 endfacet
 facet normal -8.511167e-01  0.000000e+00  5.249766e-01
   outer loop
     vertex -1.218911e+00 -2.220446e-16  8.493649e-02
     vertex -1.224099e+00 -1.366025e+00  7.652625e-02
     vertex -1.218911e+00 -1.366025e+00  8.493649e-02
   endloop
 endfacet
 facet normal -0.000000e+00  0.000000e+00 -1.000000e+00
   outer loop
     vertex  6.339746e-01 -2.220446e-16  0.000000e+00
     vertex  3.397460e-01 -1.366025e+00  0.000000e+00
     vertex  3.397460e-01 -2.220446e-16  0.000000e+00
   endloop
 endfacet
 facet normal  0.000000e+00 -0.000000e+00 -1.000000e+00
   outer loop
     vertex  6.339746e-01 -2.220446e-16  0.000000e+00
     vertex  6.339746e-01 -1.366025e+00  0.000000e+00
     vertex  3.397460e-01 -1.366025e+00  0.000000e+00
   endloop
 endfacet
 facet normal -8.660254e-01  0.000000e+00  5.000000e-01
   outer loop
     vertex  3.397460e-01 -2.220446e-16  0.000000e+00
     vertex  4.868603e-01 -1.366025e+00  2.548095e-01
     vertex  4.868603e-01 -2.220446e-16  2.548095e-01
   endloop
 endfacet
 facet normal -8.660254e-01  0.000000e+00  5.000000e-01
   outer loop
     vertex  3.397460e-01 -2.220446e-16  0.000000e+00
     vertex  3.397460e-01 -1.366025e+00  0.000000e+00
     vertex  4.868603e-01 -1.366025e+00  2.548095e-01
   endloop
 endfacet
 facet normal  0.000000e+00  1.000000e+00  0.000000e+00
   outer loop
     vertex  5.104135e-01 -2.220446e-16  5.329907e-02
     vertex  5.174007e-01 -2.220446e-16  4.631185e-02
     vertex  3.397460e-01 -2.220446e-16  0.000000e+00
   endloop
 endfacet
 facet normal  0.000000e+00  1.000000e+00  0.000000e+00
   outer loop
     vertex  5.247823e-01 -2.220446e-16  3.974273e-02
     vertex  3.397460e-01 -2.220446e-16  0.000000e+00
     vertex  5.174007e-01 -2.220446e-16  4.631185e-02
   endloop
 endfacet
 facet normal  0.000000e+00  1.000000e+00  0.000000e+00
   outer loop
     vertex  5.038443e-01 -2.220446e-16  6.068073e-02
     vertex  5.104135e-01 -2.220446e-16  5.329907e-02
     vertex  3.397460e-01 -2.220446e-16  0.000000e+00
   endloop
 endfacet
 facet normal  0.000000e+00  1.000000e+00  0.000000e+00
   outer loop
     vertex  5.325335e-01 -2.220446e-16  3.361392e-02
     vertex  3.397460e-01 -2.220446e-16  0.000000e+00
     vertex  5.247823e-01 -2.220446e-16  3.974273e-02
   endloop
 endfacet
 facet normal  0.000000e+00  1.000000e+00  0.000000e+00
   outer loop
     vertex  4.977155e-01 -2.220446e-16  6.843187e-02
     vertex  5.038443e-01 -2.220446e-16  6.068073e-02
     vertex  3.397460e-01 -2.220446e-16  0.000000e+00
   endloop
 endfacet
 facet normal  0.000000e+00  1.000000e+00  0.000000e+00
   outer loop
     vertex  5.406279e-01 -2.220446e-16  2.794618e-02
     vertex  3.397460e-01 -2.220446e-16  0.000000e+00
     vertex  5.325335e-01 -2.220446e-16  3.361392e-02
   endloop
 endfacet
 facet normal  0.000000e+00  1.000000e+00  0.000000e+00
   outer loop
     vertex  4.920478e-01 -2.220446e-16  7.652625e-02
     vertex  4.977155e-01 -2.220446e-16  6.843187e-02
     vertex  3.397460e-01 -2.220446e-16  0.000000e+00
   endloop
 endfacet
 facet normal  0.000000e+00  1.000000e+00  0.000000e+00
   outer loop
     vertex  5.490381e-01 -2.220446e-16  2.275866e-02
     vertex  3.397460e-01 -2.220446e-16  0.000000e+00
     vertex  5.406279e-01 -2.220446e-16  2.794618e-02
   endloop
 endfacet
 facet normal  0.000000e+00  1.000000e+00  0.000000e+00
   outer loop
     vertex  4.868603e-01 -2.220446e-16  8.493649e-02
     vertex  4.920478e-01 -2.220446e-16  7.652625e-02
     vertex  3.397460e-01 -2.220446e-16  0.000000e+00
   endloop
 endfacet
 facet normal  0.000000e+00  1.000000e+00  0.000000e+00
   outer loop
     vertex  5.577357e-01 -2.220446e-16  1.806894e-02
     vertex  3.397460e-01 -2.220446e-16  0.000000e+00
     vertex  5.490381e-01 -2.220446e-16  2.275866e-02
   endloop
 endfacet
 facet normal  0.000000e+00  1.000000e+00  0.000000e+00
   outer loop
     vertex  4.821706e-01 -2.220446e-16  9.363413e-02
     vertex  4.868603e-01 -2.220446e-16  8.493649e-02
     vertex  3.397460e-01 -2.220446e-16  0.000000e+00
   endloop
 endfacet
 facet normal  0.000000e+00  1.000000e+00  0.000000e+00
   outer loop
     vertex  5.666913e-01 -2.220446e-16  1.389287e-02
     vertex  3.397460e-01 -2.220446e-16  0.000000e+00
     vertex  5.577357e-01 -2.220446e-16  1.806894e-02
   endloop
 endfacet
 facet normal  0.000000e+00  1.000000e+00  0.000000e+00
   outer loop
     vertex  4.779945e-01 -2.220446e-16  1.025897e-01
     vertex  4.821706e-01 -2.220446e-16  9.363413e-02
     vertex  3.397460e-01 -2.220446e-16  0.000000e+00
   endloop
 endfacet
 facet normal  0.000000e+00  1.000000e+00  0.000000e+00
   outer loop
     vertex  5.758746e-01 -2.220446e-16  1.024459e-02
     vertex  3.397460e-01 -2.220446e-16  0.000000e+00
     vertex  5.666913e-01 -2.220446e-16  1.389287e-02
   endloop
 endfacet
 facet normal  0.000000e+00  1.000000e+00  0.000000e+00
   outer loop
     vertex  4.743462e-01 -2.220446e-16  1.117730e-01
     vertex  4.779945e-01 -2.220446e-16  1.025897e-01
     vertex  3.397460e-01 -2.220446e-16  0.000000e+00
   endloop
 endfacet
 facet normal  0.000000e+00  1.000000e+00  0.000000e+00
   outer loop
     vertex  5.852545e-01 -2.220446e-16  7.136447e-03
     vertex  3.397460e-01 -2.220446e-16  0.000000e+00
     vertex  5.758746e-01 -2.220446e-16  1.024459e-02
   endloop
 endfacet
 facet normal  0.000000e+00  1.000000e+00  0.000000e+00
   outer loop
     vertex  4.712381e-01 -2.220446e-16  1.211529e-01
     vertex  4.743462e-01 -2.220446e-16  1.117730e-01
     vertex  3.397460e-01 -2.220446e-16  0.000000e+00
   endloop
 endfacet
 facet normal  0.000000e+00  1.000000e+00  0.000000e+00
   outer loop
     vertex  4.686806e-01 -2.220446e-16  1.306976e-01
     vertex  4.712381e-01 -2.220446e-16  1.211529e-01
     vertex  3.397460e-01 -2.220446e-16  0.000000e+00
   endloop
 endfacet
 facet normal  0.000000e+00  1.000000e+00  0.000000e+00
   outer loop
     vertex  4.666824e-01 -2.220446e-16  1.403748e-01
     vertex  4.686806e-01 -2.220446e-16  1.306976e-01
     vertex  3.397460e-01 -2.220446e-16  0.000000e+00
   endloop
 endfacet
 facet normal  0.000000e+00  1.000000e+00  0.000000e+00
   outer loop
     vertex  4.652502e-01 -2.220446e-16  1.501519e-01
     vertex  4.666824e-01 -2.220446e-16  1.403748e-01
     vertex  3.397460e-01 -2.220446e-16  0.000000e+00
   endloop
 endfacet
 facet normal  0.000000e+00  1.000000e+00  0.000000e+00
   outer loop
     vertex  4.643890e-01 -2.220446e-16  1.599957e-01
     vertex  4.652502e-01 -2.220446e-16  1.501519e-01
     vertex  3.397460e-01 -2.220446e-16  0.000000e+00
   endloop
 endfacet
 facet normal  0.000000e+00  1.000000e+00  0.000000e+00
   outer loop
     vertex  4.641016e-01 -2.220446e-16  1.698730e-01
     vertex  4.643890e-01 -2.220446e-16  1.599957e-01
     vertex  3.397460e-01 -2.220446e-16  0.000000e+00
   endloop
 endfacet
 facet normal  0.000000e+00  1.000000e+00  0.000000e+00
   outer loop
     vertex  4.643890e-01 -2.220446e-16  1.797502e-01
     vertex  4.641016e-01 -2.220446e-16  1.698730e-01
     vertex  3.397460e-01 -2.220446e-16  0.000000e+00
   endloop
 endfacet
 facet normal  0.000000e+00  1.000000e+00  0.000000e+00
   outer loop
     vertex  4.652502e-01 -2.220446e-16  1.895940e-01
     vertex  4.643890e-01 -2.220446e-16  1.797502e-01
     vertex  3.397460e-01 -2.220446e-16  0.000000e+00
   endloop
 endfacet
 facet normal  0.000000e+00  1.000000e+00  0.000000e+00
   outer loop
     vertex  4.666824e-01 -2.220446e-16  1.993711e-01
     vertex  4.652502e-01 -2.220446e-16  1.895940e-01
     vertex  3.397460e-01 -2.220446e-16  0.000000e+00
   endloop
 endfacet
 facet normal  0.000000e+00  1.000000e+00  0.000000e+00
   outer loop
     vertex  4.686806e-01 -2.220446e-16  2.090484e-01
     vertex  4.666824e-01 -2.220446e-16  1.993711e-01
     vertex  3.397460e-01 -2.220446e-16  0.000000e+00
   endloop
 endfacet
 facet normal  0.000000e+00  1.000000e+00  0.000000e+00
   outer loop
     vertex  4.712381e-01 -2.220446e-16  2.185931e-01
     vertex  4.686806e-01 -2.220446e-16  2.090484e-01
     vertex  3.397460e-01 -2.220446e-16  0.000000e+00
   endloop
 endfacet
 facet normal  0.000000e+00  1.000000e+00  0.000000e+00
   outer loop
     vertex  3.397460e-01 -2.220446e-16  0.000000e+00
     vertex  4.868603e-01 -2.220446e-16  2.548095e-01
     vertex  4.821706e-01 -2.220446e-16  2.461118e-01
   endloop
 endfacet
 facet normal  0.000000e+00  1.000000e+00  0.000000e+00
   outer loop
     vertex  3.397460e-01 -2.220446e-16  0.000000e+00
     vertex  4.821706e-01 -2.220446e-16  2.461118e-01
     vertex  4.779945e-01 -2.220446e-16  2.371562e-01
   endloop
 endfacet
 facet normal  0.000000e+00  1.000000e+00  0.000000e+00
   outer loop
     vertex  3.397460e-01 -2.220446e-16  0.000000e+00
     vertex  4.779945e-01 -2.220446e-16  2.371562e-01
     vertex  4.743462e-01 -2.220446e-16  2.279730e-01
   endloop
 endfacet
 facet normal  0.000000e+00  1.000000e+00  0.000000e+00
   outer loop
     vertex  3.397460e-01 -2.220446e-16  0.000000e+00
     vertex  4.743462e-01 -2.220446e-16  2.279730e-01
     vertex  4.712381e-01 -2.220446e-16  2.185931e-01
   endloop
 endfacet
 facet normal  0.000000e+00  1.000000e+00  0.000000e+00
   outer loop
     vertex  6.339746e-01 -2.220446e-16  0.000000e+00
     vertex  3.397460e-01 -2.220446e-16  0.000000e+00
     vertex  6.240974e-01 -2.220446e-16  2.873982e-04
   endloop
 endfacet
 facet normal  0.000000e+00  1.000000e+00  0.000000e+00
   outer loop
     vertex  6.240974e-01 -2.220446e-16  2.873982e-04
     vertex  3.397460e-01 -2.220446e-16  0.000000e+00
     vertex  6.142535e-01 -2.220446e-16  1.148620e-03
   endloop
 endfacet
 facet normal  0.000000e+00  1.000000e+00  0.000000e+00
   outer loop
     vertex  6.142535e-01 -2.220446e-16  1.148620e-03
     vertex  3.397460e-01 -2.220446e-16  0.000000e+00
     vertex  6.044765e-01 -2.220446e-16  2.580752e-03
   endloop
 endfacet
 facet normal  0.000000e+00  1.000000e+00  0.000000e+00
   outer loop
     vertex  6.044765e-01 -2.220446e-16  2.580752e-03
     vertex  3.397460e-01 -2.220446e-16  0.000000e+00
     vertex  5.947992e-01 -2.220446e-16  4.578948e-03
   endloop
 endfacet
 facet normal  0.000000e+00  1.000000e+00  0.000000e+00
   outer loop
     vertex  5.947992e-01 -2.220446e-16  4.578948e-03
     vertex  3.397460e-01 -2.220446e-16  0.000000e+00
     vertex  5.852545e-01 -2.220446e-16  7.136447e-03
   endloop
 endfacet
 facet normal  8.802014e-01  0.000000e+00 -4.746004e-01
   outer loop
     vertex  4.821706e-01 -2.220446e-16  2.461118e-01
     vertex  4.868603e-01 -2.220446e-16  2.548095e-01
     vertex  4.868603e-01 -1.366025e+00  2.548095e-01
   endloop
 endfacet
 facet normal  8.802014e-01  3.207457e-17 -4.746004e-01
   outer loop
     vertex  4.821706e-01 -2.220446e-16  2.461118e-01
     vertex  4.868603e-01 -1.366025e+00  2.548095e-01
     vertex  4.821706e-01 -1.366025e+00  2.461118e-01
   endloop
 endfacet
 facet normal  9.063078e-01  4.521825e-17 -4.226183e-01
   outer loop
     vertex  4.779945e-01 -2.220446e-16  2.371562e-01
     vertex  4.821706e-01 -1.366025e+00  2.461118e-01
     vertex  4.779945e-01 -1.366025e+00  2.371562e-01
   endloop
 endfacet
 facet normal  9.063078e-01 -1.104422e-17 -4.226183e-01
   outer loop
     vertex  4.779945e-01 -2.220446e-16  2.371562e-01
     vertex  4.821706e-01 -2.220446e-16  2.461118e-01
     vertex  4.821706e-01 -1.366025e+00  2.461118e-01
   endloop
 endfacet
 facet normal  9.293475e-01  3.622196e-17 -3.692061e-01
   outer loop
     vertex  4.743462e-01 -2.220446e-16  2.279730e-01
     vertex  4.779945e-01 -1.366025e+00  2.371562e-01
     vertex  4.743462e-01 -1.366025e+00  2.279730e-01
   endloop
 endfacet
 facet normal  9.293475e-01  6.024120e-18 -3.692061e-01
   outer loop
     vertex  4.743462e-01 -2.220446e-16  2.279730e-01
     vertex  4.779945e-01 -2.220446e-16  2.371562e-01
     vertex  4.779945e-01 -1.366025e+00  2.371562e-01
   endloop
 endfacet
 facet normal  9.492426e-01  1.187052e-17 -3.145448e-01
   outer loop
     vertex  4.712381e-01 -2.220446e-16  2.185931e-01
     vertex  4.743462e-01 -1.366025e+00  2.279730e-01
     vertex  4.712381e-01 -1.366025e+00  2.185931e-01
   endloop
 endfacet
 facet normal  9.492426e-01 -1.004020e-18 -3.145448e-01
   outer loop
     vertex  4.712381e-01 -2.220446e-16  2.185931e-01
     vertex  4.743462e-01 -2.220446e-16  2.279730e-01
     vertex  4.743462e-01 -1.366025e+00  2.279730e-01
   endloop
 endfacet
 facet normal  9.659258e-01 -2.553893e-17 -2.588190e-01
   outer loop
     vertex  4.686806e-01 -2.220446e-16  2.090484e-01
     vertex  4.712381e-01 -1.366025e+00  2.185931e-01
     vertex  4.686806e-01 -1.366025e+00  2.090484e-01
   endloop
 endfacet
 facet normal  9.659258e-01 -2.033140e-17 -2.588190e-01
   outer loop
     vertex  4.686806e-01 -2.220446e-16  2.090484e-01
     vertex  4.712381e-01 -2.220446e-16  2.185931e-01
     vertex  4.712381e-01 -1.366025e+00  2.185931e-01
   endloop
 endfacet
 facet normal  9.793406e-01 -5.647612e-17 -2.022176e-01
   outer loop
     vertex  4.666824e-01 -2.220446e-16  1.993711e-01
     vertex  4.686806e-01 -2.220446e-16  2.090484e-01
     vertex  4.686806e-01 -1.366025e+00  2.090484e-01
   endloop
 endfacet
 facet normal  9.793406e-01  1.490649e-17 -2.022176e-01
   outer loop
     vertex  4.666824e-01 -2.220446e-16  1.993711e-01
     vertex  4.686806e-01 -1.366025e+00  2.090484e-01
     vertex  4.666824e-01 -1.366025e+00  1.993711e-01
   endloop
 endfacet
 facet normal  9.894416e-01 -1.280125e-17 -1.449319e-01
   outer loop
     vertex  4.652502e-01 -2.220446e-16  1.895940e-01
     vertex  4.666824e-01 -2.220446e-16  1.993711e-01
     vertex  4.666824e-01 -1.366025e+00  1.993711e-01
   endloop
 endfacet
 facet normal  9.894416e-01  1.868801e-17 -1.449319e-01
   outer loop
     vertex  4.652502e-01 -2.220446e-16  1.895940e-01
     vertex  4.666824e-01 -1.366025e+00  1.993711e-01
     vertex  4.652502e-01 -1.366025e+00  1.895940e-01
   endloop
 endfacet
 facet normal  9.961947e-01  3.187572e-17 -8.715574e-02
   outer loop
     vertex  4.643890e-01 -2.220446e-16  1.797502e-01
     vertex  4.652502e-01 -1.366025e+00  1.895940e-01
     vertex  4.643890e-01 -1.366025e+00  1.797502e-01
   endloop
 endfacet
 facet normal  9.961947e-01 -5.020100e-18 -8.715574e-02
   outer loop
     vertex  4.643890e-01 -2.220446e-16  1.797502e-01
     vertex  4.652502e-01 -2.220446e-16  1.895940e-01
     vertex  4.652502e-01 -1.366025e+00  1.895940e-01
   endloop
 endfacet
 facet normal  9.995770e-01  8.273407e-18 -2.908472e-02
   outer loop
     vertex  4.641016e-01 -2.220446e-16  1.698730e-01
     vertex  4.643890e-01 -1.366025e+00  1.797502e-01
     vertex  4.641016e-01 -1.366025e+00  1.698730e-01
   endloop
 endfacet
 facet normal  9.995770e-01  1.063634e-17 -2.908472e-02
   outer loop
     vertex  4.641016e-01 -2.220446e-16  1.698730e-01
     vertex  4.643890e-01 -2.220446e-16  1.797502e-01
     vertex  4.643890e-01 -1.366025e+00  1.797502e-01
   endloop
 endfacet
 facet normal  9.995770e-01  3.352830e-17  2.908472e-02
   outer loop
     vertex  4.643890e-01 -2.220446e-16  1.599957e-01
     vertex  4.641016e-01 -1.366025e+00  1.698730e-01
     vertex  4.643890e-01 -1.366025e+00  1.599957e-01
   endloop
 endfacet
 facet normal  9.995770e-01 -8.283165e-18  2.908472e-02
   outer loop
     vertex  4.643890e-01 -2.220446e-16  1.599957e-01
     vertex  4.641016e-01 -2.220446e-16  1.698730e-01
     vertex  4.641016e-01 -1.366025e+00  1.698730e-01
   endloop
 endfacet
 facet normal  9.961947e-01 -1.593786e-17  8.715574e-02
   outer loop
     vertex  4.652502e-01 -2.220446e-16  1.501519e-01
     vertex  4.643890e-01 -1.366025e+00  1.599957e-01
     vertex  4.652502e-01 -1.366025e+00  1.501519e-01
   endloop
 endfacet
 facet normal  9.961947e-01  1.920188e-17  8.715574e-02
   outer loop
     vertex  4.652502e-01 -2.220446e-16  1.501519e-01
     vertex  4.643890e-01 -2.220446e-16  1.599957e-01
     vertex  4.643890e-01 -1.366025e+00  1.599957e-01
   endloop
 endfacet
 facet normal  9.894416e-01 -1.766878e-17  1.449319e-01
   outer loop
     vertex  4.666824e-01 -2.220446e-16  1.403748e-01
     vertex  4.652502e-01 -1.366025e+00  1.501519e-01
     vertex  4.666824e-01 -1.366025e+00  1.403748e-01
   endloop
 endfacet
 facet normal  9.894416e-01 -2.648103e-17  1.449319e-01
   outer loop
     vertex  4.666824e-01 -2.220446e-16  1.403748e-01
     vertex  4.652502e-01 -2.220446e-16  1.501519e-01
     vertex  4.652502e-01 -1.366025e+00  1.501519e-01
   endloop
 endfacet
 facet normal  9.793406e-01 -1.643502e-17  2.022176e-01
   outer loop
     vertex  4.686806e-01 -2.220446e-16  1.306976e-01
     vertex  4.666824e-01 -1.366025e+00  1.403748e-01
     vertex  4.686806e-01 -1.366025e+00  1.306976e-01
   endloop
 endfacet
 facet normal  9.793406e-01 -2.459849e-17  2.022176e-01
   outer loop
     vertex  4.686806e-01 -2.220446e-16  1.306976e-01
     vertex  4.666824e-01 -2.220446e-16  1.403748e-01
     vertex  4.666824e-01 -1.366025e+00  1.403748e-01
   endloop
 endfacet
 facet normal  9.659258e-01  3.399350e-17  2.588190e-01
   outer loop
     vertex  4.712381e-01 -2.220446e-16  1.211529e-01
     vertex  4.686806e-01 -1.366025e+00  1.306976e-01
     vertex  4.712381e-01 -1.366025e+00  1.211529e-01
   endloop
 endfacet
 facet normal  9.659258e-01 -2.108442e-17  2.588190e-01
   outer loop
     vertex  4.712381e-01 -2.220446e-16  1.211529e-01
     vertex  4.686806e-01 -2.220446e-16  1.306976e-01
     vertex  4.686806e-01 -1.366025e+00  1.306976e-01
   endloop
 endfacet
 facet normal  9.492426e-01  1.278215e-17  3.145448e-01
   outer loop
     vertex  4.743462e-01 -2.220446e-16  1.117730e-01
     vertex  4.712381e-01 -1.366025e+00  1.211529e-01
     vertex  4.743462e-01 -1.366025e+00  1.117730e-01
   endloop
 endfacet
 facet normal  9.492426e-01  3.212864e-17  3.145448e-01
   outer loop
     vertex  4.743462e-01 -2.220446e-16  1.117730e-01
     vertex  4.712381e-01 -2.220446e-16  1.211529e-01
     vertex  4.712381e-01 -1.366025e+00  1.211529e-01
   endloop
 endfacet
 facet normal  9.293475e-01 -1.150989e-17  3.692061e-01
   outer loop
     vertex  4.779945e-01 -2.220446e-16  1.025897e-01
     vertex  4.743462e-01 -1.366025e+00  1.117730e-01
     vertex  4.779945e-01 -1.366025e+00  1.025897e-01
   endloop
 endfacet
 facet normal  9.293475e-01  1.506030e-17  3.692061e-01
   outer loop
     vertex  4.779945e-01 -2.220446e-16  1.025897e-01
     vertex  4.743462e-01 -2.220446e-16  1.117730e-01
     vertex  4.743462e-01 -1.366025e+00  1.117730e-01
   endloop
 endfacet
 facet normal  9.063078e-01 -2.213743e-17  4.226183e-01
   outer loop
     vertex  4.821706e-01 -2.220446e-16  9.363413e-02
     vertex  4.779945e-01 -1.366025e+00  1.025897e-01
     vertex  4.821706e-01 -1.366025e+00  9.363413e-02
   endloop
 endfacet
 facet normal  9.063078e-01 -7.028140e-18  4.226183e-01
   outer loop
     vertex  4.821706e-01 -2.220446e-16  9.363413e-02
     vertex  4.779945e-01 -2.220446e-16  1.025897e-01
     vertex  4.779945e-01 -1.366025e+00  1.025897e-01
   endloop
 endfacet
 facet normal  8.802014e-01  1.042943e-17  4.746004e-01
   outer loop
     vertex  4.868603e-01 -2.220446e-16  8.493649e-02
     vertex  4.821706e-01 -1.366025e+00  9.363413e-02
     vertex  4.868603e-01 -1.366025e+00  8.493649e-02
   endloop
 endfacet
 facet normal  8.511167e-01  2.149360e-17  5.249766e-01
   outer loop
     vertex  4.868603e-01 -2.220446e-16  8.493649e-02
     vertex  4.868603e-01 -1.366025e+00  8.493649e-02
     vertex  4.920478e-01 -1.366025e+00  7.652625e-02
   endloop
 endfacet
 facet normal  8.802014e-01 -1.355427e-17  4.746004e-01
   outer loop
     vertex  4.868603e-01 -2.220446e-16  8.493649e-02
     vertex  4.821706e-01 -2.220446e-16  9.363413e-02
     vertex  4.821706e-01 -1.366025e+00  9.363413e-02
   endloop
 endfacet
 facet normal  8.191520e-01  1.667848e-17  5.735764e-01
   outer loop
     vertex  4.920478e-01 -2.220446e-16  7.652625e-02
     vertex  4.920478e-01 -1.366025e+00  7.652625e-02
     vertex  4.977155e-01 -1.366025e+00  6.843187e-02
   endloop
 endfacet
 facet normal  8.511167e-01  2.906881e-18  5.249766e-01
   outer loop
     vertex  4.920478e-01 -2.220446e-16  7.652625e-02
     vertex  4.868603e-01 -2.220446e-16  8.493649e-02
     vertex  4.920478e-01 -1.366025e+00  7.652625e-02
   endloop
 endfacet
 facet normal  8.191520e-01  1.252613e-17  5.735764e-01
   outer loop
     vertex  4.977155e-01 -2.220446e-16  6.843187e-02
     vertex  4.920478e-01 -2.220446e-16  7.652625e-02
     vertex  4.977155e-01 -1.366025e+00  6.843187e-02
   endloop
 endfacet
 facet normal  7.844157e-01 -2.112735e-17  6.202355e-01
   outer loop
     vertex  5.038443e-01 -2.220446e-16  6.068073e-02
     vertex  4.977155e-01 -1.366025e+00  6.843187e-02
     vertex  5.038443e-01 -1.366025e+00  6.068073e-02
   endloop
 endfacet
 facet normal  7.470251e-01  2.121927e-19  6.647959e-01
   outer loop
     vertex  5.038443e-01 -2.220446e-16  6.068073e-02
     vertex  5.038443e-01 -1.366025e+00  6.068073e-02
     vertex  5.104135e-01 -1.366025e+00  5.329907e-02
   endloop
 endfacet
 facet normal  7.844157e-01  3.012060e-17  6.202355e-01
   outer loop
     vertex  5.038443e-01 -2.220446e-16  6.068073e-02
     vertex  4.977155e-01 -2.220446e-16  6.843187e-02
     vertex  4.977155e-01 -1.366025e+00  6.843187e-02
   endloop
 endfacet
 facet normal  7.071068e-01  4.310203e-17  7.071068e-01
   outer loop
     vertex  5.104135e-01 -2.220446e-16  5.329907e-02
     vertex  5.104135e-01 -1.366025e+00  5.329907e-02
     vertex  5.174007e-01 -1.366025e+00  4.631185e-02
   endloop
 endfacet
 facet normal  7.470251e-01  2.047367e-17  6.647959e-01
   outer loop
     vertex  5.104135e-01 -2.220446e-16  5.329907e-02
     vertex  5.038443e-01 -2.220446e-16  6.068073e-02
     vertex  5.104135e-01 -1.366025e+00  5.329907e-02
   endloop
 endfacet
 facet normal  6.647959e-01  3.432159e-17  7.470251e-01
   outer loop
     vertex  5.174007e-01 -2.220446e-16  4.631185e-02
     vertex  5.174007e-01 -1.366025e+00  4.631185e-02
     vertex  5.247823e-01 -1.366025e+00  3.974273e-02
   endloop
 endfacet
 facet normal  7.071068e-01  7.183672e-18  7.071068e-01
   outer loop
     vertex  5.174007e-01 -2.220446e-16  4.631185e-02
     vertex  5.104135e-01 -2.220446e-16  5.329907e-02
     vertex  5.174007e-01 -1.366025e+00  4.631185e-02
   endloop
 endfacet
 facet normal  6.202355e-01 -2.891099e-17  7.844157e-01
   outer loop
     vertex  5.247823e-01 -2.220446e-16  3.974273e-02
     vertex  5.247823e-01 -1.366025e+00  3.974273e-02
     vertex  5.325335e-01 -1.366025e+00  3.361392e-02
   endloop
 endfacet
 facet normal  6.647959e-01 -5.765507e-17  7.470251e-01
   outer loop
     vertex  5.247823e-01 -2.220446e-16  3.974273e-02
     vertex  5.174007e-01 -2.220446e-16  4.631185e-02
     vertex  5.247823e-01 -1.366025e+00  3.974273e-02
   endloop
 endfacet
 facet normal  5.735764e-01  1.657485e-17  8.191520e-01
   outer loop
     vertex  5.325335e-01 -2.220446e-16  3.361392e-02
     vertex  5.325335e-01 -1.366025e+00  3.361392e-02
     vertex  5.406279e-01 -1.366025e+00  2.794618e-02
   endloop
 endfacet
 facet normal  6.202355e-01 -1.297285e-17  7.844157e-01
   outer loop
     vertex  5.325335e-01 -2.220446e-16  3.361392e-02
     vertex  5.247823e-01 -2.220446e-16  3.974273e-02
     vertex  5.325335e-01 -1.366025e+00  3.361392e-02
   endloop
 endfacet
 facet normal  5.249766e-01  1.147965e-17  8.511167e-01
   outer loop
     vertex  5.406279e-01 -2.220446e-16  2.794618e-02
     vertex  5.406279e-01 -1.366025e+00  2.794618e-02
     vertex  5.490381e-01 -1.366025e+00  2.275866e-02
   endloop
 endfacet
 facet normal  5.735764e-01 -1.671302e-17  8.191520e-01
   outer loop
     vertex  5.406279e-01 -2.220446e-16  2.794618e-02
     vertex  5.325335e-01 -2.220446e-16  3.361392e-02
     vertex  5.406279e-01 -1.366025e+00  2.794618e-02
   endloop
 endfacet
 facet normal  4.746004e-01  3.963347e-17  8.802014e-01
   outer loop
     vertex  5.490381e-01 -2.220446e-16  2.275866e-02
     vertex  5.490381e-01 -1.366025e+00  2.275866e-02
     vertex  5.577357e-01 -1.366025e+00  1.806894e-02
   endloop
 endfacet
 facet normal  5.249766e-01  1.147965e-17  8.511167e-01
   outer loop
     vertex  5.490381e-01 -2.220446e-16  2.275866e-02
     vertex  5.406279e-01 -2.220446e-16  2.794618e-02
     vertex  5.490381e-01 -1.366025e+00  2.275866e-02
   endloop
 endfacet
 facet normal  4.226183e-01 -2.193910e-17  9.063078e-01
   outer loop
     vertex  5.577357e-01 -2.220446e-16  1.806894e-02
     vertex  5.577357e-01 -1.366025e+00  1.806894e-02
     vertex  5.666913e-01 -1.366025e+00  1.389287e-02
   endloop
 endfacet
 facet normal  4.746004e-01 -5.259228e-17  8.802014e-01
   outer loop
     vertex  5.577357e-01 -2.220446e-16  1.806894e-02
     vertex  5.490381e-01 -2.220446e-16  2.275866e-02
     vertex  5.577357e-01 -1.366025e+00  1.806894e-02
   endloop
 endfacet
 facet normal  3.692061e-01  1.991222e-17  9.293475e-01
   outer loop
     vertex  5.666913e-01 -2.220446e-16  1.389287e-02
     vertex  5.666913e-01 -1.366025e+00  1.389287e-02
     vertex  5.758746e-01 -1.366025e+00  1.024459e-02
   endloop
 endfacet
 facet normal  4.226183e-01 -6.006048e-18  9.063078e-01
   outer loop
     vertex  5.666913e-01 -2.220446e-16  1.389287e-02
     vertex  5.577357e-01 -2.220446e-16  1.806894e-02
     vertex  5.666913e-01 -1.366025e+00  1.389287e-02
   endloop
 endfacet
 facet normal  3.692061e-01  1.029279e-18  9.293475e-01
   outer loop
     vertex  5.758746e-01 -2.220446e-16  1.024459e-02
     vertex  5.666913e-01 -2.220446e-16  1.389287e-02
     vertex  5.758746e-01 -1.366025e+00  1.024459e-02
   endloop
 endfacet
 facet normal  3.145448e-01 -5.821306e-18  9.492426e-01
   outer loop
     vertex  5.852545e-01 -2.220446e-16  7.136447e-03
     vertex  5.758746e-01 -1.366025e+00  1.024459e-02
     vertex  5.852545e-01 -1.366025e+00  7.136447e-03
   endloop
 endfacet
 facet normal  3.145448e-01  2.635552e-17  9.492426e-01
   outer loop
     vertex  5.852545e-01 -2.220446e-16  7.136447e-03
     vertex  5.758746e-01 -2.220446e-16  1.024459e-02
     vertex  5.758746e-01 -1.366025e+00  1.024459e-02
   endloop
 endfacet
 facet normal  2.588190e-01  1.405628e-17  9.659258e-01
   outer loop
     vertex  5.947992e-01 -2.220446e-16  4.578948e-03
     vertex  5.852545e-01 -2.220446e-16  7.136447e-03
     vertex  5.852545e-01 -1.366025e+00  7.136447e-03
   endloop
 endfacet
 facet normal  2.588190e-01 -5.636378e-18  9.659258e-01
   outer loop
     vertex  5.947992e-01 -2.220446e-16  4.578948e-03
     vertex  5.852545e-01 -1.366025e+00  7.136447e-03
     vertex  5.947992e-01 -1.366025e+00  4.578948e-03
   endloop
 endfacet
 facet normal  2.022176e-01  1.385480e-17  9.793406e-01
   outer loop
     vertex  5.947992e-01 -2.220446e-16  4.578948e-03
     vertex  5.947992e-01 -1.366025e+00  4.578948e-03
     vertex  6.044765e-01 -1.366025e+00  2.580752e-03
   endloop
 endfacet
 facet normal  2.022176e-01 -6.043924e-18  9.793406e-01
   outer loop
     vertex  6.044765e-01 -2.220446e-16  2.580752e-03
     vertex  5.947992e-01 -2.220446e-16  4.578948e-03
     vertex  6.044765e-01 -1.366025e+00  2.580752e-03
   endloop
 endfacet
 facet normal  1.449319e-01  1.317776e-17  9.894416e-01
   outer loop
     vertex  6.142535e-01 -2.220446e-16  1.148620e-03
     vertex  6.044765e-01 -2.220446e-16  2.580752e-03
     vertex  6.044765e-01 -1.366025e+00  2.580752e-03
   endloop
 endfacet
 facet normal  1.449319e-01 -6.908825e-18  9.894416e-01
   outer loop
     vertex  6.142535e-01 -2.220446e-16  1.148620e-03
     vertex  6.044765e-01 -1.366025e+00  2.580752e-03
     vertex  6.142535e-01 -1.366025e+00  1.148620e-03
   endloop
 endfacet
 facet normal  8.715574e-02  1.214838e-17  9.961947e-01
   outer loop
     vertex  6.142535e-01 -2.220446e-16  1.148620e-03
     vertex  6.142535e-01 -1.366025e+00  1.148620e-03
     vertex  6.240974e-01 -1.366025e+00  2.873982e-04
   endloop
 endfacet
 facet normal  8.715574e-02 -1.009305e-18  9.961947e-01
   outer loop
     vertex  6.240974e-01 -2.220446e-16  2.873982e-04
     vertex  6.142535e-01 -2.220446e-16  1.148620e-03
     vertex  6.240974e-01 -1.366025e+00  2.873982e-04
   endloop
 endfacet
 facet normal  2.908472e-02  1.320914e-17  9.995770e-01
   outer loop
     vertex  6.339746e-01 -2.220446e-16  0.000000e+00
     vertex  6.240974e-01 -2.220446e-16  2.873982e-04
     vertex  6.240974e-01 -1.366025e+00  2.873982e-04
   endloop
 endfacet
 facet normal  2.908472e-02  0.000000e+00  9.995770e-01
   outer loop
     vertex  6.339746e-01 -2.220446e-16  0.000000e+00
     vertex  6.240974e-01 -1.366025e+00  2.873982e-04
     vertex  6.339746e-01 -1.366025e+00  0.000000e+00
   endloop
 endfacet
 facet normal  0.000000e+00 -1.000000e+00  0.000000e+00
   outer loop
     vertex  3.397460e-01 -1.366025e+00  0.000000e+00
     vertex  4.686806e-01 -1.366025e+00  2.090484e-01
     vertex  4.712381e-01 -1.366025e+00  2.185931e-01
   endloop
 endfacet
 facet normal  0.000000e+00 -1.000000e+00  0.000000e+00
   outer loop
     vertex  3.397460e-01 -1.366025e+00  0.000000e+00
     vertex  4.666824e-01 -1.366025e+00  1.993711e-01
     vertex  4.686806e-01 -1.366025e+00  2.090484e-01
   endloop
 endfacet
 facet normal  0.000000e+00 -1.000000e+00  0.000000e+00
   outer loop
     vertex  3.397460e-01 -1.366025e+00  0.000000e+00
     vertex  4.652502e-01 -1.366025e+00  1.895940e-01
     vertex  4.666824e-01 -1.366025e+00  1.993711e-01
   endloop
 endfacet
 facet normal  0.000000e+00 -1.000000e+00  0.000000e+00
   outer loop
     vertex  3.397460e-01 -1.366025e+00  0.000000e+00
     vertex  4.643890e-01 -1.366025e+00  1.797502e-01
     vertex  4.652502e-01 -1.366025e+00  1.895940e-01
   endloop
 endfacet
 facet normal  0.000000e+00 -1.000000e+00  0.000000e+00
   outer loop
     vertex  3.397460e-01 -1.366025e+00  0.000000e+00
     vertex  4.641016e-01 -1.366025e+00  1.698730e-01
     vertex  4.643890e-01 -1.366025e+00  1.797502e-01
   endloop
 endfacet
 facet normal  0.000000e+00 -1.000000e+00  0.000000e+00
   outer loop
     vertex  3.397460e-01 -1.366025e+00  0.000000e+00
     vertex  4.643890e-01 -1.366025e+00  1.599957e-01
     vertex  4.641016e-01 -1.366025e+00  1.698730e-01
   endloop
 endfacet
 facet normal  0.000000e+00 -1.000000e+00  0.000000e+00
   outer loop
     vertex  3.397460e-01 -1.366025e+00  0.000000e+00
     vertex  4.652502e-01 -1.366025e+00  1.501519e-01
     vertex  4.643890e-01 -1.366025e+00  1.599957e-01
   endloop
 endfacet
 facet normal  0.000000e+00 -1.000000e+00  0.000000e+00
   outer loop
     vertex  3.397460e-01 -1.366025e+00  0.000000e+00
     vertex  4.666824e-01 -1.366025e+00  1.403748e-01
     vertex  4.652502e-01 -1.366025e+00  1.501519e-01
   endloop
 endfacet
 facet normal  0.000000e+00 -1.000000e+00  0.000000e+00
   outer loop
     vertex  3.397460e-01 -1.366025e+00  0.000000e+00
     vertex  4.686806e-01 -1.366025e+00  1.306976e-01
     vertex  4.666824e-01 -1.366025e+00  1.403748e-01
   endloop
 endfacet
 facet normal -0.000000e+00 -1.000000e+00  0.000000e+00
   outer loop
     vertex  4.712381e-01 -1.366025e+00  1.211529e-01
     vertex  4.686806e-01 -1.366025e+00  1.306976e-01
     vertex  3.397460e-01 -1.366025e+00  0.000000e+00
   endloop
 endfacet
 facet normal -0.000000e+00 -1.000000e+00  0.000000e+00
   outer loop
     vertex  4.743462e-01 -1.366025e+00  1.117730e-01
     vertex  4.712381e-01 -1.366025e+00  1.211529e-01
     vertex  3.397460e-01 -1.366025e+00  0.000000e+00
   endloop
 endfacet
 facet normal -0.000000e+00 -1.000000e+00  0.000000e+00
   outer loop
     vertex  4.779945e-01 -1.366025e+00  1.025897e-01
     vertex  4.743462e-01 -1.366025e+00  1.117730e-01
     vertex  3.397460e-01 -1.366025e+00  0.000000e+00
   endloop
 endfacet
 facet normal -0.000000e+00 -1.000000e+00  0.000000e+00
   outer loop
     vertex  4.821706e-01 -1.366025e+00  9.363413e-02
     vertex  4.779945e-01 -1.366025e+00  1.025897e-01
     vertex  3.397460e-01 -1.366025e+00  0.000000e+00
   endloop
 endfacet
 facet normal -0.000000e+00 -1.000000e+00  0.000000e+00
   outer loop
     vertex  4.868603e-01 -1.366025e+00  8.493649e-02
     vertex  4.821706e-01 -1.366025e+00  9.363413e-02
     vertex  3.397460e-01 -1.366025e+00  0.000000e+00
   endloop
 endfacet
 facet normal -0.000000e+00 -1.000000e+00  0.000000e+00
   outer loop
     vertex  4.920478e-01 -1.366025e+00  7.652625e-02
     vertex  4.868603e-01 -1.366025e+00  8.493649e-02
     vertex  3.397460e-01 -1.366025e+00  0.000000e+00
   endloop
 endfacet
 facet normal -0.000000e+00 -1.000000e+00  0.000000e+00
   outer loop
     vertex  4.977155e-01 -1.366025e+00  6.843187e-02
     vertex  4.920478e-01 -1.366025e+00  7.652625e-02
     vertex  3.397460e-01 -1.366025e+00  0.000000e+00
   endloop
 endfacet
 facet normal -0.000000e+00 -1.000000e+00  0.000000e+00
   outer loop
     vertex  5.038443e-01 -1.366025e+00  6.068073e-02
     vertex  4.977155e-01 -1.366025e+00  6.843187e-02
     vertex  3.397460e-01 -1.366025e+00  0.000000e+00
   endloop
 endfacet
 facet normal -0.000000e+00 -1.000000e+00  0.000000e+00
   outer loop
     vertex  5.104135e-01 -1.366025e+00  5.329907e-02
     vertex  5.038443e-01 -1.366025e+00  6.068073e-02
     vertex  3.397460e-01 -1.366025e+00  0.000000e+00
   endloop
 endfacet
 facet normal -0.000000e+00 -1.000000e+00  0.000000e+00
   outer loop
     vertex  5.174007e-01 -1.366025e+00  4.631185e-02
     vertex  5.104135e-01 -1.366025e+00  5.329907e-02
     vertex  3.397460e-01 -1.366025e+00  0.000000e+00
   endloop
 endfacet
 facet normal -0.000000e+00 -1.000000e+00  0.000000e+00
   outer loop
     vertex  5.247823e-01 -1.366025e+00  3.974273e-02
     vertex  5.174007e-01 -1.366025e+00  4.631185e-02
     vertex  3.397460e-01 -1.366025e+00  0.000000e+00
   endloop
 endfacet
 facet normal -0.000000e+00 -1.000000e+00  0.000000e+00
   outer loop
     vertex  5.325335e-01 -1.366025e+00  3.361392e-02
     vertex  5.247823e-01 -1.366025e+00  3.974273e-02
     vertex  3.397460e-01 -1.366025e+00  0.000000e+00
   endloop
 endfacet
 facet normal -0.000000e+00 -1.000000e+00  0.000000e+00
   outer loop
     vertex  5.406279e-01 -1.366025e+00  2.794618e-02
     vertex  5.325335e-01 -1.366025e+00  3.361392e-02
     vertex  3.397460e-01 -1.366025e+00  0.000000e+00
   endloop
 endfacet
 facet normal -0.000000e+00 -1.000000e+00  0.000000e+00
   outer loop
     vertex  5.490381e-01 -1.366025e+00  2.275866e-02
     vertex  5.406279e-01 -1.366025e+00  2.794618e-02
     vertex  3.397460e-01 -1.366025e+00  0.000000e+00
   endloop
 endfacet
 facet normal -0.000000e+00 -1.000000e+00  0.000000e+00
   outer loop
     vertex  5.577357e-01 -1.366025e+00  1.806894e-02
     vertex  5.490381e-01 -1.366025e+00  2.275866e-02
     vertex  3.397460e-01 -1.366025e+00  0.000000e+00
   endloop
 endfacet
 facet normal -0.000000e+00 -1.000000e+00  0.000000e+00
   outer loop
     vertex  5.666913e-01 -1.366025e+00  1.389287e-02
     vertex  5.577357e-01 -1.366025e+00  1.806894e-02
     vertex  3.397460e-01 -1.366025e+00  0.000000e+00
   endloop
 endfacet
 facet normal -0.000000e+00 -1.000000e+00  0.000000e+00
   outer loop
     vertex  5.758746e-01 -1.366025e+00  1.024459e-02
     vertex  5.666913e-01 -1.366025e+00  1.389287e-02
     vertex  3.397460e-01 -1.366025e+00  0.000000e+00
   endloop
 endfacet
 facet normal -0.000000e+00 -1.000000e+00  0.000000e+00
   outer loop
     vertex  5.852545e-01 -1.366025e+00  7.136447e-03
     vertex  5.758746e-01 -1.366025e+00  1.024459e-02
     vertex  3.397460e-01 -1.366025e+00  0.000000e+00
   endloop
 endfacet
 facet normal  0.000000e+00 -1.000000e+00  0.000000e+00
   outer loop
     vertex  4.868603e-01 -1.366025e+00  2.548095e-01
     vertex  3.397460e-01 -1.366025e+00  0.000000e+00
     vertex  4.821706e-01 -1.366025e+00  2.461118e-01
   endloop
 endfacet
 facet normal  0.000000e+00 -1.000000e+00  0.000000e+00
   outer loop
     vertex  4.821706e-01 -1.366025e+00  2.461118e-01
     vertex  3.397460e-01 -1.366025e+00  0.000000e+00
     vertex  4.779945e-01 -1.366025e+00  2.371562e-01
   endloop
 endfacet
 facet normal  0.000000e+00 -1.000000e+00  0.000000e+00
   outer loop
     vertex  4.779945e-01 -1.366025e+00  2.371562e-01
     vertex  3.397460e-01 -1.366025e+00  0.000000e+00
     vertex  4.743462e-01 -1.366025e+00  2.279730e-01
   endloop
 endfacet
 facet normal  0.000000e+00 -1.000000e+00  0.000000e+00
   outer loop
     vertex  4.743462e-01 -1.366025e+00  2.279730e-01
     vertex  3.397460e-01 -1.366025e+00  0.000000e+00
     vertex  4.712381e-01 -1.366025e+00  2.185931e-01
   endloop
 endfacet
 facet normal  0.000000e+00 -1.000000e+00  0.000000e+00
   outer loop
     vertex  3.397460e-01 -1.366025e+00  0.000000e+00
     vertex  6.339746e-01 -1.366025e+00  0.000000e+00
     vertex  6.240974e-01 -1.366025e+00  2.873982e-04
   endloop
 endfacet
 facet normal  0.000000e+00 -1.000000e+00  0.000000e+00
   outer loop
     vertex  3.397460e-01 -1.366025e+00  0.000000e+00
     vertex  6.240974e-01 -1.366025e+00  2.873982e-04
     vertex  6.142535e-01 -1.366025e+00  1.148620e-03
   endloop
 endfacet
 facet normal  0.000000e+00 -1.000000e+00  0.000000e+00
   outer loop
     vertex  3.397460e-01 -1.366025e+00  0.000000e+00
     vertex  6.142535e-01 -1.366025e+00  1.148620e-03
     vertex  6.044765e-01 -1.366025e+00  2.580752e-03
   endloop
 endfacet
 facet normal  0.000000e+00 -1.000000e+00  0.000000e+00
   outer loop
     vertex  3.397460e-01 -1.366025e+00  0.000000e+00
     vertex  6.044765e-01 -1.366025e+00  2.580752e-03
     vertex  5.947992e-01 -1.366025e+00  4.578948e-03
   endloop
 endfacet
 facet normal  0.000000e+00 -1.000000e+00  0.000000e+00
   outer loop
     vertex  3.397460e-01 -1.366025e+00  0.000000e+00
     vertex  5.947992e-01 -1.366025e+00  4.578948e-03
     vertex  5.852545e-01 -1.366025e+00  7.136447e-03
   endloop
 endfacet
endsolid
