solid 
 facet normal  5.000000e-01  0.000000e+00  8.660254e-01
   outer loop
     vertex -2.500000e-01  0.000000e+00  4.330127e-01
     vertex  5.000000e-01 -1.000000e+00  0.000000e+00
     vertex  5.000000e-01  0.000000e+00  0.000000e+00
   endloop
 endfacet
 facet normal  5.000000e-01  0.000000e+00  8.660254e-01
   outer loop
     vertex -2.500000e-01  0.000000e+00  4.330127e-01
     vertex -2.500000e-01 -1.000000e+00  4.330127e-01
     vertex  5.000000e-01 -1.000000e+00  0.000000e+00
   endloop
 endfacet
 facet normal -1.000000e+00  0.000000e+00  3.845925e-16
   outer loop
     vertex -2.500000e-01 -0.000000e+00 -4.330127e-01
     vertex -2.500000e-01 -1.000000e+00  4.330127e-01
     vertex -2.500000e-01  0.000000e+00  4.330127e-01
   endloop
 endfacet
 facet normal -1.000000e+00  0.000000e+00  3.845925e-16
   outer loop
     vertex -2.500000e-01 -0.000000e+00 -4.330127e-01
     vertex -2.500000e-01 -1.000000e+00 -4.330127e-01
     vertex -2.500000e-01 -1.000000e+00  4.330127e-01
   endloop
 endfacet
 facet normal  5.000000e-01  0.000000e+00 -8.660254e-01
   outer loop
     vertex  5.000000e-01  0.000000e+00  0.000000e+00
     vertex -2.500000e-01 -1.000000e+00 -4.330127e-01
     vertex -2.500000e-01 -0.000000e+00 -4.330127e-01
   endloop
 endfacet
 facet normal  5.000000e-01  0.000000e+00 -8.660254e-01
   outer loop
     vertex  5.000000e-01  0.000000e+00  0.000000e+00
     vertex  5.000000e-01 -1.000000e+00  0.000000e+00
     vertex -2.500000e-01 -1.000000e+00 -4.330127e-01
   endloop
 endfacet
 facet normal  0.000000e+00  1.000000e+00 -0.000000e+00
   outer loop
     vertex  5.000000e-01  0.000000e+00  0.000000e+00
     vertex -2.500000e-01 -0.000000e+00 -4.330127e-01
     vertex -2.500000e-01  0.000000e+00  4.330127e-01
   endloop
 endfacet
 facet normal -0.000000e+00 -1.000000e+00  0.000000e+00
   outer loop
     vertex  5.000000e-01 -1.000000e+00  0.000000e+00
     vertex -2.500000e-01 -1.000000e+00  4.330127e-01
     vertex -2.500000e-01 -1.000000e+00 -4.330127e-01
   endloop
 endfacet
 facet normal  5.000000e-01  0.000000e+00  8.660254e-01
   outer loop
     vertex  7.500000e-01  0.000000e+00  4.330127e-01
     vertex  1.500000e+00 -1.000000e+00  0.000000e+00
     vertex  1.500000e+00  0.000000e+00  0.000000e+00
   endloop
 endfacet
 facet normal  5.000000e-01  0.000000e+00  8.660254e-01
   outer loop
     vertex  7.500000e-01  0.000000e+00  4.330127e-01
     vertex  7.500000e-01 -1.000000e+00  4.330127e-01
     vertex  1.500000e+00 -1.000000e+00  0.000000e+00
   endloop
 endfacet
 facet normal -1.000000e+00  0.000000e+00  3.845925e-16
   outer loop
     vertex  7.500000e-01  0.000000e+00 -4.330127e-01
     vertex  7.500000e-01 -1.000000e+00  4.330127e-01
     vertex  7.500000e-01  0.000000e+00  4.330127e-01
   endloop
 endfacet
 facet normal -1.000000e+00  0.000000e+00  3.845925e-16
   outer loop
     vertex  7.500000e-01  0.000000e+00 -4.330127e-01
     vertex  7.500000e-01 -1.000000e+00 -4.330127e-01
     vertex  7.500000e-01 -1.000000e+00  4.330127e-01
   endloop
 endfacet
 facet normal  5.000000e-01  0.000000e+00 -8.660254e-01
   outer loop
     vertex  1.500000e+00  0.000000e+00  0.000000e+00
     vertex  7.500000e-01 -1.000000e+00 -4.330127e-01
     vertex  7.500000e-01  0.000000e+00 -4.330127e-01
   endloop
 endfacet
 facet normal  5.000000e-01  0.000000e+00 -8.660254e-01
   outer loop
     vertex  1.500000e+00  0.000000e+00  0.000000e+00
     vertex  1.500000e+00 -1.000000e+00  0.000000e+00
     vertex  7.500000e-01 -1.000000e+00 -4.330127e-01
   endloop
 endfacet
 facet normal  0.000000e+00  1.000000e+00  0.000000e+00
   outer loop
     vertex  1.500000e+00  0.000000e+00  0.000000e+00
     vertex  7.500000e-01  0.000000e+00 -4.330127e-01
     vertex  7.500000e-01  0.000000e+00  4.330127e-01
   endloop
 endfacet
 facet normal -0.000000e+00 -1.000000e+00  0.000000e+00
   outer loop
     vertex  1.500000e+00 -1.000000e+00  0.000000e+00
     vertex  7.500000e-01 -1.000000e+00  4.330127e-01
     vertex  7.500000e-01 -1.000000e+00 -4.330127e-01
   endloop
 endfacet
 facet normal  5.000000e-01  0.000000e+00  8.660254e-01
   outer loop
     vertex  1.750000e+00  0.000000e+00  4.330127e-01
     vertex  2.500000e+00 -1.000000e+00  0.000000e+00
     vertex  2.500000e+00  0.000000e+00  0.000000e+00
   endloop
 endfacet
 facet normal  5.000000e-01  0.000000e+00  8.660254e-01
   outer loop
     vertex  1.750000e+00  0.000000e+00  4.330127e-01
     vertex  1.750000e+00 -1.000000e+00  4.330127e-01
     vertex  2.500000e+00 -1.000000e+00  0.000000e+00
   endloop
 endfacet
 facet normal -1.000000e+00  0.000000e+00  2.563950e-16
   outer loop
     vertex  1.750000e+00  0.000000e+00 -4.330127e-01
     vertex  1.750000e+00 -1.000000e+00  4.330127e-01
     vertex  1.750000e+00  0.000000e+00  4.330127e-01
   endloop
 endfacet
 facet normal -1.000000e+00  0.000000e+00  2.563950e-16
   outer loop
     vertex  1.750000e+00  0.000000e+00 -4.330127e-01
     vertex  1.750000e+00 -1.000000e+00 -4.330127e-01
     vertex  1.750000e+00 -1.000000e+00  4.330127e-01
   endloop
 endfacet
 facet normal  5.000000e-01  0.000000e+00 -8.660254e-01
   outer loop
     vertex  2.500000e+00  0.000000e+00  0.000000e+00
     vertex  1.750000e+00 -1.000000e+00 -4.330127e-01
     vertex  1.750000e+00  0.000000e+00 -4.330127e-01
   endloop
 endfacet
 facet normal  5.000000e-01  0.000000e+00 -8.660254e-01
   outer loop
     vertex  2.500000e+00  0.000000e+00  0.000000e+00
     vertex  2.500000e+00 -1.000000e+00  0.000000e+00
     vertex  1.750000e+00 -1.000000e+00 -4.330127e-01
   endloop
 endfacet
 facet normal  0.000000e+00  1.000000e+00  0.000000e+00
   outer loop
     vertex  2.500000e+00  0.000000e+00  0.000000e+00
     vertex  1.750000e+00  0.000000e+00 -4.330127e-01
     vertex  1.750000e+00  0.000000e+00  4.330127e-01
   endloop
 endfacet
 facet normal -0.000000e+00 -1.000000e+00  0.000000e+00
   outer loop
     vertex  2.500000e+00 -1.000000e+00  0.000000e+00
     vertex  1.750000e+00 -1.000000e+00  4.330127e-01
     vertex  1.750000e+00 -1.000000e+00 -4.330127e-01
   endloop
 endfacet
 facet normal  5.000000e-01  0.000000e+00  8.660254e-01
   outer loop
     vertex  1.750000e+00  1.000000e+00  4.330127e-01
     vertex  2.500000e+00  0.000000e+00  0.000000e+00
     vertex  2.500000e+00  1.000000e+00  0.000000e+00
   endloop
 endfacet
 facet normal  5.000000e-01  0.000000e+00  8.660254e-01
   outer loop
     vertex  1.750000e+00  1.000000e+00  4.330127e-01
     vertex  1.750000e+00  0.000000e+00  4.330127e-01
     vertex  2.500000e+00  0.000000e+00  0.000000e+00
   endloop
 endfacet
 facet normal -1.000000e+00  0.000000e+00  2.563950e-16
   outer loop
     vertex  1.750000e+00  1.000000e+00 -4.330127e-01
     vertex  1.750000e+00  0.000000e+00  4.330127e-01
     vertex  1.750000e+00  1.000000e+00  4.330127e-01
   endloop
 endfacet
 facet normal -1.000000e+00  0.000000e+00  2.563950e-16
   outer loop
     vertex  1.750000e+00  1.000000e+00 -4.330127e-01
     vertex  1.750000e+00  0.000000e+00 -4.330127e-01
     vertex  1.750000e+00  0.000000e+00  4.330127e-01
   endloop
 endfacet
 facet normal  5.000000e-01  0.000000e+00 -8.660254e-01
   outer loop
     vertex  2.500000e+00  1.000000e+00  0.000000e+00
     vertex  1.750000e+00  0.000000e+00 -4.330127e-01
     vertex  1.750000e+00  1.000000e+00 -4.330127e-01
   endloop
 endfacet
 facet normal  5.000000e-01  0.000000e+00 -8.660254e-01
   outer loop
     vertex  2.500000e+00  1.000000e+00  0.000000e+00
     vertex  2.500000e+00  0.000000e+00  0.000000e+00
     vertex  1.750000e+00  0.000000e+00 -4.330127e-01
   endloop
 endfacet
 facet normal  0.000000e+00  1.000000e+00  0.000000e+00
   outer loop
     vertex  2.500000e+00  1.000000e+00  0.000000e+00
     vertex  1.750000e+00  1.000000e+00 -4.330127e-01
     vertex  1.750000e+00  1.000000e+00  4.330127e-01
   endloop
 endfacet
 facet normal -0.000000e+00 -1.000000e+00  0.000000e+00
   outer loop
     vertex  2.500000e+00  0.000000e+00  0.000000e+00
     vertex  1.750000e+00  0.000000e+00  4.330127e-01
     vertex  1.750000e+00  0.000000e+00 -4.330127e-01
   endloop
 endfacet
endsolid
