solid 
 facet normal -1.000000e+00  0.000000e+00 -0.000000e+00
   outer loop
     vertex  0.000000e+00  0.000000e+00  1.000000e+00
     vertex  0.000000e+00  0.000000e+00  0.000000e+00
     vertex  0.000000e+00 -1.000000e+00  0.000000e+00
   endloop
 endfacet
 facet normal -1.000000e+00 -0.000000e+00  0.000000e+00
   outer loop
     vertex  0.000000e+00  0.000000e+00  1.000000e+00
     vertex  0.000000e+00 -1.000000e+00  0.000000e+00
     vertex  0.000000e+00 -1.000000e+00  1.000000e+00
   endloop
 endfacet
 facet normal -8.944272e-01  0.000000e+00  4.472136e-01
   outer loop
     vertex  5.000000e-01  0.000000e+00  2.000000e+00
     vertex  0.000000e+00  0.000000e+00  1.000000e+00
     vertex  0.000000e+00 -1.000000e+00  1.000000e+00
   endloop
 endfacet
 facet normal -8.944272e-01  0.000000e+00  4.472136e-01
   outer loop
     vertex  5.000000e-01  0.000000e+00  2.000000e+00
     vertex  0.000000e+00 -1.000000e+00  1.000000e+00
     vertex  5.000000e-01 -1.000000e+00  2.000000e+00
   endloop
 endfacet
 facet normal  9.701425e-01  0.000000e+00 -2.425356e-01
   outer loop
     vertex  0.000000e+00  0.000000e+00  0.000000e+00
     vertex  5.000000e-01  0.000000e+00  2.000000e+00
     vertex  5.000000e-01 -1.000000e+00  2.000000e+00
   endloop
 endfacet
 facet normal  9.701425e-01  0.000000e+00 -2.425356e-01
   outer loop
     vertex  0.000000e+00  0.000000e+00  0.000000e+00
     vertex  5.000000e-01 -1.000000e+00  2.000000e+00
     vertex  0.000000e+00 -1.000000e+00  0.000000e+00
   endloop
 endfacet
 facet normal  0.000000e+00  1.000000e+00  0.000000e+00
   outer loop
     vertex  5.000000e-01  0.000000e+00  2.000000e+00
     vertex  0.000000e+00  0.000000e+00  0.000000e+00
     vertex  0.000000e+00  0.000000e+00  1.000000e+00
   endloop
 endfacet
 facet normal  0.000000e+00 -1.000000e+00  0.000000e+00
   outer loop
     vertex  5.000000e-01 -1.000000e+00  2.000000e+00
     vertex  0.000000e+00 -1.000000e+00  1.000000e+00
     vertex  0.000000e+00 -1.000000e+00  0.000000e+00
   endloop
 endfacet
endsolid
