solid 
 facet normal  1.077075e-16  9.701425e-01  2.425356e-01
   outer loop
     vertex  5.551115e-17  5.000000e-01  2.000000e+00
     vertex  1.000000e+00  1.000000e+00  0.000000e+00
     vertex  1.110223e-16  1.000000e+00  0.000000e+00
   endloop
 endfacet
 facet normal  1.077075e-16  9.701425e-01  2.425356e-01
   outer loop
     vertex  5.551115e-17  5.000000e-01  2.000000e+00
     vertex  1.000000e+00  5.000000e-01  2.000000e+00
     vertex  1.000000e+00  1.000000e+00  0.000000e+00
   endloop
 endfacet
 facet normal  1.110223e-16  1.000000e+00  0.000000e+00
   outer loop
     vertex  1.110223e-16  1.000000e+00  0.000000e+00
     vertex  1.000000e+00  1.000000e+00  0.000000e+00
     vertex  1.000000e+00  1.000000e+00 -4.000000e+00
   endloop
 endfacet
 facet normal  1.110223e-16  1.000000e+00  0.000000e+00
   outer loop
     vertex  1.110223e-16  1.000000e+00  0.000000e+00
     vertex  1.000000e+00  1.000000e+00 -4.000000e+00
     vertex  1.110223e-16  1.000000e+00 -4.000000e+00
   endloop
 endfacet
 facet normal -1.077075e-16 -9.701425e-01  2.425356e-01
   outer loop
     vertex  0.000000e+00  0.000000e+00  0.000000e+00
     vertex  1.000000e+00  5.000000e-01  2.000000e+00
     vertex  5.551115e-17  5.000000e-01  2.000000e+00
   endloop
 endfacet
 facet normal -1.077075e-16 -9.701425e-01  2.425356e-01
   outer loop
     vertex  0.000000e+00  0.000000e+00  0.000000e+00
     vertex  1.000000e+00 -1.110223e-16  0.000000e+00
     vertex  1.000000e+00  5.000000e-01  2.000000e+00
   endloop
 endfacet
 facet normal -1.000000e+00  1.110223e-16  0.000000e+00
   outer loop
     vertex  1.110223e-16  1.000000e+00  0.000000e+00
     vertex  0.000000e+00  0.000000e+00  0.000000e+00
     vertex  5.551115e-17  5.000000e-01  2.000000e+00
   endloop
 endfacet
 facet normal -1.000000e+00  1.110223e-16  0.000000e+00
   outer loop
     vertex  1.110223e-16  1.000000e+00 -4.000000e+00
     vertex  0.000000e+00  0.000000e+00 -4.000000e+00
     vertex  0.000000e+00  0.000000e+00  0.000000e+00
   endloop
 endfacet
 facet normal -1.000000e+00  1.110223e-16  0.000000e+00
   outer loop
     vertex  1.110223e-16  1.000000e+00 -4.000000e+00
     vertex  0.000000e+00  0.000000e+00  0.000000e+00
     vertex  1.110223e-16  1.000000e+00  0.000000e+00
   endloop
 endfacet
 facet normal  1.000000e+00  0.000000e+00  0.000000e+00
   outer loop
     vertex  1.000000e+00  1.000000e+00  0.000000e+00
     vertex  1.000000e+00  5.000000e-01  2.000000e+00
     vertex  1.000000e+00 -1.110223e-16  0.000000e+00
   endloop
 endfacet
 facet normal  1.000000e+00  0.000000e+00  0.000000e+00
   outer loop
     vertex  1.000000e+00  1.000000e+00 -4.000000e+00
     vertex  1.000000e+00 -1.110223e-16  0.000000e+00
     vertex  1.000000e+00 -1.110223e-16 -4.000000e+00
   endloop
 endfacet
 facet normal  1.000000e+00  0.000000e+00 -0.000000e+00
   outer loop
     vertex  1.000000e+00  1.000000e+00 -4.000000e+00
     vertex  1.000000e+00  1.000000e+00  0.000000e+00
     vertex  1.000000e+00 -1.110223e-16  0.000000e+00
   endloop
 endfacet
 facet normal  0.000000e+00  0.000000e+00 -1.000000e+00
   outer loop
     vertex  1.110223e-16  1.000000e+00 -4.000000e+00
     vertex  1.000000e+00  1.000000e+00 -4.000000e+00
     vertex  1.000000e+00 -1.110223e-16 -4.000000e+00
   endloop
 endfacet
 facet normal  0.000000e+00 -0.000000e+00 -1.000000e+00
   outer loop
     vertex  1.110223e-16  1.000000e+00 -4.000000e+00
     vertex  1.000000e+00 -1.110223e-16 -4.000000e+00
     vertex  0.000000e+00  0.000000e+00 -4.000000e+00
   endloop
 endfacet
 facet normal -1.110223e-16 -1.000000e+00  0.000000e+00
   outer loop
     vertex  1.000000e+00 -1.110223e-16  0.000000e+00
     vertex  0.000000e+00  0.000000e+00  0.000000e+00
     vertex  0.000000e+00  0.000000e+00 -4.000000e+00
   endloop
 endfacet
 facet normal -1.110223e-16 -1.000000e+00 -0.000000e+00
   outer loop
     vertex  1.000000e+00 -1.110223e-16  0.000000e+00
     vertex  0.000000e+00  0.000000e+00 -4.000000e+00
     vertex  1.000000e+00 -1.110223e-16 -4.000000e+00
   endloop
 endfacet
endsolid
